<svg width="1920" height="1080" version="1.1" viewBox="0 0 508 285.75" xmlns="http://www.w3.org/2000/svg" xmlns:xlink="http://www.w3.org/1999/xlink">
 <defs>
  <linearGradient id="linearGradient31902">
   <stop stop-color="#d3dde3" offset="0"/>
   <stop stop-color="#dee7ed" offset="1"/>
  </linearGradient>
  <linearGradient id="linearGradient29521">
   <stop stop-color="#e7ecef" offset="0"/>
   <stop stop-color="#fefefe" offset="1"/>
  </linearGradient>
  <linearGradient id="linearGradient26536">
   <stop stop-color="#e7e9ee" offset="0"/>
   <stop stop-color="#fefefe" offset="1"/>
  </linearGradient>
  <linearGradient id="linearGradient20015">
   <stop stop-color="#e7edee" offset="0"/>
   <stop stop-color="#fefefe" offset="1"/>
  </linearGradient>
  <linearGradient id="linearGradient58624">
   <stop stop-color="#a8c2d9" offset="0"/>
   <stop stop-color="#39afdd" offset="1"/>
  </linearGradient>
  <linearGradient id="linearGradient52281">
   <stop stop-color="#000000" offset="0"/>
   <stop stop-color="#000000" stop-opacity="0" offset="1"/>
  </linearGradient>
  <linearGradient id="linearGradient51936">
   <stop stop-color="#1e92ff" offset="0"/>
   <stop stop-color="#1a3289" offset="1"/>
  </linearGradient>
  <linearGradient id="linearGradient51795">
   <stop stop-color="#173b78" offset="0"/>
   <stop stop-color="#031227" offset="1"/>
  </linearGradient>
  <linearGradient id="linearGradient42881">
   <stop stop-color="#213562" offset="0"/>
   <stop stop-color="#131620" offset="1"/>
  </linearGradient>
  <linearGradient id="linearGradient18919">
   <stop stop-color="#1e92ff" offset="0"/>
   <stop stop-color="#042fd6" offset="1"/>
  </linearGradient>
  <linearGradient id="linearGradient138265" x1="10.583" x2="225.69" y1="-184.68" y2="-184.68" gradientUnits="userSpaceOnUse">
   <stop stop-color="#ffffff" stop-opacity="0" offset="0"/>
   <stop stop-color="#000000" offset="1"/>
  </linearGradient>
  <linearGradient id="linearGradient7029">
   <stop stop-color="#a8c2d9" offset="0"/>
   <stop stop-color="#7eaac7" offset="1"/>
  </linearGradient>
  <linearGradient id="linearGradient467" x1="10.583" x2="225.69" y1="-184.68" y2="-184.68" gradientTransform="matrix(3.7795 0 0 3.7795 515 1560)" gradientUnits="userSpaceOnUse" xlink:href="#linearGradient879"/>
  <linearGradient id="linearGradient879" x1="10.583" x2="225.69" y1="-184.68" y2="-184.68" gradientUnits="userSpaceOnUse">
   <stop stop-color="#fafbfb" offset="0"/>
   <stop stop-color="#fafbfb" stop-opacity="0" offset="1"/>
  </linearGradient>
  <linearGradient id="linearGradient7031" x1="107.54" x2="107.54" y1="-143.51" y2="-392.96" gradientTransform="matrix(.99999 0 0 .99999 136.26 412.75)" gradientUnits="userSpaceOnUse" xlink:href="#linearGradient7029"/>
  <linearGradient id="linearGradient137800" x1="-42.527" x2="-42.527" y1="-126.91" y2="-241.21" gradientTransform="matrix(.99999 0 0 .99999 136.26 412.75)" gradientUnits="userSpaceOnUse" xlink:href="#linearGradient31902"/>
  <linearGradient id="linearGradient138617" x1="116.32" x2="137.58" y1="-184.68" y2="-184.68" gradientTransform="matrix(3.7795 0 0 3.7795 515 1560)" gradientUnits="userSpaceOnUse" xlink:href="#linearGradient138265"/>
  <filter id="filter138797" x="-.20313" y="-.57351" width="1.4063" height="2.147" color-interpolation-filters="sRGB">
   <feGaussianBlur stdDeviation="162.49902"/>
  </filter>
  <clipPath id="clipPath138823">
   <rect x=".006057" y=".00036358" width="1920" height="1080" rx="0" ry="0" fill="url(#linearGradient138827)" stroke-linecap="round" stroke-linejoin="round" stroke-width="1.3704" style="paint-order:stroke fill markers"/>
  </clipPath>
  <linearGradient id="linearGradient138827" x1="-111.09" x2="351.75" y1="-175.54" y2="-382.2" gradientTransform="matrix(3.7795 0 0 3.7795 515 1560)" gradientUnits="userSpaceOnUse" xlink:href="#linearGradient7029"/>
  <linearGradient id="linearGradient4565" x1="224.77" x2="224.77" y1="264.91" y2="18.051" gradientTransform="translate(508)" gradientUnits="userSpaceOnUse">
   <stop stop-color="#43cee5" offset="0"/>
   <stop stop-color="#2770ce" offset="1"/>
  </linearGradient>
  <radialGradient id="radialGradient8415" cx="1956.8" cy="289.73" r="254" gradientTransform="matrix(1.3584 0 0 .87796 -693.85 -62.519)" gradientUnits="userSpaceOnUse">
   <stop stop-color="#153770" offset="0"/>
   <stop stop-color="#070e18" offset="1"/>
  </radialGradient>
  <linearGradient id="linearGradient18921" x1="1899.4" x2="2001.8" y1="225.1" y2="246.01" gradientUnits="userSpaceOnUse" xlink:href="#linearGradient18919"/>
  <linearGradient id="linearGradient32243" x1="1968.3" x2="2062.5" y1="226.68" y2="210.32" gradientUnits="userSpaceOnUse" xlink:href="#linearGradient18919"/>
  <linearGradient id="linearGradient32367" x1="1968.3" x2="2103.7" y1="226.68" y2="213.42" gradientTransform="matrix(1.2729 0 0 1.2729 -484.57 -80.677)" gradientUnits="userSpaceOnUse" xlink:href="#linearGradient51936"/>
  <linearGradient id="linearGradient32369" x1="1899.4" x2="2001.8" y1="225.1" y2="246.01" gradientTransform="matrix(1.2729 0 0 1.2729 -484.57 -80.677)" gradientUnits="userSpaceOnUse" xlink:href="#linearGradient18919"/>
  <linearGradient id="linearGradient32577" x1="1898.1" x2="1956.4" y1="200.28" y2="344.61" gradientTransform="scale(3.7795)" gradientUnits="userSpaceOnUse" xlink:href="#linearGradient18919"/>
  <linearGradient id="linearGradient32733" x1="1829.6" x2="1827.5" y1="204.02" y2="309.61" gradientTransform="scale(3.7795)" gradientUnits="userSpaceOnUse" xlink:href="#linearGradient18919"/>
  <linearGradient id="linearGradient41046" x1="2022.2" x2="1996.3" y1="147.25" y2="269.24" gradientTransform="translate(-290.93 49.22)" gradientUnits="userSpaceOnUse" xlink:href="#linearGradient18919"/>
  <linearGradient id="linearGradient42031" x1="2074.4" x2="2052.4" y1="173.17" y2="198.61" gradientTransform="translate(-290.93 49.22)" gradientUnits="userSpaceOnUse">
   <stop stop-color="#1e92ff" offset="0"/>
   <stop stop-color="#0d2eb3" offset="1"/>
  </linearGradient>
  <linearGradient id="linearGradient42883" x1="1811.9" x2="1792.8" y1="246.01" y2="302.91" gradientUnits="userSpaceOnUse" xlink:href="#linearGradient42881"/>
  <linearGradient id="linearGradient42929" x1="1941.4" x2="1972.4" y1="269.53" y2="296.24" gradientUnits="userSpaceOnUse" xlink:href="#linearGradient42881"/>
  <linearGradient id="linearGradient52082" x1="1937.5" x2="2124.5" y1="205.03" y2="205.03" gradientTransform="scale(3.7795)" gradientUnits="userSpaceOnUse">
   <stop stop-color="#ffffff" offset="0"/>
   <stop stop-color="#ffffff" stop-opacity="0" offset="1"/>
  </linearGradient>
  <filter id="filter52105" x="-.10667" y="-.10936" width="1.2133" height="1.2187" color-interpolation-filters="sRGB">
   <feGaussianBlur stdDeviation="18.984067"/>
  </filter>
  <clipPath id="clipPath52131">
   <path d="m7544.2 275.65 115.17 843.19 1265.6 17.507z" fill="url(#linearGradient52135)"/>
  </clipPath>
  <linearGradient id="linearGradient52135" x1="1968.3" x2="2103.7" y1="226.68" y2="213.42" gradientTransform="matrix(4.8111 0 0 4.8111 -1831.5 -304.92)" gradientUnits="userSpaceOnUse" xlink:href="#linearGradient51936"/>
  <linearGradient id="linearGradient52180" x1="2012.5" x2="1991.1" y1="183.75" y2="127.59" gradientUnits="userSpaceOnUse" xlink:href="#linearGradient52281"/>
  <linearGradient id="linearGradient52283" x1="1958.7" x2="1928.5" y1="258.61" y2="170.95" gradientUnits="userSpaceOnUse" xlink:href="#linearGradient52281"/>
  <filter id="filter53159" x="-.12537" y="-.17765" width="1.2507" height="1.3553" color-interpolation-filters="sRGB">
   <feGaussianBlur stdDeviation="9.1084903"/>
  </filter>
  <clipPath id="clipPath53248">
   <path d="m1743.9 195.69-88.403 82.304 8.2771 37.261 172.41 29.303z" fill="url(#linearGradient41046)"/>
  </clipPath>
  <linearGradient id="linearGradient53418" x1="1957.5" x2="1937.2" y1="197.17" y2="199.09" gradientUnits="userSpaceOnUse" xlink:href="#linearGradient52281"/>
  <filter id="filter53837" x="-.14523" y="-.14882" width="1.2905" height="1.2976" color-interpolation-filters="sRGB">
   <feGaussianBlur stdDeviation="28.586966"/>
  </filter>
  <clipPath id="clipPath53925">
   <rect x="1687.2" y="7.2816" width="508" height="285.75" fill="url(#radialGradient53929)" stroke-linecap="round" stroke-linejoin="round" stroke-opacity=".08" stroke-width=".20473" style="paint-order:stroke markers fill"/>
  </clipPath>
  <radialGradient id="radialGradient53929" cx="1969.2" cy="333.27" r="254" gradientTransform="matrix(1.48 0 0 1.1121 -931.71 -137.4)" gradientUnits="userSpaceOnUse" xlink:href="#linearGradient51795"/>
  <radialGradient id="radialGradient54374" cx="1969.2" cy="333.27" r="254" gradientTransform="matrix(1.48 0 0 1.1121 -2618.9 141.06)" gradientUnits="userSpaceOnUse">
   <stop stop-color="#c0d2e3" offset="0"/>
   <stop stop-color="#8bb3d0" offset="1"/>
  </radialGradient>
  <linearGradient id="linearGradient54378" x1="1995.3" x2="1991.1" y1="194.31" y2="127.59" gradientUnits="userSpaceOnUse" xlink:href="#linearGradient52281"/>
  <linearGradient id="linearGradient54384" x1="2074.4" x2="2052.4" y1="173.17" y2="198.61" gradientTransform="translate(-290.93 49.22)" gradientUnits="userSpaceOnUse" xlink:href="#linearGradient18919"/>
  <linearGradient id="linearGradient54404" x1="1957.7" x2="1937.2" y1="198.45" y2="199.09" gradientUnits="userSpaceOnUse" xlink:href="#linearGradient52281"/>
  <clipPath id="clipPath55262">
   <rect x="1687.2" y="7.2816" width="508" height="285.75" fill="url(#radialGradient55266)" stroke-linecap="round" stroke-linejoin="round" stroke-opacity=".08" stroke-width=".20473" style="paint-order:stroke markers fill"/>
  </clipPath>
  <radialGradient id="radialGradient55266" cx="1969.2" cy="333.27" r="254" gradientTransform="matrix(1.48 0 0 1.1121 -931.71 -137.4)" gradientUnits="userSpaceOnUse" xlink:href="#linearGradient7029"/>
  <filter id="filter55270" x="-.21499" y="-.49621" width="1.43" height="1.9924" color-interpolation-filters="sRGB">
   <feGaussianBlur stdDeviation="171.99036"/>
  </filter>
  <linearGradient id="linearGradient55298" x1="808.88" x2="808.88" y1="1476.2" y2="2362.1" gradientUnits="userSpaceOnUse">
   <stop stop-color="#ffffff" offset="0"/>
   <stop stop-color="#ffffff" stop-opacity=".5" offset="1"/>
  </linearGradient>
  <linearGradient id="linearGradient55748" x1="-42.527" x2="-42.527" y1="-126.91" y2="-241.21" gradientTransform="matrix(.99999 0 0 .99999 136.26 412.75)" gradientUnits="userSpaceOnUse">
   <stop stop-color="#e6e6e6" stop-opacity=".8" offset="0"/>
   <stop stop-color="#ffffff" stop-opacity=".72" offset="1"/>
  </linearGradient>
  <linearGradient id="linearGradient55750" x1="10.583" x2="225.69" y1="-184.68" y2="-184.68" gradientTransform="matrix(3.7795 0 0 3.7795 4355 1560)" gradientUnits="userSpaceOnUse" xlink:href="#linearGradient879"/>
  <linearGradient id="linearGradient55752" x1="116.32" x2="137.58" y1="-184.68" y2="-184.68" gradientTransform="matrix(3.7795 0 0 3.7795 4355 1560)" gradientUnits="userSpaceOnUse" xlink:href="#linearGradient138265"/>
  <radialGradient id="radialGradient55773" cx="254.22" cy="287.43" r="254" gradientTransform="matrix(1.8756 0 0 1.1133 -222.61 -84.734)" gradientUnits="userSpaceOnUse" xlink:href="#linearGradient51795"/>
  <radialGradient id="radialGradient56126" cx="1938.1" cy="342.14" r="254" gradientTransform="matrix(2.0225 0 0 1.3162 -3162.4 71.223)" gradientUnits="userSpaceOnUse" xlink:href="#linearGradient58624"/>
  <linearGradient id="linearGradient56148" x1="1968.3" x2="2103.7" y1="226.68" y2="213.42" gradientTransform="matrix(1.2729 0 0 1.2729 -484.57 -80.677)" gradientUnits="userSpaceOnUse">
   <stop stop-color="#1e92ff" offset="0"/>
   <stop stop-color="#2254c9" offset="1"/>
  </linearGradient>
  <linearGradient id="linearGradient1297" x1="246.08" x2="246.08" y1="740.96" y2="398.84" gradientTransform="translate(-1016)" gradientUnits="userSpaceOnUse">
   <stop stop-color="#ffffff" offset="0"/>
   <stop stop-color="#ffffff" stop-opacity="0" offset="1"/>
  </linearGradient>
  <filter id="filter1240" x="-.20809" y="-.5373" width="1.4162" height="2.0746" color-interpolation-filters="sRGB">
   <feGaussianBlur stdDeviation="231.33838"/>
  </filter>
  <clipPath id="clipPath1246">
   <rect x="1687.2" y="7.2816" width="508" height="285.75" fill="url(#radialGradient1250)" stroke-linecap="round" stroke-linejoin="round" stroke-opacity=".08" stroke-width=".20473" style="paint-order:stroke markers fill"/>
  </clipPath>
  <radialGradient id="radialGradient1250" cx="1938.1" cy="342.14" r="254" gradientTransform="matrix(2.0225 0 0 1.3162 -1983.2 -207.25)" gradientUnits="userSpaceOnUse" xlink:href="#linearGradient58624"/>
  <filter id="filter1500" x="-.21499" y="-.49621" width="1.43" height="1.9924" color-interpolation-filters="sRGB">
   <feGaussianBlur stdDeviation="171.99036"/>
  </filter>
  <linearGradient id="linearGradient11729" x1="94.347" x2="94.347" y1="288.38" y2="165.81" gradientTransform="translate(508)" gradientUnits="userSpaceOnUse">
   <stop stop-color="#bcd2dd" offset="0"/>
   <stop stop-color="#c5e1ef" offset="1"/>
  </linearGradient>
  <linearGradient id="linearGradient15800" x1="309.14" x2="309.14" y1="295.82" y2="94.919" gradientTransform="translate(508)" gradientUnits="userSpaceOnUse">
   <stop stop-color="#afc4cf" offset="0"/>
   <stop stop-color="#d8e2e8" offset="1"/>
  </linearGradient>
  <linearGradient id="linearGradient19140" x1="306.85" x2="306.85" y1="290.15" y2="110.15" gradientUnits="userSpaceOnUse">
   <stop stop-color="#b4b9cb" offset="0"/>
   <stop stop-color="#c9cdd9" stop-opacity=".99608" offset="1"/>
  </linearGradient>
  <linearGradient id="linearGradient19545" x1="116.32" x2="137.58" y1="-184.68" y2="-184.68" gradientTransform="matrix(3.7795 0 0 3.7795 2435 1560)" gradientUnits="userSpaceOnUse" xlink:href="#linearGradient138265"/>
  <linearGradient id="linearGradient19643" x1="146.84" x2="361.95" y1="228.07" y2="228.07" gradientTransform="matrix(3.7795 0 0 3.7795 1920 0)" gradientUnits="userSpaceOnUse" xlink:href="#linearGradient879"/>
  <linearGradient id="linearGradient20017" x1="703.45" x2="703.45" y1="285.84" y2="183.95" gradientUnits="userSpaceOnUse" xlink:href="#linearGradient20015"/>
  <linearGradient id="linearGradient25713" x1="893.91" x2="893.91" y1="275.02" y2="111.22" gradientUnits="userSpaceOnUse" xlink:href="#linearGradient20015"/>
  <linearGradient id="linearGradient26254" x1="193.83" x2="193.83" y1="280.85" y2="175.23" gradientUnits="userSpaceOnUse" xlink:href="#linearGradient26536"/>
  <linearGradient id="linearGradient26544" x1="396.93" x2="396.93" y1="281.45" y2="110.76" gradientUnits="userSpaceOnUse" xlink:href="#linearGradient26536"/>
  <linearGradient id="linearGradient26798" x1="193.86" x2="193.86" y1="291.79" y2="186.43" gradientUnits="userSpaceOnUse" xlink:href="#linearGradient29521"/>
  <linearGradient id="linearGradient26825" x1="404.06" x2="404.06" y1="295.43" y2="134.27" gradientUnits="userSpaceOnUse" xlink:href="#linearGradient29521"/>
  <linearGradient id="linearGradient35903" x1="313.04" x2="313.04" y1="277.53" y2="130.68" gradientUnits="userSpaceOnUse" xlink:href="#linearGradient31902"/>
 </defs>
 <g id="Fluent-mountain-morning">
  <rect x=".0016026" y="9.6198e-5" width="508" height="285.75" rx="0" ry="0" fill="url(#linearGradient7031)" stroke-linecap="round" stroke-linejoin="round" stroke-width=".3626" style="paint-order:stroke fill markers"/>
  <path transform="scale(.26458)" d="m1195 399.98 0.0098 0.02929-0.0039-0.00195-160 170v43.336l-149.13 161.55-206.87-130.91-678.99 436h1035v0.0059h884.98l-0.0078-0.0059-724.98-680.01z" clip-path="url(#clipPath138823)" fill="#ffffff" filter="url(#filter138797)" opacity=".5" stroke-width="3.7795"/>
  <path d="m189.18 254 127-137.58 105.83 137.58z" fill="#02193b" stroke-width=".99999"/>
  <path d="m0.0015971 285.75 179.65-115.36 182.3 115.36z" fill="url(#linearGradient137800)" stroke-width=".99999"/>
  <path d="m146.84 285.75 32.808-115.36 182.3 115.36z" fill="url(#linearGradient26798)" stroke-width=".99999"/>
  <path d="m316.17 105.84-42.333 44.978v134.93h234.15z" fill="url(#linearGradient35903)" stroke-width=".26458"/>
  <path d="m369.09 285.75-52.917-179.92 191.82 179.92z" fill="url(#linearGradient26825)" stroke-width=".99999"/>
  <path transform="scale(.26458)" d="m1035.5 869.61v210.39h332.48l-332.48-210.39z" fill="url(#linearGradient467)"/>
  <path transform="scale(.26458)" d="m871.2 765.62v314.38h163.79v-210.73l-163.79-103.65z" fill="url(#linearGradient138617)" opacity=".15"/>
 </g>
 <g id="Fluent-mountain-day">
  <rect x="508" y="9.6198e-5" width="508" height="285.75" rx="0" ry="0" fill="url(#linearGradient4565)" stroke-linecap="round" stroke-linejoin="round" stroke-width=".3626" style="paint-order:stroke fill markers"/>
  <path d="m697.18 254 127-137.58 105.83 137.58z" fill="#000000" opacity=".75" stroke-width=".99999"/>
  <path transform="matrix(.26458 0 0 .26458 508 0)" d="m1195 399.98 0.01 0.0293v-2e-3l-160 170v43.336l-149.13 161.55-206.87-130.91-678.99 436h1035v0.01h884.98l-0.01-0.01z" clip-path="url(#clipPath138823)" fill="#001e7a" filter="url(#filter138797)" opacity=".35" stroke-width="3.7795"/>
  <path d="m508 285.75 179.65-115.36 182.3 115.36z" fill="url(#linearGradient11729)" stroke-width=".99999"/>
  <path d="m654.84 285.75 32.808-115.36 182.3 115.36z" fill="url(#linearGradient20017)" stroke-width=".99999"/>
  <path d="m824.17 105.84-42.333 44.978v134.93h234.15z" fill="url(#linearGradient15800)" stroke-width=".26458"/>
  <path d="m877.09 285.75-52.917-179.92 191.82 179.92z" fill="url(#linearGradient25713)" stroke-width=".99999"/>
  <path transform="scale(.26458)" d="m2724.6 723.45v356.55h230.44v-210.73l-230.44-145.82z" fill="url(#linearGradient19545)" opacity=".15"/>
  <path transform="scale(.26458)" d="m2954.1 868.74v211.26h333.84l-333.84-211.26z" fill="url(#linearGradient19643)"/>
 </g>
 <g id="Fluent-building-night" transform="translate(-671.19 278.46)">
  <rect x="1687.2" y="7.2816" width="508" height="285.75" fill="url(#radialGradient8415)" stroke-linecap="round" stroke-linejoin="round" stroke-opacity=".08" stroke-width=".20473" style="paint-order:stroke markers fill"/>
  <g clip-path="url(#clipPath53925)">
   <path d="m1996.1 72.931-62.786 218.72 278.61-0.11889z" fill="url(#linearGradient32369)"/>
   <path d="m1996.1 72.931-62.786 218.72 278.61-0.11889z" fill="url(#linearGradient52180)" opacity=".45"/>
   <path d="m1937.5 113.82-75.908 179.54 250.09 1.6634z" fill="url(#linearGradient18921)"/>
   <path d="m1937.5 113.82-75.908 179.54 250.09 1.6634z" fill="url(#linearGradient52283)" opacity=".35"/>
   <path d="m1743.9 195.69-56.671 97.337-23.455 22.227 211.09 8.0083z" fill="url(#linearGradient42031)"/>
   <path d="m1825.6 223.28-123.13 118.82 174.37 4.23z" fill="url(#linearGradient42883)"/>
   <path transform="scale(.26458)" d="m6989.7 656.5-194.85 225.74 97.621 234.45 320.84 10.158z" fill="url(#linearGradient32733)"/>
   <path d="m1879.8 209.49 51.236 123.05 102.08-1.0711z" fill="url(#linearGradient42929)"/>
   <path transform="scale(.26458)" d="m6989.7 656.5-194.85 225.74 97.621 234.45 320.84 10.158z" fill="#000000" opacity=".1"/>
   <path transform="scale(.26458)" d="m6989.7 656.5 193.65 465.08 219.48-2.3027-83.49-200.51z" fill="url(#linearGradient32577)"/>
   <path d="m1937.5 113.82 34.907 182.42 152.11-7e-3z" fill="url(#linearGradient32243)"/>
   <path transform="scale(.26458)" d="m7557.3 658.82 58.423 461.03 414-0.2332z" fill="#000000" filter="url(#filter53837)" opacity=".2"/>
   <path d="m1996.1 72.931 30.472 223.09 334.86 4.632z" fill="url(#linearGradient32367)"/>
   <path d="m1743.9 195.69-88.403 82.304 8.2771 37.261 172.41 29.303z" fill="url(#linearGradient41046)"/>
   <path transform="scale(.26458)" d="m7602.6 703.01 56.799 415.83 57.615 0.7969 312.7-0.014z" clip-path="url(#clipPath52131)" fill="url(#linearGradient52082)" filter="url(#filter52105)" opacity=".35"/>
   <path d="m1825.6 223.28-123.13 118.82 174.37 4.23z" clip-path="url(#clipPath53248)" fill="url(#linearGradient42883)" filter="url(#filter53159)" opacity=".35"/>
   <path d="m1937.5 113.82-75.908 179.54 110.81 2.8813z" fill="url(#linearGradient53418)" opacity=".15"/>
  </g>
 </g>
 <g id="Fluent-building-morning">
  <rect x=".0015953" y="285.75" width="508" height="285.75" fill="url(#radialGradient54374)" stroke-linecap="round" stroke-linejoin="round" stroke-opacity=".08" stroke-width=".20473" style="paint-order:stroke markers fill"/>
  <g transform="translate(-1687.2 278.47)" clip-path="url(#clipPath55262)">
   <path transform="matrix(.26458 0 0 .26458 1687.2 -278.47)" d="m1167.4 1328.1-83.072 289.4-138.27-134.87-155.46 367.7-177.69-141.37-194.85 225.74 39.195 94.135h2e-3l54.594 131.12h509.28l-51.387-123.41 97.088 77.246 8.834 46.166h844.38v-362.7zm-953.18 463.99-214.18 199.4v168.46h442.23l-72.049-116.22 51.404-49.608z" fill="#ffffff" filter="url(#filter55270)" opacity=".35" style="mix-blend-mode:normal"/>
   <path transform="matrix(.26458 0 0 .26458 1687.2 -278.47)" d="m1167.4 1328.1-83.072 289.4-138.27-134.87-155.46 367.7-177.69-141.37-194.85 225.74 39.195 94.135h2e-3l54.594 131.12h509.28l-51.387-123.41 97.088 77.246 8.834 46.166h844.38v-362.7zm-953.18 463.99-214.18 199.4v168.46h442.23l-72.049-116.22 51.404-49.608z" fill="#ffffff" filter="url(#filter1500)" opacity=".5" style="mix-blend-mode:normal"/>
   <path d="m1996.1 72.931-62.786 218.72 278.61-0.11889z" fill="url(#linearGradient32369)"/>
   <path d="m1996.1 72.931-62.786 218.72 278.61-0.11889z" fill="url(#linearGradient54378)" opacity=".35"/>
   <path d="m1937.5 113.82-75.908 179.54 250.09 1.6634z" fill="url(#linearGradient18921)"/>
   <path d="m1937.5 113.82-75.908 179.54 250.09 1.6634z" fill="url(#linearGradient52283)" opacity=".35"/>
   <path d="m1743.9 195.69-56.671 97.337-23.455 22.227 211.09 8.0083z" fill="url(#linearGradient54384)"/>
   <path d="m1825.6 223.28-123.13 118.82 174.37 4.23z" fill="url(#linearGradient42883)"/>
   <path transform="scale(.26458)" d="m6989.7 656.5-194.85 225.74 97.621 234.45 320.84 10.158z" fill="url(#linearGradient32733)"/>
   <path d="m1879.8 209.49 51.236 123.05 102.08-1.0711z" fill="url(#linearGradient42929)"/>
   <path transform="scale(.26458)" d="m6989.7 656.5-194.85 225.74 97.621 234.45 320.84 10.158z" fill="#000000" opacity=".1"/>
   <path transform="scale(.26458)" d="m6989.7 656.5 193.65 465.08 219.48-2.3027-83.49-200.51z" fill="url(#linearGradient32577)"/>
   <path d="m1937.5 113.82 34.907 182.42 152.11-7e-3z" fill="url(#linearGradient32243)"/>
   <path transform="scale(.26458)" d="m7557.3 658.82 58.423 461.03 414-0.2332z" fill="#000000" filter="url(#filter53837)" opacity=".15"/>
   <path d="m1996.1 72.931 30.472 223.09 334.86 4.632z" fill="url(#linearGradient32367)"/>
   <path d="m1743.9 195.69-88.403 82.304 8.2771 37.261 172.41 29.303z" fill="url(#linearGradient41046)"/>
   <path transform="scale(.26458)" d="m7602.6 703.01 56.799 415.83 57.615 0.7969 312.7-0.014z" clip-path="url(#clipPath52131)" fill="url(#linearGradient52082)" filter="url(#filter52105)" opacity=".35"/>
   <path d="m1825.6 223.28-123.13 118.82 174.37 4.23z" clip-path="url(#clipPath53248)" fill="url(#linearGradient42883)" filter="url(#filter53159)" opacity=".35"/>
   <path d="m1937.5 113.82-75.908 179.54 110.81 2.8813z" fill="url(#linearGradient54404)" opacity=".1"/>
   <path transform="matrix(.26458 0 0 .26458 1687.2 -278.47)" d="m1167.4 1328.1-83.072 289.4-138.27-134.87-155.46 367.7-177.69-141.37-194.85 225.74 39.195 94.135h2e-3l54.594 131.12h509.28l-51.387-123.41 97.088 77.246 8.834 46.166h844.38v-362.7zm-953.18 463.99-214.18 199.4v168.46h442.23l-72.049-116.22 51.404-49.608z" fill="url(#linearGradient55298)" style="mix-blend-mode:soft-light"/>
  </g>
 </g>
 <g id="Fluent-mountain-night" transform="translate(1016)">
  <rect x=".0016026" y="9.6198e-5" width="508" height="285.75" rx="0" ry="0" fill="url(#radialGradient55773)" stroke-linecap="round" stroke-linejoin="round" stroke-width=".3626" style="paint-order:stroke fill markers"/>
  <path transform="scale(.26458)" d="m1195 399.98 0.01 0.0293v-2e-3l-160 170v43.336l-149.13 161.55-206.87-130.91-678.99 436h1035v0.01h884.98l-0.01-0.01z" clip-path="url(#clipPath138823)" fill="#002cb8" filter="url(#filter138797)" opacity=".35" stroke-width="3.7795"/>
  <path d="m189.18 254 127-137.58 105.83 137.58z" fill="#000000" opacity=".78" stroke-width=".99999"/>
  <path d="m0.0015971 285.75 179.65-115.36 182.3 115.36z" fill="url(#linearGradient55748)" stroke-width=".99999"/>
  <path d="m146.84 285.75 32.808-115.36 182.3 115.36z" fill="url(#linearGradient26254)" stroke-width=".99999"/>
  <path d="m316.17 105.84-42.333 44.978v134.93h234.15z" fill="url(#linearGradient19140)" stroke-width=".26458"/>
  <path d="m369.09 285.75-52.917-179.92 191.82 179.92z" fill="url(#linearGradient26544)" stroke-width=".99999"/>
  <path transform="matrix(.26458 0 0 .26458 -1016 0)" d="m4874.9 869.19v210.81h333.13l-333.13-210.81z" fill="url(#linearGradient55750)"/>
  <path transform="matrix(.26458 0 0 .26458 -1016 0)" d="m4622.1 709.26v370.74h252.86v-210.73l-252.86-160.01z" fill="url(#linearGradient55752)" opacity=".2"/>
 </g>
 <g id="Fluent-building-day">
  <rect x="508" y="285.75" width="508" height="285.75" fill="url(#radialGradient56126)" stroke-linecap="round" stroke-linejoin="round" stroke-opacity=".08" stroke-width=".20473" style="paint-order:stroke markers fill"/>
  <g transform="translate(-1179.2 278.47)" clip-path="url(#clipPath1246)">
   <path transform="matrix(.26458 0 0 .26458 1179.2 -278.47)" d="m3087.4 1328.1-83.072 289.4-138.27-134.87-155.46 367.7-177.69-141.37-194.85 225.74 18.674 44.85-15.107 14.58-207.4-202.04-334.12 311.07 31.283 140.83 213.69 36.318-67.496 65.133 659.03 15.988-36.76-88.285 29.359 1.1133-48.613-47.356-22.432-53.873 198.37 6.2812-2.6406-5.5547 192.16-2.0156-0.414-0.9941 52.367 1.3613 262.14-0.0117 1208.1 16.709-1380.8-860.7z" fill="#ffffff" filter="url(#filter1240)" opacity=".35"/>
   <path transform="matrix(.26458 0 0 .26458 1687.2 -278.47)" d="m1167.4 1328.1-83.072 289.4-138.27-134.87-155.46 367.7-177.69-141.37-194.85 225.74 39.195 94.135h2e-3l54.594 131.12h509.28l-51.387-123.41 97.088 77.246 8.834 46.166h844.38v-362.7zm-953.18 463.99-214.18 199.4v168.46h442.23l-72.049-116.22 51.404-49.608z" fill="#ffffff" filter="url(#filter55270)" opacity=".35" style="mix-blend-mode:normal"/>
   <path d="m1996.1 72.931-62.786 218.72 278.61-0.11889z" fill="url(#linearGradient32369)"/>
   <path d="m1996.1 72.931-62.786 218.72 278.61-0.11889z" fill="url(#linearGradient54378)" opacity=".35"/>
   <path d="m1937.5 113.82-75.908 179.54 250.09 1.6634z" fill="url(#linearGradient18921)"/>
   <path d="m1937.5 113.82-75.908 179.54 250.09 1.6634z" fill="url(#linearGradient52283)" opacity=".35"/>
   <path d="m1743.9 195.69-56.671 97.337-23.455 22.227 211.09 8.0083z" fill="url(#linearGradient54384)"/>
   <path d="m1825.6 223.28-123.13 118.82 174.37 4.23z" fill="url(#linearGradient42883)"/>
   <path transform="scale(.26458)" d="m6989.7 656.5-194.85 225.74 97.621 234.45 320.84 10.158z" fill="url(#linearGradient32733)"/>
   <path d="m1879.8 209.49 51.236 123.05 102.08-1.0711z" fill="url(#linearGradient42929)"/>
   <path transform="scale(.26458)" d="m6989.7 656.5-194.85 225.74 97.621 234.45 320.84 10.158z" fill="#000000" opacity=".1"/>
   <path transform="scale(.26458)" d="m6989.7 656.5 193.65 465.08 219.48-2.3027-83.49-200.51z" fill="url(#linearGradient32577)"/>
   <path d="m1937.5 113.82 34.907 182.42 152.11-7e-3z" fill="url(#linearGradient32243)"/>
   <path transform="scale(.26458)" d="m7557.3 658.82 58.423 461.03 414-0.2332z" fill="#000000" filter="url(#filter53837)" opacity=".15"/>
   <path d="m1996.1 72.931 30.472 223.09 334.86 4.632z" fill="url(#linearGradient56148)"/>
   <path d="m1743.9 195.69-88.403 82.304 8.2771 37.261 172.41 29.303z" fill="url(#linearGradient41046)"/>
   <path transform="scale(.26458)" d="m7602.6 703.01 56.799 415.83 57.615 0.7969 312.7-0.014z" clip-path="url(#clipPath52131)" fill="url(#linearGradient52082)" filter="url(#filter52105)" opacity=".35"/>
   <path d="m1825.6 223.28-123.13 118.82 174.37 4.23z" clip-path="url(#clipPath53248)" fill="url(#linearGradient42883)" filter="url(#filter53159)" opacity=".35"/>
   <path d="m1937.5 113.82-75.908 179.54 110.81 2.8813z" fill="url(#linearGradient54404)" opacity=".1"/>
  </g>
  <rect transform="scale(-1,1)" x="-1016" y="285.75" width="508" height="285.75" fill="url(#linearGradient1297)" stroke-linecap="round" stroke-linejoin="round" stroke-opacity=".08" stroke-width=".20473" style="mix-blend-mode:soft-light;paint-order:stroke markers fill"/>
 </g>
</svg>
