<svg xmlns="http://www.w3.org/2000/svg" width="24" height="24"><path fill="#383838" d="M12 3a9 9 0 0 0-9 9 9 9 0 0 0 9 9 9 9 0 0 0 9-9 9 9 0 0 0-9-9zm-1.555 2.668c.76-.018 1.078.161 1.52.45a3.169 3.169 0 0 1 1.324 1.96c.177.81.124 1.44-.088 1.889v.035c-.424.917-1.13 1.656-2.119 2.016l.848 2.248c.159.413.3.844.175 1.24-.123.395-.69.521-1.095.09-.777-.846-3.39-6.17-3.584-6.565-.194-.396-.406-.72-.406-1.115.017-.594.917-1.204 1.359-1.51.441-.306 1.307-.72 2.066-.738zm-.693 1.639c-.55.015-.249 1.183-.137 1.51.124.36.46 1.114.83 1.492.089.09.178.161.283.18.106.017.318-.091.407-.235a.667.667 0 0 0 .105-.395 2.26 2.302 0 0 0-.035-.863c-.159-.557-.494-1.097-.935-1.457-.089-.072-.195-.163-.319-.199a.583.583 0 0 0-.2-.033zm5.975 1.36c.083-.002.164.003.232.017a1.53 1.597 0 0 1 .832.425c.204.196.22.41.152.676-.068.266-.305.834-.492 1.242l-.476.94c-.918 1.703-1.105 1.882-1.36 1.775-.306-.124-.203-1.828.086-3.904.085-.568.22-.852.373-.994.115-.107.402-.174.653-.178zm-1.045 6c.398.006.568.447.472.788-.036.146-.127.276-.273.358s-.495.081-.695-.065-.237-.391-.182-.586a.706.706 0 0 1 .678-.496zm-6.024 1.8h7.045c.375 0 .678.267.678.6s-.303.6-.678.6H8.658c-.375 0-.677-.268-.677-.6 0-.333.302-.6.677-.6z"/></svg>