<svg xmlns="http://www.w3.org/2000/svg" width="24" height="24" style="display:inline;enable-background:new" version="1.0"><g style="display:inline"><path d="M14.65 281.888c.621-.773 1.042-1.824.926-2.888-.894.037-2.008.621-2.654 1.372-.57.666-1.077 1.754-.945 2.78 1.003.075 2.031-.508 2.673-1.264zm2.263 6.688c-.022-2.277 1.863-3.382 1.948-3.435-1.066-1.555-2.719-1.766-3.302-1.785-1.389-.142-2.733.834-3.442.834-.72 0-1.81-.818-2.983-.794-1.511.022-2.927.898-3.702 2.253-1.596 2.77-.406 6.84 1.126 9.074.768 1.1 1.662 2.324 2.835 2.276 1.147-.044 1.575-.729 2.961-.729 1.372 0 1.774.729 2.971.705 1.232-.02 2.007-1.102 2.748-2.206.882-1.26 1.239-2.495 1.253-2.56-.028-.01-2.388-.908-2.413-3.633z" style="display:inline;fill:#383838;fill-opacity:1;fill-rule:evenodd;stroke-width:.20028363;enable-background:new" transform="translate(0 -276)"/></g></svg>