<svg xmlns="http://www.w3.org/2000/svg" width="24" height="24" style="display:inline;enable-background:new" version="1.0"><g style="display:inline"><path d="M11.999 279c-.802 1.964-1.284 3.25-2.177 5.155.546.58 1.218 1.254 2.309 2.02-1.172-.483-1.973-.968-2.57-1.472C8.419 287.086 6.63 290.478 3 297c2.853-1.645 5.066-2.661 7.126-3.048a5.223 5.223 0 0 1-.134-1.222l.002-.092c.047-1.828.997-3.233 2.124-3.137 1.127.095 2 1.656 1.956 3.482a5.16 5.159 0 0 1-.115.982c2.039.4 4.226 1.411 7.041 3.035-.555-1.02-1.05-1.94-1.524-2.819-.744-.578-1.522-1.328-3.106-2.142 1.088.282 1.87.61 2.476.975C14.038 284.061 13.65 282.871 12 279z" style="fill:#383838;fill-rule:evenodd;stroke-width:3.77960205;fill-opacity:1" transform="translate(0 -276)"/></g></svg>