<svg xmlns="http://www.w3.org/2000/svg" width="24" height="24" style="display:inline;enable-background:new" version="1.0"><g style="display:inline"><path d="M17.734 279c-3.554 0-4.22 5.4-2.221 5.4 1.998 0 5.776-5.4 2.221-5.4zm-5.642.612c-2.032.287-1.318 4.116-.234 4.188 1.08.07 2.269-4.473.234-4.188zm-3.677 1.19a1.246 1.246 0 0 0-.334.086c-1.903.723-.29 3.703.778 3.503.999-.189 1.114-3.74-.442-3.586zm-2.5 2.399a1.01 1.01 0 0 0-.551.157c-1.565.923.527 3.15 1.445 2.806.808-.304.294-2.93-.895-2.965zm7.296 1.8c-2.8-.05-6.495 1.42-7.124 4.371-.683 3.195 2.808 7.628 6.452 7.628 1.792 0 3.858-1.694 4.245-3.84.296-1.634-3.716-.977-3.58.103.11.884-.353 1.343-.99 1.36-.872-.106-1.297-.61-1.414-1.371-.155-1.994 6.13-3.418 5.633-6.512-.182-1.133-1.54-1.709-3.222-1.739z" style="fill:#383838;fill-opacity:1;stroke-width:3.77960181" transform="translate(0 -276)"/></g></svg>