<svg xmlns="http://www.w3.org/2000/svg" id="svg1293" version="1.1" viewBox="0 0 48 48"><style id="style1281" type="text/css">.st1{fill:#202020}</style><path id="path1285" d="M24 4.2c-7 .6-5.2 8-5.3 10.5-.1 1.8-.7 3.5-1.8 5-1.9 2.2-3.5 4.7-4.5 7.5-.5 1.4-.6 2.8-.4 4.3l-.2.2c-.4.5-.8 1-1.1 1.4-.4.3-.8.5-1.3.7-.6.2-1.1.6-1.4 1.1-.2.3-.2.7-.2 1 0 .3 0 .6.1.9.1.3.1.8 0 1.4-.4.8-.5 1.7-.2 2.5.3.6.9.9 1.6 1 1.4.3 3.2.2 4.6 1 1.3.8 2.9 1 4.4.8.9-.2 1.6-.8 2-1.6 1 0 2-.4 3.8-.5 1.2-.1 2.6.4 4.3.3 0 .2.1.4.2.5.6 1.2 1.8 1.9 3.1 1.8 1.5-.2 2.8-1 3.8-2.2 1-1.3 2.8-1.8 4-2.5.6-.3 1-.8 1.1-1.4-.2-1-.6-1.8-1.3-2.5-.3-.5-.5-1-.5-1.5-.1-.7-.4-1.3-.8-1.7-.1-.1-.2-.2-.3-.2l-.3-.1c.6-2 .5-4.2-.3-6.1-.9-2.1-2.1-4.1-3.6-5.8-1.3-1.7-2.6-3.3-2.6-5.6 0-3.6.4-10.2-5.9-10.2h-1zm1.8 5.3c.4 0 .7.1 1 .3.3.2.6.5.7.9.1.4.2.9.2 1.3s-.1.9-.2 1.3c-.1.2-.2.4-.4.6l-.1-.1-.5-.2-.3-.1c.1-.1.2-.2.3-.4.1-.2.1-.5.1-.7 0-.2 0-.5-.1-.7s-.2-.4-.3-.5-.3-.2-.4-.2c-.2 0-.3.1-.4.2-.2.1-.3.3-.4.5s-.1.5-.1.7v.4c-.3-.2-.7-.3-1-.4v-.3c0-.4 0-.9.2-1.3.1-.4.4-.7.7-.9.3-.2.6-.4 1-.4zm-5.155.4h.054c.2 0 .501.1.701.3.3.2.5.5.6.8s.2.7.2 1.1c.1.1.1.2.1.3h-.1c-.2.1-.5.2-.7.3v-.4c0-.2-.1-.4-.1-.6-.1-.1-.2-.3-.3-.4s-.2-.1-.3-.1-.2.1-.3.2-.2.3-.2.4v.6c0 .2.1.4.1.6.1.1.2.3.3.4l-.3.2-.2.2c-.2-.2-.4-.4-.5-.7-.1-.3-.2-.7-.3-1.1 0-.4 0-.7.1-1.1.1-.3.2-.5.5-.7.188-.188.375-.288.645-.3zM23 12.7c.7.1 1.4.4 2 .8.6.3 1.2.5 1.8.7.3.1.6.3.8.6.1.2.1.5-.1.6-.4.7-1 1.2-1.8 1.4-.4.2-.9.5-1.3.8-.5.3-1.1.4-1.7.4-.2 0-.5-.1-.7-.2s-.3-.2-.5-.3c-.3-.3-.6-.6-1-.8-.5-.2-.9-.7-1.1-1.2-.1-.3 0-.7.3-.9l.8-.6.3-.2c.4-.4.9-.8 1.4-1 .3-.1.5-.1.8-.1zm4.6 3c.7 2.6 1.7 5.1 2.9 7.4.9 1.6 1.5 3.3 1.8 5 .3 0 .6 0 .8.1 1.1-2.8-.9-5.8-1.8-6.6-.4-.4-.4-.5-.2-.5 1.4 1.3 2.3 2.9 2.8 4.7.2.9.2 1.9 0 2.8l.3.1c1.9 1.2 2.6 1.9 2.2 2.9h-.3c.3-.8-.299-1.4-1.799-2-1.5-.6-2.7-.6-3 .8v.2l-.3.1c-.7.4-1.202 1.2-1.302 2-.2 1-.298 2.1-.298 3.1-.1.8-.3 1.5-.5 2.3-2.5 1.8-6 2.5-8.9.5-.2-.3-.4-.6-.7-.9l-.5-.6c.3 0 .499 0 .799-.2.2-.1.4-.3.5-.6.1-.7-.1-1.5-.6-2-.8-1-1.9-1.9-3-2.5-.9-.5-1.6-1.3-1.9-2.3-.2-.9-.2-1.8 0-2.8.5-1.6 1.2-3.2 2.1-4.6.2-.1.1.3-.7 1.6-.8 1.3-1.899 4.1-.199 6.4.1-1.7.4-3.3 1.1-4.8.9-2.1 2.9-5.8 3.1-8.8l.5.3c.4.2.7.5 1 .8.4.3.9.5 1.4.5h.1c.6 0 1.198-.2 1.698-.5.4-.3.802-.5 1.202-.7.7-.2 1.299-.6 1.699-1.2zM13.2 31.1h.3c.7.2 1.3.6 1.7 1.3l1.5 2.799c.6 1 1.3 1.901 2 2.701s1.2 1.7 1.3 2.7c0 1.1-.8 1.999-1.9 2.099-1.4.2-2.8-.099-4-.799-1.6-.9-3.499-.8-4.799-1-.5 0-.9-.301-1.2-.701-.2-.7-.1-1.4.2-2 .1-.6.1-1.299 0-1.899-.1-.5-.1-1.101.1-1.601.2-.4.6-.699 1.1-.899.6-.1 1.1-.4 1.5-.8s.7-1 1.1-1.4c.3-.3.599-.5 1.099-.5zm18.102.3h.1c0 1 .6 1.9 1.5 2.2 1.1.1 2.3-.4 3-1.3h.4c.5-.1.998.099 1.398.399.3.4.602.9.602 1.4.1.6.299 1.201.699 1.801.5.4.9.999 1 1.799 0 .4-.3.7-.8 1-1.1.7-2.9 1.201-4.1 2.701-.8 1.1-2 1.8-3.4 2-1.1.1-2.2-.5-2.7-1.5-.3-.9-.3-1.9.1-2.8.3-1 .6-2.1.8-3.2 0-1 .1-2 .3-2.9.1-.7.5-1.3 1.1-1.6z" class="st1" style="fill:#383838;fill-opacity:1"/><path id="path1287" d="M25.3 16.1c-.7.5-1.6.8-2.5.8-.8 0-1.5-.3-2.1-.8-.2-.2-.4-.3-.6-.5-.3-.2-.2-.5-.1-.5s.2.3.3.4.4.3.6.5c.5.5 1.2.7 1.9.8.8-.1 1.6-.4 2.3-.8.4-.2.7-.5 1.1-.8.3-.3.3-.4.5-.4s.1.3-.2.5c-.4.3-.8.6-1.2.8z" class="st1"/><path id="path1289" d="M23.5 13.4c0 .1.2.1.3.1s.1.1.2.1.2 0 .2-.1-.1-.2-.3-.2c-.1 0-.2 0-.4.1z" class="st1"/><path id="path1291" d="M22.6 13.4c0 .1-.2.1-.3.1s-.1.1-.2.1-.2 0-.2-.1.1-.2.2-.2.3 0 .5.1c-.1 0 0 0 0 0z" class="st1"/></svg>