<svg xmlns="http://www.w3.org/2000/svg" width="24" height="24" style="display:inline;enable-background:new" version="1.0"><g style="display:inline"><path d="M12.005 279c-4.969 0-8.992 4.026-9 8.996h-.002v6.964h.002A2.045 2.045 0 0 0 5.049 297h6.957a8.994 8.994 0 0 0 8.992-8.996 8.996 8.996 0 0 0-9-8.996zm1.829 3.704c1.51 0 2.937 1.157 2.937 2.753 0 .148 0 .296-.023.464a.751.751 0 0 1-.853.67.751.751 0 0 1-.63-.882c.006-.048.009-.123.009-.252 0-.905-.74-1.255-1.44-1.255s-1.331.589-1.332 1.255c.012.77 0 1.534 0 2.303l1.299-.01c1.014-.022 1.026 1.506.012 1.499l-1.311.01c-.003.619.005.507.002.819 0 0 .01.757-.012 1.331-.157 1.687-1.593 3.034-3.318 3.034-1.83 0-3.336-1.494-3.336-3.328.055-1.885 1.559-3.368 3.453-3.35l1.056-.01v1.497l-1.056.01h-.006c-1.04.03-1.933.737-1.95 1.852 0 1.015.82 1.828 1.84 1.828 1.016 0 1.83-.74 1.83-1.827l-.001-5.667c0-.105.004-.189.015-.305.172-1.386 1.412-2.442 2.816-2.442z" style="fill:#383838;fill-opacity:1;stroke-width:3.77960205" transform="translate(0 -276)"/></g></svg>