<?xml version="1.0" encoding="UTF-8" standalone="no"?>
<svg
   width="400"
   height="120"
   version="1.1"
   viewBox="0 0 400 120"
   id="svg316"
   sodipodi:docname="assets.svg"
   inkscape:version="1.2.1 (9c6d41e410, 2022-07-14, custom)"
   xmlns:inkscape="http://www.inkscape.org/namespaces/inkscape"
   xmlns:sodipodi="http://sodipodi.sourceforge.net/DTD/sodipodi-0.dtd"
   xmlns:xlink="http://www.w3.org/1999/xlink"
   xmlns="http://www.w3.org/2000/svg"
   xmlns:svg="http://www.w3.org/2000/svg">
  <sodipodi:namedview
     id="namedview318"
     pagecolor="#ffffff"
     bordercolor="#666666"
     borderopacity="1.0"
     inkscape:pageshadow="2"
     inkscape:pageopacity="0.0"
     inkscape:pagecheckerboard="0"
     showgrid="false"
     inkscape:zoom="0.82125001"
     inkscape:cx="379.29984"
     inkscape:cy="-80.974124"
     inkscape:window-width="1368"
     inkscape:window-height="702"
     inkscape:window-x="0"
     inkscape:window-y="32"
     inkscape:window-maximized="1"
     inkscape:current-layer="layer1"
     showguides="true"
     inkscape:guide-bbox="true"
     inkscape:showpageshadow="2"
     inkscape:deskcolor="#d1d1d1">
    <inkscape:grid
       type="xygrid"
       id="grid1036" />
  </sodipodi:namedview>
  <defs
     id="colors">
    <linearGradient
       id="border"
       x1="41"
       x2="41"
       y1="6"
       y2="26"
       gradientTransform="translate(-48)"
       gradientUnits="userSpaceOnUse">
      <stop
         stop-opacity=".0578"
         offset=".50021"
         id="stop83" />
      <stop
         stop-opacity=".1622"
         offset=".95454"
         id="stop85" />
    </linearGradient>
    <linearGradient
       id="border-dark"
       x1="41"
       x2="41"
       y1="6"
       y2="26"
       gradientTransform="translate(-48)"
       gradientUnits="userSpaceOnUse">
      <stop
         stop-color="#fbfbfb"
         stop-opacity=".122"
         offset=".50021"
         id="stop2" />
      <stop
         stop-color="#ffffff"
         stop-opacity=".078"
         offset=".95454"
         id="stop4" />
    </linearGradient>
    <linearGradient
       id="color-on-primary-dark"
       x1="6.2124"
       x2="29.25"
       y1="11.894"
       y2="11.894"
       gradientTransform="scale(1.1453,0.87314)"
       gradientUnits="userSpaceOnUse">
      <stop
         stop-color="#FFFFFF"
         offset="1"
         id="stop7" />
    </linearGradient>
    <linearGradient
       id="color-on-primary-light"
       x1="6.2124"
       x2="29.25"
       y1="11.894"
       y2="11.894"
       gradientTransform="scale(1.1453,0.87314)"
       gradientUnits="userSpaceOnUse">
      <stop
         stop-color="#000000"
         stop-opacity=".87"
         offset="1"
         id="stop10" />
    </linearGradient>
    <linearGradient
       id="color-text-secondary-disabled">
      <stop
         stop-color="#000000"
         stop-opacity=".26"
         offset="1"
         id="stop13" />
    </linearGradient>
    <linearGradient
       id="color-text-secondary-disabled-dark">
      <stop
         stop-color="#FFFFFF"
         stop-opacity=".3"
         offset="1"
         id="stop16" />
    </linearGradient>
    <linearGradient
       id="color-primary-dark">
      <stop
         stop-color="#009688"
         offset="1"
         id="stop19" />
    </linearGradient>
    <linearGradient
       id="color-primary-light">
      <stop
         stop-color="#4DB6AC"
         offset="1"
         id="stop22" />
    </linearGradient>
    <linearGradient
       id="color-background">
      <stop
         stop-color="#F2F2F2"
         offset="1"
         id="stop25" />
    </linearGradient>
    <linearGradient
       id="color-background-dark">
      <stop
         stop-color="#212121"
         offset="1"
         id="stop28" />
    </linearGradient>
    <linearGradient
       id="color-surface"
       x2="40"
       gradientUnits="userSpaceOnUse">
      <stop
         stop-color="#FFFFFF"
         offset="1"
         id="stop31" />
    </linearGradient>
    <linearGradient
       id="color-surface-dark"
       x2="40"
       gradientUnits="userSpaceOnUse">
      <stop
         stop-color="#3C3C3C"
         offset="1"
         id="stop34" />
    </linearGradient>
  </defs>
  <g
     inkscape:groupmode="layer"
     id="layer2"
     inkscape:label="background"
     sodipodi:insensitive="true">
    <rect
       width="200"
       height="573.4054"
       id="rect109"
       style="fill:url(#color-background)"
       x="0"
       y="-93.405396" />
    <rect
       x="200"
       width="200"
       height="573.4054"
       id="rect107"
       style="fill:url(#color-background-dark)"
       y="-93.405396" />
  </g>
  <g
     inkscape:groupmode="layer"
     id="layer1"
     inkscape:label="assets"
     style="display:inline">
    <g
       id="linked-entry-firstchild-disabled">
      <path
         id="path1149"
         style="opacity:0.04;fill:#000000;paint-order:stroke fill markers"
         d="m 18,320 c -2.216,0 -4,1.784 -4,4 v 24 c 0,2.216 1.784,4 4,4 h 46 v -1 H 18 c -1.662,0 -3,-1.338 -3,-3 v -24 c 0,-1.662 1.338,-3 3,-3 h 46 v -1 z" />
    </g>
    <g
       id="selected-line">
      <rect
         x="115"
         y="82"
         width="3"
         height="16"
         rx="1.5"
         ry="1.5"
         id="rect111"
         style="fill:url(#color-primary-dark)" />
    </g>
    <g
       id="selectionmode-checkbox-unchecked"
       transform="translate(8,72)">
      <rect
         width="40"
         height="40"
         fill="none"
         id="rect5120"
         x="0"
         y="0" />
      <rect
         x="2"
         y="2"
         width="36"
         height="36"
         rx="4"
         id="rect5122"
         style="fill:url(#color-surface)" />
    </g>
    <g
       id="selectionmode-checkbox-checked"
       transform="translate(56,72)">
      <rect
         width="40"
         height="40"
         fill="none"
         id="rect5136"
         x="0"
         y="0" />
      <rect
         x="2"
         y="2"
         width="36"
         height="36"
         rx="4"
         id="rect5138"
         style="fill:url(#color-primary-dark)" />
      <path
         d="M 15.5,26.255 9.245,20 7.115,22.115 15.5,30.5 l 18,-18 -2.115,-2.115 z"
         id="path5063"
         style="fill:url(#color-on-primary-dark)" />
    </g>
    <g
       id="selectionmode-checkbox-unchecked-dark"
       transform="translate(208,72)">
      <rect
         width="40"
         height="40"
         fill="none"
         id="rect5128"
         x="0"
         y="0" />
      <rect
         x="2"
         y="2"
         width="36"
         height="36"
         rx="4"
         id="rect5130"
         style="fill:url(#color-surface-dark)" />
    </g>
    <g
       id="selectionmode-checkbox-checked-dark"
       transform="translate(256,72)">
      <rect
         width="40"
         height="40"
         fill="none"
         id="rect5142"
         x="0"
         y="0" />
      <rect
         x="2"
         y="2"
         width="36"
         height="36"
         rx="4"
         id="rect5144"
         style="fill:url(#color-primary-light)" />
      <path
         d="M 15.5,26.255 9.245,20 7.115,22.115 15.5,30.5 l 18,-18 -2.115,-2.115 z"
         id="path5116"
         style="fill:url(#color-on-primary-light)" />
    </g>
    <g
       transform="translate(202)"
       id="selected-line-dark">
      <rect
         x="115"
         y="82"
         width="3"
         height="16"
         rx="1.5"
         ry="1.5"
         id="rect194"
         style="fill:url(#color-primary-light)" />
    </g>
    <g
       id="scale-slider"
       transform="matrix(1.04,0,0,1.04,111,21.8)">
      <rect
         x="-25"
         y="5"
         width="25"
         height="25"
         rx="0"
         ry="0"
         fill="none"
         stroke-linecap="round"
         stroke-linejoin="round"
         stroke-opacity="0.9971"
         stroke-width="2"
         id="rect198" />
      <g
         transform="translate(-5.5,1.5)"
         id="g206">
        <path
           d="m -7,5.4230769 c -5.841484,0 -10.576923,4.7354391 -10.576923,10.5769231 0,5.841484 4.735439,10.576923 10.576923,10.576923 C -1.1585165,26.576923 3.5769231,21.841484 3.5769231,16 3.5769231,10.158516 -1.1585165,5.4230769 -7,5.4230769 Z"
           id="path5605"
           style="fill:url(#color-surface);stroke:url(#border);stroke-width:2" />
        <path
           d="m -7,5.4230769 c -5.841484,0 -10.576923,4.7354391 -10.576923,10.5769231 0,5.841484 4.735439,10.576923 10.576923,10.576923 C -1.1585165,26.576923 3.5769231,21.841484 3.5769231,16 3.5769231,10.158516 -1.1585165,5.4230769 -7,5.4230769 Z"
           id="path202"
           style="fill:url(#color-surface)" />
        <path
           d="m -12.769231,16 c 0,-3.18625 2.582981,-5.769231 5.769231,-5.769231 3.18625,0 5.7692308,2.582981 5.7692308,5.769231 0,3.18625 -2.5829808,5.769231 -5.7692308,5.769231 -3.18625,0 -5.769231,-2.582981 -5.769231,-5.769231 z"
           id="path204"
           style="fill:url(#color-primary-dark)" />
      </g>
    </g>
    <g
       id="scale-slider-dark"
       transform="matrix(1.04,0,0,1.04,326,21.8)">
      <rect
         x="-25"
         y="5"
         width="25"
         height="25"
         rx="0"
         ry="0"
         fill="none"
         stroke-linecap="round"
         stroke-linejoin="round"
         stroke-opacity="0.9971"
         stroke-width="2"
         id="rect209" />
      <g
         transform="translate(-5.5,1.5)"
         id="g217">
        <path
           d="m -7,5.4230769 c -5.841484,0 -10.576923,4.7354391 -10.576923,10.5769231 0,5.841484 4.735439,10.576923 10.576923,10.576923 C -1.1585165,26.576923 3.5769231,21.841484 3.5769231,16 3.5769231,10.158516 -1.1585165,5.4230769 -7,5.4230769 Z"
           id="path6335"
           style="fill:url(#color-surface-dark);stroke:url(#border-dark);stroke-width:2" />
        <path
           d="m -7,5.4230769 c -5.841484,0 -10.576923,4.7354391 -10.576923,10.5769231 0,5.841484 4.735439,10.576923 10.576923,10.576923 C -1.1585165,26.576923 3.5769231,21.841484 3.5769231,16 3.5769231,10.158516 -1.1585165,5.4230769 -7,5.4230769 Z"
           id="path213"
           style="fill:url(#color-surface-dark)" />
        <path
           d="m -12.769231,16 c 0,-3.18625 2.582981,-5.769231 5.769231,-5.769231 3.18625,0 5.7692308,2.582981 5.7692308,5.769231 0,3.18625 -2.5829808,5.769231 -5.7692308,5.769231 -3.18625,0 -5.769231,-2.582981 -5.769231,-5.769231 z"
           id="path215"
           style="fill:url(#color-primary-light)" />
      </g>
    </g>
    <g
       id="scale-slider-hover"
       transform="matrix(1.04,0,0,1.04,76,21.8)">
      <rect
         x="-25"
         y="5"
         width="25"
         height="25"
         rx="0"
         ry="0"
         fill="none"
         stroke-linecap="round"
         stroke-linejoin="round"
         stroke-opacity="0.9971"
         stroke-width="2"
         id="rect220" />
      <g
         transform="translate(-5.5,1.5)"
         id="g228">
        <path
           d="m -7,5.4230769 c -5.841484,0 -10.576923,4.7354391 -10.576923,10.5769231 0,5.841484 4.735439,10.576923 10.576923,10.576923 C -1.1585165,26.576923 3.5769231,21.841484 3.5769231,16 3.5769231,10.158516 -1.1585165,5.4230769 -7,5.4230769 Z"
           id="path5591"
           style="fill:url(#color-surface);stroke:url(#border);stroke-width:2" />
        <path
           d="m -7,5.4230769 c -5.841484,0 -10.576923,4.7354391 -10.576923,10.5769231 0,5.841484 4.735439,10.576923 10.576923,10.576923 C -1.1585165,26.576923 3.5769231,21.841484 3.5769231,16 3.5769231,10.158516 -1.1585165,5.4230769 -7,5.4230769 Z"
           id="path224"
           style="fill:url(#color-surface)" />
        <path
           d="m -13.730769,16 c 0,-3.717308 3.013461,-6.7307692 6.730769,-6.7307692 3.7173077,0 6.73076923,3.0134612 6.73076923,6.7307692 0,3.717308 -3.01346153,6.730769 -6.73076923,6.730769 -3.717308,0 -6.730769,-3.013461 -6.730769,-6.730769 z"
           id="path226"
           style="fill:url(#color-primary-dark)" />
      </g>
    </g>
    <g
       id="scale-slider-hover-dark"
       transform="matrix(1.04,0,0,1.04,286,21.8)">
      <rect
         x="-25"
         y="5"
         width="25"
         height="25"
         rx="0"
         ry="0"
         fill="none"
         stroke-linecap="round"
         stroke-linejoin="round"
         stroke-opacity="0.9971"
         stroke-width="2"
         id="rect231" />
      <g
         transform="translate(-5.5,1.5)"
         id="g239">
        <path
           d="m -7,5.4230769 c -5.841484,0 -10.576923,4.7354391 -10.576923,10.5769231 0,5.841484 4.735439,10.576923 10.576923,10.576923 C -1.1585165,26.576923 3.5769231,21.841484 3.5769231,16 3.5769231,10.158516 -1.1585165,5.4230769 -7,5.4230769 Z"
           id="path6325"
           style="fill:url(#color-surface-dark);stroke:url(#border-dark);stroke-width:2" />
        <path
           d="m -7,5.4230769 c -5.841484,0 -10.576923,4.7354391 -10.576923,10.5769231 0,5.841484 4.735439,10.576923 10.576923,10.576923 C -1.1585165,26.576923 3.5769231,21.841484 3.5769231,16 3.5769231,10.158516 -1.1585165,5.4230769 -7,5.4230769 Z"
           id="path235"
           style="fill:url(#color-surface-dark)" />
        <path
           d="m -13.730769,16 c 0,-3.717308 3.013461,-6.7307692 6.730769,-6.7307692 3.7173077,0 6.73076923,3.0134612 6.73076923,6.7307692 0,3.717308 -3.01346153,6.730769 -6.73076923,6.730769 -3.717308,0 -6.730769,-3.013461 -6.730769,-6.730769 z"
           id="path237"
           style="fill:url(#color-primary-light)" />
      </g>
    </g>
    <g
       id="scale-slider-active"
       transform="translate(40,22)">
      <rect
         x="-25"
         y="5"
         width="26"
         height="26"
         rx="0"
         ry="0"
         id="rect242"
         fill="none" />
      <g
         transform="translate(-5.5,1.5)"
         id="g250">
        <path
           d="m -6.5,5.5 c -6.075143,0 -11,4.924857 -11,11 0,6.075143 4.924857,11 11,11 6.07514286,0 11,-4.924857 11,-11 0,-6.075143 -4.92485714,-11 -11,-11 z"
           id="path244"
           style="fill:url(#color-surface);fill-opacity:1;stroke:url(#border);stroke-width:2" />
        <path
           d="m -6.5,5.5 c -6.075143,0 -11,4.924857 -11,11 0,6.075143 4.924857,11 11,11 6.07514286,0 11,-4.924857 11,-11 0,-6.075143 -4.92485714,-11 -11,-11 z"
           id="path246"
           style="fill:url(#color-surface)" />
        <path
           d="m -11.5,16.5 c 0,-2.7614 2.2386,-5 5,-5 2.7614,0 5,2.2386 5,5 0,2.7614 -2.2386,5 -5,5 -2.7614,0 -5,-2.2386 -5,-5 z"
           id="path248"
           style="fill:url(#color-primary-dark)" />
      </g>
    </g>
    <g
       id="scale-slider-active-dark"
       transform="matrix(1.04,0,0,1.04,246,21.8)">
      <rect
         x="-25"
         y="5"
         width="25"
         height="25"
         rx="0"
         ry="0"
         fill="none"
         stroke-linecap="round"
         stroke-linejoin="round"
         stroke-opacity="0.9971"
         stroke-width="2"
         id="rect253" />
      <g
         transform="translate(-5.5,1.5)"
         id="g261">
        <path
           d="m -7,5.4230769 c -5.841484,0 -10.576923,4.7354391 -10.576923,10.5769231 0,5.841484 4.735439,10.576923 10.576923,10.576923 C -1.1585165,26.576923 3.5769231,21.841484 3.5769231,16 3.5769231,10.158516 -1.1585165,5.4230769 -7,5.4230769 Z"
           id="path6315"
           style="fill:url(#color-surface-dark);stroke:url(#border-dark);stroke-width:2" />
        <path
           d="m -7,5.4230769 c -5.841484,0 -10.576923,4.7354391 -10.576923,10.5769231 0,5.841484 4.735439,10.576923 10.576923,10.576923 C -1.1585165,26.576923 3.5769231,21.841484 3.5769231,16 3.5769231,10.158516 -1.1585165,5.4230769 -7,5.4230769 Z"
           id="path257"
           style="fill:url(#color-surface-dark)" />
        <path
           d="m -11.807692,16 c 0,-2.655192 2.1524997,-4.807692 4.807692,-4.807692 2.6551923,0 4.8076923,2.1525 4.8076923,4.807692 0,2.655192 -2.1525,4.807692 -4.8076923,4.807692 -2.6551923,0 -4.807692,-2.1525 -4.807692,-4.807692 z"
           id="path259"
           style="fill:url(#color-primary-light)" />
      </g>
    </g>
    <g
       id="scale-slider-disabled"
       transform="matrix(1.04,0,0,1.04,146,21.8)">
      <rect
         x="-25"
         y="5"
         width="25"
         height="25"
         rx="0"
         ry="0"
         fill="none"
         stroke-linecap="round"
         stroke-linejoin="round"
         stroke-opacity="0.9971"
         stroke-width="2"
         id="rect264" />
      <g
         transform="translate(-5.5,1.5)"
         id="g272">
        <path
           d="m -7,5.4230769 c -5.841484,0 -10.576923,4.7354391 -10.576923,10.5769231 0,5.841484 4.735439,10.576923 10.576923,10.576923 C -1.1585165,26.576923 3.5769231,21.841484 3.5769231,16 3.5769231,10.158516 -1.1585165,5.4230769 -7,5.4230769 Z"
           id="path5623"
           style="fill:url(#color-surface);stroke:url(#border);stroke-width:2" />
        <path
           d="m -7,5.4230769 c -5.841484,0 -10.576923,4.7354391 -10.576923,10.5769231 0,5.841484 4.735439,10.576923 10.576923,10.576923 C -1.1585165,26.576923 3.5769231,21.841484 3.5769231,16 3.5769231,10.158516 -1.1585165,5.4230769 -7,5.4230769 Z"
           id="path268"
           style="fill:url(#color-surface)" />
        <path
           d="m -12.769231,16 c 0,-3.18625 2.582981,-5.769231 5.769231,-5.769231 3.18625,0 5.7692308,2.582981 5.7692308,5.769231 0,3.18625 -2.5829808,5.769231 -5.7692308,5.769231 -3.18625,0 -5.769231,-2.582981 -5.769231,-5.769231 z"
           id="path270"
           style="fill:url(#color-text-secondary-disabled)" />
      </g>
    </g>
    <g
       id="scale-slider-disabled-dark"
       transform="matrix(1.04,0,0,1.04,366,21.8)">
      <rect
         x="-25"
         y="5"
         width="25"
         height="25"
         rx="0"
         ry="0"
         fill="none"
         stroke-linecap="round"
         stroke-linejoin="round"
         stroke-opacity="0.9971"
         stroke-width="2"
         id="rect275" />
      <g
         transform="translate(-5.5,1.5)"
         id="g283">
        <path
           d="m -7,5.4230769 c -5.841484,0 -10.576923,4.7354391 -10.576923,10.5769231 0,5.841484 4.735439,10.576923 10.576923,10.576923 C -1.1585165,26.576923 3.5769231,21.841484 3.5769231,16 3.5769231,10.158516 -1.1585165,5.4230769 -7,5.4230769 Z"
           id="path6347"
           style="fill:url(#color-surface-dark);stroke:url(#border-dark);stroke-width:2" />
        <path
           d="m -7,5.4230769 c -5.841484,0 -10.576923,4.7354391 -10.576923,10.5769231 0,5.841484 4.735439,10.576923 10.576923,10.576923 C -1.1585165,26.576923 3.5769231,21.841484 3.5769231,16 3.5769231,10.158516 -1.1585165,5.4230769 -7,5.4230769 Z"
           id="path279"
           style="fill:url(#color-surface-dark)" />
        <path
           d="m -12.769231,16 c 0,-3.18625 2.582981,-5.769231 5.769231,-5.769231 3.18625,0 5.7692308,2.582981 5.7692308,5.769231 0,3.18625 -2.5829808,5.769231 -5.7692308,5.769231 -3.18625,0 -5.769231,-2.582981 -5.769231,-5.769231 z"
           id="path281"
           style="fill:url(#color-text-secondary-disabled-dark)" />
      </g>
    </g>
    <g
       id="entry-normal"
       transform="translate(0,29)">
      <path
         d="m 18,151 c -2.216,0 -4,1.784 -4,4 v 24 c 0,1.2043 0.53816,2.2679 1.375,3 H 18 c -1.662,0 -3,-1.338 -3,-3 v -24 c 0,-1.662 1.338,-3 3,-3 h 152 c 1.662,0 3,1.338 3,3 v 24 c 0,1.662 -1.338,3 -3,3 h 2.625 c 0.83684,-0.73212 1.375,-1.7957 1.375,-3 v -24 c 0,-2.216 -1.784,-4 -4,-4 z"
         opacity="0.08"
         id="path290"
         style="fill:#000000" />
      <path
         d="m 15.375,182 c 0.70295,0.61498 1.6133,1 2.625,1 h 152 c 1.0117,0 1.922,-0.38502 2.625,-1 H 18.005 Z"
         opacity=".45"
         id="path292"
         style="opacity:0.35;fill:#000000" />
    </g>
    <g
       id="entry-focus"
       transform="translate(0,15)">
      <path
         d="m 18,205 c -2.216,0 -4,1.784 -4,4 v 24 c 0,0.73303 0.2093,1.4104 0.55078,2 h 1.2246 c -0.47718,-0.53088 -0.77539,-1.2267 -0.77539,-2 v -24 c 0,-1.662 1.338,-3 3,-3 h 152 c 1.662,0 3,1.338 3,3 v 24 c 0,0.7733 -0.29821,1.4691 -0.77539,2 h 1.2246 c 0.34148,-0.58955 0.55078,-1.267 0.55078,-2 v -24 c 0,-2.216 -1.784,-4 -4,-4 z"
         fill="#000000"
         opacity="0.08"
         stroke-width="0"
         style="paint-order:stroke fill markers"
         id="path295" />
      <path
         d="m 14.551,235 c 0.69084,1.1927 1.9662,2 3.4492,2 h 152 c 1.483,0 2.7584,-0.80729 3.4492,-2 z"
         id="path297"
         style="fill:url(#color-primary-dark)" />
    </g>
    <g
       id="entry-disabled"
       transform="translate(0,15)">
      <path
         d="m 18,125 c -2.216,0 -4,1.784 -4,4 v 24 c 0,2.216 1.784,4 4,4 h 152 c 2.216,0 4,-1.784 4,-4 v -24 c 0,-2.216 -1.784,-4 -4,-4 z m 0,1 h 152 c 1.662,0 3,1.338 3,3 v 24 c 0,1.662 -1.338,3 -3,3 H 18 c -1.662,0 -3,-1.338 -3,-3 v -24 c 0,-1.662 1.338,-3 3,-3 z"
         fill="#000000"
         opacity="0.04"
         stroke-width="0"
         style="paint-order:stroke fill markers"
         id="path300" />
    </g>
    <g
       id="entry-normal-dark"
       transform="translate(207,29)">
      <path
         d="m 18,151 c -2.216,0 -4,1.784 -4,4 v 24 c 0,1.2043 0.53816,2.2679 1.375,3 H 18 c -1.662,0 -3,-1.338 -3,-3 v -24 c 0,-1.662 1.338,-3 3,-3 h 152 c 1.662,0 3,1.338 3,3 v 24 c 0,1.662 -1.338,3 -3,3 h 2.625 c 0.83684,-0.73212 1.375,-1.7957 1.375,-3 v -24 c 0,-2.216 -1.784,-4 -4,-4 z"
         opacity="0.12"
         style="fill:#ffffff;paint-order:stroke fill markers"
         id="path303" />
      <path
         d="m 15.375,182 c 0.70295,0.61498 1.6133,1 2.625,1 h 152 c 1.0117,0 1.922,-0.38502 2.625,-1 H 18.005 Z"
         opacity=".5"
         id="path305"
         style="opacity:0.35;fill:#ffffff" />
    </g>
    <g
       id="entry-focus-dark"
       transform="translate(207,15)">
      <path
         d="m 18,205 c -2.216,0 -4,1.784 -4,4 v 24 c 0,0.73303 0.2093,1.4104 0.55078,2 h 1.2246 c -0.47718,-0.53088 -0.77539,-1.2267 -0.77539,-2 v -24 c 0,-1.662 1.338,-3 3,-3 h 152 c 1.662,0 3,1.338 3,3 v 24 c 0,0.7733 -0.29821,1.4691 -0.77539,2 h 1.2246 c 0.34148,-0.58955 0.55078,-1.267 0.55078,-2 v -24 c 0,-2.216 -1.784,-4 -4,-4 z"
         fill="#ffffff"
         opacity="0.12"
         stroke-width="0"
         style="paint-order:stroke fill markers"
         id="path308" />
      <path
         d="m 14.551,235 c 0.69084,1.1927 1.9662,2 3.4492,2 h 152 c 1.483,0 2.7584,-0.80729 3.4492,-2 z"
         id="path310"
         style="fill:url(#color-primary-light)" />
    </g>
    <g
       id="entry-disabled-dark"
       transform="translate(207,15)">
      <path
         d="m 18,125 c -2.216,0 -4,1.784 -4,4 v 24 c 0,2.216 1.784,4 4,4 h 152 c 2.216,0 4,-1.784 4,-4 v -24 c 0,-2.216 -1.784,-4 -4,-4 z m 0,1 h 152 c 1.662,0 3,1.338 3,3 v 24 c 0,1.662 -1.338,3 -3,3 H 18 c -1.662,0 -3,-1.338 -3,-3 v -24 c 0,-1.662 1.338,-3 3,-3 z"
         fill="#ffffff"
         opacity="0.05"
         stroke-width="0"
         style="paint-order:stroke fill markers"
         id="path313" />
    </g>
    <g
       id="linked-entry-normal">
      <path
         id="path1018"
         style="opacity:0.08;fill:#000000"
         d="m 64,360 v 1 h 60 v -1 z" />
      <path
         id="path1020"
         style="opacity:0.35;fill:#000000"
         d="m 64,391 v 1 h 60 v -1 z" />
    </g>
    <g
       id="linked-entry-focus">
      <path
         id="path1024"
         style="opacity:0.08;fill:#000000;paint-order:stroke fill markers"
         d="m 64,400 v 1 h 60 v -1 z" />
      <path
         id="path1026"
         style="fill:url(#color-primary-dark)"
         d="m 64,430 v 2 h 60 v -2 z" />
    </g>
    <g
       id="linked-entry-disabled">
      <path
         id="path1030"
         style="opacity:0.04;fill:#000000;paint-order:stroke fill markers"
         d="m 64,320 v 1 h 60 v -1 z m 0,31 v 1 h 60 v -1 z" />
    </g>
    <g
       id="linked-entry-firstchild-normal">
      <path
         id="rect1257"
         style="opacity:0.35;fill:#000000;stroke-width:0;stroke-linecap:round;stroke-linejoin:round;paint-order:stroke fill markers"
         d="m 15.375,391 c 0.70295,0.61498 1.6133,1 2.625,1 h 46 v -1 H 18.005859 Z" />
      <path
         id="path1345"
         style="opacity:0.08;fill:#000000"
         d="m 18,360 c -2.216,0 -4,1.784 -4,4 v 24 c 0,1.2043 0.53816,2.2679 1.375,3 H 18 c -1.662,0 -3,-1.338 -3,-3 v -24 c 0,-1.662 1.338,-3 3,-3 h 46 v -1 z" />
    </g>
    <g
       id="linked-entry-firstchild-focus">
      <path
         id="rect1341"
         style="fill:url(#color-primary-dark)"
         d="m 14.550781,430 c 0.69084,1.1927 1.966219,2 3.449219,2 h 46 v -2 z" />
      <path
         id="path1455"
         style="opacity:0.08;fill:#000000;paint-order:stroke fill markers"
         d="m 18,400 c -2.216,0 -4,1.784 -4,4 v 24 c 0,0.73303 0.209301,1.4104 0.550781,2 h 1.22461 C 15.298211,429.46912 15,428.7733 15,428 v -24 c 0,-1.662 1.338,-3 3,-3 h 46 v -1 z" />
    </g>
    <use
       x="0"
       y="0"
       xlink:href="#linked-entry-firstchild-disabled"
       id="linked-entry-lastchild-disabled"
       transform="matrix(-1,0,0,1,188,0)"
       width="100%"
       height="100%" />
    <use
       x="0"
       y="0"
       xlink:href="#linked-entry-firstchild-normal"
       id="linked-entry-lastchild-normal"
       transform="matrix(-1,0,0,1,188,0)"
       width="100%"
       height="100%" />
    <use
       x="0"
       y="0"
       xlink:href="#linked-entry-firstchild-focus"
       id="linked-entry-lastchild-focus"
       transform="matrix(-1,0,0,1,188,0)"
       width="100%"
       height="100%" />
    <g
       id="linked-entry-firstchild-disabled-dark"
       transform="translate(207)">
      <path
         id="path1590"
         style="opacity:0.05;fill:#ffffff;paint-order:stroke fill markers"
         d="m 18,320 c -2.216,0 -4,1.784 -4,4 v 24 c 0,2.216 1.784,4 4,4 h 46 v -1 H 18 c -1.662,0 -3,-1.338 -3,-3 v -24 c 0,-1.662 1.338,-3 3,-3 h 46 v -1 z" />
    </g>
    <g
       id="linked-entry-normal-dark"
       transform="translate(207)">
      <path
         id="path1594"
         style="opacity:0.12;fill:#ffffff"
         d="m 64,360 v 1 h 60 v -1 z" />
      <path
         id="path1596"
         style="opacity:0.35;fill:#ffffff"
         d="m 64,391 v 1 h 60 v -1 z" />
    </g>
    <g
       id="linked-entry-focus-dark"
       transform="translate(207)">
      <path
         id="path1600"
         style="opacity:0.12;fill:#ffffff;paint-order:stroke fill markers"
         d="m 64,400 v 1 h 60 v -1 z" />
      <path
         id="path1602"
         style="fill:url(#color-primary-light)"
         d="m 64,430 v 2 h 60 v -2 z" />
    </g>
    <g
       id="linked-entry-disabled-dark"
       transform="translate(207)">
      <path
         id="path1606"
         style="opacity:0.05;fill:#ffffff;paint-order:stroke fill markers"
         d="m 64,320 v 1 h 60 v -1 z m 0,31 v 1 h 60 v -1 z" />
    </g>
    <g
       id="linked-entry-firstchild-normal-dark"
       transform="translate(207)">
      <path
         id="path1610"
         style="opacity:0.35;fill:#ffffff;stroke-width:0;stroke-linecap:round;stroke-linejoin:round;paint-order:stroke fill markers"
         d="m 15.375,391 c 0.70295,0.61498 1.6133,1 2.625,1 h 46 v -1 H 18.005859 Z" />
      <path
         id="path1612"
         style="opacity:0.12;fill:#ffffff"
         d="m 18,360 c -2.216,0 -4,1.784 -4,4 v 24 c 0,1.2043 0.53816,2.2679 1.375,3 H 18 c -1.662,0 -3,-1.338 -3,-3 v -24 c 0,-1.662 1.338,-3 3,-3 h 46 v -1 z" />
    </g>
    <g
       id="linked-entry-firstchild-focus-dark"
       transform="translate(207)">
      <path
         id="path1616"
         style="fill:url(#color-primary-light)"
         d="m 14.550781,430 c 0.69084,1.1927 1.966219,2 3.449219,2 h 46 v -2 z" />
      <path
         id="path1618"
         style="opacity:0.12;fill:#ffffff;paint-order:stroke fill markers"
         d="m 18,400 c -2.216,0 -4,1.784 -4,4 v 24 c 0,0.73303 0.209301,1.4104 0.550781,2 h 1.22461 C 15.298211,429.46912 15,428.7733 15,428 v -24 c 0,-1.662 1.338,-3 3,-3 h 46 v -1 z" />
    </g>
    <use
       x="0"
       y="0"
       xlink:href="#linked-entry-firstchild-disabled-dark"
       id="linked-entry-lastchild-disabled-dark"
       transform="matrix(-1,0,0,1,602,0)"
       width="100%"
       height="100%" />
    <use
       x="0"
       y="0"
       xlink:href="#linked-entry-firstchild-normal-dark"
       id="linked-entry-lastchild-normal-dark"
       transform="matrix(-1,0,0,1,602,0)"
       width="100%"
       height="100%" />
    <use
       x="0"
       y="0"
       xlink:href="#linked-entry-firstchild-focus-dark"
       id="linked-entry-lastchild-focus-dark"
       transform="matrix(-1,0,0,1,602,0)"
       width="100%"
       height="100%" />
    <g
       id="scale-horz-marks-before-slider"
       transform="translate(25,-85)">
      <path
         style="fill:url(#color-surface);stroke:url(#border);stroke-width:2"
         d="M 19,3.0742188 10.527344,11.546875 C 6.8431481,15.231071 6.2166252,20.468356 7.9296875,24.603516 9.6427498,28.738675 13.790201,32 19,32 c 5.209799,0 9.35725,-3.261325 11.070312,-7.396484 1.713063,-4.13516 1.08654,-9.372445 -2.597656,-13.056641 z"
         id="path1208" />
      <path
         style="fill:url(#color-surface)"
         d="M 19,3.0742188 10.527344,11.546875 C 6.8431481,15.231071 6.2166252,20.468356 7.9296875,24.603516 9.6427498,28.738675 13.790201,32 19,32 c 5.209799,0 9.35725,-3.261325 11.070312,-7.396484 1.713063,-4.13516 1.08654,-9.372445 -2.597656,-13.056641 z"
         id="path5882" />
      <path
         id="path5880"
         style="fill:url(#color-primary-dark)"
         d="m 19,11.558594 -4.230469,4.230468 c -1.974475,1.974476 -2.17366,4.401107 -1.296875,6.517579 C 14.349441,24.423112 16.208199,26 19,26 c 2.791801,0 4.650559,-1.576888 5.527344,-3.693359 0.876785,-2.116472 0.6776,-4.543103 -1.296875,-6.517579 z" />
      <rect
         width="38"
         height="38"
         fill="none"
         id="rect62"
         x="0"
         y="0" />
    </g>
    <use
       id="scale-horz-marks-after-slider"
       transform="matrix(1,0,0,-1,38,-132)"
       width="100%"
       height="100%"
       xlink:href="#scale-horz-marks-before-slider"
       x="0"
       y="0" />
    <use
       id="scale-vert-marks-before-slider"
       transform="rotate(-90,82,-104)"
       width="100%"
       height="100%"
       xlink:href="#scale-horz-marks-before-slider"
       x="0"
       y="0" />
    <use
       id="scale-vert-marks-after-slider"
       transform="rotate(90,101,-9)"
       width="100%"
       height="100%"
       xlink:href="#scale-horz-marks-before-slider"
       x="0"
       y="0" />
    <use
       id="scale-horz-marks-after-slider-disabled"
       transform="matrix(1,0,0,-1,38,-56)"
       width="100%"
       height="100%"
       xlink:href="#scale-horz-marks-before-slider-disabled"
       x="0"
       y="0" />
    <use
       id="scale-vert-marks-before-slider-disabled"
       transform="rotate(-90,82,-66)"
       width="100%"
       height="100%"
       xlink:href="#scale-horz-marks-before-slider-disabled"
       x="0"
       y="0" />
    <use
       id="scale-vert-marks-after-slider-disabled"
       transform="rotate(90,101,29)"
       width="100%"
       height="100%"
       xlink:href="#scale-horz-marks-before-slider-disabled"
       x="0"
       y="0" />
    <use
       id="scale-horz-marks-after-slider-dark"
       transform="rotate(180,263,-66)"
       width="100%"
       height="100%"
       xlink:href="#scale-horz-marks-before-slider-dark"
       x="0"
       y="0" />
    <use
       id="scale-horz-marks-after-slider-disabled-dark"
       transform="rotate(180,263,-28)"
       width="100%"
       height="100%"
       xlink:href="#scale-horz-marks-before-slider-disabled-dark"
       x="0"
       y="0" />
    <use
       id="scale-vert-marks-before-slider-dark"
       transform="rotate(-90,282,-104)"
       width="100%"
       height="100%"
       xlink:href="#scale-horz-marks-before-slider-dark"
       x="0"
       y="0" />
    <use
       id="scale-vert-marks-before-slider-disabled-dark"
       transform="rotate(-90,282,-66)"
       width="100%"
       height="100%"
       xlink:href="#scale-horz-marks-before-slider-disabled-dark"
       x="0"
       y="0" />
    <use
       id="scale-vert-marks-after-slider-dark"
       transform="rotate(90,301,-8.9999998)"
       width="100%"
       height="100%"
       xlink:href="#scale-horz-marks-before-slider-dark"
       x="0"
       y="0" />
    <use
       id="scale-vert-marks-after-slider-disabled-dark"
       transform="rotate(90,301,29)"
       width="100%"
       height="100%"
       xlink:href="#scale-horz-marks-before-slider-disabled-dark"
       x="0"
       y="0" />
    <g
       id="scale-horz-marks-before-slider-disabled"
       transform="translate(25,-47)">
      <path
         style="fill:url(#color-surface);stroke:url(#border);stroke-width:2"
         d="M 19,3.0742188 10.527344,11.546875 C 6.8431481,15.231071 6.2166252,20.468356 7.9296875,24.603516 9.6427498,28.738675 13.790201,32 19,32 c 5.209799,0 9.35725,-3.261325 11.070312,-7.396484 1.713063,-4.13516 1.08654,-9.372445 -2.597656,-13.056641 z"
         id="path5888" />
      <path
         style="fill:url(#color-surface)"
         d="M 19,3.0742188 10.527344,11.546875 C 6.8431481,15.231071 6.2166252,20.468356 7.9296875,24.603516 9.6427498,28.738675 13.790201,32 19,32 c 5.209799,0 9.35725,-3.261325 11.070312,-7.396484 1.713063,-4.13516 1.08654,-9.372445 -2.597656,-13.056641 z"
         id="path1199" />
      <path
         id="path5886"
         style="fill:url(#color-text-secondary-disabled)"
         d="m 19,11.558594 -4.230469,4.230468 c -1.974475,1.974476 -2.17366,4.401107 -1.296875,6.517579 C 14.349441,24.423112 16.208199,26 19,26 c 2.791801,0 4.650559,-1.576888 5.527344,-3.693359 0.876785,-2.116472 0.6776,-4.543103 -1.296875,-6.517579 z" />
      <rect
         width="38"
         height="38"
         fill="none"
         id="rect1231"
         x="0"
         y="0" />
    </g>
    <g
       id="scale-horz-marks-before-slider-dark"
       transform="translate(225,-85)">
      <g
         id="path1337">
        <path
           style="fill:url(#color-surface-dark);stroke:url(#border-dark);stroke-width:2"
           d="M 19,3.0742188 10.527344,11.546875 C 6.8431481,15.231071 6.2166252,20.468356 7.9296875,24.603516 9.6427498,28.738675 13.790201,32 19,32 c 5.209799,0 9.35725,-3.261325 11.070312,-7.396484 1.713063,-4.13516 1.08654,-9.372445 -2.597656,-13.056641 z"
           id="path537" />
        <path
           style="fill:url(#color-surface-dark)"
           d="M 19,3.0742188 10.527344,11.546875 C 6.8431481,15.231071 6.2166252,20.468356 7.9296875,24.603516 9.6427498,28.738675 13.790201,32 19,32 c 5.209799,0 9.35725,-3.261325 11.070312,-7.396484 1.713063,-4.13516 1.08654,-9.372445 -2.597656,-13.056641 z"
           id="path1221" />
        <path
           id="path535"
           style="fill:url(#color-primary-light)"
           d="m 19,11.558594 -4.230469,4.230468 c -1.974475,1.974476 -2.17366,4.401107 -1.296875,6.517579 C 14.349441,24.423112 16.208199,26 19,26 c 2.791801,0 4.650559,-1.576888 5.527344,-3.693359 0.876785,-2.116472 0.6776,-4.543103 -1.296875,-6.517579 z" />
      </g>
      <rect
         width="38"
         height="38"
         fill="none"
         id="rect1339"
         x="0"
         y="0" />
      <g
         id="path1465" />
    </g>
    <g
       id="scale-horz-marks-before-slider-disabled-dark"
       transform="translate(225,-47)">
      <g
         id="path1347">
        <path
           style="fill:url(#color-surface-dark);stroke:url(#border-dark);stroke-width:2"
           d="M 19,3.0742188 10.527344,11.546875 C 6.8431481,15.231071 6.2166252,20.468356 7.9296875,24.603516 9.6427498,28.738675 13.790201,32 19,32 c 5.209799,0 9.35725,-3.261325 11.070312,-7.396484 1.713063,-4.13516 1.08654,-9.372445 -2.597656,-13.056641 z"
           id="path1226" />
        <path
           style="fill:url(#color-surface-dark)"
           d="M 19,3.0742188 10.527344,11.546875 C 6.8431481,15.231071 6.2166252,20.468356 7.9296875,24.603516 9.6427498,28.738675 13.790201,32 19,32 c 5.209799,0 9.35725,-3.261325 11.070312,-7.396484 1.713063,-4.13516 1.08654,-9.372445 -2.597656,-13.056641 z"
           id="path1195" />
        <path
           id="path1193"
           style="fill:url(#color-text-secondary-disabled-dark)"
           d="m 19,11.558594 -4.230469,4.230468 c -1.974475,1.974476 -2.17366,4.401107 -1.296875,6.517579 C 14.349441,24.423112 16.208199,26 19,26 c 2.791801,0 4.650559,-1.576888 5.527344,-3.693359 0.876785,-2.116472 0.6776,-4.543103 -1.296875,-6.517579 z" />
      </g>
      <rect
         width="38"
         height="38"
         fill="none"
         id="rect1349"
         x="0"
         y="0" />
    </g>
  </g>
</svg>
