<?xml version="1.0" encoding="UTF-8" standalone="no"?>
<svg
   width="400"
   height="200"
   version="1.1"
   viewBox="0 0 400 200"
   id="svg187"
   sodipodi:docname="assets-green.svg"
   inkscape:version="1.1.1 (3bf5ae0d25, 2021-09-20)"
   xmlns:inkscape="http://www.inkscape.org/namespaces/inkscape"
   xmlns:sodipodi="http://sodipodi.sourceforge.net/DTD/sodipodi-0.dtd"
   xmlns:xlink="http://www.w3.org/1999/xlink"
   xmlns="http://www.w3.org/2000/svg"
   xmlns:svg="http://www.w3.org/2000/svg">
  <sodipodi:namedview
     id="namedview189"
     pagecolor="#ffffff"
     bordercolor="#666666"
     borderopacity="1.0"
     inkscape:pageshadow="2"
     inkscape:pageopacity="0.0"
     inkscape:pagecheckerboard="0"
     showgrid="false"
     inkscape:zoom="1.4325"
     inkscape:cx="43.979058"
     inkscape:cy="307.85341"
     inkscape:window-width="1920"
     inkscape:window-height="1012"
     inkscape:window-x="0"
     inkscape:window-y="34"
     inkscape:window-maximized="1"
     inkscape:current-layer="svg187" />
  <defs
     id="defs83">
    <linearGradient
       id="color-on-primary-dark"
       x1="6.2124"
       x2="29.25"
       y1="11.894"
       y2="11.894"
       gradientTransform="scale(1.1453 .87314)"
       gradientUnits="userSpaceOnUse">
      <stop
         stop-color="#FFFFFF"
         offset="1"
         id="stop2" />
    </linearGradient>
    <linearGradient
       id="color-on-primary-light"
       x1="6.2124"
       x2="29.25"
       y1="11.894"
       y2="11.894"
       gradientTransform="scale(1.1453 .87314)"
       gradientUnits="userSpaceOnUse">
      <stop
         stop-color="#000000"
         stop-opacity=".87"
         offset="1"
         id="stop5" />
    </linearGradient>
    <linearGradient
       id="color-text-secondary-disabled">
      <stop
         stop-color="#000000"
         stop-opacity=".26"
         offset="1"
         id="stop8" />
    </linearGradient>
    <linearGradient
       id="color-text-secondary-disabled-dark">
      <stop
         stop-color="#FFFFFF"
         stop-opacity=".3"
         offset="1"
         id="stop11" />
    </linearGradient>
    <linearGradient
       id="color-primary-dark">
      <stop
         stop-color="#4CAF50"
         offset="1"
         id="stop14" />
    </linearGradient>
    <linearGradient
       id="color-primary-light">
      <stop
         stop-color="#66BB6A"
         offset="1"
         id="stop17" />
    </linearGradient>
    <linearGradient
       id="color-background">
      <stop
         stop-color="#F2F2F2"
         offset="1"
         id="stop20" />
    </linearGradient>
    <linearGradient
       id="color-background-dark">
      <stop
         stop-color="#212121"
         offset="1"
         id="stop23" />
    </linearGradient>
    <linearGradient
       id="color-surface"
       x2="40"
       gradientUnits="userSpaceOnUse">
      <stop
         stop-color="#FFFFFF"
         offset="1"
         id="stop26" />
    </linearGradient>
    <linearGradient
       id="color-surface-dark"
       x2="40"
       gradientUnits="userSpaceOnUse">
      <stop
         stop-color="#3C3C3C"
         offset="1"
         id="stop29" />
    </linearGradient>
    <g
       id="base-scale-horz-marks-before-slider">
      <rect
         width="24"
         height="24"
         fill="none"
         id="rect37" />
      <path
         transform="rotate(45 12 12)"
         d="m6 6h6a6 6 0 1 1-6 6z"
         id="path39" />
    </g>
    <g
       id="base-scale-vert-marks-after-slider">
      <use
         transform="rotate(90 12 12)"
         xlink:href="#base-scale-horz-marks-before-slider"
         id="use42" />
    </g>
    <g
       id="base-scale-horz-marks-after-slider">
      <use
         transform="rotate(180 12 12)"
         xlink:href="#base-scale-horz-marks-before-slider"
         id="use45" />
    </g>
    <g
       id="base-scale-vert-marks-before-slider">
      <use
         transform="rotate(270 12 12)"
         xlink:href="#base-scale-horz-marks-before-slider"
         id="use48" />
    </g>
    <g
       id="base-selectionmode-checkbox">
      <rect
         width="40"
         height="40"
         fill="none"
         id="rect51" />
      <rect
         x="2"
         y="2"
         width="36"
         height="36"
         rx="4"
         id="rect53" />
    </g>
    <g
       id="base-selectionmode-checkmark">
      <path
         transform="matrix(1.5 0 0 1.5 2 2)"
         d="M9 16.17L4.83 12l-1.42 1.41L9 19 21 7l-1.41-1.41z"
         id="path56" />
    </g>
    <linearGradient
       id="linearGradient976"
       x2="200"
       gradientUnits="userSpaceOnUse"
       xlink:href="#color-background"
       gradientTransform="matrix(1,0,0,3.6890632,0,-268.90632)" />
    <linearGradient
       id="linearGradient978"
       x2="24"
       gradientUnits="userSpaceOnUse"
       xlink:href="#color-primary-dark" />
    <linearGradient
       id="linearGradient980"
       x2="24"
       gradientUnits="userSpaceOnUse"
       xlink:href="#color-background" />
    <linearGradient
       id="linearGradient982"
       x2="24"
       gradientUnits="userSpaceOnUse"
       xlink:href="#color-text-secondary-disabled" />
    <linearGradient
       id="linearGradient990"
       x1="-3.5527e-15"
       x2="24"
       gradientUnits="userSpaceOnUse"
       xlink:href="#color-primary-dark" />
    <linearGradient
       id="linearGradient992"
       x1="-3.5527e-15"
       x2="24"
       gradientUnits="userSpaceOnUse"
       xlink:href="#color-background" />
    <linearGradient
       id="linearGradient994"
       x1="-3.5527e-15"
       x2="24"
       gradientUnits="userSpaceOnUse"
       xlink:href="#color-text-secondary-disabled" />
    <linearGradient
       id="linearGradient996"
       x1="-2.6324e-15"
       x2="24"
       y1="-3.5527e-15"
       y2="-3.5527e-15"
       gradientUnits="userSpaceOnUse"
       xlink:href="#color-primary-dark" />
    <linearGradient
       id="linearGradient998"
       x1="-2.6324e-15"
       x2="24"
       y1="-3.5527e-15"
       y2="-3.5527e-15"
       gradientUnits="userSpaceOnUse"
       xlink:href="#color-background" />
    <linearGradient
       id="linearGradient1000"
       x1="-2.6324e-15"
       x2="24"
       y1="-3.5527e-15"
       y2="-3.5527e-15"
       gradientUnits="userSpaceOnUse"
       xlink:href="#color-text-secondary-disabled" />
    <linearGradient
       id="linearGradient1008"
       x2="40"
       gradientUnits="userSpaceOnUse"
       xlink:href="#color-primary-dark" />
    <linearGradient
       id="linearGradient1041"
       x2="200"
       gradientTransform="matrix(1,0,0,3.6890632,200,-268.90632)"
       gradientUnits="userSpaceOnUse"
       xlink:href="#color-background-dark" />
    <linearGradient
       id="linearGradient1043"
       x2="24"
       gradientUnits="userSpaceOnUse"
       xlink:href="#color-primary-light" />
    <linearGradient
       id="linearGradient1045"
       x2="24"
       gradientUnits="userSpaceOnUse"
       xlink:href="#color-background-dark" />
    <linearGradient
       id="linearGradient1047"
       x2="24"
       gradientUnits="userSpaceOnUse"
       xlink:href="#color-text-secondary-disabled-dark" />
    <linearGradient
       id="linearGradient1055"
       x1="-3.5527e-15"
       x2="24"
       gradientUnits="userSpaceOnUse"
       xlink:href="#color-primary-light" />
    <linearGradient
       id="linearGradient1057"
       x1="-3.5527e-15"
       x2="24"
       gradientUnits="userSpaceOnUse"
       xlink:href="#color-background-dark" />
    <linearGradient
       id="linearGradient1059"
       x1="-3.5527e-15"
       x2="24"
       gradientUnits="userSpaceOnUse"
       xlink:href="#color-text-secondary-disabled-dark" />
    <linearGradient
       id="linearGradient1061"
       x1="-2.6324e-15"
       x2="24"
       y1="-3.5527e-15"
       y2="-3.5527e-15"
       gradientUnits="userSpaceOnUse"
       xlink:href="#color-primary-light" />
    <linearGradient
       id="linearGradient1063"
       x1="-2.6324e-15"
       x2="24"
       y1="-3.5527e-15"
       y2="-3.5527e-15"
       gradientUnits="userSpaceOnUse"
       xlink:href="#color-background-dark" />
    <linearGradient
       id="linearGradient1065"
       x1="-2.6324e-15"
       x2="24"
       y1="-3.5527e-15"
       y2="-3.5527e-15"
       gradientUnits="userSpaceOnUse"
       xlink:href="#color-text-secondary-disabled-dark" />
    <linearGradient
       id="linearGradient1073"
       x2="40"
       gradientUnits="userSpaceOnUse"
       xlink:href="#color-primary-light" />
    <linearGradient
       inkscape:collect="always"
       xlink:href="#color-primary-dark"
       id="linearGradient1478"
       x1="115"
       y1="90"
       x2="118"
       y2="90"
       gradientUnits="userSpaceOnUse" />
    <linearGradient
       inkscape:collect="always"
       xlink:href="#color-primary-light"
       id="linearGradient1486"
       x1="115"
       y1="90"
       x2="118"
       y2="90"
       gradientUnits="userSpaceOnUse" />
    <linearGradient
       inkscape:collect="always"
       xlink:href="#border"
       id="linearGradient2283"
       x1="-6.5"
       y1="6.5"
       x2="-6.5"
       y2="25.5"
       gradientUnits="userSpaceOnUse" />
    <linearGradient
       id="border"
       x1="41"
       y1="6"
       x2="41"
       y2="26"
       gradientUnits="userSpaceOnUse"
       gradientTransform="translate(-48)">
      <stop
         offset="0.500208"
         stop-opacity="0.0578"
         id="stop1882" />
      <stop
         offset="0.954545"
         stop-opacity="0.1622"
         id="stop1884" />
    </linearGradient>
    <linearGradient
       inkscape:collect="always"
       xlink:href="#color-text-secondary-disabled-dark"
       id="linearGradient1911"
       x1="-13"
       y1="16"
       x2="-1"
       y2="16"
       gradientUnits="userSpaceOnUse" />
    <linearGradient
       inkscape:collect="always"
       xlink:href="#color-primary-dark"
       id="linearGradient1295"
       gradientUnits="userSpaceOnUse"
       x1="-13"
       y1="16"
       x2="-1"
       y2="16"
       gradientTransform="matrix(1.1666666,0,0,1.1666666,1.1666666,-2.6666666)" />
    <linearGradient
       inkscape:collect="always"
       xlink:href="#color-primary-dark"
       id="linearGradient1327"
       gradientUnits="userSpaceOnUse"
       x1="-13"
       y1="16"
       x2="-1"
       y2="16"
       gradientTransform="matrix(0.83333333,0,0,0.83333333,-1.1666667,2.6666667)" />
    <linearGradient
       inkscape:collect="always"
       xlink:href="#linearGradient2691"
       id="linearGradient2628"
       gradientUnits="userSpaceOnUse"
       x1="-6.5"
       y1="6.5"
       x2="-6.5"
       y2="25.5" />
    <linearGradient
       id="linearGradient2691"
       x1="41"
       y1="6"
       x2="41"
       y2="26"
       gradientUnits="userSpaceOnUse"
       gradientTransform="translate(-48)">
      <stop
         offset="0.500208"
         stop-opacity="0.0578"
         id="stop2687"
         style="stop-color:#fbfbfb;stop-opacity:0.122" />
      <stop
         offset="0.954545"
         stop-opacity="0.1622"
         id="stop2689"
         style="stop-color:#ffffff;stop-opacity:0.078" />
    </linearGradient>
    <linearGradient
       inkscape:collect="always"
       xlink:href="#color-primary-light"
       id="linearGradient2630"
       gradientUnits="userSpaceOnUse"
       x1="-13"
       y1="16"
       x2="-1"
       y2="16" />
    <linearGradient
       inkscape:collect="always"
       xlink:href="#color-primary-light"
       id="linearGradient1291"
       gradientUnits="userSpaceOnUse"
       x1="-13"
       y1="16"
       x2="-1"
       y2="16"
       gradientTransform="matrix(1.1666667,0,0,1.1666667,1.1666667,-2.6666667)" />
    <linearGradient
       inkscape:collect="always"
       xlink:href="#color-primary-light"
       id="linearGradient1323"
       gradientUnits="userSpaceOnUse"
       x1="-13"
       y1="16"
       x2="-1"
       y2="16"
       gradientTransform="matrix(0.83333333,0,0,0.83333333,-1.1666667,2.6666667)" />
    <linearGradient
       inkscape:collect="always"
       xlink:href="#border"
       id="linearGradient1202"
       gradientUnits="userSpaceOnUse"
       x1="-6.5"
       y1="6.5"
       x2="-6.5"
       y2="25.5" />
    <linearGradient
       inkscape:collect="always"
       xlink:href="#color-primary-dark"
       id="linearGradient1204"
       gradientUnits="userSpaceOnUse"
       x1="-13"
       y1="16"
       x2="-1"
       y2="16" />
    <linearGradient
       inkscape:collect="always"
       xlink:href="#linearGradient2691"
       id="linearGradient1206"
       gradientUnits="userSpaceOnUse"
       x1="-6.5"
       y1="6.5"
       x2="-6.5"
       y2="25.5" />
    <linearGradient
       inkscape:collect="always"
       xlink:href="#border"
       id="linearGradient1208"
       gradientUnits="userSpaceOnUse"
       x1="-6.5"
       y1="6.5"
       x2="-6.5"
       y2="25.5" />
    <linearGradient
       inkscape:collect="always"
       xlink:href="#linearGradient2691"
       id="linearGradient1210"
       gradientUnits="userSpaceOnUse"
       x1="-6.5"
       y1="6.5"
       x2="-6.5"
       y2="25.5" />
    <linearGradient
       inkscape:collect="always"
       xlink:href="#border"
       id="linearGradient1212"
       gradientUnits="userSpaceOnUse"
       x1="-6.5"
       y1="6.5"
       x2="-6.5"
       y2="25.5" />
    <linearGradient
       inkscape:collect="always"
       xlink:href="#linearGradient2691"
       id="linearGradient1214"
       gradientUnits="userSpaceOnUse"
       x1="-6.5"
       y1="6.5"
       x2="-6.5"
       y2="25.5" />
    <linearGradient
       inkscape:collect="always"
       xlink:href="#color-text-secondary-disabled"
       id="linearGradient1216"
       gradientUnits="userSpaceOnUse"
       x1="-13"
       y1="16"
       x2="-1"
       y2="16" />
    <linearGradient
       id="linearGradient12722"
       x1="14.551"
       x2="173.45"
       y1="236"
       y2="236"
       gradientUnits="userSpaceOnUse"
       xlink:href="#color-primary-dark" />
    <linearGradient
       id="linearGradient12730"
       x1="14.551"
       x2="173.45"
       y1="236"
       y2="236"
       gradientUnits="userSpaceOnUse"
       xlink:href="#color-primary-light" />
    <linearGradient
       inkscape:collect="always"
       xlink:href="#color-primary-dark"
       id="linearGradient1034"
       gradientUnits="userSpaceOnUse"
       x1="14.551"
       y1="236"
       x2="173.45"
       y2="236"
       gradientTransform="translate(0,195)" />
    <linearGradient
       inkscape:collect="always"
       xlink:href="#color-primary-dark"
       id="linearGradient1491"
       x1="14.550781"
       y1="431"
       x2="64"
       y2="431"
       gradientUnits="userSpaceOnUse" />
    <linearGradient
       inkscape:collect="always"
       xlink:href="#color-primary-light"
       id="linearGradient1624"
       gradientUnits="userSpaceOnUse"
       gradientTransform="translate(0,195)"
       x1="14.551"
       y1="236"
       x2="173.45"
       y2="236" />
    <linearGradient
       inkscape:collect="always"
       xlink:href="#color-primary-light"
       id="linearGradient1622"
       gradientUnits="userSpaceOnUse"
       x1="14.550781"
       y1="431"
       x2="64"
       y2="431" />
  </defs>
  <rect
     width="200"
     height="737.81262"
     fill="url(#linearGradient976)"
     id="rect85"
     style="fill:url(#linearGradient976);stroke-width:1.92069"
     x="0"
     y="-268.90631" />
  <g
     id="scale-horz-marks-before-slider"
     transform="translate(40,8)">
    <use
       width="100%"
       height="100%"
       fill="url(#linearGradient978)"
       xlink:href="#base-scale-horz-marks-before-slider"
       id="use95" />
  </g>
  <g
     id="scale-horz-marks-before-slider-disabled"
     transform="translate(40,40)">
    <use
       width="100%"
       height="100%"
       fill="url(#linearGradient980)"
       xlink:href="#base-scale-horz-marks-before-slider"
       id="use98" />
    <use
       width="100%"
       height="100%"
       fill="url(#linearGradient982)"
       xlink:href="#base-scale-horz-marks-before-slider"
       id="use100" />
  </g>
  <g
     id="scale-horz-marks-after-slider"
     transform="translate(72,8)">
    <use
       width="100%"
       height="100%"
       fill="url(#linearGradient990)"
       xlink:href="#base-scale-horz-marks-after-slider"
       id="use103" />
  </g>
  <g
     id="scale-horz-marks-after-slider-disabled"
     transform="translate(72,40)">
    <use
       width="100%"
       height="100%"
       fill="url(#linearGradient992)"
       xlink:href="#base-scale-horz-marks-after-slider"
       id="use106" />
    <use
       width="100%"
       height="100%"
       fill="url(#linearGradient994)"
       xlink:href="#base-scale-horz-marks-after-slider"
       id="use108" />
  </g>
  <g
     id="scale-vert-marks-before-slider"
     transform="translate(104,8)">
    <use
       width="100%"
       height="100%"
       fill="url(#linearGradient996)"
       xlink:href="#base-scale-vert-marks-before-slider"
       id="use111" />
  </g>
  <g
     id="scale-vert-marks-before-slider-disabled"
     transform="translate(104,40)">
    <use
       width="100%"
       height="100%"
       fill="url(#linearGradient998)"
       xlink:href="#base-scale-vert-marks-before-slider"
       id="use114" />
    <use
       width="100%"
       height="100%"
       fill="url(#linearGradient1000)"
       xlink:href="#base-scale-vert-marks-before-slider"
       id="use116" />
  </g>
  <g
     id="scale-vert-marks-after-slider"
     transform="translate(136,8)">
    <use
       width="100%"
       height="100%"
       fill="url(#linearGradient978)"
       xlink:href="#base-scale-vert-marks-after-slider"
       id="use119" />
  </g>
  <g
     id="scale-vert-marks-after-slider-disabled"
     transform="translate(136,40)">
    <use
       width="100%"
       height="100%"
       fill="url(#linearGradient980)"
       xlink:href="#base-scale-vert-marks-after-slider"
       id="use122" />
    <use
       width="100%"
       height="100%"
       fill="url(#linearGradient982)"
       xlink:href="#base-scale-vert-marks-after-slider"
       id="use124" />
  </g>
  <g
     id="selectionmode-checkbox-unchecked"
     transform="translate(8,72)">
    <use
       width="100%"
       height="100%"
       fill="url(#color-surface)"
       xlink:href="#base-selectionmode-checkbox"
       id="use127" />
  </g>
  <g
     id="selectionmode-checkbox-checked"
     transform="translate(56,72)">
    <use
       width="100%"
       height="100%"
       fill="url(#linearGradient1008)"
       xlink:href="#base-selectionmode-checkbox"
       id="use130" />
    <use
       width="100%"
       height="100%"
       fill="url(#color-on-primary-dark)"
       xlink:href="#base-selectionmode-checkmark"
       id="use132" />
  </g>
  <rect
     x="200"
     width="200"
     height="737.81262"
     fill="url(#linearGradient1041)"
     id="rect135"
     style="fill:url(#linearGradient1041);stroke-width:1.92069"
     y="-268.90631" />
  <g
     id="scale-horz-marks-before-slider-dark"
     transform="translate(240,8)">
    <use
       width="100%"
       height="100%"
       fill="url(#linearGradient1043)"
       xlink:href="#base-scale-horz-marks-before-slider"
       id="use145" />
  </g>
  <g
     id="scale-horz-marks-before-slider-disabled-dark"
     transform="translate(240,40)">
    <use
       width="100%"
       height="100%"
       fill="url(#linearGradient1045)"
       xlink:href="#base-scale-horz-marks-before-slider"
       id="use148" />
    <use
       width="100%"
       height="100%"
       fill="url(#linearGradient1047)"
       xlink:href="#base-scale-horz-marks-before-slider"
       id="use150" />
  </g>
  <g
     id="scale-horz-marks-after-slider-dark"
     transform="translate(272,8)">
    <use
       width="100%"
       height="100%"
       fill="url(#linearGradient1055)"
       xlink:href="#base-scale-horz-marks-after-slider"
       id="use153" />
  </g>
  <g
     id="scale-horz-marks-after-slider-disabled-dark"
     transform="translate(272,40)">
    <use
       width="100%"
       height="100%"
       fill="url(#linearGradient1057)"
       xlink:href="#base-scale-horz-marks-after-slider"
       id="use156" />
    <use
       width="100%"
       height="100%"
       fill="url(#linearGradient1059)"
       xlink:href="#base-scale-horz-marks-after-slider"
       id="use158" />
  </g>
  <g
     id="scale-vert-marks-before-slider-dark"
     transform="translate(304,8)">
    <use
       width="100%"
       height="100%"
       fill="url(#linearGradient1061)"
       xlink:href="#base-scale-vert-marks-before-slider"
       id="use161" />
  </g>
  <g
     id="scale-vert-marks-before-slider-disabled-dark"
     transform="translate(304,40)">
    <use
       width="100%"
       height="100%"
       fill="url(#linearGradient1063)"
       xlink:href="#base-scale-vert-marks-before-slider"
       id="use164" />
    <use
       width="100%"
       height="100%"
       fill="url(#linearGradient1065)"
       xlink:href="#base-scale-vert-marks-before-slider"
       id="use166" />
  </g>
  <g
     id="scale-vert-marks-after-slider-dark"
     transform="translate(336,8)">
    <use
       width="100%"
       height="100%"
       fill="url(#linearGradient1043)"
       xlink:href="#base-scale-vert-marks-after-slider"
       id="use169" />
  </g>
  <g
     id="scale-vert-marks-after-slider-disabled-dark"
     transform="translate(336,40)">
    <use
       width="100%"
       height="100%"
       fill="url(#linearGradient1045)"
       xlink:href="#base-scale-vert-marks-after-slider"
       id="use172" />
    <use
       width="100%"
       height="100%"
       fill="url(#linearGradient1047)"
       xlink:href="#base-scale-vert-marks-after-slider"
       id="use174" />
  </g>
  <g
     id="selectionmode-checkbox-unchecked-dark"
     transform="translate(208,72)">
    <use
       width="100%"
       height="100%"
       fill="url(#color-surface-dark)"
       xlink:href="#base-selectionmode-checkbox"
       id="use177" />
  </g>
  <g
     id="selectionmode-checkbox-checked-dark"
     transform="translate(256,72)">
    <use
       width="100%"
       height="100%"
       fill="url(#linearGradient1073)"
       xlink:href="#base-selectionmode-checkbox"
       id="use180" />
    <use
       width="100%"
       height="100%"
       fill="url(#color-on-primary-light)"
       xlink:href="#base-selectionmode-checkmark"
       id="use182" />
  </g>
  <g
     id="selected-line">
    <rect
       width="3"
       height="16"
       rx="1.5"
       ry="1.5"
       fill="#1a73e8"
       stroke-linecap="round"
       stroke-linejoin="round"
       id="rect2"
       x="115"
       y="82"
       style="fill:url(#linearGradient1478);fill-opacity:1.0" />
  </g>
  <g
     id="selected-line-dark"
     transform="translate(202)">
    <rect
       width="3"
       height="16"
       rx="1.5"
       ry="1.5"
       fill="#1a73e8"
       stroke-linecap="round"
       stroke-linejoin="round"
       id="rect1382"
       x="115"
       y="82"
       style="fill:url(#linearGradient1486);fill-opacity:1.0" />
  </g>
  <g
     id="scale-slider"
     transform="translate(32,2)">
    <rect
       style="fill:none;stroke-width:2;stroke-linecap:round;stroke-linejoin:round;stroke-opacity:0.997099"
       id="rect1935"
       width="25"
       height="25"
       x="-25"
       y="5"
       rx="0"
       ry="0" />
    <g
       id="g1903"
       transform="translate(-5.5,1.5)">
      <path
         d="m -7,5.5 c -5.799,0 -10.5,4.701 -10.5,10.5 0,5.799 4.701,10.5 10.5,10.5 C -1.201,26.5 3.5,21.799 3.5,16 3.5,10.201 -1.201,5.5 -7,5.5 Z"
         fill="#ffffff"
         stroke="url(#paint0_linear)"
         id="path2257"
         style="fill:#ffffff;fill-opacity:1;stroke:url(#linearGradient1202);stroke-width:2;stroke-miterlimit:4;stroke-dasharray:none;stroke-opacity:1" />
      <path
         d="m -7,5.5 c -5.799,0 -10.5,4.701 -10.5,10.5 0,5.799 4.701,10.5 10.5,10.5 C -1.201,26.5 3.5,21.799 3.5,16 3.5,10.201 -1.201,5.5 -7,5.5 Z"
         fill="#ffffff"
         stroke="url(#paint0_linear)"
         id="path1878"
         style="fill:#ffffff;fill-opacity:1;stroke:none" />
      <path
         d="m -13,16 c 0,-3.3137 2.6863,-6 6,-6 3.3137,0 6,2.6863 6,6 0,3.3137 -2.6863,6 -6,6 -3.3137,0 -6,-2.6863 -6,-6 z"
         fill="#005fb8"
         id="path1880"
         style="fill:url(#linearGradient1204);fill-opacity:1.0" />
    </g>
  </g>
  <g
     id="scale-slider-dark"
     transform="translate(233.5,2)">
    <rect
       style="fill:none;stroke-width:2;stroke-linecap:round;stroke-linejoin:round;stroke-opacity:0.997099"
       id="rect2616"
       width="25"
       height="25"
       x="-25"
       y="5"
       rx="0"
       ry="0" />
    <g
       id="g2624"
       transform="translate(-5.5,1.5)">
      <path
         d="m -7,5.5 c -5.799,0 -10.5,4.701 -10.5,10.5 0,5.799 4.701,10.5 10.5,10.5 C -1.201,26.5 3.5,21.799 3.5,16 3.5,10.201 -1.201,5.5 -7,5.5 Z"
         fill="#ffffff"
         stroke="url(#paint0_linear)"
         id="path2618"
         style="fill:#3c3c3c;fill-opacity:1;stroke:url(#linearGradient1206);stroke-width:2;stroke-miterlimit:4;stroke-dasharray:none;stroke-opacity:1" />
      <path
         d="m -7,5.5 c -5.799,0 -10.5,4.701 -10.5,10.5 0,5.799 4.701,10.5 10.5,10.5 C -1.201,26.5 3.5,21.799 3.5,16 3.5,10.201 -1.201,5.5 -7,5.5 Z"
         fill="#ffffff"
         stroke="url(#paint0_linear)"
         id="path2620"
         style="opacity:1;fill:#3c3c3c;fill-opacity:1;stroke:none" />
      <path
         d="m -13,16 c 0,-3.3137 2.6863,-6 6,-6 3.3137,0 6,2.6863 6,6 0,3.3137 -2.6863,6 -6,6 -3.3137,0 -6,-2.6863 -6,-6 z"
         fill="#005fb8"
         id="path2622"
         style="fill:url(#linearGradient2630);fill-opacity:1.0" />
    </g>
  </g>
  <g
     id="scale-slider-hover"
     transform="translate(32,-41)">
    <rect
       style="fill:none;stroke-width:2;stroke-linecap:round;stroke-linejoin:round;stroke-opacity:0.997099"
       id="rect1265"
       width="25"
       height="25"
       x="-25"
       y="5"
       rx="0"
       ry="0" />
    <g
       id="g1273"
       transform="translate(-5.5,1.5)">
      <path
         d="m -7,5.5 c -5.799,0 -10.5,4.701 -10.5,10.5 0,5.799 4.701,10.5 10.5,10.5 C -1.201,26.5 3.5,21.799 3.5,16 3.5,10.201 -1.201,5.5 -7,5.5 Z"
         fill="#ffffff"
         stroke="url(#paint0_linear)"
         id="path1267"
         style="fill:#ffffff;fill-opacity:1;stroke:url(#linearGradient1208);stroke-width:2;stroke-miterlimit:4;stroke-dasharray:none;stroke-opacity:1" />
      <path
         d="m -7,5.5 c -5.799,0 -10.5,4.701 -10.5,10.5 0,5.799 4.701,10.5 10.5,10.5 C -1.201,26.5 3.5,21.799 3.5,16 3.5,10.201 -1.201,5.5 -7,5.5 Z"
         fill="#ffffff"
         stroke="url(#paint0_linear)"
         id="path1269"
         style="fill:#ffffff;fill-opacity:1;stroke:none" />
      <path
         d="m -14,16 c 0,-3.865984 3.134016,-7 7,-7 3.8659834,0 7,3.134016 7,7 0,3.865984 -3.1340166,7 -7,7 -3.865984,0 -7,-3.134016 -7,-7 z"
         fill="#005fb8"
         id="path1271"
         style="fill:url(#linearGradient1295);fill-opacity:1.0;stroke-width:1.16666" />
    </g>
  </g>
  <g
     id="scale-slider-hover-dark"
     transform="translate(233.5,-41)">
    <rect
       style="fill:none;stroke-width:2;stroke-linecap:round;stroke-linejoin:round;stroke-opacity:0.997099"
       id="rect1277"
       width="25"
       height="25"
       x="-25"
       y="5"
       rx="0"
       ry="0" />
    <g
       id="g1285"
       transform="translate(-5.5,1.5)">
      <path
         d="m -7,5.5 c -5.799,0 -10.5,4.701 -10.5,10.5 0,5.799 4.701,10.5 10.5,10.5 C -1.201,26.5 3.5,21.799 3.5,16 3.5,10.201 -1.201,5.5 -7,5.5 Z"
         fill="#ffffff"
         stroke="url(#paint0_linear)"
         id="path1279"
         style="fill:#3c3c3c;fill-opacity:1;stroke:url(#linearGradient1210);stroke-width:2;stroke-miterlimit:4;stroke-dasharray:none;stroke-opacity:1" />
      <path
         d="m -7,5.5 c -5.799,0 -10.5,4.701 -10.5,10.5 0,5.799 4.701,10.5 10.5,10.5 C -1.201,26.5 3.5,21.799 3.5,16 3.5,10.201 -1.201,5.5 -7,5.5 Z"
         fill="#ffffff"
         stroke="url(#paint0_linear)"
         id="path1281"
         style="opacity:1;fill:#3c3c3c;fill-opacity:1;stroke:none" />
      <path
         d="m -14,16 c 0,-3.865983 3.134017,-7 7,-7 3.8659833,0 7,3.134017 7,7 0,3.865983 -3.1340167,7 -7,7 -3.865983,0 -7,-3.134017 -7,-7 z"
         fill="#005fb8"
         id="path1283"
         style="fill:url(#linearGradient1291);fill-opacity:1.0;stroke-width:1.16667" />
    </g>
  </g>
  <g
     id="scale-slider-active"
     transform="translate(32,-84)">
    <rect
       style="fill:none;stroke-width:2;stroke-linecap:round;stroke-linejoin:round;stroke-opacity:0.997099"
       id="rect1297"
       width="25"
       height="25"
       x="-25"
       y="5"
       rx="0"
       ry="0" />
    <g
       id="g1305"
       transform="translate(-5.5,1.5)">
      <path
         d="m -7,5.5 c -5.799,0 -10.5,4.701 -10.5,10.5 0,5.799 4.701,10.5 10.5,10.5 C -1.201,26.5 3.5,21.799 3.5,16 3.5,10.201 -1.201,5.5 -7,5.5 Z"
         fill="#ffffff"
         stroke="url(#paint0_linear)"
         id="path1299"
         style="fill:#ffffff;fill-opacity:1;stroke:url(#linearGradient1212);stroke-width:2;stroke-miterlimit:4;stroke-dasharray:none;stroke-opacity:1" />
      <path
         d="m -7,5.5 c -5.799,0 -10.5,4.701 -10.5,10.5 0,5.799 4.701,10.5 10.5,10.5 C -1.201,26.5 3.5,21.799 3.5,16 3.5,10.201 -1.201,5.5 -7,5.5 Z"
         fill="#ffffff"
         stroke="url(#paint0_linear)"
         id="path1301"
         style="fill:#ffffff;fill-opacity:1;stroke:none" />
      <path
         d="m -12,16 c 0,-2.761417 2.238583,-5 5,-5 2.7614167,0 5,2.238583 5,5 0,2.761417 -2.2385833,5 -5,5 -2.761417,0 -5,-2.238583 -5,-5 z"
         fill="#005fb8"
         id="path1303"
         style="fill:url(#linearGradient1327);fill-opacity:1.0;stroke-width:0.833333" />
    </g>
  </g>
  <g
     id="scale-slider-active-dark"
     transform="translate(233.5,-84)">
    <rect
       style="fill:none;stroke-width:2;stroke-linecap:round;stroke-linejoin:round;stroke-opacity:0.997099"
       id="rect1309"
       width="25"
       height="25"
       x="-25"
       y="5"
       rx="0"
       ry="0" />
    <g
       id="g1317"
       transform="translate(-5.5,1.5)">
      <path
         d="m -7,5.5 c -5.799,0 -10.5,4.701 -10.5,10.5 0,5.799 4.701,10.5 10.5,10.5 C -1.201,26.5 3.5,21.799 3.5,16 3.5,10.201 -1.201,5.5 -7,5.5 Z"
         fill="#ffffff"
         stroke="url(#paint0_linear)"
         id="path1311"
         style="fill:#3c3c3c;fill-opacity:1;stroke:url(#linearGradient1214);stroke-width:2;stroke-miterlimit:4;stroke-dasharray:none;stroke-opacity:1" />
      <path
         d="m -7,5.5 c -5.799,0 -10.5,4.701 -10.5,10.5 0,5.799 4.701,10.5 10.5,10.5 C -1.201,26.5 3.5,21.799 3.5,16 3.5,10.201 -1.201,5.5 -7,5.5 Z"
         fill="#ffffff"
         stroke="url(#paint0_linear)"
         id="path1313"
         style="opacity:1;fill:#3c3c3c;fill-opacity:1;stroke:none" />
      <path
         d="m -12,16 c 0,-2.761417 2.238583,-5 5,-5 2.7614167,0 5,2.238583 5,5 0,2.761417 -2.2385833,5 -5,5 -2.761417,0 -5,-2.238583 -5,-5 z"
         fill="#005fb8"
         id="path1315"
         style="fill:url(#linearGradient1323);fill-opacity:1.0;stroke-width:0.833333" />
    </g>
  </g>
  <g
     id="scale-slider-disabled"
     transform="translate(32,33)">
    <rect
       style="fill:none;stroke-width:2;stroke-linecap:round;stroke-linejoin:round;stroke-opacity:0.997099"
       id="rect1329"
       width="25"
       height="25"
       x="-25"
       y="5"
       rx="0"
       ry="0" />
    <g
       id="g1337"
       transform="translate(-5.5,1.5)">
      <path
         d="m -7,5.5 c -5.799,0 -10.5,4.701 -10.5,10.5 0,5.799 4.701,10.5 10.5,10.5 C -1.201,26.5 3.5,21.799 3.5,16 3.5,10.201 -1.201,5.5 -7,5.5 Z"
         fill="#ffffff"
         stroke="url(#paint0_linear)"
         id="path1331"
         style="fill:#ffffff;fill-opacity:1;stroke:url(#linearGradient2283);stroke-width:2;stroke-miterlimit:4;stroke-dasharray:none;stroke-opacity:1" />
      <path
         d="m -7,5.5 c -5.799,0 -10.5,4.701 -10.5,10.5 0,5.799 4.701,10.5 10.5,10.5 C -1.201,26.5 3.5,21.799 3.5,16 3.5,10.201 -1.201,5.5 -7,5.5 Z"
         fill="#ffffff"
         stroke="url(#paint0_linear)"
         id="path1333"
         style="fill:#ffffff;fill-opacity:1;stroke:none" />
      <path
         d="m -13,16 c 0,-3.3137 2.6863,-6 6,-6 3.3137,0 6,2.6863 6,6 0,3.3137 -2.6863,6 -6,6 -3.3137,0 -6,-2.6863 -6,-6 z"
         fill="#005fb8"
         id="path1335"
         style="fill:url(#linearGradient1216);fill-opacity:1.0" />
    </g>
  </g>
  <g
     id="scale-slider-disabled-dark"
     transform="translate(233.5,33)">
    <rect
       style="fill:none;stroke-width:2;stroke-linecap:round;stroke-linejoin:round;stroke-opacity:0.997099"
       id="rect1341"
       width="25"
       height="25"
       x="-25"
       y="5"
       rx="0"
       ry="0" />
    <g
       id="g1349"
       transform="translate(-5.5,1.5)">
      <path
         d="m -7,5.5 c -5.799,0 -10.5,4.701 -10.5,10.5 0,5.799 4.701,10.5 10.5,10.5 C -1.201,26.5 3.5,21.799 3.5,16 3.5,10.201 -1.201,5.5 -7,5.5 Z"
         fill="#ffffff"
         stroke="url(#paint0_linear)"
         id="path1343"
         style="fill:#3c3c3c;fill-opacity:1;stroke:url(#linearGradient2628);stroke-width:2;stroke-miterlimit:4;stroke-dasharray:none;stroke-opacity:1" />
      <path
         d="m -7,5.5 c -5.799,0 -10.5,4.701 -10.5,10.5 0,5.799 4.701,10.5 10.5,10.5 C -1.201,26.5 3.5,21.799 3.5,16 3.5,10.201 -1.201,5.5 -7,5.5 Z"
         fill="#ffffff"
         stroke="url(#paint0_linear)"
         id="path1345"
         style="opacity:1;fill:#3c3c3c;fill-opacity:1;stroke:none" />
      <path
         d="m -13,16 c 0,-3.3137 2.6863,-6 6,-6 3.3137,0 6,2.6863 6,6 0,3.3137 -2.6863,6 -6,6 -3.3137,0 -6,-2.6863 -6,-6 z"
         fill="#005fb8"
         id="path1347"
         style="fill:url(#linearGradient1911);fill-opacity:1.0" />
    </g>
  </g>
  <g
     id="linked-entry-firstchild-disabled">
    <path
       id="path1149"
       style="opacity:0.04;fill:#000000;paint-order:stroke fill markers"
       d="m 18,320 c -2.216,0 -4,1.784 -4,4 v 24 c 0,2.216 1.784,4 4,4 h 46 v -1 H 18 c -1.662,0 -3,-1.338 -3,-3 v -24 c 0,-1.662 1.338,-3 3,-3 h 46 v -1 z" />
  </g>
  <g
     id="entry-normal"
     transform="translate(0,29)">
    <path
       d="m 18,151 c -2.216,0 -4,1.784 -4,4 v 24 c 0,1.2043 0.53816,2.2679 1.375,3 H 18 c -1.662,0 -3,-1.338 -3,-3 v -24 c 0,-1.662 1.338,-3 3,-3 h 152 c 1.662,0 3,1.338 3,3 v 24 c 0,1.662 -1.338,3 -3,3 h 2.625 c 0.83684,-0.73212 1.375,-1.7957 1.375,-3 v -24 c 0,-2.216 -1.784,-4 -4,-4 z"
       opacity="0.08"
       id="path290"
       style="fill:#000000" />
    <path
       d="m 15.375,182 c 0.70295,0.61498 1.6133,1 2.625,1 h 152 c 1.0117,0 1.922,-0.38502 2.625,-1 H 18.005 Z"
       opacity=".45"
       id="path292"
       style="opacity:0.35;fill:#000000" />
  </g>
  <g
     id="entry-focus"
     transform="translate(0,15)">
    <path
       d="m 18,205 c -2.216,0 -4,1.784 -4,4 v 24 c 0,0.73303 0.2093,1.4104 0.55078,2 h 1.2246 c -0.47718,-0.53088 -0.77539,-1.2267 -0.77539,-2 v -24 c 0,-1.662 1.338,-3 3,-3 h 152 c 1.662,0 3,1.338 3,3 v 24 c 0,0.7733 -0.29821,1.4691 -0.77539,2 h 1.2246 c 0.34148,-0.58955 0.55078,-1.267 0.55078,-2 v -24 c 0,-2.216 -1.784,-4 -4,-4 z"
       fill="#000000"
       opacity="0.08"
       stroke-width="0"
       style="paint-order:stroke fill markers"
       id="path295" />
    <path
       d="m 14.551,235 c 0.69084,1.1927 1.9662,2 3.4492,2 h 152 c 1.483,0 2.7584,-0.80729 3.4492,-2 z"
       fill="url(#linearGradient12722)"
       id="path297"
       style="fill:url(#linearGradient12722);fill-opacity:1.0" />
  </g>
  <g
     id="entry-disabled"
     transform="translate(0,15)">
    <path
       d="m 18,125 c -2.216,0 -4,1.784 -4,4 v 24 c 0,2.216 1.784,4 4,4 h 152 c 2.216,0 4,-1.784 4,-4 v -24 c 0,-2.216 -1.784,-4 -4,-4 z m 0,1 h 152 c 1.662,0 3,1.338 3,3 v 24 c 0,1.662 -1.338,3 -3,3 H 18 c -1.662,0 -3,-1.338 -3,-3 v -24 c 0,-1.662 1.338,-3 3,-3 z"
       fill="#000000"
       opacity="0.04"
       stroke-width="0"
       style="paint-order:stroke fill markers"
       id="path300" />
  </g>
  <g
     id="entry-normal-dark"
     transform="translate(207,29)">
    <path
       d="m 18,151 c -2.216,0 -4,1.784 -4,4 v 24 c 0,1.2043 0.53816,2.2679 1.375,3 H 18 c -1.662,0 -3,-1.338 -3,-3 v -24 c 0,-1.662 1.338,-3 3,-3 h 152 c 1.662,0 3,1.338 3,3 v 24 c 0,1.662 -1.338,3 -3,3 h 2.625 c 0.83684,-0.73212 1.375,-1.7957 1.375,-3 v -24 c 0,-2.216 -1.784,-4 -4,-4 z"
       opacity="0.12"
       style="fill:#ffffff;paint-order:stroke fill markers"
       id="path303" />
    <path
       d="m 15.375,182 c 0.70295,0.61498 1.6133,1 2.625,1 h 152 c 1.0117,0 1.922,-0.38502 2.625,-1 H 18.005 Z"
       opacity=".5"
       id="path305"
       style="opacity:0.35;fill:#ffffff" />
  </g>
  <g
     id="entry-focus-dark"
     transform="translate(207,15)">
    <path
       d="m 18,205 c -2.216,0 -4,1.784 -4,4 v 24 c 0,0.73303 0.2093,1.4104 0.55078,2 h 1.2246 c -0.47718,-0.53088 -0.77539,-1.2267 -0.77539,-2 v -24 c 0,-1.662 1.338,-3 3,-3 h 152 c 1.662,0 3,1.338 3,3 v 24 c 0,0.7733 -0.29821,1.4691 -0.77539,2 h 1.2246 c 0.34148,-0.58955 0.55078,-1.267 0.55078,-2 v -24 c 0,-2.216 -1.784,-4 -4,-4 z"
       fill="#ffffff"
       opacity="0.12"
       stroke-width="0"
       style="paint-order:stroke fill markers"
       id="path308" />
    <path
       d="m 14.551,235 c 0.69084,1.1927 1.9662,2 3.4492,2 h 152 c 1.483,0 2.7584,-0.80729 3.4492,-2 z"
       fill="url(#linearGradient12730)"
       id="path310"
       style="fill:url(#linearGradient12730);fill-opacity:1.0" />
  </g>
  <g
     id="entry-disabled-dark"
     transform="translate(207,15)">
    <path
       d="m 18,125 c -2.216,0 -4,1.784 -4,4 v 24 c 0,2.216 1.784,4 4,4 h 152 c 2.216,0 4,-1.784 4,-4 v -24 c 0,-2.216 -1.784,-4 -4,-4 z m 0,1 h 152 c 1.662,0 3,1.338 3,3 v 24 c 0,1.662 -1.338,3 -3,3 H 18 c -1.662,0 -3,-1.338 -3,-3 v -24 c 0,-1.662 1.338,-3 3,-3 z"
       fill="#ffffff"
       opacity="0.05"
       stroke-width="0"
       style="paint-order:stroke fill markers"
       id="path313" />
  </g>
  <g
     id="linked-entry-normal">
    <path
       id="path1018"
       style="opacity:0.08;fill:#000000"
       d="m 64,360 v 1 h 60 v -1 z" />
    <path
       id="path1020"
       style="opacity:0.35;fill:#000000"
       d="m 64,391 v 1 h 60 v -1 z" />
  </g>
  <g
     id="linked-entry-focus">
    <path
       id="path1024"
       style="opacity:0.08;fill:#000000;paint-order:stroke fill markers"
       d="m 64,400 v 1 h 60 v -1 z" />
    <path
       id="path1026"
       style="fill:url(#linearGradient1034);fill-opacity:1.0"
       d="m 64,430 v 2 h 60 v -2 z" />
  </g>
  <g
     id="linked-entry-disabled">
    <path
       id="path1030"
       style="opacity:0.04;fill:#000000;paint-order:stroke fill markers"
       d="m 64,320 v 1 h 60 v -1 z m 0,31 v 1 h 60 v -1 z" />
  </g>
  <g
     id="linked-entry-firstchild-normal">
    <path
       id="rect1257"
       style="opacity:0.35;fill:#000000;stroke-width:0;stroke-linecap:round;stroke-linejoin:round;paint-order:stroke fill markers"
       d="m 15.375,391 c 0.70295,0.61498 1.6133,1 2.625,1 h 46 v -1 H 18.005859 Z" />
    <path
       id="path1345-7"
       style="opacity:0.08;fill:#000000"
       d="m 18,360 c -2.216,0 -4,1.784 -4,4 v 24 c 0,1.2043 0.53816,2.2679 1.375,3 H 18 c -1.662,0 -3,-1.338 -3,-3 v -24 c 0,-1.662 1.338,-3 3,-3 h 46 v -1 z" />
  </g>
  <g
     id="linked-entry-firstchild-focus">
    <path
       id="rect1341-5"
       style="opacity:1;fill:url(#linearGradient1491);fill-opacity:1.0;stroke-width:0;stroke-linecap:round;stroke-linejoin:round;paint-order:stroke fill markers"
       d="m 14.550781,430 c 0.69084,1.1927 1.966219,2 3.449219,2 h 46 v -2 z" />
    <path
       id="path1455"
       style="opacity:0.08;fill:#000000;paint-order:stroke fill markers"
       d="m 18,400 c -2.216,0 -4,1.784 -4,4 v 24 c 0,0.73303 0.209301,1.4104 0.550781,2 h 1.22461 C 15.298211,429.46912 15,428.7733 15,428 v -24 c 0,-1.662 1.338,-3 3,-3 h 46 v -1 z" />
  </g>
  <use
     x="0"
     y="0"
     xlink:href="#linked-entry-firstchild-disabled"
     id="linked-entry-lastchild-disabled"
     transform="matrix(-1,0,0,1,188,0)"
     width="100%"
     height="100%" />
  <use
     x="0"
     y="0"
     xlink:href="#linked-entry-firstchild-normal"
     id="linked-entry-lastchild-normal"
     transform="matrix(-1,0,0,1,188,0)"
     width="100%"
     height="100%" />
  <use
     x="0"
     y="0"
     xlink:href="#linked-entry-firstchild-focus"
     id="linked-entry-lastchild-focus"
     transform="matrix(-1,0,0,1,188,0)"
     width="100%"
     height="100%" />
  <g
     id="linked-entry-firstchild-disabled-dark"
     transform="translate(207)">
    <path
       id="path1590"
       style="opacity:0.05;fill:#ffffff;paint-order:stroke fill markers"
       d="m 18,320 c -2.216,0 -4,1.784 -4,4 v 24 c 0,2.216 1.784,4 4,4 h 46 v -1 H 18 c -1.662,0 -3,-1.338 -3,-3 v -24 c 0,-1.662 1.338,-3 3,-3 h 46 v -1 z" />
  </g>
  <g
     id="linked-entry-normal-dark"
     transform="translate(207)">
    <path
       id="path1594"
       style="opacity:0.12;fill:#ffffff"
       d="m 64,360 v 1 h 60 v -1 z" />
    <path
       id="path1596"
       style="opacity:0.35;fill:#ffffff"
       d="m 64,391 v 1 h 60 v -1 z" />
  </g>
  <g
     id="linked-entry-focus-dark"
     transform="translate(207)">
    <path
       id="path1600"
       style="opacity:0.12;fill:#ffffff;paint-order:stroke fill markers"
       d="m 64,400 v 1 h 60 v -1 z" />
    <path
       id="path1602"
       style="fill:url(#linearGradient1624);fill-opacity:1.0"
       d="m 64,430 v 2 h 60 v -2 z" />
  </g>
  <g
     id="linked-entry-disabled-dark"
     transform="translate(207)">
    <path
       id="path1606"
       style="opacity:0.05;fill:#ffffff;paint-order:stroke fill markers"
       d="m 64,320 v 1 h 60 v -1 z m 0,31 v 1 h 60 v -1 z" />
  </g>
  <g
     id="linked-entry-firstchild-normal-dark"
     transform="translate(207)">
    <path
       id="path1610"
       style="opacity:0.35;fill:#ffffff;stroke-width:0;stroke-linecap:round;stroke-linejoin:round;paint-order:stroke fill markers"
       d="m 15.375,391 c 0.70295,0.61498 1.6133,1 2.625,1 h 46 v -1 H 18.005859 Z" />
    <path
       id="path1612"
       style="opacity:0.12;fill:#ffffff"
       d="m 18,360 c -2.216,0 -4,1.784 -4,4 v 24 c 0,1.2043 0.53816,2.2679 1.375,3 H 18 c -1.662,0 -3,-1.338 -3,-3 v -24 c 0,-1.662 1.338,-3 3,-3 h 46 v -1 z" />
  </g>
  <g
     id="linked-entry-firstchild-focus-dark"
     transform="translate(207)">
    <path
       id="path1616"
       style="opacity:1;fill:url(#linearGradient1622);fill-opacity:1.0;stroke-width:0;stroke-linecap:round;stroke-linejoin:round;paint-order:stroke fill markers"
       d="m 14.550781,430 c 0.69084,1.1927 1.966219,2 3.449219,2 h 46 v -2 z" />
    <path
       id="path1618"
       style="opacity:0.12;fill:#ffffff;paint-order:stroke fill markers"
       d="m 18,400 c -2.216,0 -4,1.784 -4,4 v 24 c 0,0.73303 0.209301,1.4104 0.550781,2 h 1.22461 C 15.298211,429.46912 15,428.7733 15,428 v -24 c 0,-1.662 1.338,-3 3,-3 h 46 v -1 z" />
  </g>
  <use
     x="0"
     y="0"
     xlink:href="#linked-entry-firstchild-disabled-dark"
     id="linked-entry-lastchild-disabled-dark"
     transform="matrix(-1,0,0,1,602,0)"
     width="100%"
     height="100%" />
  <use
     x="0"
     y="0"
     xlink:href="#linked-entry-firstchild-normal-dark"
     id="linked-entry-lastchild-normal-dark"
     transform="matrix(-1,0,0,1,602,0)"
     width="100%"
     height="100%" />
  <use
     x="0"
     y="0"
     xlink:href="#linked-entry-firstchild-focus-dark"
     id="linked-entry-lastchild-focus-dark"
     transform="matrix(-1,0,0,1,602,0)"
     width="100%"
     height="100%" />
</svg>
