<svg width="200" height="150" version="1.1" viewBox="0 0 52.917 39.688" xmlns="http://www.w3.org/2000/svg">
 <g id="thumbnail" transform="matrix(1.0111 0 0 .98856 .68286 -252.88)">
  <rect x="11.377" y="263.93" width="31.75" height="9.525" rx="0" ry="0" fill="#f2f2f2" stroke-width="0"/>
  <rect x="12.965" y="265.78" width="15.875" height="5.8208" rx=".52917" ry=".52917" fill="#ffffff" stroke="#e5e5e5" stroke-width=".26458"/>
  <g transform="translate(-58.872,5.1156)" fill="#b3b3b3" stroke-width=".085214" aria-label="Button">
   <path d="m74.699 263.61v0.91039h0.53925q0.27129 0 0.40111-0.11151 0.13148-0.11317 0.13148-0.34451 0-0.23301-0.13148-0.34286-0.12982-0.11151-0.40111-0.11151zm0-1.0219v0.74895h0.49764q0.24632 0 0.36616-0.0915 0.1215-0.0932 0.1215-0.28294 0-0.18807-0.1215-0.28127-0.11983-0.0932-0.36616-0.0932zm-0.3362-0.27628h0.8588q0.38446 0 0.5925 0.15977 0.20804 0.15978 0.20804 0.45437 0 0.22801-0.10652 0.36282t-0.3129 0.1681q0.24799 0.0533 0.38446 0.22302 0.13814 0.1681 0.13814 0.42108 0 0.33287-0.22635 0.51428-0.22635 0.18142-0.6441 0.18142h-0.89209z"/>
   <path d="m76.708 264.06v-1.1284h0.30624v1.1168q0 0.26463 0.10319 0.39777 0.10319 0.13149 0.30957 0.13149 0.24799 0 0.39112-0.15812 0.1448-0.15811 0.1448-0.43106v-1.0569h0.30624v1.8641h-0.30624v-0.28627q-0.11151 0.16976-0.25964 0.25298-0.14646 0.0815-0.34119 0.0815-0.32122 0-0.48765-0.19972t-0.16643-0.58418z"/>
   <path d="m79.006 262.4v0.52926h0.63078v0.238h-0.63078v1.0119q0 0.22802 0.06158 0.29293 0.06324 0.0649 0.25464 0.0649h0.31456v0.25631h-0.31456q-0.3545 0-0.48932-0.13149-0.13481-0.13315-0.13481-0.48266v-1.0119h-0.22469v-0.238h0.22469v-0.52926z"/>
   <path d="m80.691 262.4v0.52926h0.63078v0.238h-0.63078v1.0119q0 0.22802 0.06158 0.29293 0.06325 0.0649 0.25464 0.0649h0.31456v0.25631h-0.31456q-0.3545 0-0.48932-0.13149-0.13481-0.13315-0.13481-0.48266v-1.0119h-0.22469v-0.238h0.22469v-0.52926z"/>
   <path d="m82.794 263.14q-0.24632 0-0.38946 0.19307-0.14313 0.1914-0.14313 0.52593t0.14147 0.52759q0.14313 0.1914 0.39112 0.1914 0.24466 0 0.38779-0.19306t0.14313-0.52593q0-0.3312-0.14313-0.52427-0.14313-0.19473-0.38779-0.19473zm0-0.25963q0.39944 0 0.62746 0.25963 0.22802 0.25964 0.22802 0.719 0 0.45769-0.22802 0.71899-0.22801 0.25964-0.62746 0.25964-0.40111 0-0.62912-0.25964-0.22635-0.2613-0.22635-0.71899 0-0.45936 0.22635-0.719 0.22801-0.25963 0.62912-0.25963z"/>
   <path d="m85.546 263.67v1.1251h-0.30624v-1.1151q0-0.26463-0.10319-0.39612-0.10319-0.13148-0.30957-0.13148-0.24799 0-0.39112 0.15811-0.14313 0.15812-0.14313 0.43107v1.0535h-0.3079v-1.8641h0.3079v0.2896q0.10985-0.1681 0.25797-0.25132 0.14979-0.0832 0.34452-0.0832 0.32122 0 0.48599 0.19972 0.16477 0.19805 0.16477 0.58418z"/>
  </g>
  <g transform="translate(0 .43231)">
   <path d="m31.496 266.13c-0.26241 0-0.47366 0.21125-0.47366 0.47366v3.3156c0 0.26241 0.21125 0.47366 0.47366 0.47366h3.3156c0.26241 0 0.47366-0.21125 0.47366-0.47366v-3.3156c0-0.26241-0.21125-0.47366-0.47366-0.47366z" fill="#ffffff" stroke-linecap="round" stroke-linejoin="round" stroke-width=".35524" style="paint-order:stroke fill markers"/>
   <path d="m31.302 265.88c-0.29316 0-0.52917 0.23601-0.52917 0.52917v3.7042c0 0.29316 0.23601 0.52917 0.52917 0.52917h3.7042c0.29316 0 0.52917-0.23601 0.52917-0.52917v-3.7042c0-0.29316-0.23601-0.52917-0.52917-0.52917zm3.0819 1.4945 0.18603 0.18604-1.9451 1.9472-0.88678-0.88884 0.18603-0.18603 0.70072 0.69865 1.7591-1.757z" fill="#0078d4" stroke-linecap="round" stroke-linejoin="round" stroke-width=".39688" style="paint-order:stroke fill markers"/>
   <path d="m39.239 265.88c-1.3144 0-2.3812 1.0668-2.3812 2.3812s1.0668 2.3812 2.3812 2.3812 2.3812-1.0668 2.3812-2.3812-1.0668-2.3812-2.3812-2.3812z" fill="#ffffff" stroke-width=".23812"/>
   <path d="m39.239 265.61c-1.4605 0-2.6458 1.1853-2.6458 2.6458s1.1853 2.6458 2.6458 2.6458 2.6458-1.1853 2.6458-2.6458-1.1853-2.6458-2.6458-2.6458zm0 1.3229a1.3229 1.3229 0 0 1 1.3229 1.3229 1.3229 1.3229 0 0 1-1.3229 1.3229 1.3229 1.3229 0 0 1-1.3229-1.3229 1.3229 1.3229 0 0 1 1.3229-1.3229z" fill="#0078d4" stroke-width=".26458"/>
  </g>
 </g>
 <g id="thumbnail-dark" transform="translate(2.9257 -254.57)">
  <rect x="9.2604" y="277.67" width="32.102" height="9.4161" rx="0" ry="0" fill="#333333" stroke-width="0"/>
  <rect x="10.866" y="279.5" width="16.051" height="5.7543" rx=".53504" ry=".52312" fill="#555555" stroke="#808080" stroke-width=".265"/>
  <g transform="matrix(1.0111 0 0 .98856 -61.768 21.818)" fill="#dedede" stroke-width=".085214" aria-label="Button">
   <path d="m74.699 263.61v0.91039h0.53925q0.27129 0 0.40111-0.11151 0.13148-0.11317 0.13148-0.34451 0-0.23301-0.13148-0.34286-0.12982-0.11151-0.40111-0.11151zm0-1.0219v0.74895h0.49764q0.24632 0 0.36616-0.0915 0.1215-0.0932 0.1215-0.28294 0-0.18807-0.1215-0.28127-0.11983-0.0932-0.36616-0.0932zm-0.3362-0.27628h0.8588q0.38446 0 0.5925 0.15977 0.20804 0.15978 0.20804 0.45437 0 0.22801-0.10652 0.36282t-0.3129 0.1681q0.24799 0.0533 0.38446 0.22302 0.13814 0.1681 0.13814 0.42108 0 0.33287-0.22635 0.51428-0.22635 0.18142-0.6441 0.18142h-0.89209z"/>
   <path d="m76.708 264.06v-1.1284h0.30624v1.1168q0 0.26463 0.10319 0.39777 0.10319 0.13149 0.30957 0.13149 0.24799 0 0.39112-0.15812 0.1448-0.15811 0.1448-0.43106v-1.0569h0.30624v1.8641h-0.30624v-0.28627q-0.11151 0.16976-0.25964 0.25298-0.14646 0.0815-0.34119 0.0815-0.32122 0-0.48765-0.19972t-0.16643-0.58418z"/>
   <path d="m79.006 262.4v0.52926h0.63078v0.238h-0.63078v1.0119q0 0.22802 0.06158 0.29293 0.06324 0.0649 0.25464 0.0649h0.31456v0.25631h-0.31456q-0.3545 0-0.48932-0.13149-0.13481-0.13315-0.13481-0.48266v-1.0119h-0.22469v-0.238h0.22469v-0.52926z"/>
   <path d="m80.691 262.4v0.52926h0.63078v0.238h-0.63078v1.0119q0 0.22802 0.06158 0.29293 0.06325 0.0649 0.25464 0.0649h0.31456v0.25631h-0.31456q-0.3545 0-0.48932-0.13149-0.13481-0.13315-0.13481-0.48266v-1.0119h-0.22469v-0.238h0.22469v-0.52926z"/>
   <path d="m82.794 263.14q-0.24632 0-0.38946 0.19307-0.14313 0.1914-0.14313 0.52593t0.14147 0.52759q0.14313 0.1914 0.39112 0.1914 0.24466 0 0.38779-0.19306t0.14313-0.52593q0-0.3312-0.14313-0.52427-0.14313-0.19473-0.38779-0.19473zm0-0.25963q0.39944 0 0.62746 0.25963 0.22802 0.25964 0.22802 0.719 0 0.45769-0.22802 0.71899-0.22801 0.25964-0.62746 0.25964-0.40111 0-0.62912-0.25964-0.22635-0.2613-0.22635-0.71899 0-0.45936 0.22635-0.719 0.22801-0.25963 0.62912-0.25963z"/>
   <path d="m85.546 263.67v1.1251h-0.30624v-1.1151q0-0.26463-0.10319-0.39612-0.10319-0.13148-0.30957-0.13148-0.24799 0-0.39112 0.15811-0.14313 0.15812-0.14313 0.43107v1.0535h-0.3079v-1.8641h0.3079v0.2896q0.10985-0.1681 0.25797-0.25132 0.14979-0.0832 0.34452-0.0832 0.32122 0 0.48599 0.19972 0.16477 0.19805 0.16477 0.58418z"/>
  </g>
  <g transform="matrix(1.0111 0 0 .98856 -2.2428 17.188)">
   <path d="m31.496 266.13c-0.26241 0-0.47366 0.21125-0.47366 0.47366v3.3156c0 0.26241 0.21125 0.47366 0.47366 0.47366h3.3156c0.26241 0 0.47366-0.21125 0.47366-0.47366v-3.3156c0-0.26241-0.21125-0.47366-0.47366-0.47366z" fill="#ffffff" stroke-linecap="round" stroke-linejoin="round" stroke-width=".35524" style="paint-order:stroke fill markers"/>
   <path d="m31.302 265.88c-0.29316 0-0.52917 0.23601-0.52917 0.52917v3.7042c0 0.29316 0.23601 0.52917 0.52917 0.52917h3.7042c0.29316 0 0.52917-0.23601 0.52917-0.52917v-3.7042c0-0.29316-0.23601-0.52917-0.52917-0.52917zm3.0819 1.4945 0.18603 0.18604-1.9451 1.9472-0.88678-0.88884 0.18603-0.18603 0.70072 0.69865 1.7591-1.757z" fill="#0078d4" stroke-linecap="round" stroke-linejoin="round" stroke-width=".39688" style="paint-order:stroke fill markers"/>
   <path d="m39.239 265.88c-1.3144 0-2.3812 1.0668-2.3812 2.3812s1.0668 2.3812 2.3812 2.3812 2.3812-1.0668 2.3812-2.3812-1.0668-2.3812-2.3812-2.3812z" fill="#ffffff" stroke-width=".23812"/>
   <path d="m39.239 265.61c-1.4605 0-2.6458 1.1853-2.6458 2.6458s1.1853 2.6458 2.6458 2.6458 2.6458-1.1853 2.6458-2.6458-1.1853-2.6458-2.6458-2.6458zm0 1.3229a1.3229 1.3229 0 0 1 1.3229 1.3229 1.3229 1.3229 0 0 1-1.3229 1.3229 1.3229 1.3229 0 0 1-1.3229-1.3229 1.3229 1.3229 0 0 1 1.3229-1.3229z" fill="#0078d4" stroke-width=".26458"/>
  </g>
 </g>
 <g id="thumbnail-green" transform="matrix(1.0111 0 0 .98856 47.232 -252.88)">
  <rect x="11.377" y="263.93" width="31.75" height="9.525" rx="0" ry="0" fill="#f2f2f2" stroke-width="0"/>
  <rect x="12.965" y="265.78" width="15.875" height="5.8208" rx=".52917" ry=".52917" fill="#ffffff" stroke="#e5e5e5" stroke-width=".26458"/>
  <g transform="translate(-58.872,5.1156)" fill="#b3b3b3" stroke-width=".085214" aria-label="Button">
   <path d="m74.699 263.61v0.91039h0.53925q0.27129 0 0.40111-0.11151 0.13148-0.11317 0.13148-0.34451 0-0.23301-0.13148-0.34286-0.12982-0.11151-0.40111-0.11151zm0-1.0219v0.74895h0.49764q0.24632 0 0.36616-0.0915 0.1215-0.0932 0.1215-0.28294 0-0.18807-0.1215-0.28127-0.11983-0.0932-0.36616-0.0932zm-0.3362-0.27628h0.8588q0.38446 0 0.5925 0.15977 0.20804 0.15978 0.20804 0.45437 0 0.22801-0.10652 0.36282t-0.3129 0.1681q0.24799 0.0533 0.38446 0.22302 0.13814 0.1681 0.13814 0.42108 0 0.33287-0.22635 0.51428-0.22635 0.18142-0.6441 0.18142h-0.89209z"/>
   <path d="m76.708 264.06v-1.1284h0.30624v1.1168q0 0.26463 0.10319 0.39777 0.10319 0.13149 0.30957 0.13149 0.24799 0 0.39112-0.15812 0.1448-0.15811 0.1448-0.43106v-1.0569h0.30624v1.8641h-0.30624v-0.28627q-0.11151 0.16976-0.25964 0.25298-0.14646 0.0815-0.34119 0.0815-0.32122 0-0.48765-0.19972t-0.16643-0.58418z"/>
   <path d="m79.006 262.4v0.52926h0.63078v0.238h-0.63078v1.0119q0 0.22802 0.06158 0.29293 0.06324 0.0649 0.25464 0.0649h0.31456v0.25631h-0.31456q-0.3545 0-0.48932-0.13149-0.13481-0.13315-0.13481-0.48266v-1.0119h-0.22469v-0.238h0.22469v-0.52926z"/>
   <path d="m80.691 262.4v0.52926h0.63078v0.238h-0.63078v1.0119q0 0.22802 0.06158 0.29293 0.06325 0.0649 0.25464 0.0649h0.31456v0.25631h-0.31456q-0.3545 0-0.48932-0.13149-0.13481-0.13315-0.13481-0.48266v-1.0119h-0.22469v-0.238h0.22469v-0.52926z"/>
   <path d="m82.794 263.14q-0.24632 0-0.38946 0.19307-0.14313 0.1914-0.14313 0.52593t0.14147 0.52759q0.14313 0.1914 0.39112 0.1914 0.24466 0 0.38779-0.19306t0.14313-0.52593q0-0.3312-0.14313-0.52427-0.14313-0.19473-0.38779-0.19473zm0-0.25963q0.39944 0 0.62746 0.25963 0.22802 0.25964 0.22802 0.719 0 0.45769-0.22802 0.71899-0.22801 0.25964-0.62746 0.25964-0.40111 0-0.62912-0.25964-0.22635-0.2613-0.22635-0.71899 0-0.45936 0.22635-0.719 0.22801-0.25963 0.62912-0.25963z"/>
   <path d="m85.546 263.67v1.1251h-0.30624v-1.1151q0-0.26463-0.10319-0.39612-0.10319-0.13148-0.30957-0.13148-0.24799 0-0.39112 0.15811-0.14313 0.15812-0.14313 0.43107v1.0535h-0.3079v-1.8641h0.3079v0.2896q0.10985-0.1681 0.25797-0.25132 0.14979-0.0832 0.34452-0.0832 0.32122 0 0.48599 0.19972 0.16477 0.19805 0.16477 0.58418z"/>
  </g>
  <g transform="translate(0 .43231)">
   <path d="m31.496 266.13c-0.26241 0-0.47366 0.21125-0.47366 0.47366v3.3156c0 0.26241 0.21125 0.47366 0.47366 0.47366h3.3156c0.26241 0 0.47366-0.21125 0.47366-0.47366v-3.3156c0-0.26241-0.21125-0.47366-0.47366-0.47366z" fill="#ffffff" stroke-linecap="round" stroke-linejoin="round" stroke-width=".35524" style="paint-order:stroke fill markers"/>
   <path d="m31.302 265.88c-0.29316 0-0.52917 0.23601-0.52917 0.52917v3.7042c0 0.29316 0.23601 0.52917 0.52917 0.52917h3.7042c0.29316 0 0.52917-0.23601 0.52917-0.52917v-3.7042c0-0.29316-0.23601-0.52917-0.52917-0.52917zm3.0819 1.4945 0.18603 0.18604-1.9451 1.9472-0.88678-0.88884 0.18603-0.18603 0.70072 0.69865 1.7591-1.757z" fill="#4caf50" stroke-linecap="round" stroke-linejoin="round" stroke-width=".39688" style="paint-order:stroke fill markers"/>
   <path d="m39.239 265.88c-1.3144 0-2.3812 1.0668-2.3812 2.3812s1.0668 2.3812 2.3812 2.3812 2.3812-1.0668 2.3812-2.3812-1.0668-2.3812-2.3812-2.3812z" fill="#ffffff" stroke-width=".23812"/>
   <path d="m39.239 265.61c-1.4605 0-2.6458 1.1853-2.6458 2.6458s1.1853 2.6458 2.6458 2.6458 2.6458-1.1853 2.6458-2.6458-1.1853-2.6458-2.6458-2.6458zm0 1.3229a1.3229 1.3229 0 0 1 1.3229 1.3229 1.3229 1.3229 0 0 1-1.3229 1.3229 1.3229 1.3229 0 0 1-1.3229-1.3229 1.3229 1.3229 0 0 1 1.3229-1.3229z" fill="#4caf50" stroke-width=".26458"/>
  </g>
 </g>
 <g id="thumbnail-green-dark" transform="translate(49.475 -254.57)">
  <rect x="9.2604" y="277.67" width="32.102" height="9.4161" rx="0" ry="0" fill="#333333" stroke-width="0"/>
  <rect x="10.866" y="279.5" width="16.051" height="5.7543" rx=".53504" ry=".52312" fill="#555555" stroke="#808080" stroke-width=".265"/>
  <g transform="matrix(1.0111 0 0 .98856 -61.768 21.818)" fill="#dedede" stroke-width=".085214" aria-label="Button">
   <path d="m74.699 263.61v0.91039h0.53925q0.27129 0 0.40111-0.11151 0.13148-0.11317 0.13148-0.34451 0-0.23301-0.13148-0.34286-0.12982-0.11151-0.40111-0.11151zm0-1.0219v0.74895h0.49764q0.24632 0 0.36616-0.0915 0.1215-0.0932 0.1215-0.28294 0-0.18807-0.1215-0.28127-0.11983-0.0932-0.36616-0.0932zm-0.3362-0.27628h0.8588q0.38446 0 0.5925 0.15977 0.20804 0.15978 0.20804 0.45437 0 0.22801-0.10652 0.36282t-0.3129 0.1681q0.24799 0.0533 0.38446 0.22302 0.13814 0.1681 0.13814 0.42108 0 0.33287-0.22635 0.51428-0.22635 0.18142-0.6441 0.18142h-0.89209z"/>
   <path d="m76.708 264.06v-1.1284h0.30624v1.1168q0 0.26463 0.10319 0.39777 0.10319 0.13149 0.30957 0.13149 0.24799 0 0.39112-0.15812 0.1448-0.15811 0.1448-0.43106v-1.0569h0.30624v1.8641h-0.30624v-0.28627q-0.11151 0.16976-0.25964 0.25298-0.14646 0.0815-0.34119 0.0815-0.32122 0-0.48765-0.19972t-0.16643-0.58418z"/>
   <path d="m79.006 262.4v0.52926h0.63078v0.238h-0.63078v1.0119q0 0.22802 0.06158 0.29293 0.06324 0.0649 0.25464 0.0649h0.31456v0.25631h-0.31456q-0.3545 0-0.48932-0.13149-0.13481-0.13315-0.13481-0.48266v-1.0119h-0.22469v-0.238h0.22469v-0.52926z"/>
   <path d="m80.691 262.4v0.52926h0.63078v0.238h-0.63078v1.0119q0 0.22802 0.06158 0.29293 0.06325 0.0649 0.25464 0.0649h0.31456v0.25631h-0.31456q-0.3545 0-0.48932-0.13149-0.13481-0.13315-0.13481-0.48266v-1.0119h-0.22469v-0.238h0.22469v-0.52926z"/>
   <path d="m82.794 263.14q-0.24632 0-0.38946 0.19307-0.14313 0.1914-0.14313 0.52593t0.14147 0.52759q0.14313 0.1914 0.39112 0.1914 0.24466 0 0.38779-0.19306t0.14313-0.52593q0-0.3312-0.14313-0.52427-0.14313-0.19473-0.38779-0.19473zm0-0.25963q0.39944 0 0.62746 0.25963 0.22802 0.25964 0.22802 0.719 0 0.45769-0.22802 0.71899-0.22801 0.25964-0.62746 0.25964-0.40111 0-0.62912-0.25964-0.22635-0.2613-0.22635-0.71899 0-0.45936 0.22635-0.719 0.22801-0.25963 0.62912-0.25963z"/>
   <path d="m85.546 263.67v1.1251h-0.30624v-1.1151q0-0.26463-0.10319-0.39612-0.10319-0.13148-0.30957-0.13148-0.24799 0-0.39112 0.15811-0.14313 0.15812-0.14313 0.43107v1.0535h-0.3079v-1.8641h0.3079v0.2896q0.10985-0.1681 0.25797-0.25132 0.14979-0.0832 0.34452-0.0832 0.32122 0 0.48599 0.19972 0.16477 0.19805 0.16477 0.58418z"/>
  </g>
  <g transform="matrix(1.0111 0 0 .98856 -2.2428 17.188)">
   <path d="m31.496 266.13c-0.26241 0-0.47366 0.21125-0.47366 0.47366v3.3156c0 0.26241 0.21125 0.47366 0.47366 0.47366h3.3156c0.26241 0 0.47366-0.21125 0.47366-0.47366v-3.3156c0-0.26241-0.21125-0.47366-0.47366-0.47366z" fill="#ffffff" stroke-linecap="round" stroke-linejoin="round" stroke-width=".35524" style="paint-order:stroke fill markers"/>
   <path d="m31.302 265.88c-0.29316 0-0.52917 0.23601-0.52917 0.52917v3.7042c0 0.29316 0.23601 0.52917 0.52917 0.52917h3.7042c0.29316 0 0.52917-0.23601 0.52917-0.52917v-3.7042c0-0.29316-0.23601-0.52917-0.52917-0.52917zm3.0819 1.4945 0.18603 0.18604-1.9451 1.9472-0.88678-0.88884 0.18603-0.18603 0.70072 0.69865 1.7591-1.757z" fill="#4caf50" stroke-linecap="round" stroke-linejoin="round" stroke-width=".39688" style="paint-order:stroke fill markers"/>
   <path d="m39.239 265.88c-1.3144 0-2.3812 1.0668-2.3812 2.3812s1.0668 2.3812 2.3812 2.3812 2.3812-1.0668 2.3812-2.3812-1.0668-2.3812-2.3812-2.3812z" fill="#ffffff" stroke-width=".23812"/>
   <path d="m39.239 265.61c-1.4605 0-2.6458 1.1853-2.6458 2.6458s1.1853 2.6458 2.6458 2.6458 2.6458-1.1853 2.6458-2.6458-1.1853-2.6458-2.6458-2.6458zm0 1.3229a1.3229 1.3229 0 0 1 1.3229 1.3229 1.3229 1.3229 0 0 1-1.3229 1.3229 1.3229 1.3229 0 0 1-1.3229-1.3229 1.3229 1.3229 0 0 1 1.3229-1.3229z" fill="#4caf50" stroke-width=".26458"/>
  </g>
 </g>
 <g id="thumbnail-grey" transform="matrix(1.0111 0 0 .98856 151.72 -252.88)">
  <rect x="11.377" y="263.93" width="31.75" height="9.525" rx="0" ry="0" fill="#f2f2f2" stroke-width="0"/>
  <rect x="12.965" y="265.78" width="15.875" height="5.8208" rx=".52917" ry=".52917" fill="#ffffff" stroke="#e5e5e5" stroke-width=".26458"/>
  <g transform="translate(-58.872,5.1156)" fill="#b3b3b3" stroke-width=".085214" aria-label="Button">
   <path d="m74.699 263.61v0.91039h0.53925q0.27129 0 0.40111-0.11151 0.13148-0.11317 0.13148-0.34451 0-0.23301-0.13148-0.34286-0.12982-0.11151-0.40111-0.11151zm0-1.0219v0.74895h0.49764q0.24632 0 0.36616-0.0915 0.1215-0.0932 0.1215-0.28294 0-0.18807-0.1215-0.28127-0.11983-0.0932-0.36616-0.0932zm-0.3362-0.27628h0.8588q0.38446 0 0.5925 0.15977 0.20804 0.15978 0.20804 0.45437 0 0.22801-0.10652 0.36282t-0.3129 0.1681q0.24799 0.0533 0.38446 0.22302 0.13814 0.1681 0.13814 0.42108 0 0.33287-0.22635 0.51428-0.22635 0.18142-0.6441 0.18142h-0.89209z"/>
   <path d="m76.708 264.06v-1.1284h0.30624v1.1168q0 0.26463 0.10319 0.39777 0.10319 0.13149 0.30957 0.13149 0.24799 0 0.39112-0.15812 0.1448-0.15811 0.1448-0.43106v-1.0569h0.30624v1.8641h-0.30624v-0.28627q-0.11151 0.16976-0.25964 0.25298-0.14646 0.0815-0.34119 0.0815-0.32122 0-0.48765-0.19972t-0.16643-0.58418z"/>
   <path d="m79.006 262.4v0.52926h0.63078v0.238h-0.63078v1.0119q0 0.22802 0.06158 0.29293 0.06324 0.0649 0.25464 0.0649h0.31456v0.25631h-0.31456q-0.3545 0-0.48932-0.13149-0.13481-0.13315-0.13481-0.48266v-1.0119h-0.22469v-0.238h0.22469v-0.52926z"/>
   <path d="m80.691 262.4v0.52926h0.63078v0.238h-0.63078v1.0119q0 0.22802 0.06158 0.29293 0.06325 0.0649 0.25464 0.0649h0.31456v0.25631h-0.31456q-0.3545 0-0.48932-0.13149-0.13481-0.13315-0.13481-0.48266v-1.0119h-0.22469v-0.238h0.22469v-0.52926z"/>
   <path d="m82.794 263.14q-0.24632 0-0.38946 0.19307-0.14313 0.1914-0.14313 0.52593t0.14147 0.52759q0.14313 0.1914 0.39112 0.1914 0.24466 0 0.38779-0.19306t0.14313-0.52593q0-0.3312-0.14313-0.52427-0.14313-0.19473-0.38779-0.19473zm0-0.25963q0.39944 0 0.62746 0.25963 0.22802 0.25964 0.22802 0.719 0 0.45769-0.22802 0.71899-0.22801 0.25964-0.62746 0.25964-0.40111 0-0.62912-0.25964-0.22635-0.2613-0.22635-0.71899 0-0.45936 0.22635-0.719 0.22801-0.25963 0.62912-0.25963z"/>
   <path d="m85.546 263.67v1.1251h-0.30624v-1.1151q0-0.26463-0.10319-0.39612-0.10319-0.13148-0.30957-0.13148-0.24799 0-0.39112 0.15811-0.14313 0.15812-0.14313 0.43107v1.0535h-0.3079v-1.8641h0.3079v0.2896q0.10985-0.1681 0.25797-0.25132 0.14979-0.0832 0.34452-0.0832 0.32122 0 0.48599 0.19972 0.16477 0.19805 0.16477 0.58418z"/>
  </g>
  <g transform="translate(0 .43231)">
   <path d="m31.496 266.13c-0.26241 0-0.47366 0.21125-0.47366 0.47366v3.3156c0 0.26241 0.21125 0.47366 0.47366 0.47366h3.3156c0.26241 0 0.47366-0.21125 0.47366-0.47366v-3.3156c0-0.26241-0.21125-0.47366-0.47366-0.47366z" fill="#ffffff" stroke-linecap="round" stroke-linejoin="round" stroke-width=".35524" style="paint-order:stroke fill markers"/>
   <path d="m31.302 265.88c-0.29316 0-0.52917 0.23601-0.52917 0.52917v3.7042c0 0.29316 0.23601 0.52917 0.52917 0.52917h3.7042c0.29316 0 0.52917-0.23601 0.52917-0.52917v-3.7042c0-0.29316-0.23601-0.52917-0.52917-0.52917zm3.0819 1.4945 0.18603 0.18604-1.9451 1.9472-0.88678-0.88884 0.18603-0.18603 0.70072 0.69865 1.7591-1.757z" fill="#616161" stroke-linecap="round" stroke-linejoin="round" stroke-width=".39688" style="paint-order:stroke fill markers"/>
   <path d="m39.239 265.88c-1.3144 0-2.3812 1.0668-2.3812 2.3812s1.0668 2.3812 2.3812 2.3812 2.3812-1.0668 2.3812-2.3812-1.0668-2.3812-2.3812-2.3812z" fill="#ffffff" stroke-width=".23812"/>
   <path d="m39.239 265.61c-1.4605 0-2.6458 1.1853-2.6458 2.6458s1.1853 2.6458 2.6458 2.6458 2.6458-1.1853 2.6458-2.6458-1.1853-2.6458-2.6458-2.6458zm0 1.3229a1.3229 1.3229 0 0 1 1.3229 1.3229 1.3229 1.3229 0 0 1-1.3229 1.3229 1.3229 1.3229 0 0 1-1.3229-1.3229 1.3229 1.3229 0 0 1 1.3229-1.3229z" fill="#616161" stroke-width=".26458"/>
  </g>
 </g>
 <g id="thumbnail-grey-dark" transform="translate(153.97 -254.57)">
  <rect x="9.2604" y="277.67" width="32.102" height="9.4161" rx="0" ry="0" fill="#333333" stroke-width="0"/>
  <rect x="10.866" y="279.5" width="16.051" height="5.7543" rx=".53504" ry=".52312" fill="#555555" stroke="#808080" stroke-width=".265"/>
  <g transform="matrix(1.0111 0 0 .98856 -61.768 21.818)" fill="#dedede" stroke-width=".085214" aria-label="Button">
   <path d="m74.699 263.61v0.91039h0.53925q0.27129 0 0.40111-0.11151 0.13148-0.11317 0.13148-0.34451 0-0.23301-0.13148-0.34286-0.12982-0.11151-0.40111-0.11151zm0-1.0219v0.74895h0.49764q0.24632 0 0.36616-0.0915 0.1215-0.0932 0.1215-0.28294 0-0.18807-0.1215-0.28127-0.11983-0.0932-0.36616-0.0932zm-0.3362-0.27628h0.8588q0.38446 0 0.5925 0.15977 0.20804 0.15978 0.20804 0.45437 0 0.22801-0.10652 0.36282t-0.3129 0.1681q0.24799 0.0533 0.38446 0.22302 0.13814 0.1681 0.13814 0.42108 0 0.33287-0.22635 0.51428-0.22635 0.18142-0.6441 0.18142h-0.89209z"/>
   <path d="m76.708 264.06v-1.1284h0.30624v1.1168q0 0.26463 0.10319 0.39777 0.10319 0.13149 0.30957 0.13149 0.24799 0 0.39112-0.15812 0.1448-0.15811 0.1448-0.43106v-1.0569h0.30624v1.8641h-0.30624v-0.28627q-0.11151 0.16976-0.25964 0.25298-0.14646 0.0815-0.34119 0.0815-0.32122 0-0.48765-0.19972t-0.16643-0.58418z"/>
   <path d="m79.006 262.4v0.52926h0.63078v0.238h-0.63078v1.0119q0 0.22802 0.06158 0.29293 0.06324 0.0649 0.25464 0.0649h0.31456v0.25631h-0.31456q-0.3545 0-0.48932-0.13149-0.13481-0.13315-0.13481-0.48266v-1.0119h-0.22469v-0.238h0.22469v-0.52926z"/>
   <path d="m80.691 262.4v0.52926h0.63078v0.238h-0.63078v1.0119q0 0.22802 0.06158 0.29293 0.06325 0.0649 0.25464 0.0649h0.31456v0.25631h-0.31456q-0.3545 0-0.48932-0.13149-0.13481-0.13315-0.13481-0.48266v-1.0119h-0.22469v-0.238h0.22469v-0.52926z"/>
   <path d="m82.794 263.14q-0.24632 0-0.38946 0.19307-0.14313 0.1914-0.14313 0.52593t0.14147 0.52759q0.14313 0.1914 0.39112 0.1914 0.24466 0 0.38779-0.19306t0.14313-0.52593q0-0.3312-0.14313-0.52427-0.14313-0.19473-0.38779-0.19473zm0-0.25963q0.39944 0 0.62746 0.25963 0.22802 0.25964 0.22802 0.719 0 0.45769-0.22802 0.71899-0.22801 0.25964-0.62746 0.25964-0.40111 0-0.62912-0.25964-0.22635-0.2613-0.22635-0.71899 0-0.45936 0.22635-0.719 0.22801-0.25963 0.62912-0.25963z"/>
   <path d="m85.546 263.67v1.1251h-0.30624v-1.1151q0-0.26463-0.10319-0.39612-0.10319-0.13148-0.30957-0.13148-0.24799 0-0.39112 0.15811-0.14313 0.15812-0.14313 0.43107v1.0535h-0.3079v-1.8641h0.3079v0.2896q0.10985-0.1681 0.25797-0.25132 0.14979-0.0832 0.34452-0.0832 0.32122 0 0.48599 0.19972 0.16477 0.19805 0.16477 0.58418z"/>
  </g>
  <g transform="matrix(1.0111 0 0 .98856 -2.2428 17.188)">
   <path d="m31.496 266.13c-0.26241 0-0.47366 0.21125-0.47366 0.47366v3.3156c0 0.26241 0.21125 0.47366 0.47366 0.47366h3.3156c0.26241 0 0.47366-0.21125 0.47366-0.47366v-3.3156c0-0.26241-0.21125-0.47366-0.47366-0.47366z" fill="#ffffff" stroke-linecap="round" stroke-linejoin="round" stroke-width=".35524" style="paint-order:stroke fill markers"/>
   <path d="m31.302 265.88c-0.29316 0-0.52917 0.23601-0.52917 0.52917v3.7042c0 0.29316 0.23601 0.52917 0.52917 0.52917h3.7042c0.29316 0 0.52917-0.23601 0.52917-0.52917v-3.7042c0-0.29316-0.23601-0.52917-0.52917-0.52917zm3.0819 1.4945 0.18603 0.18604-1.9451 1.9472-0.88678-0.88884 0.18603-0.18603 0.70072 0.69865 1.7591-1.757z" fill="#616161" stroke-linecap="round" stroke-linejoin="round" stroke-width=".39688" style="paint-order:stroke fill markers"/>
   <path d="m39.239 265.88c-1.3144 0-2.3812 1.0668-2.3812 2.3812s1.0668 2.3812 2.3812 2.3812 2.3812-1.0668 2.3812-2.3812-1.0668-2.3812-2.3812-2.3812z" fill="#ffffff" stroke-width=".23812"/>
   <path d="m39.239 265.61c-1.4605 0-2.6458 1.1853-2.6458 2.6458s1.1853 2.6458 2.6458 2.6458 2.6458-1.1853 2.6458-2.6458-1.1853-2.6458-2.6458-2.6458zm0 1.3229a1.3229 1.3229 0 0 1 1.3229 1.3229 1.3229 1.3229 0 0 1-1.3229 1.3229 1.3229 1.3229 0 0 1-1.3229-1.3229 1.3229 1.3229 0 0 1 1.3229-1.3229z" fill="#616161" stroke-width=".26458"/>
  </g>
 </g>
 <g id="thumbnail-orange" transform="matrix(1.0111 0 0 .98856 198.27 -252.88)">
  <rect x="11.377" y="263.93" width="31.75" height="9.525" rx="0" ry="0" fill="#f2f2f2" stroke-width="0"/>
  <rect x="12.965" y="265.78" width="15.875" height="5.8208" rx=".52917" ry=".52917" fill="#ffffff" stroke="#e5e5e5" stroke-width=".26458"/>
  <g transform="translate(-58.872,5.1156)" fill="#b3b3b3" stroke-width=".085214" aria-label="Button">
   <path d="m74.699 263.61v0.91039h0.53925q0.27129 0 0.40111-0.11151 0.13148-0.11317 0.13148-0.34451 0-0.23301-0.13148-0.34286-0.12982-0.11151-0.40111-0.11151zm0-1.0219v0.74895h0.49764q0.24632 0 0.36616-0.0915 0.1215-0.0932 0.1215-0.28294 0-0.18807-0.1215-0.28127-0.11983-0.0932-0.36616-0.0932zm-0.3362-0.27628h0.8588q0.38446 0 0.5925 0.15977 0.20804 0.15978 0.20804 0.45437 0 0.22801-0.10652 0.36282t-0.3129 0.1681q0.24799 0.0533 0.38446 0.22302 0.13814 0.1681 0.13814 0.42108 0 0.33287-0.22635 0.51428-0.22635 0.18142-0.6441 0.18142h-0.89209z"/>
   <path d="m76.708 264.06v-1.1284h0.30624v1.1168q0 0.26463 0.10319 0.39777 0.10319 0.13149 0.30957 0.13149 0.24799 0 0.39112-0.15812 0.1448-0.15811 0.1448-0.43106v-1.0569h0.30624v1.8641h-0.30624v-0.28627q-0.11151 0.16976-0.25964 0.25298-0.14646 0.0815-0.34119 0.0815-0.32122 0-0.48765-0.19972t-0.16643-0.58418z"/>
   <path d="m79.006 262.4v0.52926h0.63078v0.238h-0.63078v1.0119q0 0.22802 0.06158 0.29293 0.06324 0.0649 0.25464 0.0649h0.31456v0.25631h-0.31456q-0.3545 0-0.48932-0.13149-0.13481-0.13315-0.13481-0.48266v-1.0119h-0.22469v-0.238h0.22469v-0.52926z"/>
   <path d="m80.691 262.4v0.52926h0.63078v0.238h-0.63078v1.0119q0 0.22802 0.06158 0.29293 0.06325 0.0649 0.25464 0.0649h0.31456v0.25631h-0.31456q-0.3545 0-0.48932-0.13149-0.13481-0.13315-0.13481-0.48266v-1.0119h-0.22469v-0.238h0.22469v-0.52926z"/>
   <path d="m82.794 263.14q-0.24632 0-0.38946 0.19307-0.14313 0.1914-0.14313 0.52593t0.14147 0.52759q0.14313 0.1914 0.39112 0.1914 0.24466 0 0.38779-0.19306t0.14313-0.52593q0-0.3312-0.14313-0.52427-0.14313-0.19473-0.38779-0.19473zm0-0.25963q0.39944 0 0.62746 0.25963 0.22802 0.25964 0.22802 0.719 0 0.45769-0.22802 0.71899-0.22801 0.25964-0.62746 0.25964-0.40111 0-0.62912-0.25964-0.22635-0.2613-0.22635-0.71899 0-0.45936 0.22635-0.719 0.22801-0.25963 0.62912-0.25963z"/>
   <path d="m85.546 263.67v1.1251h-0.30624v-1.1151q0-0.26463-0.10319-0.39612-0.10319-0.13148-0.30957-0.13148-0.24799 0-0.39112 0.15811-0.14313 0.15812-0.14313 0.43107v1.0535h-0.3079v-1.8641h0.3079v0.2896q0.10985-0.1681 0.25797-0.25132 0.14979-0.0832 0.34452-0.0832 0.32122 0 0.48599 0.19972 0.16477 0.19805 0.16477 0.58418z"/>
  </g>
  <g transform="translate(0 .43231)">
   <path d="m31.496 266.13c-0.26241 0-0.47366 0.21125-0.47366 0.47366v3.3156c0 0.26241 0.21125 0.47366 0.47366 0.47366h3.3156c0.26241 0 0.47366-0.21125 0.47366-0.47366v-3.3156c0-0.26241-0.21125-0.47366-0.47366-0.47366z" fill="#ffffff" stroke-linecap="round" stroke-linejoin="round" stroke-width=".35524" style="paint-order:stroke fill markers"/>
   <path d="m31.302 265.88c-0.29316 0-0.52917 0.23601-0.52917 0.52917v3.7042c0 0.29316 0.23601 0.52917 0.52917 0.52917h3.7042c0.29316 0 0.52917-0.23601 0.52917-0.52917v-3.7042c0-0.29316-0.23601-0.52917-0.52917-0.52917zm3.0819 1.4945 0.18603 0.18604-1.9451 1.9472-0.88678-0.88884 0.18603-0.18603 0.70072 0.69865 1.7591-1.757z" fill="#f57c00" stroke-linecap="round" stroke-linejoin="round" stroke-width=".39688" style="paint-order:stroke fill markers"/>
   <path d="m39.239 265.88c-1.3144 0-2.3812 1.0668-2.3812 2.3812s1.0668 2.3812 2.3812 2.3812 2.3812-1.0668 2.3812-2.3812-1.0668-2.3812-2.3812-2.3812z" fill="#ffffff" stroke-width=".23812"/>
   <path d="m39.239 265.61c-1.4605 0-2.6458 1.1853-2.6458 2.6458s1.1853 2.6458 2.6458 2.6458 2.6458-1.1853 2.6458-2.6458-1.1853-2.6458-2.6458-2.6458zm0 1.3229a1.3229 1.3229 0 0 1 1.3229 1.3229 1.3229 1.3229 0 0 1-1.3229 1.3229 1.3229 1.3229 0 0 1-1.3229-1.3229 1.3229 1.3229 0 0 1 1.3229-1.3229z" fill="#f57c00" stroke-width=".26458"/>
  </g>
 </g>
 <g id="thumbnail-orange-dark" transform="translate(200.52 -254.57)">
  <rect x="9.2604" y="277.67" width="32.102" height="9.4161" rx="0" ry="0" fill="#333333" stroke-width="0"/>
  <rect x="10.866" y="279.5" width="16.051" height="5.7543" rx=".53504" ry=".52312" fill="#555555" stroke="#808080" stroke-width=".265"/>
  <g transform="matrix(1.0111 0 0 .98856 -61.768 21.818)" fill="#dedede" stroke-width=".085214" aria-label="Button">
   <path d="m74.699 263.61v0.91039h0.53925q0.27129 0 0.40111-0.11151 0.13148-0.11317 0.13148-0.34451 0-0.23301-0.13148-0.34286-0.12982-0.11151-0.40111-0.11151zm0-1.0219v0.74895h0.49764q0.24632 0 0.36616-0.0915 0.1215-0.0932 0.1215-0.28294 0-0.18807-0.1215-0.28127-0.11983-0.0932-0.36616-0.0932zm-0.3362-0.27628h0.8588q0.38446 0 0.5925 0.15977 0.20804 0.15978 0.20804 0.45437 0 0.22801-0.10652 0.36282t-0.3129 0.1681q0.24799 0.0533 0.38446 0.22302 0.13814 0.1681 0.13814 0.42108 0 0.33287-0.22635 0.51428-0.22635 0.18142-0.6441 0.18142h-0.89209z"/>
   <path d="m76.708 264.06v-1.1284h0.30624v1.1168q0 0.26463 0.10319 0.39777 0.10319 0.13149 0.30957 0.13149 0.24799 0 0.39112-0.15812 0.1448-0.15811 0.1448-0.43106v-1.0569h0.30624v1.8641h-0.30624v-0.28627q-0.11151 0.16976-0.25964 0.25298-0.14646 0.0815-0.34119 0.0815-0.32122 0-0.48765-0.19972t-0.16643-0.58418z"/>
   <path d="m79.006 262.4v0.52926h0.63078v0.238h-0.63078v1.0119q0 0.22802 0.06158 0.29293 0.06324 0.0649 0.25464 0.0649h0.31456v0.25631h-0.31456q-0.3545 0-0.48932-0.13149-0.13481-0.13315-0.13481-0.48266v-1.0119h-0.22469v-0.238h0.22469v-0.52926z"/>
   <path d="m80.691 262.4v0.52926h0.63078v0.238h-0.63078v1.0119q0 0.22802 0.06158 0.29293 0.06325 0.0649 0.25464 0.0649h0.31456v0.25631h-0.31456q-0.3545 0-0.48932-0.13149-0.13481-0.13315-0.13481-0.48266v-1.0119h-0.22469v-0.238h0.22469v-0.52926z"/>
   <path d="m82.794 263.14q-0.24632 0-0.38946 0.19307-0.14313 0.1914-0.14313 0.52593t0.14147 0.52759q0.14313 0.1914 0.39112 0.1914 0.24466 0 0.38779-0.19306t0.14313-0.52593q0-0.3312-0.14313-0.52427-0.14313-0.19473-0.38779-0.19473zm0-0.25963q0.39944 0 0.62746 0.25963 0.22802 0.25964 0.22802 0.719 0 0.45769-0.22802 0.71899-0.22801 0.25964-0.62746 0.25964-0.40111 0-0.62912-0.25964-0.22635-0.2613-0.22635-0.71899 0-0.45936 0.22635-0.719 0.22801-0.25963 0.62912-0.25963z"/>
   <path d="m85.546 263.67v1.1251h-0.30624v-1.1151q0-0.26463-0.10319-0.39612-0.10319-0.13148-0.30957-0.13148-0.24799 0-0.39112 0.15811-0.14313 0.15812-0.14313 0.43107v1.0535h-0.3079v-1.8641h0.3079v0.2896q0.10985-0.1681 0.25797-0.25132 0.14979-0.0832 0.34452-0.0832 0.32122 0 0.48599 0.19972 0.16477 0.19805 0.16477 0.58418z"/>
  </g>
  <g transform="matrix(1.0111 0 0 .98856 -2.2428 17.188)">
   <path d="m31.496 266.13c-0.26241 0-0.47366 0.21125-0.47366 0.47366v3.3156c0 0.26241 0.21125 0.47366 0.47366 0.47366h3.3156c0.26241 0 0.47366-0.21125 0.47366-0.47366v-3.3156c0-0.26241-0.21125-0.47366-0.47366-0.47366z" fill="#ffffff" stroke-linecap="round" stroke-linejoin="round" stroke-width=".35524" style="paint-order:stroke fill markers"/>
   <path d="m31.302 265.88c-0.29316 0-0.52917 0.23601-0.52917 0.52917v3.7042c0 0.29316 0.23601 0.52917 0.52917 0.52917h3.7042c0.29316 0 0.52917-0.23601 0.52917-0.52917v-3.7042c0-0.29316-0.23601-0.52917-0.52917-0.52917zm3.0819 1.4945 0.18603 0.18604-1.9451 1.9472-0.88678-0.88884 0.18603-0.18603 0.70072 0.69865 1.7591-1.757z" fill="#f57c00" stroke-linecap="round" stroke-linejoin="round" stroke-width=".39688" style="paint-order:stroke fill markers"/>
   <path d="m39.239 265.88c-1.3144 0-2.3812 1.0668-2.3812 2.3812s1.0668 2.3812 2.3812 2.3812 2.3812-1.0668 2.3812-2.3812-1.0668-2.3812-2.3812-2.3812z" fill="#ffffff" stroke-width=".23812"/>
   <path d="m39.239 265.61c-1.4605 0-2.6458 1.1853-2.6458 2.6458s1.1853 2.6458 2.6458 2.6458 2.6458-1.1853 2.6458-2.6458-1.1853-2.6458-2.6458-2.6458zm0 1.3229a1.3229 1.3229 0 0 1 1.3229 1.3229 1.3229 1.3229 0 0 1-1.3229 1.3229 1.3229 1.3229 0 0 1-1.3229-1.3229 1.3229 1.3229 0 0 1 1.3229-1.3229z" fill="#f57c00" stroke-width=".26458"/>
  </g>
 </g>
 <g id="thumbnail-pink" transform="matrix(1.0111 0 0 .98856 244.82 -252.88)">
  <rect x="11.377" y="263.93" width="31.75" height="9.525" rx="0" ry="0" fill="#f2f2f2" stroke-width="0"/>
  <rect x="12.965" y="265.78" width="15.875" height="5.8208" rx=".52917" ry=".52917" fill="#ffffff" stroke="#e5e5e5" stroke-width=".26458"/>
  <g transform="translate(-58.872,5.1156)" fill="#b3b3b3" stroke-width=".085214" aria-label="Button">
   <path d="m74.699 263.61v0.91039h0.53925q0.27129 0 0.40111-0.11151 0.13148-0.11317 0.13148-0.34451 0-0.23301-0.13148-0.34286-0.12982-0.11151-0.40111-0.11151zm0-1.0219v0.74895h0.49764q0.24632 0 0.36616-0.0915 0.1215-0.0932 0.1215-0.28294 0-0.18807-0.1215-0.28127-0.11983-0.0932-0.36616-0.0932zm-0.3362-0.27628h0.8588q0.38446 0 0.5925 0.15977 0.20804 0.15978 0.20804 0.45437 0 0.22801-0.10652 0.36282t-0.3129 0.1681q0.24799 0.0533 0.38446 0.22302 0.13814 0.1681 0.13814 0.42108 0 0.33287-0.22635 0.51428-0.22635 0.18142-0.6441 0.18142h-0.89209z"/>
   <path d="m76.708 264.06v-1.1284h0.30624v1.1168q0 0.26463 0.10319 0.39777 0.10319 0.13149 0.30957 0.13149 0.24799 0 0.39112-0.15812 0.1448-0.15811 0.1448-0.43106v-1.0569h0.30624v1.8641h-0.30624v-0.28627q-0.11151 0.16976-0.25964 0.25298-0.14646 0.0815-0.34119 0.0815-0.32122 0-0.48765-0.19972t-0.16643-0.58418z"/>
   <path d="m79.006 262.4v0.52926h0.63078v0.238h-0.63078v1.0119q0 0.22802 0.06158 0.29293 0.06324 0.0649 0.25464 0.0649h0.31456v0.25631h-0.31456q-0.3545 0-0.48932-0.13149-0.13481-0.13315-0.13481-0.48266v-1.0119h-0.22469v-0.238h0.22469v-0.52926z"/>
   <path d="m80.691 262.4v0.52926h0.63078v0.238h-0.63078v1.0119q0 0.22802 0.06158 0.29293 0.06325 0.0649 0.25464 0.0649h0.31456v0.25631h-0.31456q-0.3545 0-0.48932-0.13149-0.13481-0.13315-0.13481-0.48266v-1.0119h-0.22469v-0.238h0.22469v-0.52926z"/>
   <path d="m82.794 263.14q-0.24632 0-0.38946 0.19307-0.14313 0.1914-0.14313 0.52593t0.14147 0.52759q0.14313 0.1914 0.39112 0.1914 0.24466 0 0.38779-0.19306t0.14313-0.52593q0-0.3312-0.14313-0.52427-0.14313-0.19473-0.38779-0.19473zm0-0.25963q0.39944 0 0.62746 0.25963 0.22802 0.25964 0.22802 0.719 0 0.45769-0.22802 0.71899-0.22801 0.25964-0.62746 0.25964-0.40111 0-0.62912-0.25964-0.22635-0.2613-0.22635-0.71899 0-0.45936 0.22635-0.719 0.22801-0.25963 0.62912-0.25963z"/>
   <path d="m85.546 263.67v1.1251h-0.30624v-1.1151q0-0.26463-0.10319-0.39612-0.10319-0.13148-0.30957-0.13148-0.24799 0-0.39112 0.15811-0.14313 0.15812-0.14313 0.43107v1.0535h-0.3079v-1.8641h0.3079v0.2896q0.10985-0.1681 0.25797-0.25132 0.14979-0.0832 0.34452-0.0832 0.32122 0 0.48599 0.19972 0.16477 0.19805 0.16477 0.58418z"/>
  </g>
  <g transform="translate(0 .43231)">
   <path d="m31.496 266.13c-0.26241 0-0.47366 0.21125-0.47366 0.47366v3.3156c0 0.26241 0.21125 0.47366 0.47366 0.47366h3.3156c0.26241 0 0.47366-0.21125 0.47366-0.47366v-3.3156c0-0.26241-0.21125-0.47366-0.47366-0.47366z" fill="#ffffff" stroke-linecap="round" stroke-linejoin="round" stroke-width=".35524" style="paint-order:stroke fill markers"/>
   <path d="m31.302 265.88c-0.29316 0-0.52917 0.23601-0.52917 0.52917v3.7042c0 0.29316 0.23601 0.52917 0.52917 0.52917h3.7042c0.29316 0 0.52917-0.23601 0.52917-0.52917v-3.7042c0-0.29316-0.23601-0.52917-0.52917-0.52917zm3.0819 1.4945 0.18603 0.18604-1.9451 1.9472-0.88678-0.88884 0.18603-0.18603 0.70072 0.69865 1.7591-1.757z" fill="#ec407a" stroke-linecap="round" stroke-linejoin="round" stroke-width=".39688" style="paint-order:stroke fill markers"/>
   <path d="m39.239 265.88c-1.3144 0-2.3812 1.0668-2.3812 2.3812s1.0668 2.3812 2.3812 2.3812 2.3812-1.0668 2.3812-2.3812-1.0668-2.3812-2.3812-2.3812z" fill="#ffffff" stroke-width=".23812"/>
   <path d="m39.239 265.61c-1.4605 0-2.6458 1.1853-2.6458 2.6458s1.1853 2.6458 2.6458 2.6458 2.6458-1.1853 2.6458-2.6458-1.1853-2.6458-2.6458-2.6458zm0 1.3229a1.3229 1.3229 0 0 1 1.3229 1.3229 1.3229 1.3229 0 0 1-1.3229 1.3229 1.3229 1.3229 0 0 1-1.3229-1.3229 1.3229 1.3229 0 0 1 1.3229-1.3229z" fill="#ec407a" stroke-width=".26458"/>
  </g>
 </g>
 <g id="thumbnail-pink-dark" transform="translate(247.07 -254.57)">
  <rect x="9.2604" y="277.67" width="32.102" height="9.4161" rx="0" ry="0" fill="#333333" stroke-width="0"/>
  <rect x="10.866" y="279.5" width="16.051" height="5.7543" rx=".53504" ry=".52312" fill="#555555" stroke="#808080" stroke-width=".265"/>
  <g transform="matrix(1.0111 0 0 .98856 -61.768 21.818)" fill="#dedede" stroke-width=".085214" aria-label="Button">
   <path d="m74.699 263.61v0.91039h0.53925q0.27129 0 0.40111-0.11151 0.13148-0.11317 0.13148-0.34451 0-0.23301-0.13148-0.34286-0.12982-0.11151-0.40111-0.11151zm0-1.0219v0.74895h0.49764q0.24632 0 0.36616-0.0915 0.1215-0.0932 0.1215-0.28294 0-0.18807-0.1215-0.28127-0.11983-0.0932-0.36616-0.0932zm-0.3362-0.27628h0.8588q0.38446 0 0.5925 0.15977 0.20804 0.15978 0.20804 0.45437 0 0.22801-0.10652 0.36282t-0.3129 0.1681q0.24799 0.0533 0.38446 0.22302 0.13814 0.1681 0.13814 0.42108 0 0.33287-0.22635 0.51428-0.22635 0.18142-0.6441 0.18142h-0.89209z"/>
   <path d="m76.708 264.06v-1.1284h0.30624v1.1168q0 0.26463 0.10319 0.39777 0.10319 0.13149 0.30957 0.13149 0.24799 0 0.39112-0.15812 0.1448-0.15811 0.1448-0.43106v-1.0569h0.30624v1.8641h-0.30624v-0.28627q-0.11151 0.16976-0.25964 0.25298-0.14646 0.0815-0.34119 0.0815-0.32122 0-0.48765-0.19972t-0.16643-0.58418z"/>
   <path d="m79.006 262.4v0.52926h0.63078v0.238h-0.63078v1.0119q0 0.22802 0.06158 0.29293 0.06324 0.0649 0.25464 0.0649h0.31456v0.25631h-0.31456q-0.3545 0-0.48932-0.13149-0.13481-0.13315-0.13481-0.48266v-1.0119h-0.22469v-0.238h0.22469v-0.52926z"/>
   <path d="m80.691 262.4v0.52926h0.63078v0.238h-0.63078v1.0119q0 0.22802 0.06158 0.29293 0.06325 0.0649 0.25464 0.0649h0.31456v0.25631h-0.31456q-0.3545 0-0.48932-0.13149-0.13481-0.13315-0.13481-0.48266v-1.0119h-0.22469v-0.238h0.22469v-0.52926z"/>
   <path d="m82.794 263.14q-0.24632 0-0.38946 0.19307-0.14313 0.1914-0.14313 0.52593t0.14147 0.52759q0.14313 0.1914 0.39112 0.1914 0.24466 0 0.38779-0.19306t0.14313-0.52593q0-0.3312-0.14313-0.52427-0.14313-0.19473-0.38779-0.19473zm0-0.25963q0.39944 0 0.62746 0.25963 0.22802 0.25964 0.22802 0.719 0 0.45769-0.22802 0.71899-0.22801 0.25964-0.62746 0.25964-0.40111 0-0.62912-0.25964-0.22635-0.2613-0.22635-0.71899 0-0.45936 0.22635-0.719 0.22801-0.25963 0.62912-0.25963z"/>
   <path d="m85.546 263.67v1.1251h-0.30624v-1.1151q0-0.26463-0.10319-0.39612-0.10319-0.13148-0.30957-0.13148-0.24799 0-0.39112 0.15811-0.14313 0.15812-0.14313 0.43107v1.0535h-0.3079v-1.8641h0.3079v0.2896q0.10985-0.1681 0.25797-0.25132 0.14979-0.0832 0.34452-0.0832 0.32122 0 0.48599 0.19972 0.16477 0.19805 0.16477 0.58418z"/>
  </g>
  <g transform="matrix(1.0111 0 0 .98856 -2.2428 17.188)">
   <path d="m31.496 266.13c-0.26241 0-0.47366 0.21125-0.47366 0.47366v3.3156c0 0.26241 0.21125 0.47366 0.47366 0.47366h3.3156c0.26241 0 0.47366-0.21125 0.47366-0.47366v-3.3156c0-0.26241-0.21125-0.47366-0.47366-0.47366z" fill="#ffffff" stroke-linecap="round" stroke-linejoin="round" stroke-width=".35524" style="paint-order:stroke fill markers"/>
   <path d="m31.302 265.88c-0.29316 0-0.52917 0.23601-0.52917 0.52917v3.7042c0 0.29316 0.23601 0.52917 0.52917 0.52917h3.7042c0.29316 0 0.52917-0.23601 0.52917-0.52917v-3.7042c0-0.29316-0.23601-0.52917-0.52917-0.52917zm3.0819 1.4945 0.18603 0.18604-1.9451 1.9472-0.88678-0.88884 0.18603-0.18603 0.70072 0.69865 1.7591-1.757z" fill="#ec407a" stroke-linecap="round" stroke-linejoin="round" stroke-width=".39688" style="paint-order:stroke fill markers"/>
   <path d="m39.239 265.88c-1.3144 0-2.3812 1.0668-2.3812 2.3812s1.0668 2.3812 2.3812 2.3812 2.3812-1.0668 2.3812-2.3812-1.0668-2.3812-2.3812-2.3812z" fill="#ffffff" stroke-width=".23812"/>
   <path d="m39.239 265.61c-1.4605 0-2.6458 1.1853-2.6458 2.6458s1.1853 2.6458 2.6458 2.6458 2.6458-1.1853 2.6458-2.6458-1.1853-2.6458-2.6458-2.6458zm0 1.3229a1.3229 1.3229 0 0 1 1.3229 1.3229 1.3229 1.3229 0 0 1-1.3229 1.3229 1.3229 1.3229 0 0 1-1.3229-1.3229 1.3229 1.3229 0 0 1 1.3229-1.3229z" fill="#ec407a" stroke-width=".26458"/>
  </g>
 </g>
 <g id="thumbnail-purple" transform="matrix(1.0111 0 0 .98856 291.37 -252.88)">
  <rect x="11.377" y="263.93" width="31.75" height="9.525" rx="0" ry="0" fill="#f2f2f2" stroke-width="0"/>
  <rect x="12.965" y="265.78" width="15.875" height="5.8208" rx=".52917" ry=".52917" fill="#ffffff" stroke="#e5e5e5" stroke-width=".26458"/>
  <g transform="translate(-58.872,5.1156)" fill="#b3b3b3" stroke-width=".085214" aria-label="Button">
   <path d="m74.699 263.61v0.91039h0.53925q0.27129 0 0.40111-0.11151 0.13148-0.11317 0.13148-0.34451 0-0.23301-0.13148-0.34286-0.12982-0.11151-0.40111-0.11151zm0-1.0219v0.74895h0.49764q0.24632 0 0.36616-0.0915 0.1215-0.0932 0.1215-0.28294 0-0.18807-0.1215-0.28127-0.11983-0.0932-0.36616-0.0932zm-0.3362-0.27628h0.8588q0.38446 0 0.5925 0.15977 0.20804 0.15978 0.20804 0.45437 0 0.22801-0.10652 0.36282t-0.3129 0.1681q0.24799 0.0533 0.38446 0.22302 0.13814 0.1681 0.13814 0.42108 0 0.33287-0.22635 0.51428-0.22635 0.18142-0.6441 0.18142h-0.89209z"/>
   <path d="m76.708 264.06v-1.1284h0.30624v1.1168q0 0.26463 0.10319 0.39777 0.10319 0.13149 0.30957 0.13149 0.24799 0 0.39112-0.15812 0.1448-0.15811 0.1448-0.43106v-1.0569h0.30624v1.8641h-0.30624v-0.28627q-0.11151 0.16976-0.25964 0.25298-0.14646 0.0815-0.34119 0.0815-0.32122 0-0.48765-0.19972t-0.16643-0.58418z"/>
   <path d="m79.006 262.4v0.52926h0.63078v0.238h-0.63078v1.0119q0 0.22802 0.06158 0.29293 0.06324 0.0649 0.25464 0.0649h0.31456v0.25631h-0.31456q-0.3545 0-0.48932-0.13149-0.13481-0.13315-0.13481-0.48266v-1.0119h-0.22469v-0.238h0.22469v-0.52926z"/>
   <path d="m80.691 262.4v0.52926h0.63078v0.238h-0.63078v1.0119q0 0.22802 0.06158 0.29293 0.06325 0.0649 0.25464 0.0649h0.31456v0.25631h-0.31456q-0.3545 0-0.48932-0.13149-0.13481-0.13315-0.13481-0.48266v-1.0119h-0.22469v-0.238h0.22469v-0.52926z"/>
   <path d="m82.794 263.14q-0.24632 0-0.38946 0.19307-0.14313 0.1914-0.14313 0.52593t0.14147 0.52759q0.14313 0.1914 0.39112 0.1914 0.24466 0 0.38779-0.19306t0.14313-0.52593q0-0.3312-0.14313-0.52427-0.14313-0.19473-0.38779-0.19473zm0-0.25963q0.39944 0 0.62746 0.25963 0.22802 0.25964 0.22802 0.719 0 0.45769-0.22802 0.71899-0.22801 0.25964-0.62746 0.25964-0.40111 0-0.62912-0.25964-0.22635-0.2613-0.22635-0.71899 0-0.45936 0.22635-0.719 0.22801-0.25963 0.62912-0.25963z"/>
   <path d="m85.546 263.67v1.1251h-0.30624v-1.1151q0-0.26463-0.10319-0.39612-0.10319-0.13148-0.30957-0.13148-0.24799 0-0.39112 0.15811-0.14313 0.15812-0.14313 0.43107v1.0535h-0.3079v-1.8641h0.3079v0.2896q0.10985-0.1681 0.25797-0.25132 0.14979-0.0832 0.34452-0.0832 0.32122 0 0.48599 0.19972 0.16477 0.19805 0.16477 0.58418z"/>
  </g>
  <g transform="translate(0 .43231)">
   <path d="m31.496 266.13c-0.26241 0-0.47366 0.21125-0.47366 0.47366v3.3156c0 0.26241 0.21125 0.47366 0.47366 0.47366h3.3156c0.26241 0 0.47366-0.21125 0.47366-0.47366v-3.3156c0-0.26241-0.21125-0.47366-0.47366-0.47366z" fill="#ffffff" stroke-linecap="round" stroke-linejoin="round" stroke-width=".35524" style="paint-order:stroke fill markers"/>
   <path d="m31.302 265.88c-0.29316 0-0.52917 0.23601-0.52917 0.52917v3.7042c0 0.29316 0.23601 0.52917 0.52917 0.52917h3.7042c0.29316 0 0.52917-0.23601 0.52917-0.52917v-3.7042c0-0.29316-0.23601-0.52917-0.52917-0.52917zm3.0819 1.4945 0.18603 0.18604-1.9451 1.9472-0.88678-0.88884 0.18603-0.18603 0.70072 0.69865 1.7591-1.757z" fill="#ab47bc" stroke-linecap="round" stroke-linejoin="round" stroke-width=".39688" style="paint-order:stroke fill markers"/>
   <path d="m39.239 265.88c-1.3144 0-2.3812 1.0668-2.3812 2.3812s1.0668 2.3812 2.3812 2.3812 2.3812-1.0668 2.3812-2.3812-1.0668-2.3812-2.3812-2.3812z" fill="#ffffff" stroke-width=".23812"/>
   <path d="m39.239 265.61c-1.4605 0-2.6458 1.1853-2.6458 2.6458s1.1853 2.6458 2.6458 2.6458 2.6458-1.1853 2.6458-2.6458-1.1853-2.6458-2.6458-2.6458zm0 1.3229a1.3229 1.3229 0 0 1 1.3229 1.3229 1.3229 1.3229 0 0 1-1.3229 1.3229 1.3229 1.3229 0 0 1-1.3229-1.3229 1.3229 1.3229 0 0 1 1.3229-1.3229z" fill="#ab47bc" stroke-width=".26458"/>
  </g>
 </g>
 <g id="thumbnail-purple-dark" transform="translate(293.61 -254.57)">
  <rect x="9.2604" y="277.67" width="32.102" height="9.4161" rx="0" ry="0" fill="#333333" stroke-width="0"/>
  <rect x="10.866" y="279.5" width="16.051" height="5.7543" rx=".53504" ry=".52312" fill="#555555" stroke="#808080" stroke-width=".265"/>
  <g transform="matrix(1.0111 0 0 .98856 -61.768 21.818)" fill="#dedede" stroke-width=".085214" aria-label="Button">
   <path d="m74.699 263.61v0.91039h0.53925q0.27129 0 0.40111-0.11151 0.13148-0.11317 0.13148-0.34451 0-0.23301-0.13148-0.34286-0.12982-0.11151-0.40111-0.11151zm0-1.0219v0.74895h0.49764q0.24632 0 0.36616-0.0915 0.1215-0.0932 0.1215-0.28294 0-0.18807-0.1215-0.28127-0.11983-0.0932-0.36616-0.0932zm-0.3362-0.27628h0.8588q0.38446 0 0.5925 0.15977 0.20804 0.15978 0.20804 0.45437 0 0.22801-0.10652 0.36282t-0.3129 0.1681q0.24799 0.0533 0.38446 0.22302 0.13814 0.1681 0.13814 0.42108 0 0.33287-0.22635 0.51428-0.22635 0.18142-0.6441 0.18142h-0.89209z"/>
   <path d="m76.708 264.06v-1.1284h0.30624v1.1168q0 0.26463 0.10319 0.39777 0.10319 0.13149 0.30957 0.13149 0.24799 0 0.39112-0.15812 0.1448-0.15811 0.1448-0.43106v-1.0569h0.30624v1.8641h-0.30624v-0.28627q-0.11151 0.16976-0.25964 0.25298-0.14646 0.0815-0.34119 0.0815-0.32122 0-0.48765-0.19972t-0.16643-0.58418z"/>
   <path d="m79.006 262.4v0.52926h0.63078v0.238h-0.63078v1.0119q0 0.22802 0.06158 0.29293 0.06324 0.0649 0.25464 0.0649h0.31456v0.25631h-0.31456q-0.3545 0-0.48932-0.13149-0.13481-0.13315-0.13481-0.48266v-1.0119h-0.22469v-0.238h0.22469v-0.52926z"/>
   <path d="m80.691 262.4v0.52926h0.63078v0.238h-0.63078v1.0119q0 0.22802 0.06158 0.29293 0.06325 0.0649 0.25464 0.0649h0.31456v0.25631h-0.31456q-0.3545 0-0.48932-0.13149-0.13481-0.13315-0.13481-0.48266v-1.0119h-0.22469v-0.238h0.22469v-0.52926z"/>
   <path d="m82.794 263.14q-0.24632 0-0.38946 0.19307-0.14313 0.1914-0.14313 0.52593t0.14147 0.52759q0.14313 0.1914 0.39112 0.1914 0.24466 0 0.38779-0.19306t0.14313-0.52593q0-0.3312-0.14313-0.52427-0.14313-0.19473-0.38779-0.19473zm0-0.25963q0.39944 0 0.62746 0.25963 0.22802 0.25964 0.22802 0.719 0 0.45769-0.22802 0.71899-0.22801 0.25964-0.62746 0.25964-0.40111 0-0.62912-0.25964-0.22635-0.2613-0.22635-0.71899 0-0.45936 0.22635-0.719 0.22801-0.25963 0.62912-0.25963z"/>
   <path d="m85.546 263.67v1.1251h-0.30624v-1.1151q0-0.26463-0.10319-0.39612-0.10319-0.13148-0.30957-0.13148-0.24799 0-0.39112 0.15811-0.14313 0.15812-0.14313 0.43107v1.0535h-0.3079v-1.8641h0.3079v0.2896q0.10985-0.1681 0.25797-0.25132 0.14979-0.0832 0.34452-0.0832 0.32122 0 0.48599 0.19972 0.16477 0.19805 0.16477 0.58418z"/>
  </g>
  <g transform="matrix(1.0111 0 0 .98856 -2.2428 17.188)">
   <path d="m31.496 266.13c-0.26241 0-0.47366 0.21125-0.47366 0.47366v3.3156c0 0.26241 0.21125 0.47366 0.47366 0.47366h3.3156c0.26241 0 0.47366-0.21125 0.47366-0.47366v-3.3156c0-0.26241-0.21125-0.47366-0.47366-0.47366z" fill="#ffffff" stroke-linecap="round" stroke-linejoin="round" stroke-width=".35524" style="paint-order:stroke fill markers"/>
   <path d="m31.302 265.88c-0.29316 0-0.52917 0.23601-0.52917 0.52917v3.7042c0 0.29316 0.23601 0.52917 0.52917 0.52917h3.7042c0.29316 0 0.52917-0.23601 0.52917-0.52917v-3.7042c0-0.29316-0.23601-0.52917-0.52917-0.52917zm3.0819 1.4945 0.18603 0.18604-1.9451 1.9472-0.88678-0.88884 0.18603-0.18603 0.70072 0.69865 1.7591-1.757z" fill="#ab47bc" stroke-linecap="round" stroke-linejoin="round" stroke-width=".39688" style="paint-order:stroke fill markers"/>
   <path d="m39.239 265.88c-1.3144 0-2.3812 1.0668-2.3812 2.3812s1.0668 2.3812 2.3812 2.3812 2.3812-1.0668 2.3812-2.3812-1.0668-2.3812-2.3812-2.3812z" fill="#ffffff" stroke-width=".23812"/>
   <path d="m39.239 265.61c-1.4605 0-2.6458 1.1853-2.6458 2.6458s1.1853 2.6458 2.6458 2.6458 2.6458-1.1853 2.6458-2.6458-1.1853-2.6458-2.6458-2.6458zm0 1.3229a1.3229 1.3229 0 0 1 1.3229 1.3229 1.3229 1.3229 0 0 1-1.3229 1.3229 1.3229 1.3229 0 0 1-1.3229-1.3229 1.3229 1.3229 0 0 1 1.3229-1.3229z" fill="#ab47bc" stroke-width=".26458"/>
  </g>
 </g>
 <g id="thumbnail-red" transform="matrix(1.0111 0 0 .98856 337.92 -252.88)">
  <rect x="11.377" y="263.93" width="31.75" height="9.525" rx="0" ry="0" fill="#f2f2f2" stroke-width="0"/>
  <rect x="12.965" y="265.78" width="15.875" height="5.8208" rx=".52917" ry=".52917" fill="#ffffff" stroke="#e5e5e5" stroke-width=".26458"/>
  <g transform="translate(-58.872,5.1156)" fill="#b3b3b3" stroke-width=".085214" aria-label="Button">
   <path d="m74.699 263.61v0.91039h0.53925q0.27129 0 0.40111-0.11151 0.13148-0.11317 0.13148-0.34451 0-0.23301-0.13148-0.34286-0.12982-0.11151-0.40111-0.11151zm0-1.0219v0.74895h0.49764q0.24632 0 0.36616-0.0915 0.1215-0.0932 0.1215-0.28294 0-0.18807-0.1215-0.28127-0.11983-0.0932-0.36616-0.0932zm-0.3362-0.27628h0.8588q0.38446 0 0.5925 0.15977 0.20804 0.15978 0.20804 0.45437 0 0.22801-0.10652 0.36282t-0.3129 0.1681q0.24799 0.0533 0.38446 0.22302 0.13814 0.1681 0.13814 0.42108 0 0.33287-0.22635 0.51428-0.22635 0.18142-0.6441 0.18142h-0.89209z"/>
   <path d="m76.708 264.06v-1.1284h0.30624v1.1168q0 0.26463 0.10319 0.39777 0.10319 0.13149 0.30957 0.13149 0.24799 0 0.39112-0.15812 0.1448-0.15811 0.1448-0.43106v-1.0569h0.30624v1.8641h-0.30624v-0.28627q-0.11151 0.16976-0.25964 0.25298-0.14646 0.0815-0.34119 0.0815-0.32122 0-0.48765-0.19972t-0.16643-0.58418z"/>
   <path d="m79.006 262.4v0.52926h0.63078v0.238h-0.63078v1.0119q0 0.22802 0.06158 0.29293 0.06324 0.0649 0.25464 0.0649h0.31456v0.25631h-0.31456q-0.3545 0-0.48932-0.13149-0.13481-0.13315-0.13481-0.48266v-1.0119h-0.22469v-0.238h0.22469v-0.52926z"/>
   <path d="m80.691 262.4v0.52926h0.63078v0.238h-0.63078v1.0119q0 0.22802 0.06158 0.29293 0.06325 0.0649 0.25464 0.0649h0.31456v0.25631h-0.31456q-0.3545 0-0.48932-0.13149-0.13481-0.13315-0.13481-0.48266v-1.0119h-0.22469v-0.238h0.22469v-0.52926z"/>
   <path d="m82.794 263.14q-0.24632 0-0.38946 0.19307-0.14313 0.1914-0.14313 0.52593t0.14147 0.52759q0.14313 0.1914 0.39112 0.1914 0.24466 0 0.38779-0.19306t0.14313-0.52593q0-0.3312-0.14313-0.52427-0.14313-0.19473-0.38779-0.19473zm0-0.25963q0.39944 0 0.62746 0.25963 0.22802 0.25964 0.22802 0.719 0 0.45769-0.22802 0.71899-0.22801 0.25964-0.62746 0.25964-0.40111 0-0.62912-0.25964-0.22635-0.2613-0.22635-0.71899 0-0.45936 0.22635-0.719 0.22801-0.25963 0.62912-0.25963z"/>
   <path d="m85.546 263.67v1.1251h-0.30624v-1.1151q0-0.26463-0.10319-0.39612-0.10319-0.13148-0.30957-0.13148-0.24799 0-0.39112 0.15811-0.14313 0.15812-0.14313 0.43107v1.0535h-0.3079v-1.8641h0.3079v0.2896q0.10985-0.1681 0.25797-0.25132 0.14979-0.0832 0.34452-0.0832 0.32122 0 0.48599 0.19972 0.16477 0.19805 0.16477 0.58418z"/>
  </g>
  <g transform="translate(0 .43231)">
   <path d="m31.496 266.13c-0.26241 0-0.47366 0.21125-0.47366 0.47366v3.3156c0 0.26241 0.21125 0.47366 0.47366 0.47366h3.3156c0.26241 0 0.47366-0.21125 0.47366-0.47366v-3.3156c0-0.26241-0.21125-0.47366-0.47366-0.47366z" fill="#ffffff" stroke-linecap="round" stroke-linejoin="round" stroke-width=".35524" style="paint-order:stroke fill markers"/>
   <path d="m31.302 265.88c-0.29316 0-0.52917 0.23601-0.52917 0.52917v3.7042c0 0.29316 0.23601 0.52917 0.52917 0.52917h3.7042c0.29316 0 0.52917-0.23601 0.52917-0.52917v-3.7042c0-0.29316-0.23601-0.52917-0.52917-0.52917zm3.0819 1.4945 0.18603 0.18604-1.9451 1.9472-0.88678-0.88884 0.18603-0.18603 0.70072 0.69865 1.7591-1.757z" fill="#e53935" stroke-linecap="round" stroke-linejoin="round" stroke-width=".39688" style="paint-order:stroke fill markers"/>
   <path d="m39.239 265.88c-1.3144 0-2.3812 1.0668-2.3812 2.3812s1.0668 2.3812 2.3812 2.3812 2.3812-1.0668 2.3812-2.3812-1.0668-2.3812-2.3812-2.3812z" fill="#ffffff" stroke-width=".23812"/>
   <path d="m39.239 265.61c-1.4605 0-2.6458 1.1853-2.6458 2.6458s1.1853 2.6458 2.6458 2.6458 2.6458-1.1853 2.6458-2.6458-1.1853-2.6458-2.6458-2.6458zm0 1.3229a1.3229 1.3229 0 0 1 1.3229 1.3229 1.3229 1.3229 0 0 1-1.3229 1.3229 1.3229 1.3229 0 0 1-1.3229-1.3229 1.3229 1.3229 0 0 1 1.3229-1.3229z" fill="#e53935" stroke-width=".26458"/>
  </g>
 </g>
 <g id="thumbnail-red-dark" transform="translate(340.16 -254.57)">
  <rect x="9.2604" y="277.67" width="32.102" height="9.4161" rx="0" ry="0" fill="#333333" stroke-width="0"/>
  <rect x="10.866" y="279.5" width="16.051" height="5.7543" rx=".53504" ry=".52312" fill="#555555" stroke="#808080" stroke-width=".265"/>
  <g transform="matrix(1.0111 0 0 .98856 -61.768 21.818)" fill="#dedede" stroke-width=".085214" aria-label="Button">
   <path d="m74.699 263.61v0.91039h0.53925q0.27129 0 0.40111-0.11151 0.13148-0.11317 0.13148-0.34451 0-0.23301-0.13148-0.34286-0.12982-0.11151-0.40111-0.11151zm0-1.0219v0.74895h0.49764q0.24632 0 0.36616-0.0915 0.1215-0.0932 0.1215-0.28294 0-0.18807-0.1215-0.28127-0.11983-0.0932-0.36616-0.0932zm-0.3362-0.27628h0.8588q0.38446 0 0.5925 0.15977 0.20804 0.15978 0.20804 0.45437 0 0.22801-0.10652 0.36282t-0.3129 0.1681q0.24799 0.0533 0.38446 0.22302 0.13814 0.1681 0.13814 0.42108 0 0.33287-0.22635 0.51428-0.22635 0.18142-0.6441 0.18142h-0.89209z"/>
   <path d="m76.708 264.06v-1.1284h0.30624v1.1168q0 0.26463 0.10319 0.39777 0.10319 0.13149 0.30957 0.13149 0.24799 0 0.39112-0.15812 0.1448-0.15811 0.1448-0.43106v-1.0569h0.30624v1.8641h-0.30624v-0.28627q-0.11151 0.16976-0.25964 0.25298-0.14646 0.0815-0.34119 0.0815-0.32122 0-0.48765-0.19972t-0.16643-0.58418z"/>
   <path d="m79.006 262.4v0.52926h0.63078v0.238h-0.63078v1.0119q0 0.22802 0.06158 0.29293 0.06324 0.0649 0.25464 0.0649h0.31456v0.25631h-0.31456q-0.3545 0-0.48932-0.13149-0.13481-0.13315-0.13481-0.48266v-1.0119h-0.22469v-0.238h0.22469v-0.52926z"/>
   <path d="m80.691 262.4v0.52926h0.63078v0.238h-0.63078v1.0119q0 0.22802 0.06158 0.29293 0.06325 0.0649 0.25464 0.0649h0.31456v0.25631h-0.31456q-0.3545 0-0.48932-0.13149-0.13481-0.13315-0.13481-0.48266v-1.0119h-0.22469v-0.238h0.22469v-0.52926z"/>
   <path d="m82.794 263.14q-0.24632 0-0.38946 0.19307-0.14313 0.1914-0.14313 0.52593t0.14147 0.52759q0.14313 0.1914 0.39112 0.1914 0.24466 0 0.38779-0.19306t0.14313-0.52593q0-0.3312-0.14313-0.52427-0.14313-0.19473-0.38779-0.19473zm0-0.25963q0.39944 0 0.62746 0.25963 0.22802 0.25964 0.22802 0.719 0 0.45769-0.22802 0.71899-0.22801 0.25964-0.62746 0.25964-0.40111 0-0.62912-0.25964-0.22635-0.2613-0.22635-0.71899 0-0.45936 0.22635-0.719 0.22801-0.25963 0.62912-0.25963z"/>
   <path d="m85.546 263.67v1.1251h-0.30624v-1.1151q0-0.26463-0.10319-0.39612-0.10319-0.13148-0.30957-0.13148-0.24799 0-0.39112 0.15811-0.14313 0.15812-0.14313 0.43107v1.0535h-0.3079v-1.8641h0.3079v0.2896q0.10985-0.1681 0.25797-0.25132 0.14979-0.0832 0.34452-0.0832 0.32122 0 0.48599 0.19972 0.16477 0.19805 0.16477 0.58418z"/>
  </g>
  <g transform="matrix(1.0111 0 0 .98856 -2.2428 17.188)">
   <path d="m31.496 266.13c-0.26241 0-0.47366 0.21125-0.47366 0.47366v3.3156c0 0.26241 0.21125 0.47366 0.47366 0.47366h3.3156c0.26241 0 0.47366-0.21125 0.47366-0.47366v-3.3156c0-0.26241-0.21125-0.47366-0.47366-0.47366z" fill="#ffffff" stroke-linecap="round" stroke-linejoin="round" stroke-width=".35524" style="paint-order:stroke fill markers"/>
   <path d="m31.302 265.88c-0.29316 0-0.52917 0.23601-0.52917 0.52917v3.7042c0 0.29316 0.23601 0.52917 0.52917 0.52917h3.7042c0.29316 0 0.52917-0.23601 0.52917-0.52917v-3.7042c0-0.29316-0.23601-0.52917-0.52917-0.52917zm3.0819 1.4945 0.18603 0.18604-1.9451 1.9472-0.88678-0.88884 0.18603-0.18603 0.70072 0.69865 1.7591-1.757z" fill="#e53935" stroke-linecap="round" stroke-linejoin="round" stroke-width=".39688" style="paint-order:stroke fill markers"/>
   <path d="m39.239 265.88c-1.3144 0-2.3812 1.0668-2.3812 2.3812s1.0668 2.3812 2.3812 2.3812 2.3812-1.0668 2.3812-2.3812-1.0668-2.3812-2.3812-2.3812z" fill="#ffffff" stroke-width=".23812"/>
   <path d="m39.239 265.61c-1.4605 0-2.6458 1.1853-2.6458 2.6458s1.1853 2.6458 2.6458 2.6458 2.6458-1.1853 2.6458-2.6458-1.1853-2.6458-2.6458-2.6458zm0 1.3229a1.3229 1.3229 0 0 1 1.3229 1.3229 1.3229 1.3229 0 0 1-1.3229 1.3229 1.3229 1.3229 0 0 1-1.3229-1.3229 1.3229 1.3229 0 0 1 1.3229-1.3229z" fill="#e53935" stroke-width=".26458"/>
  </g>
 </g>
 <g id="thumbnail-yellow" transform="matrix(1.0111 0 0 .98856 384.47 -252.88)">
  <rect x="11.377" y="263.93" width="31.75" height="9.525" rx="0" ry="0" fill="#f2f2f2" stroke-width="0"/>
  <rect x="12.965" y="265.78" width="15.875" height="5.8208" rx=".52917" ry=".52917" fill="#ffffff" stroke="#e5e5e5" stroke-width=".26458"/>
  <g transform="translate(-58.872,5.1156)" fill="#b3b3b3" stroke-width=".085214" aria-label="Button">
   <path d="m74.699 263.61v0.91039h0.53925q0.27129 0 0.40111-0.11151 0.13148-0.11317 0.13148-0.34451 0-0.23301-0.13148-0.34286-0.12982-0.11151-0.40111-0.11151zm0-1.0219v0.74895h0.49764q0.24632 0 0.36616-0.0915 0.1215-0.0932 0.1215-0.28294 0-0.18807-0.1215-0.28127-0.11983-0.0932-0.36616-0.0932zm-0.3362-0.27628h0.8588q0.38446 0 0.5925 0.15977 0.20804 0.15978 0.20804 0.45437 0 0.22801-0.10652 0.36282t-0.3129 0.1681q0.24799 0.0533 0.38446 0.22302 0.13814 0.1681 0.13814 0.42108 0 0.33287-0.22635 0.51428-0.22635 0.18142-0.6441 0.18142h-0.89209z"/>
   <path d="m76.708 264.06v-1.1284h0.30624v1.1168q0 0.26463 0.10319 0.39777 0.10319 0.13149 0.30957 0.13149 0.24799 0 0.39112-0.15812 0.1448-0.15811 0.1448-0.43106v-1.0569h0.30624v1.8641h-0.30624v-0.28627q-0.11151 0.16976-0.25964 0.25298-0.14646 0.0815-0.34119 0.0815-0.32122 0-0.48765-0.19972t-0.16643-0.58418z"/>
   <path d="m79.006 262.4v0.52926h0.63078v0.238h-0.63078v1.0119q0 0.22802 0.06158 0.29293 0.06324 0.0649 0.25464 0.0649h0.31456v0.25631h-0.31456q-0.3545 0-0.48932-0.13149-0.13481-0.13315-0.13481-0.48266v-1.0119h-0.22469v-0.238h0.22469v-0.52926z"/>
   <path d="m80.691 262.4v0.52926h0.63078v0.238h-0.63078v1.0119q0 0.22802 0.06158 0.29293 0.06325 0.0649 0.25464 0.0649h0.31456v0.25631h-0.31456q-0.3545 0-0.48932-0.13149-0.13481-0.13315-0.13481-0.48266v-1.0119h-0.22469v-0.238h0.22469v-0.52926z"/>
   <path d="m82.794 263.14q-0.24632 0-0.38946 0.19307-0.14313 0.1914-0.14313 0.52593t0.14147 0.52759q0.14313 0.1914 0.39112 0.1914 0.24466 0 0.38779-0.19306t0.14313-0.52593q0-0.3312-0.14313-0.52427-0.14313-0.19473-0.38779-0.19473zm0-0.25963q0.39944 0 0.62746 0.25963 0.22802 0.25964 0.22802 0.719 0 0.45769-0.22802 0.71899-0.22801 0.25964-0.62746 0.25964-0.40111 0-0.62912-0.25964-0.22635-0.2613-0.22635-0.71899 0-0.45936 0.22635-0.719 0.22801-0.25963 0.62912-0.25963z"/>
   <path d="m85.546 263.67v1.1251h-0.30624v-1.1151q0-0.26463-0.10319-0.39612-0.10319-0.13148-0.30957-0.13148-0.24799 0-0.39112 0.15811-0.14313 0.15812-0.14313 0.43107v1.0535h-0.3079v-1.8641h0.3079v0.2896q0.10985-0.1681 0.25797-0.25132 0.14979-0.0832 0.34452-0.0832 0.32122 0 0.48599 0.19972 0.16477 0.19805 0.16477 0.58418z"/>
  </g>
  <g transform="translate(0 .43231)">
   <path d="m31.496 266.13c-0.26241 0-0.47366 0.21125-0.47366 0.47366v3.3156c0 0.26241 0.21125 0.47366 0.47366 0.47366h3.3156c0.26241 0 0.47366-0.21125 0.47366-0.47366v-3.3156c0-0.26241-0.21125-0.47366-0.47366-0.47366z" fill="#ffffff" stroke-linecap="round" stroke-linejoin="round" stroke-width=".35524" style="paint-order:stroke fill markers"/>
   <path d="m31.302 265.88c-0.29316 0-0.52917 0.23601-0.52917 0.52917v3.7042c0 0.29316 0.23601 0.52917 0.52917 0.52917h3.7042c0.29316 0 0.52917-0.23601 0.52917-0.52917v-3.7042c0-0.29316-0.23601-0.52917-0.52917-0.52917zm3.0819 1.4945 0.18603 0.18604-1.9451 1.9472-0.88678-0.88884 0.18603-0.18603 0.70072 0.69865 1.7591-1.757z" fill="#fbc02d" stroke-linecap="round" stroke-linejoin="round" stroke-width=".39688" style="paint-order:stroke fill markers"/>
   <path d="m39.239 265.88c-1.3144 0-2.3812 1.0668-2.3812 2.3812s1.0668 2.3812 2.3812 2.3812 2.3812-1.0668 2.3812-2.3812-1.0668-2.3812-2.3812-2.3812z" fill="#ffffff" stroke-width=".23812"/>
   <path d="m39.239 265.61c-1.4605 0-2.6458 1.1853-2.6458 2.6458s1.1853 2.6458 2.6458 2.6458 2.6458-1.1853 2.6458-2.6458-1.1853-2.6458-2.6458-2.6458zm0 1.3229a1.3229 1.3229 0 0 1 1.3229 1.3229 1.3229 1.3229 0 0 1-1.3229 1.3229 1.3229 1.3229 0 0 1-1.3229-1.3229 1.3229 1.3229 0 0 1 1.3229-1.3229z" fill="#fbc02d" stroke-width=".26458"/>
  </g>
 </g>
 <g id="thumbnail-yellow-dark" transform="translate(386.71 -254.57)">
  <rect x="9.2604" y="277.67" width="32.102" height="9.4161" rx="0" ry="0" fill="#333333" stroke-width="0"/>
  <rect x="10.866" y="279.5" width="16.051" height="5.7543" rx=".53504" ry=".52312" fill="#555555" stroke="#808080" stroke-width=".265"/>
  <g transform="matrix(1.0111 0 0 .98856 -61.768 21.818)" fill="#dedede" stroke-width=".085214" aria-label="Button">
   <path d="m74.699 263.61v0.91039h0.53925q0.27129 0 0.40111-0.11151 0.13148-0.11317 0.13148-0.34451 0-0.23301-0.13148-0.34286-0.12982-0.11151-0.40111-0.11151zm0-1.0219v0.74895h0.49764q0.24632 0 0.36616-0.0915 0.1215-0.0932 0.1215-0.28294 0-0.18807-0.1215-0.28127-0.11983-0.0932-0.36616-0.0932zm-0.3362-0.27628h0.8588q0.38446 0 0.5925 0.15977 0.20804 0.15978 0.20804 0.45437 0 0.22801-0.10652 0.36282t-0.3129 0.1681q0.24799 0.0533 0.38446 0.22302 0.13814 0.1681 0.13814 0.42108 0 0.33287-0.22635 0.51428-0.22635 0.18142-0.6441 0.18142h-0.89209z"/>
   <path d="m76.708 264.06v-1.1284h0.30624v1.1168q0 0.26463 0.10319 0.39777 0.10319 0.13149 0.30957 0.13149 0.24799 0 0.39112-0.15812 0.1448-0.15811 0.1448-0.43106v-1.0569h0.30624v1.8641h-0.30624v-0.28627q-0.11151 0.16976-0.25964 0.25298-0.14646 0.0815-0.34119 0.0815-0.32122 0-0.48765-0.19972t-0.16643-0.58418z"/>
   <path d="m79.006 262.4v0.52926h0.63078v0.238h-0.63078v1.0119q0 0.22802 0.06158 0.29293 0.06324 0.0649 0.25464 0.0649h0.31456v0.25631h-0.31456q-0.3545 0-0.48932-0.13149-0.13481-0.13315-0.13481-0.48266v-1.0119h-0.22469v-0.238h0.22469v-0.52926z"/>
   <path d="m80.691 262.4v0.52926h0.63078v0.238h-0.63078v1.0119q0 0.22802 0.06158 0.29293 0.06325 0.0649 0.25464 0.0649h0.31456v0.25631h-0.31456q-0.3545 0-0.48932-0.13149-0.13481-0.13315-0.13481-0.48266v-1.0119h-0.22469v-0.238h0.22469v-0.52926z"/>
   <path d="m82.794 263.14q-0.24632 0-0.38946 0.19307-0.14313 0.1914-0.14313 0.52593t0.14147 0.52759q0.14313 0.1914 0.39112 0.1914 0.24466 0 0.38779-0.19306t0.14313-0.52593q0-0.3312-0.14313-0.52427-0.14313-0.19473-0.38779-0.19473zm0-0.25963q0.39944 0 0.62746 0.25963 0.22802 0.25964 0.22802 0.719 0 0.45769-0.22802 0.71899-0.22801 0.25964-0.62746 0.25964-0.40111 0-0.62912-0.25964-0.22635-0.2613-0.22635-0.71899 0-0.45936 0.22635-0.719 0.22801-0.25963 0.62912-0.25963z"/>
   <path d="m85.546 263.67v1.1251h-0.30624v-1.1151q0-0.26463-0.10319-0.39612-0.10319-0.13148-0.30957-0.13148-0.24799 0-0.39112 0.15811-0.14313 0.15812-0.14313 0.43107v1.0535h-0.3079v-1.8641h0.3079v0.2896q0.10985-0.1681 0.25797-0.25132 0.14979-0.0832 0.34452-0.0832 0.32122 0 0.48599 0.19972 0.16477 0.19805 0.16477 0.58418z"/>
  </g>
  <g transform="matrix(1.0111 0 0 .98856 -2.2428 17.188)">
   <path d="m31.496 266.13c-0.26241 0-0.47366 0.21125-0.47366 0.47366v3.3156c0 0.26241 0.21125 0.47366 0.47366 0.47366h3.3156c0.26241 0 0.47366-0.21125 0.47366-0.47366v-3.3156c0-0.26241-0.21125-0.47366-0.47366-0.47366z" fill="#ffffff" stroke-linecap="round" stroke-linejoin="round" stroke-width=".35524" style="paint-order:stroke fill markers"/>
   <path d="m31.302 265.88c-0.29316 0-0.52917 0.23601-0.52917 0.52917v3.7042c0 0.29316 0.23601 0.52917 0.52917 0.52917h3.7042c0.29316 0 0.52917-0.23601 0.52917-0.52917v-3.7042c0-0.29316-0.23601-0.52917-0.52917-0.52917zm3.0819 1.4945 0.18603 0.18604-1.9451 1.9472-0.88678-0.88884 0.18603-0.18603 0.70072 0.69865 1.7591-1.757z" fill="#fbc02d" stroke-linecap="round" stroke-linejoin="round" stroke-width=".39688" style="paint-order:stroke fill markers"/>
   <path d="m39.239 265.88c-1.3144 0-2.3812 1.0668-2.3812 2.3812s1.0668 2.3812 2.3812 2.3812 2.3812-1.0668 2.3812-2.3812-1.0668-2.3812-2.3812-2.3812z" fill="#ffffff" stroke-width=".23812"/>
   <path d="m39.239 265.61c-1.4605 0-2.6458 1.1853-2.6458 2.6458s1.1853 2.6458 2.6458 2.6458 2.6458-1.1853 2.6458-2.6458-1.1853-2.6458-2.6458-2.6458zm0 1.3229a1.3229 1.3229 0 0 1 1.3229 1.3229 1.3229 1.3229 0 0 1-1.3229 1.3229 1.3229 1.3229 0 0 1-1.3229-1.3229 1.3229 1.3229 0 0 1 1.3229-1.3229z" fill="#fbc02d" stroke-width=".26458"/>
  </g>
 </g>
 <g id="thumbnail-teal" transform="matrix(1.0111 0 0 .98856 95.651 -252.88)">
  <rect x="11.377" y="263.93" width="31.75" height="9.525" rx="0" ry="0" fill="#f2f2f2" stroke-width="0"/>
  <rect x="12.965" y="265.78" width="15.875" height="5.8208" rx=".52917" ry=".52917" fill="#ffffff" stroke="#e5e5e5" stroke-width=".26458"/>
  <g transform="translate(-58.872,5.1156)" fill="#b3b3b3" stroke-width=".085214" aria-label="Button">
   <path d="m74.699 263.61v0.91039h0.53925q0.27129 0 0.40111-0.11151 0.13148-0.11317 0.13148-0.34451 0-0.23301-0.13148-0.34286-0.12982-0.11151-0.40111-0.11151zm0-1.0219v0.74895h0.49764q0.24632 0 0.36616-0.0915 0.1215-0.0932 0.1215-0.28294 0-0.18807-0.1215-0.28127-0.11983-0.0932-0.36616-0.0932zm-0.3362-0.27628h0.8588q0.38446 0 0.5925 0.15977 0.20804 0.15978 0.20804 0.45437 0 0.22801-0.10652 0.36282t-0.3129 0.1681q0.24799 0.0533 0.38446 0.22302 0.13814 0.1681 0.13814 0.42108 0 0.33287-0.22635 0.51428-0.22635 0.18142-0.6441 0.18142h-0.89209z"/>
   <path d="m76.708 264.06v-1.1284h0.30624v1.1168q0 0.26463 0.10319 0.39777 0.10319 0.13149 0.30957 0.13149 0.24799 0 0.39112-0.15812 0.1448-0.15811 0.1448-0.43106v-1.0569h0.30624v1.8641h-0.30624v-0.28627q-0.11151 0.16976-0.25964 0.25298-0.14646 0.0815-0.34119 0.0815-0.32122 0-0.48765-0.19972t-0.16643-0.58418z"/>
   <path d="m79.006 262.4v0.52926h0.63078v0.238h-0.63078v1.0119q0 0.22802 0.06158 0.29293 0.06324 0.0649 0.25464 0.0649h0.31456v0.25631h-0.31456q-0.3545 0-0.48932-0.13149-0.13481-0.13315-0.13481-0.48266v-1.0119h-0.22469v-0.238h0.22469v-0.52926z"/>
   <path d="m80.691 262.4v0.52926h0.63078v0.238h-0.63078v1.0119q0 0.22802 0.06158 0.29293 0.06325 0.0649 0.25464 0.0649h0.31456v0.25631h-0.31456q-0.3545 0-0.48932-0.13149-0.13481-0.13315-0.13481-0.48266v-1.0119h-0.22469v-0.238h0.22469v-0.52926z"/>
   <path d="m82.794 263.14q-0.24632 0-0.38946 0.19307-0.14313 0.1914-0.14313 0.52593t0.14147 0.52759q0.14313 0.1914 0.39112 0.1914 0.24466 0 0.38779-0.19306t0.14313-0.52593q0-0.3312-0.14313-0.52427-0.14313-0.19473-0.38779-0.19473zm0-0.25963q0.39944 0 0.62746 0.25963 0.22802 0.25964 0.22802 0.719 0 0.45769-0.22802 0.71899-0.22801 0.25964-0.62746 0.25964-0.40111 0-0.62912-0.25964-0.22635-0.2613-0.22635-0.71899 0-0.45936 0.22635-0.719 0.22801-0.25963 0.62912-0.25963z"/>
   <path d="m85.546 263.67v1.1251h-0.30624v-1.1151q0-0.26463-0.10319-0.39612-0.10319-0.13148-0.30957-0.13148-0.24799 0-0.39112 0.15811-0.14313 0.15812-0.14313 0.43107v1.0535h-0.3079v-1.8641h0.3079v0.2896q0.10985-0.1681 0.25797-0.25132 0.14979-0.0832 0.34452-0.0832 0.32122 0 0.48599 0.19972 0.16477 0.19805 0.16477 0.58418z"/>
  </g>
  <g transform="translate(0 .43231)">
   <path d="m31.496 266.13c-0.26241 0-0.47366 0.21125-0.47366 0.47366v3.3156c0 0.26241 0.21125 0.47366 0.47366 0.47366h3.3156c0.26241 0 0.47366-0.21125 0.47366-0.47366v-3.3156c0-0.26241-0.21125-0.47366-0.47366-0.47366z" fill="#ffffff" stroke-linecap="round" stroke-linejoin="round" stroke-width=".35524" style="paint-order:stroke fill markers"/>
   <path d="m31.302 265.88c-0.29316 0-0.52917 0.23601-0.52917 0.52917v3.7042c0 0.29316 0.23601 0.52917 0.52917 0.52917h3.7042c0.29316 0 0.52917-0.23601 0.52917-0.52917v-3.7042c0-0.29316-0.23601-0.52917-0.52917-0.52917zm3.0819 1.4945 0.18603 0.18604-1.9451 1.9472-0.88678-0.88884 0.18603-0.18603 0.70072 0.69865 1.7591-1.757z" fill="#009688" stroke-linecap="round" stroke-linejoin="round" stroke-width=".39688" style="paint-order:stroke fill markers"/>
   <path d="m39.239 265.88c-1.3144 0-2.3812 1.0668-2.3812 2.3812s1.0668 2.3812 2.3812 2.3812 2.3812-1.0668 2.3812-2.3812-1.0668-2.3812-2.3812-2.3812z" fill="#ffffff" stroke-width=".23812"/>
   <path d="m39.239 265.61c-1.4605 0-2.6458 1.1853-2.6458 2.6458s1.1853 2.6458 2.6458 2.6458 2.6458-1.1853 2.6458-2.6458-1.1853-2.6458-2.6458-2.6458zm0 1.3229a1.3229 1.3229 0 0 1 1.3229 1.3229 1.3229 1.3229 0 0 1-1.3229 1.3229 1.3229 1.3229 0 0 1-1.3229-1.3229 1.3229 1.3229 0 0 1 1.3229-1.3229z" fill="#009688" stroke-width=".26458"/>
  </g>
 </g>
 <g id="thumbnail-teal-dark" transform="translate(97.894 -254.57)">
  <rect x="9.2604" y="277.67" width="32.102" height="9.4161" rx="0" ry="0" fill="#333333" stroke-width="0"/>
  <rect x="10.866" y="279.5" width="16.051" height="5.7543" rx=".53504" ry=".52312" fill="#555555" stroke="#808080" stroke-width=".265"/>
  <g transform="matrix(1.0111 0 0 .98856 -61.768 21.818)" fill="#dedede" stroke-width=".085214" aria-label="Button">
   <path d="m74.699 263.61v0.91039h0.53925q0.27129 0 0.40111-0.11151 0.13148-0.11317 0.13148-0.34451 0-0.23301-0.13148-0.34286-0.12982-0.11151-0.40111-0.11151zm0-1.0219v0.74895h0.49764q0.24632 0 0.36616-0.0915 0.1215-0.0932 0.1215-0.28294 0-0.18807-0.1215-0.28127-0.11983-0.0932-0.36616-0.0932zm-0.3362-0.27628h0.8588q0.38446 0 0.5925 0.15977 0.20804 0.15978 0.20804 0.45437 0 0.22801-0.10652 0.36282t-0.3129 0.1681q0.24799 0.0533 0.38446 0.22302 0.13814 0.1681 0.13814 0.42108 0 0.33287-0.22635 0.51428-0.22635 0.18142-0.6441 0.18142h-0.89209z"/>
   <path d="m76.708 264.06v-1.1284h0.30624v1.1168q0 0.26463 0.10319 0.39777 0.10319 0.13149 0.30957 0.13149 0.24799 0 0.39112-0.15812 0.1448-0.15811 0.1448-0.43106v-1.0569h0.30624v1.8641h-0.30624v-0.28627q-0.11151 0.16976-0.25964 0.25298-0.14646 0.0815-0.34119 0.0815-0.32122 0-0.48765-0.19972t-0.16643-0.58418z"/>
   <path d="m79.006 262.4v0.52926h0.63078v0.238h-0.63078v1.0119q0 0.22802 0.06158 0.29293 0.06324 0.0649 0.25464 0.0649h0.31456v0.25631h-0.31456q-0.3545 0-0.48932-0.13149-0.13481-0.13315-0.13481-0.48266v-1.0119h-0.22469v-0.238h0.22469v-0.52926z"/>
   <path d="m80.691 262.4v0.52926h0.63078v0.238h-0.63078v1.0119q0 0.22802 0.06158 0.29293 0.06325 0.0649 0.25464 0.0649h0.31456v0.25631h-0.31456q-0.3545 0-0.48932-0.13149-0.13481-0.13315-0.13481-0.48266v-1.0119h-0.22469v-0.238h0.22469v-0.52926z"/>
   <path d="m82.794 263.14q-0.24632 0-0.38946 0.19307-0.14313 0.1914-0.14313 0.52593t0.14147 0.52759q0.14313 0.1914 0.39112 0.1914 0.24466 0 0.38779-0.19306t0.14313-0.52593q0-0.3312-0.14313-0.52427-0.14313-0.19473-0.38779-0.19473zm0-0.25963q0.39944 0 0.62746 0.25963 0.22802 0.25964 0.22802 0.719 0 0.45769-0.22802 0.71899-0.22801 0.25964-0.62746 0.25964-0.40111 0-0.62912-0.25964-0.22635-0.2613-0.22635-0.71899 0-0.45936 0.22635-0.719 0.22801-0.25963 0.62912-0.25963z"/>
   <path d="m85.546 263.67v1.1251h-0.30624v-1.1151q0-0.26463-0.10319-0.39612-0.10319-0.13148-0.30957-0.13148-0.24799 0-0.39112 0.15811-0.14313 0.15812-0.14313 0.43107v1.0535h-0.3079v-1.8641h0.3079v0.2896q0.10985-0.1681 0.25797-0.25132 0.14979-0.0832 0.34452-0.0832 0.32122 0 0.48599 0.19972 0.16477 0.19805 0.16477 0.58418z"/>
  </g>
  <g transform="matrix(1.0111 0 0 .98856 -2.2428 17.188)">
   <path d="m31.496 266.13c-0.26241 0-0.47366 0.21125-0.47366 0.47366v3.3156c0 0.26241 0.21125 0.47366 0.47366 0.47366h3.3156c0.26241 0 0.47366-0.21125 0.47366-0.47366v-3.3156c0-0.26241-0.21125-0.47366-0.47366-0.47366z" fill="#ffffff" stroke-linecap="round" stroke-linejoin="round" stroke-width=".35524" style="paint-order:stroke fill markers"/>
   <path d="m31.302 265.88c-0.29316 0-0.52917 0.23601-0.52917 0.52917v3.7042c0 0.29316 0.23601 0.52917 0.52917 0.52917h3.7042c0.29316 0 0.52917-0.23601 0.52917-0.52917v-3.7042c0-0.29316-0.23601-0.52917-0.52917-0.52917zm3.0819 1.4945 0.18603 0.18604-1.9451 1.9472-0.88678-0.88884 0.18603-0.18603 0.70072 0.69865 1.7591-1.757z" fill="#009688" stroke-linecap="round" stroke-linejoin="round" stroke-width=".39688" style="paint-order:stroke fill markers"/>
   <path d="m39.239 265.88c-1.3144 0-2.3812 1.0668-2.3812 2.3812s1.0668 2.3812 2.3812 2.3812 2.3812-1.0668 2.3812-2.3812-1.0668-2.3812-2.3812-2.3812z" fill="#ffffff" stroke-width=".23812"/>
   <path d="m39.239 265.61c-1.4605 0-2.6458 1.1853-2.6458 2.6458s1.1853 2.6458 2.6458 2.6458 2.6458-1.1853 2.6458-2.6458-1.1853-2.6458-2.6458-2.6458zm0 1.3229a1.3229 1.3229 0 0 1 1.3229 1.3229 1.3229 1.3229 0 0 1-1.3229 1.3229 1.3229 1.3229 0 0 1-1.3229-1.3229 1.3229 1.3229 0 0 1 1.3229-1.3229z" fill="#009688" stroke-width=".26458"/>
  </g>
 </g>
</svg>
