<?xml version="1.0" encoding="UTF-8" standalone="no"?>
<svg
   width="32"
   height="32"
   viewBox="0 0 32 32"
   version="1.1"
   id="svg2"
   sodipodi:docname="close-active.svg"
   inkscape:version="1.2.2 (b0a8486541, 2022-12-01)"
   xmlns:inkscape="http://www.inkscape.org/namespaces/inkscape"
   xmlns:sodipodi="http://sodipodi.sourceforge.net/DTD/sodipodi-0.dtd"
   xmlns="http://www.w3.org/2000/svg"
   xmlns:svg="http://www.w3.org/2000/svg">
  <defs
     id="defs2" />
  <sodipodi:namedview
     id="namedview2"
     pagecolor="#ffffff"
     bordercolor="#000000"
     borderopacity="0.25"
     inkscape:showpageshadow="2"
     inkscape:pageopacity="0.0"
     inkscape:pagecheckerboard="0"
     inkscape:deskcolor="#d1d1d1"
     inkscape:zoom="13.700194"
     inkscape:cx="9.9998584"
     inkscape:cy="18.758858"
     inkscape:window-width="1600"
     inkscape:window-height="828"
     inkscape:window-x="0"
     inkscape:window-y="71"
     inkscape:window-maximized="1"
     inkscape:current-layer="svg2"
     showgrid="false" />
  <path
     d="m 23.267712,8.7322885 c -0.309718,-0.309718 -0.808393,-0.309718 -1.118111,0 L 16,14.881889 9.850399,8.7322885 c -0.3097175,-0.309718 -0.8083933,-0.309718 -1.1181108,0 -0.3097175,0.309717 -0.3097175,0.808393 0,1.11811 L 14.881889,16 8.7322882,22.149601 c -0.3097175,0.309717 -0.3097175,0.808393 0,1.11811 0.3097175,0.309718 0.8083933,0.309718 1.1181108,0 L 16,17.11811 l 6.149601,6.149601 c 0.309718,0.309718 0.808393,0.309718 1.118111,0 0.309717,-0.309716 0.309717,-0.808392 0,-1.11811 L 17.118111,16 23.267712,9.8503985 c 0.309717,-0.309717 0.309717,-0.808393 0,-1.11811 z"
     fill="#dedede"
     stroke-linecap="round"
     stroke-linejoin="round"
     stroke-opacity="0.08"
     style="stroke-width:1.58124;paint-order:stroke markers fill;fill:#363636;fill-opacity:1"
     id="path685" />
</svg>
