<?xml version="1.0" encoding="UTF-8" standalone="no"?>
<!-- Created with Inkscape (http://www.inkscape.org/) -->

<svg
   width="268"
   height="820"
   viewBox="0 0 70.908332 216.95834"
   version="1.1"
   id="svg5"
   inkscape:version="1.1 (c4e8f9ed74, 2021-05-24)"
   sodipodi:docname="modal-prompt.svg"
   xmlns:inkscape="http://www.inkscape.org/namespaces/inkscape"
   xmlns:sodipodi="http://sodipodi.sourceforge.net/DTD/sodipodi-0.dtd"
   xmlns="http://www.w3.org/2000/svg"
   xmlns:svg="http://www.w3.org/2000/svg">
  <sodipodi:namedview
     id="namedview7"
     pagecolor="#bfbfbf"
     bordercolor="#666666"
     borderopacity="1.0"
     inkscape:pageshadow="2"
     inkscape:pageopacity="0"
     inkscape:pagecheckerboard="0"
     inkscape:document-units="mm"
     showgrid="true"
     units="px"
     width="120px"
     inkscape:zoom="5.6568545"
     inkscape:cx="-10.69499"
     inkscape:cy="716.47591"
     inkscape:window-width="1920"
     inkscape:window-height="1012"
     inkscape:window-x="0"
     inkscape:window-y="34"
     inkscape:window-maximized="1"
     inkscape:current-layer="layer1"
     inkscape:snap-bbox="true"
     inkscape:bbox-nodes="true">
    <inkscape:grid
       type="xygrid"
       id="grid1045" />
  </sodipodi:namedview>
  <defs
     id="defs2">
    <clipPath
       clipPathUnits="userSpaceOnUse"
       id="clipPath1633">
      <path
         id="path1635"
         style="opacity:0.95;fill:#ffffff;stroke-width:0.973839;stroke-linecap:round;stroke-linejoin:round"
         d="m 0.23047689,-3.96875 c -2.03320019,0 -3.67006019,1.63686 -3.67006019,3.67006023 V 16.173689 c 0,2.033201 1.63686,3.670061 3.67006019,3.670061 H 16.702856 c 2.033201,0 3.67006,-1.63686 3.67006,-3.670061 V -0.29868977 C 20.372916,-2.33189 18.736057,-3.96875 16.702856,-3.96875 Z M 3.707784,1.0583333 h 9.517765 c 1.174738,0 2.120284,0.9455461 2.120284,2.1202841 v 9.5177646 c 0,1.174738 -0.945546,2.120284 -2.120284,2.120284 H 3.707784 C 2.5330461,14.816666 1.5875,13.87112 1.5875,12.696382 V 3.1786174 c 0,-1.174738 0.9455461,-2.1202841 2.120284,-2.1202841 z" />
    </clipPath>
    <filter
       inkscape:collect="always"
       style="color-interpolation-filters:sRGB"
       id="filter1837"
       x="-0.022506096"
       y="-0.0071306437"
       width="1.0450122"
       height="1.0142613">
      <feGaussianBlur
         inkscape:collect="always"
         stdDeviation="0.63517199"
         id="feGaussianBlur1839" />
    </filter>
  </defs>
  <g
     inkscape:label="图层 1"
     inkscape:groupmode="layer"
     id="layer1">
    <rect
       style="opacity:0.25;fill:#000000;fill-opacity:1;stroke:none;stroke-width:2.31413;stroke-linecap:round;stroke-linejoin:round;stroke-miterlimit:4;stroke-dasharray:none;stroke-opacity:0.15;paint-order:stroke fill markers;filter:url(#filter1837)"
       id="rect1817"
       width="67.73333"
       height="213.78334"
       x="1.587499"
       y="1.5874946"
       rx="0.79374796"
       ry="0.79374796" />
    <rect
       style="opacity:1;fill:#ffffff;fill-opacity:0.94902;stroke:#383838;stroke-width:0.529167;stroke-linecap:round;stroke-linejoin:round;stroke-miterlimit:4;stroke-dasharray:none;stroke-opacity:0.15000001;paint-order:stroke fill markers"
       id="rect846"
       width="67.73333"
       height="213.78334"
       x="1.5875"
       y="1.0583333"
       rx="0.79374796"
       ry="0.79374796" />
    <path
       id="rect3629"
       style="opacity:0.06;fill:#000000;fill-opacity:1;stroke:none;stroke-width:3.99111;stroke-linecap:round;stroke-linejoin:round;stroke-miterlimit:4;stroke-dasharray:none;stroke-opacity:0.988395;paint-order:stroke markers fill"
       d="M 6 724 L 6 809 C 6 810.662 7.3380043 812 9 812 L 259 812 C 260.662 812 262 810.662 262 809 L 262 724 L 6 724 z "
       transform="scale(0.26458333)" />
    <rect
       style="opacity:0.15;fill:#000000;fill-opacity:1;stroke:none;stroke-width:0.758017;stroke-linecap:round;stroke-linejoin:round;stroke-miterlimit:4;stroke-dasharray:none;stroke-opacity:0.988395;paint-order:stroke markers fill"
       id="rect2759"
       width="67.73333"
       height="0.26458332"
       x="1.5875"
       y="191.55833"
       rx="0"
       ry="0" />
  </g>
</svg>
