<svg xmlns="http://www.w3.org/2000/svg" width="24" height="24" version="1.0"><path fill="#fff" d="M17.734 3c-3.554 0-4.22 5.4-2.222 5.4S21.29 3 17.734 3zm-5.642.612c-2.032.287-1.318 4.116-.234 4.188 1.08.07 2.268-4.473.234-4.188zm-3.678 1.19a1.246 1.246 0 0 0-.334.086c-1.902.723-.289 3.703.778 3.503 1-.189 1.114-3.74-.442-3.586zm-2.5 2.399a1.01 1.01 0 0 0-.55.157c-1.565.923.527 3.15 1.445 2.806.808-.304.293-2.93-.895-2.965zM13.21 9c-2.8-.05-6.494 1.42-7.124 4.371C5.404 16.567 8.895 21 12.538 21c1.792 0 3.859-1.694 4.246-3.84.295-1.634-3.716-.977-3.58.103.11.884-.353 1.343-.991 1.36-.872-.106-1.297-.61-1.414-1.371-.155-1.994 6.131-3.418 5.634-6.512-.183-1.133-1.541-1.709-3.223-1.739z" opacity=".8"/></svg>