<svg width="24" height="24" version="1.1" viewBox="0 0 6.35 6.35" xmlns="http://www.w3.org/2000/svg">
 <path d="m3.175 0.79375c-0.49853 0.001059-0.98417 0.15856-1.3884 0.4503l0.54086 0.54086c0.25518-0.1561 0.54843-0.23894 0.84757-0.23945 0.89996-1.8e-6 1.6295 0.72955 1.6295 1.6295-7.195e-4 0.29904-0.083714 0.59212-0.23989 0.84713l0.54188 0.54192c0.29165-0.40449 0.44896-0.89038 0.44973-1.389 0-1.3151-1.0661-2.3812-2.3812-2.3812zm-1.9315 0.99222c-0.29165 0.40449-0.44896 0.89033-0.44973 1.389 0 1.3151 1.0661 2.3813 2.3813 2.3813 0.49853-0.0010589 0.98413-0.15856 1.3884-0.4503l-0.54086-0.54086c-0.25518 0.1561-0.54839 0.23894-0.84753 0.23945-0.89996 1.8e-6 -1.6296-0.72959-1.6296-1.6296 7.195e-4 -0.29904 0.083714-0.59207 0.23989-0.84709zm1.9311 0.63093a0.75811 0.75811 0 0 0-0.75812 0.75808 0.75811 0.75811 0 0 0 0.75812 0.75812 0.75811 0.75811 0 0 0 0.75812-0.75812 0.75811 0.75811 0 0 0-0.75812-0.75808z" fill="#ffffff" opacity=".8" stroke-width=".022628"/>
</svg>
