<svg xmlns="http://www.w3.org/2000/svg" width="24" height="24"><path fill="#fff" d="M13.643 2.962 3.162 19.378s3.532.189 8.937 0c5.378-.187 8.281-.414 9.328-2.018.797-1.22.886-3.154-2.307-7.937-2.183-3.27-5.477-6.46-5.477-6.46z" opacity=".6"/><path fill="#fff" d="M13.638 2.978 2.106 16.537s2.649.65 7.48.98c4.78.325 8.287.78 9.517-.865 1.056-1.412 1.124-2.914-1.177-7.274-1.578-2.991-4.288-6.4-4.288-6.4z" opacity=".45"/><path fill="#fff" d="m13.638 2.978-.02.022L4.68 17.002c1.226.18 2.87.376 4.906.515 4.779.325 8.287.78 9.517-.865 1.056-1.412 1.124-2.914-1.177-7.274-1.578-2.991-4.288-6.4-4.288-6.4z"/></svg>