<svg xmlns="http://www.w3.org/2000/svg" width="24" height="24" version="1.0"><path fill="#fff" d="M12 3a9 9 0 1 0 0 18 9 9 0 0 0 0-18zm3.208 2.509a1.199 1.199 0 0 1 .893 1.792 1.201 1.201 0 1 1-.893-1.792zm-3.21 1.27c.485 0 .952.067 1.397.19a1.686 1.686 0 0 0 2.26 1.31 5.208 5.208 0 0 1 1.551 3.386l-1.711.024a3.51 3.51 0 0 0-4.975-2.87l-.835-1.5A5.202 5.202 0 0 1 12 6.78zm-2.896.877.88 1.473a3.506 3.506 0 0 0 0 5.742l-.88 1.471a5.226 5.226 0 0 1-2.155-3.033 1.682 1.682 0 0 0 0-2.617 5.23 5.23 0 0 1 2.155-3.036zM5.88 10.798a1.202 1.202 0 1 1 0 2.404 1.201 1.201 0 0 1 0-2.402zm9.616 1.511 1.711.028a5.204 5.204 0 0 1-1.552 3.384 1.68 1.68 0 0 0-2.26 1.308 5.217 5.217 0 0 1-3.71-.349l.836-1.496a3.508 3.508 0 0 0 4.975-2.875zm-.585 3.797a1.204 1.204 0 1 1 .294 2.39 1.204 1.204 0 0 1-.294-2.39z" opacity=".8"/></svg>