<svg xmlns="http://www.w3.org/2000/svg" width="24" height="24" viewBox="0 0 6.35 6.35"><path fill="#fff" d="M3.175.794a2.381 2.381 0 1 0 0 4.762 2.381 2.381 0 0 0 0-4.762zm0 .529a1.852 1.852 0 1 1 0 3.704 1.838 1.838 0 0 1-1.257-.496c.107-.015.276-.017.496.008.322.037.5.05.711.033.484-.036.803-.116 1.158-.29.185-.09.225-.13.264-.239.039-.103.053-.199.034-.199a.977.977 0 0 0-.14.058c-.274.13-.513.193-.72.183-.216-.012-.564-.138-.984-.34l-.198-.09-.15-.372.141.09a4.176 4.176 0 0 0 .869.422c.36.114.642.098.933-.05.103-.052.298-.18.298-.198 0-.034-.1-.369-.157-.52-.143-.38-.244-.508-.48-.62-.261-.126-.552-.21-1.083-.331-.253-.054-.502-.109-.76-.141l-.009.314a8.56 8.56 0 0 0-.487-.132 1.856 1.856 0 0 1 1.521-.793zm.438 1.34a.394.394 0 0 1 .388.305.353.353 0 0 1-.032.273.38.38 0 0 1-.414.207.386.386 0 0 1-.29-.223.407.407 0 0 1 .083-.455.409.409 0 0 1 .265-.107zm.09.206c-.137 0-.224.101-.148.173.062.059.166.068.248.026.054-.028.072-.07.058-.124-.01-.041-.09-.075-.157-.075z" opacity=".8" overflow="visible"/></svg>