<svg width="24" height="24" enable-background="new" version="1.0" xmlns="http://www.w3.org/2000/svg">
 <path d="m14.65 5.89c0.62088-0.77302 1.0418-1.8233 0.92569-2.8878-0.89425 0.0375-2.0084 0.62113-2.6539 1.3716-0.57017 0.66588-1.0767 1.7543-0.9455 2.7802 1.0035 0.0749 2.0313-0.5078 2.6736-1.264zm2.2626 6.6879c-0.02145-2.2764 1.8626-3.3817 1.948-3.4344-1.0659-1.5557-2.7186-1.7665-3.3014-1.7857-1.389-0.14152-2.7336 0.83455-3.4421 0.83455-0.72112-1e-4 -1.8101-0.81766-2.983-0.79441-1.5118 0.0226-2.9274 0.89797-3.7024 2.2535-1.5955 2.7706-0.40608 6.8399 1.1264 9.074 0.76765 1.0998 1.6619 2.3238 2.8348 2.2755 1.1471-0.0436 1.5748-0.72834 2.9613-0.72834 1.372 0 1.7739 0.72834 2.9708 0.70491 1.2318-0.0202 2.0065-1.1017 2.7476-2.206 0.88257-1.2598 1.2389-2.4948 1.2532-2.5605-0.02746-0.0102-2.3877-0.9078-2.4129-3.633z" fill="#ffffff" opacity=".8"/>
</svg>
