<svg width="24" height="24" enable-background="new" version="1.0" xmlns="http://www.w3.org/2000/svg">
 <g transform="translate(0,-276)">
  <path d="m11.999 279c-0.80147 1.9641-1.284 3.2501-2.1769 5.1547 0.54636 0.58031 1.2181 1.2541 2.3087 2.0194-1.1714-0.48252-1.9728-0.96717-2.5702-1.471-1.1416 2.3829-2.9295 5.7754-6.5605 12.297 2.853-1.6453 5.066-2.6613 7.126-3.0482a5.2233 5.2227 0 0 1-0.13393-1.2222l0.0021-0.0914c0.046766-1.8281 0.99705-3.2331 2.1238-3.1375 1.1267 0.0957 2.0005 1.6559 1.9558 3.4818a5.1596 5.159 0 0 1-0.1148 0.98206c2.0387 0.39962 4.2263 1.4114 7.041 3.0354-0.55486-1.0203-1.0502-1.9407-1.5243-2.8186-0.74407-0.57818-1.5221-1.3285-3.1059-2.1427 1.0885 0.28271 1.8708 0.61006 2.4767 0.97567-4.8088-8.9532-5.1978-10.144-6.8475-14.014z" fill="#ffffff" fill-rule="evenodd" opacity=".8" stroke-width="3.7796"/>
 </g>
</svg>
