<svg xmlns="http://www.w3.org/2000/svg" width="24" height="24" version="1.0"><path fill="#fff" d="M14.65 5.89c.62-.773 1.042-1.823.926-2.888-.895.038-2.009.621-2.654 1.372-.57.666-1.077 1.754-.946 2.78 1.004.075 2.032-.508 2.674-1.264zm2.263 6.688c-.022-2.276 1.862-3.382 1.948-3.434-1.066-1.556-2.719-1.767-3.302-1.786-1.389-.142-2.733.834-3.442.834-.721 0-1.81-.817-2.983-.794-1.512.023-2.927.898-3.702 2.253-1.596 2.771-.406 6.84 1.126 9.074.768 1.1 1.662 2.324 2.835 2.276 1.147-.044 1.575-.728 2.961-.728 1.372 0 1.774.728 2.971.705 1.232-.02 2.007-1.102 2.748-2.206.882-1.26 1.239-2.495 1.253-2.561-.028-.01-2.388-.908-2.413-3.633z" opacity=".8"/></svg>