<svg xmlns="http://www.w3.org/2000/svg" width="24" height="24" version="1.0"><path fill="#fff" fill-rule="evenodd" d="M11.999 3c-.801 1.964-1.284 3.25-2.177 5.155.546.58 1.218 1.254 2.309 2.02-1.172-.483-1.973-.968-2.57-1.472C8.419 11.086 6.63 14.48 3 21c2.852-1.645 5.065-2.661 7.125-3.048a5.223 5.223 0 0 1-.134-1.222l.002-.092c.047-1.828.997-3.233 2.124-3.137 1.127.095 2 1.656 1.956 3.482a5.16 5.159 0 0 1-.115.982c2.039.4 4.226 1.411 7.041 3.035-.555-1.02-1.05-1.94-1.524-2.819-.744-.578-1.522-1.328-3.106-2.142 1.088.282 1.87.61 2.477.975C14.037 8.061 13.649 6.87 11.999 3z" opacity=".8"/></svg>