<svg width="24" height="24" enable-background="new" version="1.0" xmlns="http://www.w3.org/2000/svg">
 <g transform="translate(0,-276)">
  <path d="m12.005 279c-4.9688 0-8.9919 4.0258-9.0007 8.996h-0.0016v6.9638h0.00161c0.00237 1.1272 0.91677 2.0402 2.0445 2.0402h6.957c4.9697-3e-3 8.9919-4.0285 8.9919-8.996 8e-6 -4.9702-4.0274-8.996-9.0007-8.996zm1.8283 3.7043c1.5109 0 2.9375 1.1568 2.9375 2.7526 0 0.14803 8.68e-4 0.29614-0.02332 0.46396-0.04187 0.42454-0.4299 0.72963-0.85242 0.66976-0.42252-0.0605-0.70924-0.46171-0.6311-0.88138 0.0072-0.0479 0.0098-0.12313 0.0098-0.25242 0-0.90498-0.74053-1.2544-1.4406-1.2544-0.69992 0-1.3308 0.5885-1.3316 1.2544 0.01208 0.76994 0 1.534 0 2.3028l1.2991-0.01c1.0143-0.0211 1.0258 1.5062 0.0117 1.499l-1.3105 0.01c-0.0031 0.61932 0.0048 0.50732 0.0016 0.81923 0 0 0.01098 0.75748-0.01163 1.3315-0.15681 1.6863-1.5927 3.0339-3.3181 3.0339-1.8291 0-3.3357-1.4946-3.3357-3.3278 0.054919-1.8852 1.5584-3.3681 3.4526-3.3511l1.0565-9e-3v1.4963l-1.0565 0.01h-0.00567c-1.0407 0.0307-1.9329 0.7376-1.9496 1.8521 0 1.0152 0.82043 1.8288 1.8388 1.8288 1.017 0 1.8309-0.73984 1.8309-1.827l-0.0016-5.6673c5.27e-4 -0.10521 0.0039-0.18879 0.01553-0.30484 0.17168-1.3861 1.4116-2.4425 2.8154-2.4425z" fill="#ffffff" opacity=".8" stroke-width="3.7796"/>
 </g>
</svg>
