<svg width="24" height="24" enable-background="new" version="1.0" xmlns="http://www.w3.org/2000/svg">
 <g transform="translate(0,-276)">
  <path transform="translate(0,276)" d="m12 3a9 9 0 0 0-9 9 9 9 0 0 0 9 9 9 9 0 0 0 9-9 9 9 0 0 0-9-9zm-0.14648 3c-0.097791 0.05385-0.19249 0.094503-0.2832 0.1582 0.36566-0.0864 0.34796 0.037881 0.7207-0.011719-0.13039 0.0198-0.28918 0.070044-0.26367 0.089844 0.4181 0.0482 0.48169-0.12897 0.86719 0l-0.02539-0.11328c0.53856 0.19275 0.64992 0.15979 1.2324 0.46875 0.20409 0.0113 0.22566-0.12471 0.5332 0 0.055273 0.09637-0.010689 0.11308 0.36914 0.33984 0.042518-0.017-0.077802-0.12594-0.16992-0.21094 0.76249 0.40817 1.5934 1.2793 1.8457 2.209-0.23669-0.4351-0.023269 0.2215-0.10547 0.1875a5.0667 5.0667 0 0 1 0.24609 0.88281c-0.070864-0.24943-0.22379-0.84995-0.49023-1.2383-0.022676 0.25086-0.34708-0.17241-0.16992 0.37891 0.13464 0.19562 0.027539-0.1988 0.19336 0.14844 0.002834 0.16582 0.065245 0.3295 0.10352 0.54492-0.058108-0.00992-0.1274-0.23753-0.16992-0.17383 0.058109 0.27069 0.1526 0.41044 0.18945 0.43164-0.019839 0.04533-0.066012-0.041672-0.070312 0.14258 0.022677 0.42376 0.11871 0.24387 0.16406 0.26367-0.04677 0.20834-0.23274 0.45393-0.14062 0.8125-0.026933-0.10914-0.077508-0.21881-0.11719-0.32227-0.03685 0.30612 0.067508 0.36695-0.074219 0.73828 0.10201-0.33448 0.090511-0.63621-0.005859-0.49023 0.042518 0.47479-0.37543 0.83874-0.33008 1.1406l-0.12109-0.16797c-0.33022 0.47621-0.00654 0.26165-0.23047 0.62305 0.0822-0.14178-0.045213-0.05718 0.0625-0.21875-0.070864 0.00425-0.31762 0.30278-0.54297 0.47852-0.8858 0.70864-1.9416 0.80259-2.9648 0.41992-0.039683 0.0326 0.1813 0.20602 0.3457 0.29102 0.38975 0.14306 0.8305 0.15092 1.1777 0.13672-0.75115 0.31463-2.1807-0.31722-2.6484-1.1562 0.1063 0.02268 0.46812 0.58954 0.74023 0.68164-0.16015-0.12897-0.28418-0.29229-0.40039-0.46094a2.3527 2.3527 0 0 0 0.76953 0.58789c-0.00921-0.03543 0.010487-0.056158 0.015625-0.080078 0.005137-0.02392-0.004237-0.049653-0.072266-0.095703-0.86737-0.6647-1.3817-1.2295-1.2031-2.5391 0.13181-0.0992 0.16741-0.64461 0.4707-0.83594 0.18424-0.40817 0.73961-0.78592 1.332-0.79492 0.60518-0.03259 1.116 0.32231 1.3711 0.6582-0.46486-0.4351-1.2309-0.56587-1.8828-0.24414-0.66612 0.30046-1.0586 1.0338-1.002 1.7637 0.0241-0.03547 0.0453-0.012815 0.05664-0.10352-0.019842 1.4201 1.5311 2.4599 2.6465 1.9355l0.013672 0.03125c0.45353-0.1233 0.39661-0.22702 0.69141-0.42969-0.02268 0.04677-0.19863 0.16992-0.09375 0.16992 0.14314-0.03826 0.59336-0.45392 0.81445-0.65234 0.10204-0.21826-0.053836-0.11816 0.087891-0.39453l0.17383-0.083985c0.096374-0.27778 0.20221-0.4352 0.18945-0.75976l-0.10156 0.21289c0.14882-0.45069 0.064688-0.93952 0.085938-1.3633l-0.042969-0.011719c-0.035432-1.0658-0.95728-2.1994-1.7793-2.582-0.7058-0.32739-1.7932-0.3819-2.2949-0.13672 0.068028-0.06092 0.34339-0.087966 0.25977-0.13477-0.78659 0.07795-0.60913 0.2752-1.2129 0.42969-0.1644 0.1602 0.48342-0.1288 0.13477 0.078125-0.32314 0.08928-0.47604-0.056587-0.95508 0.43945 0.042518 0.0709 0.30561-0.20268 0.085937 0.072266-0.45069-0.05528-1.4239 1.0287-1.6309 1.3887l0.10742 0.019531c-0.17716 0.44502-0.41023 0.7277-0.44141 0.99414-0.045353 0.65478-0.2745 1.8478 0.042969 2.2148l-0.03125 0.30664c0.042518 0.08787 0.077001 0.17561 0.13086 0.25781l-0.070312 0.005859c0.33448 1.053 0.35947 0.019151 0.79883 1.1133-0.063777-0.02126-0.1277-0.044325-0.22266-0.17188-0.0099203 0.09779 0.13818 0.38546 0.3125 0.60938l-0.076172 0.085938c0.099209 0.17716 0.18783 0.21439 0.25586 0.27539-0.36282-0.19842 0.33804 0.65454 0.40039 0.76367l0.054688-0.099609c-0.0070868 0.14173 0.10363 0.32497 0.31055 0.58008l0.17188-0.005859c0.070864 0.14173 0.33238 0.39495 0.48828 0.40625l-0.10547 0.13672c0.39684 0.12472 0.1941 0.1664 0.68164 0.33789l-0.09961-0.17188c0.24944 0.214 0.32376 0.40201 0.67383 0.56641 0.48612 0.16869 0.55137 0.10436 1.0488 0.24609-0.42235-0.01276-0.91748-0.006493-1.252-0.12695-2.279-0.61652-4.364-3.2892-4.2109-6.043-0.036848-0.55699 0.055014-1.2551-0.037109-1.3926 0.13039-0.42518 0.28069-0.94208 0.58398-1.5586-0.022676-0.03968 0.050595 0.12103 0.20508-0.14258 0.09354-0.2055 0.16948-0.43244 0.28711-0.63086l0.0625-0.013672c0.059525-0.3529 0.82206-0.89391 1.0488-1.166l0.015625 0.10352c0.49463-0.46345 1.377-0.77499 1.873-0.99609-0.13039 0.14456 0.29294-0.014803 0.59766-0.033203z" fill="#ffffff" opacity=".8" stroke-width="3.7796" style="paint-order:stroke markers fill"/>
 </g>
</svg>
