<svg xmlns="http://www.w3.org/2000/svg" width="24" height="24" version="1.0"><path fill="#fff" d="M12 3a9 9 0 0 0-9 9 9 9 0 0 0 9 9 9 9 0 0 0 9-9 9 9 0 0 0-9-9zm-.146 3c-.098.054-.193.095-.284.158.366-.086.348.038.721-.012-.13.02-.29.07-.264.09.418.049.482-.129.868 0l-.026-.113c.539.193.65.16 1.233.469.204.011.225-.125.533 0 .055.096-.01.113.369.34.042-.017-.078-.126-.17-.211.762.408 1.593 1.279 1.846 2.209-.237-.435-.024.221-.106.187a5.067 5.067 0 0 1 .246.883c-.07-.25-.224-.85-.49-1.238-.023.25-.347-.173-.17.379.135.195.028-.2.193.148.003.166.066.33.104.545-.058-.01-.127-.238-.17-.174.058.27.153.41.19.432-.02.045-.066-.042-.07.142.022.424.118.244.163.264-.046.208-.232.454-.14.813-.027-.11-.078-.22-.118-.323-.036.306.068.367-.074.739.102-.335.09-.637-.006-.49.043.474-.375.838-.33 1.14l-.12-.168c-.331.476-.007.262-.231.623.082-.142-.045-.057.062-.219-.07.004-.317.303-.543.479-.886.708-1.941.802-2.965.42-.04.032.182.206.346.29.39.144.83.152 1.178.137-.751.315-2.18-.317-2.649-1.156.107.023.469.59.74.682a2.11 2.11 0 0 1-.4-.461 2.353 2.353 0 0 0 .77.588c-.01-.036.01-.056.015-.08.006-.024-.004-.05-.072-.096-.867-.665-1.381-1.23-1.203-2.54.132-.098.168-.644.47-.835.185-.408.74-.786 1.333-.795.605-.033 1.116.322 1.37.658-.464-.435-1.23-.566-1.882-.244-.666.3-1.058 1.034-1.002 1.764.024-.036.045-.013.057-.104-.02 1.42 1.53 2.46 2.646 1.936l.014.031c.453-.123.397-.227.691-.43-.022.047-.198.17-.093.17.143-.038.593-.454.814-.652.102-.218-.054-.118.088-.395l.174-.084c.096-.277.202-.435.19-.76l-.102.214c.148-.451.064-.94.086-1.364l-.043-.011c-.036-1.066-.958-2.2-1.78-2.582-.705-.328-1.793-.382-2.295-.137.068-.061.344-.088.26-.135-.786.078-.609.275-1.213.43-.164.16.484-.13.135.078-.323.09-.476-.057-.955.44.043.07.306-.203.086.072-.45-.056-1.424 1.028-1.631 1.388l.107.02c-.177.445-.41.728-.441.994-.045.655-.274 1.848.043 2.215l-.031.306c.042.088.077.176.13.258l-.07.006c.335 1.053.36.02.8 1.113-.065-.02-.129-.044-.224-.172-.01.098.139.386.313.61l-.076.086c.099.177.188.214.256.275-.363-.198.338.655.4.764l.055-.1c-.007.142.103.325.31.58l.172-.006c.071.142.333.395.488.407l-.105.136c.397.125.194.167.682.338l-.1-.172c.25.214.324.402.674.567.486.169.551.104 1.049.246-.423-.013-.918-.007-1.252-.127-2.28-.617-4.364-3.29-4.211-6.043-.037-.557.055-1.255-.037-1.393.13-.425.28-.942.584-1.558-.023-.04.05.12.205-.143.093-.205.17-.432.287-.63l.062-.014c.06-.353.822-.894 1.05-1.166l.015.103c.494-.463 1.377-.775 1.873-.996-.13.145.293-.015.597-.033z" opacity=".8" style="paint-order:stroke markers fill"/></svg>