<svg xmlns="http://www.w3.org/2000/svg" viewBox="0 0 48 48"><path d="M24 4.2c-7 .6-5.2 8-5.3 10.5-.1 1.8-.7 3.5-1.8 5-1.9 2.2-3.5 4.7-4.5 7.5-.5 1.4-.6 2.8-.4 4.3l-.2.2c-.4.5-.8 1-1.1 1.4-.4.3-.8.5-1.3.7-.6.2-1.1.6-1.4 1.1-.2.3-.2.7-.2 1 0 .3 0 .6.1.9.1.3.1.8 0 1.4-.4.8-.5 1.7-.2 2.5.3.6.9.9 1.6 1 1.4.3 3.2.2 4.6 1 1.3.8 2.9 1 4.4.8.9-.2 1.6-.8 2-1.6 1 0 2-.4 3.8-.5 1.2-.1 2.6.4 4.3.3 0 .2.1.4.2.5.6 1.2 1.8 1.9 3.1 1.8 1.5-.2 2.8-1 3.8-2.2 1-1.3 2.8-1.8 4-2.5.6-.3 1-.8 1.1-1.4-.2-1-.6-1.8-1.3-2.5-.3-.5-.5-1-.5-1.5-.1-.7-.4-1.3-.8-1.7-.1-.1-.2-.2-.3-.2l-.3-.1c.6-2 .5-4.2-.3-6.1-.9-2.1-2.1-4.1-3.6-5.8-1.3-1.7-2.6-3.3-2.6-5.6 0-3.6.4-10.2-5.9-10.2h-1zm1.8 5.3c.4 0 .7.1 1 .3.3.2.6.5.7.9.1.4.2.9.2 1.3s-.1.9-.2 1.3c-.1.2-.2.4-.4.6l-.1-.1-.5-.2-.3-.1c.1-.1.2-.2.3-.4.1-.2.1-.5.1-.7 0-.2 0-.5-.1-.7-.1-.2-.2-.4-.3-.5-.1-.1-.3-.2-.4-.2-.2 0-.3.1-.4.2-.2.1-.3.3-.4.5-.1.2-.1.5-.1.7v.4c-.3-.2-.7-.3-1-.4v-.3c0-.4 0-.9.2-1.3.1-.4.4-.7.7-.9.3-.2.6-.4 1-.4zm-5.155.4h.054c.2 0 .501.1.701.3.3.2.5.5.6.8.1.3.2.7.2 1.1.1.1.1.2.1.3h-.1c-.2.1-.5.2-.7.3v-.4c0-.2-.1-.4-.1-.6-.1-.1-.2-.3-.3-.4-.1-.1-.2-.1-.3-.1-.1 0-.2.1-.3.2-.1.1-.2.3-.2.4v.6c0 .2.1.4.1.6.1.1.2.3.3.4l-.3.2-.2.2c-.2-.2-.4-.4-.5-.7-.1-.3-.2-.7-.3-1.1 0-.4 0-.7.1-1.1.1-.3.2-.5.5-.7.188-.189.375-.288.645-.3zM23 12.7c.7.1 1.4.4 2 .8.6.3 1.2.5 1.8.7.3.1.6.3.8.6.1.2.1.5-.1.6-.4.7-1 1.2-1.8 1.4-.4.2-.9.5-1.3.8-.5.3-1.1.4-1.7.4-.2 0-.5-.1-.7-.2-.2-.1-.3-.2-.5-.3-.3-.3-.6-.6-1-.8-.5-.2-.9-.7-1.1-1.2-.1-.3 0-.7.3-.9l.8-.6.3-.2c.4-.4.9-.8 1.4-1 .3-.1.5-.1.8-.1zm-.918.6c-.093.012-.182.106-.182.2 0 .1.1.1.2.1s.1-.1.2-.1.3 0 .3-.1c-.2-.1-.4-.1-.5-.1h-.018zm1.742 0a.802.802 0 0 0-.324.1c0 .1.2.1.3.1.1 0 .1.1.2.1s.2 0 .2-.1-.1-.2-.3-.2h-.076zm2.875 1.5c-.2 0-.2.1-.5.4-.4.3-.7.6-1.1.8-.7.4-1.498.7-2.298.8-.7-.1-1.4-.3-1.9-.8-.2-.2-.5-.4-.6-.5-.1-.1-.201-.4-.301-.4-.1 0-.2.3.1.5.2.2.4.3.6.5.6.5 1.3.8 2.1.8.9 0 1.8-.3 2.5-.8.4-.2.8-.5 1.2-.8.3-.2.4-.5.2-.5zm.9.9c.7 2.6 1.701 5.1 2.901 7.4.9 1.6 1.5 3.3 1.8 5 .3 0 .6 0 .8.1 1.1-2.8-.9-5.8-1.8-6.6-.4-.4-.4-.5-.2-.5 1.4 1.3 2.3 2.9 2.8 4.7.2.9.2 1.9 0 2.8l.3.1c1.9 1.2 2.6 1.9 2.2 2.9h-.3c.3-.8-.3-1.4-1.8-2-1.5-.6-2.7-.6-3 .8v.2l-.298.1c-.7.4-1.203 1.2-1.303 2-.2 1-.299 2.1-.299 3.1-.1.8-.3 1.5-.5 2.3-2.5 1.8-5.998 2.5-8.898.5-.2-.3-.401-.6-.701-.9l-.5-.6c.3 0 .499 0 .799-.2.2-.1.4-.3.5-.6.1-.7-.1-1.5-.6-2-.8-1-1.9-1.9-3-2.5-.9-.5-1.6-1.3-1.9-2.3-.2-.9-.2-1.8 0-2.8.5-1.6 1.2-3.2 2.1-4.6.2-.1.1.3-.7 1.6-.8 1.3-1.9 4.1-.2 6.4.1-1.7.4-3.3 1.1-4.8.9-2.1 2.902-5.8 3.102-8.8l.5.3c.4.2.7.5 1 .8.4.3.898.5 1.398.5h.102c.6 0 1.197-.2 1.697-.5.4-.3.801-.5 1.201-.7.7-.2 1.3-.6 1.7-1.2zM13.2 31.1h.301c.7.2 1.3.6 1.7 1.3l1.5 2.8c.6 1 1.3 1.9 2 2.7.7.8 1.2 1.7 1.3 2.7 0 1.1-.8 2-1.9 2.1-1.4.2-2.8-.1-4-.8-1.6-.9-3.5-.8-4.8-1-.5 0-.898-.3-1.198-.7-.2-.7-.101-1.4.199-2 .1-.6.1-1.3 0-1.9-.1-.5-.1-1.1.1-1.6.2-.4.601-.7 1.101-.9.6-.1 1.1-.4 1.5-.8.4-.4.7-1 1.1-1.4.3-.3.597-.5 1.097-.5zm18.102.3H31.403c0 1 .6 1.9 1.5 2.2 1.1.1 2.3-.4 3-1.3h.4c.5-.1.996.1 1.396.4.3.4.604.9.604 1.4.1.6.299 1.2.699 1.8.5.4.9 1 1 1.8 0 .4-.3.7-.8 1-1.1.7-2.9 1.2-4.1 2.7-.8 1.1-2 1.8-3.4 2-1.1.1-2.2-.5-2.7-1.5-.3-.9-.3-1.9.1-2.8.3-1 .598-2.1.798-3.2 0-1 .101-2 .301-2.9.1-.7.5-1.3 1.1-1.6z" style="fill:#fff;fill-opacity:1;opacity:.8"/></svg>