<svg xmlns="http://www.w3.org/2000/svg" width="24" height="24" version="1.0"><path fill="#fff" d="M12.005 3c-4.969 0-8.992 4.026-9 8.996h-.002v6.964h.001A2.045 2.045 0 0 0 5.05 21h6.957a8.994 8.994 0 0 0 8.992-8.996 8.996 8.996 0 0 0-9.001-8.996zm1.828 3.704c1.511 0 2.938 1.157 2.938 2.753 0 .148 0 .296-.024.464a.751.751 0 0 1-.852.67.751.751 0 0 1-.631-.882c.007-.048.01-.123.01-.252 0-.905-.74-1.255-1.44-1.255s-1.332.589-1.332 1.255c.012.77 0 1.534 0 2.303l1.299-.01c1.014-.021 1.025 1.506.011 1.499l-1.31.01c-.003.619.005.507.001.819 0 0 .011.757-.011 1.331-.157 1.687-1.593 3.034-3.318 3.034-1.83 0-3.336-1.494-3.336-3.328.055-1.885 1.558-3.368 3.453-3.35l1.056-.01v1.497l-1.056.01h-.006c-1.04.03-1.933.737-1.95 1.852 0 1.015.82 1.829 1.84 1.829 1.016 0 1.83-.74 1.83-1.827l-.002-5.668c.001-.105.004-.189.016-.305.172-1.386 1.412-2.442 2.815-2.442z" opacity=".8"/></svg>