<svg width="24" height="24" version="1.1" xmlns="http://www.w3.org/2000/svg">
 <path d="m13.643 2.9625-10.481 16.416s3.5322 0.18837 8.9374 0c5.378-0.18743 8.2806-0.41446 9.3274-2.0182 0.79707-1.221 0.88619-3.1547-2.3064-7.9368-2.1834-3.2703-5.4777-6.4614-5.4777-6.4614z" fill="#ffffff" opacity=".6" stroke-width="2.8347"/>
 <path d="m13.638 2.9777-11.532 13.559s2.649 0.65119 7.4802 0.97998c4.7789 0.32523 8.2872 0.78039 9.5168-0.86438 1.056-1.4126 1.1241-2.9143-1.1765-7.2745-1.5783-2.9912-4.2881-6.4001-4.2881-6.4001z" fill="#ffffff" opacity=".45" stroke-width="2.8347"/>
 <path d="m13.638 2.9775-0.01908 0.022494-8.9391 14.002c1.226 0.18025 2.8695 0.37599 4.9062 0.5146 4.7786 0.32522 8.287 0.78035 9.5166-0.8644 1.056-1.4126 1.1241-2.9142-1.1766-7.2744-1.5782-2.9911-4.2881-6.4-4.2881-6.4z" fill="#ffffff" stroke-width=".75"/>
</svg>
