<svg width="24" height="24" version="1.0" xmlns="http://www.w3.org/2000/svg">
 <path d="m11.399 3.3332 4.5606 7.9311 0.77477-1.3255-1.4222-2.4743 2.357-3.5125-0.33338-0.61875h-0.85678l-1.9076 2.8417-1.6342-2.8417h-1.5382m-3.2924 5.334-1.5589 2.667h-4.1879l-0.35938 0.66676 0.35938 0.66676h3.4091l-1.7749 3.0371 0.74077 1.3742 4.916-8.4111h-1.5442m2.5837 7.3343 0.76677 1.3335h2.9391l2.1276 3.3338h0.81144l0.35405-0.65742-1.6876-2.6737h3.1278l0.71876-1.3335h-9.1586z" fill="#ffffff" opacity=".5"/>
 <path d="m6.6646 3.3332-0.35405 0.65742 1.6876 2.6737h-3.1278l-0.71876 1.3335h9.1586l-0.76677-1.3335h-2.9391l-2.1276-3.3338h-0.81144m12.6 3.5905-4.916 8.4111h1.5442l1.5589-2.667h4.1879l0.35938-0.66676-0.35938-0.66676h-3.4091l1.7749-3.0371-0.74077-1.3742zm-11.224 5.8148-0.77477 1.3255 1.4222 2.4743-2.357 3.5125 0.33338 0.61875h0.85678l1.9076-2.8417 1.6342 2.8417h1.5382l-4.5606-7.9311" fill="#ffffff" opacity=".8"/>
</svg>
