<svg width="24" height="24" enable-background="new" version="1.0" xmlns="http://www.w3.org/2000/svg">
 <g transform="translate(0,-276)">
  <path d="m12 279a9 9 0 1 0 0 18 9 9 0 0 0 0-18zm3.208 2.5086a1.199 1.199 0 0 1 0.89288 1.7921 1.2011 1.2011 0 1 1-0.89288-1.7921zm-3.2101 1.2713c0.48471 0 0.9524 0.0659 1.3967 0.18921a1.6858 1.6858 0 0 0 2.2598 1.3096c0.88863 0.87375 1.4669 2.0621 1.5519 3.3866l-1.7113 0.0234a3.5099 3.5099 0 0 0-4.9746-2.87l-0.83548-1.4988a5.2021 5.2021 0 0 1 2.3151-0.53997zm-2.8955 0.87588 0.88012 1.4732a3.5056 3.5056 0 0 0 0 5.7421l-0.88012 1.4711a5.2255 5.2255 0 0 1-2.1557-3.0336 1.6816 1.6816 0 0 0 0-2.617 5.2297 5.2297 0 0 1 2.1557-3.0358zm-3.2229 3.1421a1.2022 1.2022 0 1 1 0 2.4044 1.2011 1.2011 0 0 1 0-2.4023zm9.6154 1.5115 1.7113 0.0276a5.2042 5.2042 0 0 1-1.5519 3.3844 1.6795 1.6795 0 0 0-2.2598 1.3074 5.217 5.217 0 0 1-3.7097-0.34865l0.83548-1.4966a3.5077 3.5077 0 0 0 4.9746-2.8742zm-0.58462 3.7969a1.2037 1.2037 0 1 1 0.29337 2.3895 1.2037 1.2037 0 0 1-0.29337-2.3895z" fill="#ffffff" opacity=".8" stroke-width="3.7796"/>
 </g>
</svg>
