<?xml version="1.0" encoding="UTF-8" standalone="no"?>
<svg
   sodipodi:docname="assets-light.svg"
   inkscape:version="1.1 (c4e8f9ed74, 2021-05-24)"
   version="1.1"
   id="svg2"
   viewBox="0 0 600 200"
   height="200"
   width="600"
   xmlns:inkscape="http://www.inkscape.org/namespaces/inkscape"
   xmlns:sodipodi="http://sodipodi.sourceforge.net/DTD/sodipodi-0.dtd"
   xmlns:xlink="http://www.w3.org/1999/xlink"
   xmlns="http://www.w3.org/2000/svg"
   xmlns:svg="http://www.w3.org/2000/svg"
   xmlns:rdf="http://www.w3.org/1999/02/22-rdf-syntax-ns#"
   xmlns:cc="http://creativecommons.org/ns#"
   xmlns:dc="http://purl.org/dc/elements/1.1/">
  <defs
     id="defs4">
    <linearGradient
       id="selected_bg_color"
       inkscape:swatch="solid">
      <stop
         id="stop4407"
         offset="0"
         style="stop-color:#5294e2;stop-opacity:1;" />
    </linearGradient>
    <linearGradient
       id="selected_fg_color"
       inkscape:swatch="solid">
      <stop
         id="stop4402"
         offset="0"
         style="stop-color:#ffffffgit;stop-opacity:1;" />
    </linearGradient>
    <linearGradient
       id="header_bg"
       inkscape:swatch="solid">
      <stop
         id="stop4877"
         offset="0"
         style="stop-color:#1b2224;stop-opacity:1;" />
    </linearGradient>
    <linearGradient
       id="selected_bg_color-6"
       inkscape:swatch="solid">
      <stop
         id="stop4421"
         offset="0"
         style="stop-color:#2eb398;stop-opacity:1;" />
    </linearGradient>
  </defs>
  <sodipodi:namedview
     inkscape:document-rotation="0"
     inkscape:window-maximized="0"
     inkscape:window-y="69"
     inkscape:window-x="199"
     inkscape:window-height="913"
     inkscape:window-width="1504"
     inkscape:guide-bbox="true"
     showguides="true"
     fit-margin-bottom="10"
     fit-margin-right="10"
     fit-margin-left="10"
     fit-margin-top="10"
     inkscape:snap-nodes="true"
     inkscape:object-nodes="true"
     inkscape:snap-intersection-paths="true"
     inkscape:object-paths="true"
     inkscape:snap-bbox-midpoints="false"
     inkscape:snap-bbox-edge-midpoints="true"
     inkscape:bbox-nodes="true"
     inkscape:bbox-paths="true"
     inkscape:snap-bbox="true"
     units="px"
     showgrid="false"
     inkscape:current-layer="layer1"
     inkscape:document-units="px"
     inkscape:cy="-98.287847"
     inkscape:cx="258.80109"
     inkscape:zoom="0.70710675"
     inkscape:pageshadow="2"
     inkscape:pageopacity="0"
     borderopacity="1.0"
     bordercolor="#666666"
     pagecolor="#d8d8d8"
     id="base"
     inkscape:pagecheckerboard="0">
    <inkscape:grid
       originy="-288"
       originx="5"
       id="grid4136"
       type="xygrid" />
  </sodipodi:namedview>
  <metadata
     id="metadata7">
    <rdf:RDF>
      <cc:Work
         rdf:about="">
        <dc:format>image/svg+xml</dc:format>
        <dc:type
           rdf:resource="http://purl.org/dc/dcmitype/StillImage" />
      </cc:Work>
    </rdf:RDF>
  </metadata>
  <g
     transform="translate(5,-564.36215)"
     id="layer1"
     inkscape:groupmode="layer"
     inkscape:label="Ebene 1">
    <g
       id="title-1-active"
       transform="matrix(0.17857,0,0,1,381.11,61.00215)">
      <rect
         x="5"
         y="554.35999"
         width="34"
         height="34"
         fill="#F7F7F7"
         id="rect2" />
    </g>
    <use
       id="title-2-active"
       transform="translate(7)"
       width="100%"
       height="100%"
       xlink:href="#title-1-active"
       x="0"
       y="0" />
    <use
       id="title-3-active"
       transform="translate(14)"
       width="100%"
       height="100%"
       xlink:href="#title-1-active"
       x="0"
       y="0" />
    <use
       id="title-4-active"
       transform="translate(21)"
       width="100%"
       height="100%"
       xlink:href="#title-1-active"
       x="0"
       y="0" />
    <use
       id="title-5-active"
       transform="translate(28)"
       width="100%"
       height="100%"
       xlink:href="#title-1-active"
       x="0"
       y="0" />
    <g
       id="title-1-inactive"
       transform="matrix(0.17857,0,0,1,416.11,61.00215)">
      <rect
         x="5"
         y="554.35999"
         width="34"
         height="34"
         fill="#f7f7f7"
         id="rect1056"
         style="fill:#f2f2f2;fill-opacity:1" />
    </g>
    <g
       id="title-2-inactive"
       transform="matrix(0.17857,0,0,1,423.11,61.00215)">
      <rect
         x="5"
         y="554.35999"
         width="34"
         height="34"
         fill="#f7f7f7"
         id="rect1052"
         style="fill:#f2f2f2;fill-opacity:1" />
    </g>
    <g
       id="title-3-inactive"
       transform="matrix(0.17857,0,0,1,430.11,61.00215)">
      <rect
         x="5"
         y="554.35999"
         width="34"
         height="34"
         fill="#f7f7f7"
         id="rect1048"
         style="fill:#f2f2f2;fill-opacity:1" />
    </g>
    <g
       id="title-4-inactive"
       transform="matrix(0.17857,0,0,1,437.11,61.00215)">
      <rect
         x="5"
         y="554.35999"
         width="34"
         height="34"
         fill="#f7f7f7"
         id="rect1044"
         style="fill:#f2f2f2;fill-opacity:1" />
    </g>
    <g
       id="title-5-inactive"
       transform="matrix(0.17857,0,0,1,444.11,61.00215)">
      <rect
         x="5"
         y="554.35999"
         width="34"
         height="34"
         fill="#f7f7f7"
         id="rect1040"
         style="fill:#f2f2f2;fill-opacity:1" />
    </g>
    <g
       id="top-left-active"
       transform="translate(377,-72.99785)">
      <path
         d="m 5,731.36 -2e-7,29 H 13 l 10e-7,-34 -7.0000002,-4e-5 -2e-7,1 -1,-10e-6 z"
         fill="#F7F7F7"
         id="path14" />
    </g>
    <g
       id="top-left-inactive"
       transform="translate(387,-72.99785)">
      <path
         d="m 5,731.36 -2e-7,29 H 13 l 10e-7,-34 -7.0000002,-4e-5 -2e-7,1 -1,-10e-6 z"
         fill="#f7f7f7"
         id="path1078"
         style="fill:#f2f2f2;fill-opacity:1" />
    </g>
    <use
       id="top-right-active"
       transform="matrix(-1,0,0,1,792,0)"
       width="100%"
       height="100%"
       xlink:href="#top-left-active"
       x="0"
       y="0" />
    <g
       id="top-right-inactive"
       transform="matrix(-1,0,0,1,425,-72.99785)">
      <path
         d="m 5,731.36 -2e-7,29 H 13 l 10e-7,-34 -7.0000002,-4e-5 -2e-7,1 -1,-10e-6 z"
         fill="#f7f7f7"
         id="path1082"
         style="fill:#f2f2f2;fill-opacity:1" />
    </g>
    <g
       id="left-active"
       transform="translate(384,-68.99785)">
      <rect
         transform="scale(-1,1)"
         x="-48"
         y="734.35999"
         width="2"
         height="16"
         fill="#F7F7F7"
         id="rect20" />
    </g>
    <g
       id="left-inactive"
       transform="translate(389,-68.99785)">
      <rect
         transform="scale(-1,1)"
         x="-48"
         y="734.35999"
         width="2"
         height="16"
         fill="#F7F7F7"
         id="rect23"
         style="fill:#f2f2f2;fill-opacity:1" />
    </g>
    <g
       id="right-inactive"
       transform="matrix(-1,0,0,1,493,-68.99785)">
      <rect
         transform="scale(-1,1)"
         x="-48"
         y="734.35999"
         width="2"
         height="16"
         fill="#F7F7F7"
         id="rect26"
         style="fill:#f2f2f2;fill-opacity:1" />
    </g>
    <g
       id="right-active"
       transform="matrix(-1,0,0,1,488,-68.99785)">
      <rect
         transform="scale(-1,1)"
         x="-48"
         y="734.35999"
         width="2"
         height="16"
         fill="#F7F7F7"
         id="rect29" />
    </g>
    <g
       id="bottom-left-active"
       transform="translate(361,-70.99785)">
      <path
         d="m 98,730.36 h -2 v 9.0001 h 1 v 1 l 9,-1.2e-4 v -2 l -8,1.2e-4 z"
         fill="#F7F7F7"
         id="path32" />
    </g>
    <g
       id="bottom-left-inactive"
       transform="translate(361,-58.99785)">
      <path
         d="m 98,730.36 h -2 v 9.0001 h 1 v 1 l 9,-1.2e-4 v -2 l -8,1.2e-4 z"
         fill="#F7F7F7"
         id="path35"
         style="fill:#f2f2f2;fill-opacity:1" />
    </g>
    <g
       id="bottom-right-inactive"
       transform="matrix(-1,0,0,1,593,-58.99785)">
      <path
         d="m 98,730.36 h -2 v 9.0001 h 1 v 1 l 9,-1.2e-4 v -2 l -8,1.2e-4 z"
         fill="#F7F7F7"
         id="path38"
         style="fill:#f2f2f2;fill-opacity:1" />
    </g>
    <g
       id="bottom-right-active"
       transform="matrix(-1,0,0,1,593,-70.99785)">
      <path
         d="m 98,730.36 h -2 v 9.0001 h 1 v 1 l 9,-1.2e-4 v -2 l -8,1.2e-4 z"
         fill="#F7F7F7"
         id="path41" />
    </g>
    <g
       id="bottom-active"
       transform="matrix(0,-1,-1,0,1219.4,715.36215)">
      <rect
         transform="scale(-1,1)"
         x="-48"
         y="734.35999"
         width="2"
         height="16"
         fill="#F7F7F7"
         id="rect44" />
    </g>
    <g
       id="bottom-inactive"
       transform="matrix(0,-1,-1,0,1219.4,727.36215)">
      <rect
         transform="scale(-1,1)"
         x="-48"
         y="734.35999"
         width="2"
         height="16"
         fill="#F7F7F7"
         id="rect47"
         style="fill:#f2f2f2;fill-opacity:1" />
    </g>
    <g
       id="menu-prelight"
       transform="translate(-5,562.36215)">
      <rect
         x="257"
         y="8"
         width="34"
         height="34"
         fill="#F7F7F7"
         id="rect50" />
      <path
         d="m 274,37.04 c 6.6273,0 12,-5.3727 12,-12 0,-6.6273 -5.3726,-12 -12,-12 -6.6275,0 -12,5.3727 -12,12 0,6.6274 5.3726,12 12,12"
         fill="#000000"
         fill-rule="evenodd"
         opacity="0.15"
         id="path52" />
      <circle
         cx="274"
         cy="25"
         r="2"
         fill="#000000"
         opacity="0.75"
         id="circle54"
         style="opacity:0.56" />
    </g>
    <g
       id="menu-pressed"
       transform="translate(-5,562.36215)">
      <rect
         x="298"
         y="8"
         width="34"
         height="34"
         fill="#F7F7F7"
         id="rect56" />
      <path
         d="m 315,37.04 c 6.6273,0 12,-5.3727 12,-12 0,-6.6273 -5.3726,-12 -12,-12 -6.6275,0 -12,5.3727 -12,12 0,6.6274 5.3726,12 12,12"
         fill="#000000"
         fill-rule="evenodd"
         opacity="0.3"
         id="path58" />
      <circle
         cx="315"
         cy="25"
         r="2"
         fill="#000000"
         opacity="0.75"
         id="circle60"
         style="opacity:0.56" />
    </g>
    <g
       transform="translate(121,594.19215)"
       fill="#000000"
       id="g62" />
    <g
       id="menu-active"
       transform="translate(-5,562.36215)">
      <rect
         x="215"
         y="8"
         width="34"
         height="34"
         fill="#F7F7F7"
         id="rect66" />
      <circle
         cx="232"
         cy="25"
         r="2"
         fill="#000000"
         opacity="0.75"
         id="circle68"
         style="opacity:0.56" />
    </g>
    <g
       id="menu-inactive"
       transform="translate(-5,562.36215)">
      <rect
         x="340"
         y="8"
         width="34"
         height="34"
         fill="#F7F7F7"
         id="rect70"
         style="fill:#f2f2f2;fill-opacity:1" />
      <circle
         cx="357"
         cy="25"
         r="2"
         fill="#000000"
         opacity="0.35"
         id="circle72" />
    </g>
    <g
       id="stick-active"
       transform="translate(-5,564.36215)">
      <rect
         x="215"
         y="122"
         width="34"
         height="34"
         fill="#F7F7F7"
         id="rect74" />
      <path
         d="m 232,133 a 6,6 0 0 0 -6,6 6,6 0 0 0 6,6 6,6 0 0 0 6,-6 6,6 0 0 0 -6,-6 z m 0,1 a 5,5 0 0 1 5,5 5,5 0 0 1 -5,5 5,5 0 0 1 -5,-5 5,5 0 0 1 5,-5 z"
         fill="#000000"
         opacity="0.75"
         id="path76"
         style="opacity:0.56" />
    </g>
    <g
       id="close-active"
       transform="translate(-5,564.36215)">
      <rect
         x="25"
         y="21"
         width="34"
         height="34"
         fill="#202020"
         id="rect78"
         style="fill:#F7F7F7;fill-opacity:1" />
      <g
         transform="translate(30,26)"
         fill="#000000"
         opacity="0.75"
         id="g82">
        <path
           d="m 16.243,7.0503 -4.2426,4.2426 -4.2426,-4.2426 -0.70711,0.70711 4.2426,4.2426 -4.2426,4.2426 0.70711,0.70711 4.2426,-4.2426 4.2426,4.2426 0.70711,-0.70711 -4.2426,-4.2426 4.2426,-4.2426 z"
           fill="#000000"
           opacity="1"
           stroke-linecap="round"
           stroke-linejoin="round"
           stroke-miterlimit="2"
           stroke-width="2"
           id="path80"
           style="opacity:0.75" />
      </g>
    </g>
    <g
       id="close-prelight"
       transform="translate(-5,564.36215)">
      <rect
         x="72"
         y="21"
         width="34"
         height="34"
         fill="#F7F7F7"
         id="rect84" />
      <path
         d="m 89,50 c 6.6273,0 12,-5.3726 12,-12 0,-6.6274 -5.3726,-12 -12,-12 -6.6275,0 -12,5.3726 -12,12 0,6.6274 5.3726,12 12,12"
         fill="#e57373"
         fill-rule="evenodd"
         id="path86" />
      <g
         transform="translate(77,26)"
         fill="#000000"
         opacity=".75"
         id="g90"
         style="opacity:1">
        <path
           d="m 16.243,7.0503 -4.2426,4.2426 -4.2426,-4.2426 -0.70711,0.70711 4.2426,4.2426 -4.2426,4.2426 0.70711,0.70711 4.2426,-4.2426 4.2426,4.2426 0.70711,-0.70711 -4.2426,-4.2426 4.2426,-4.2426 z"
           fill="#000000"
           opacity="1"
           stroke-linecap="round"
           stroke-linejoin="round"
           stroke-miterlimit="2"
           stroke-width="2"
           id="path88"
           style="fill:#ffffff" />
      </g>
    </g>
    <g
       id="close-pressed"
       transform="translate(-5,564.36215)">
      <rect
         x="120"
         y="21"
         width="34"
         height="34"
         fill="#F7F7F7"
         id="rect92" />
      <path
         d="m 137,50 c 6.6273,0 12,-5.3726 12,-12 0,-6.6274 -5.3726,-12 -12,-12 -6.6275,0 -12,5.3726 -12,12 0,6.6274 5.3726,12 12,12"
         fill="#e53935"
         fill-rule="evenodd"
         id="path96" />
      <g
         transform="translate(125,26)"
         fill="#000000"
         opacity=".75"
         id="g100"
         style="opacity:1">
        <path
           d="m 16.243,7.0503 -4.2426,4.2426 -4.2426,-4.2426 -0.70711,0.70711 4.2426,4.2426 -4.2426,4.2426 0.70711,0.70711 4.2426,-4.2426 4.2426,4.2426 0.70711,-0.70711 -4.2426,-4.2426 4.2426,-4.2426 z"
           fill="#000000"
           opacity="1"
           stroke-linecap="round"
           stroke-linejoin="round"
           stroke-miterlimit="2"
           stroke-width="2"
           id="path98"
           style="fill:#ffffff" />
      </g>
    </g>
    <g
       id="close-inactive"
       transform="translate(-5,564.36215)">
      <rect
         x="168"
         y="21"
         width="34"
         height="34"
         fill="#F7F7F7"
         id="rect102"
         style="fill:#f2f2f2;fill-opacity:1" />
      <g
         transform="translate(173,26)"
         fill="#000000"
         opacity="0.3"
         id="g106">
        <path
           d="m 16.243,7.0503 -4.2426,4.2426 -4.2426,-4.2426 -0.70711,0.70711 4.2426,4.2426 -4.2426,4.2426 0.70711,0.70711 4.2426,-4.2426 4.2426,4.2426 0.70711,-0.70711 -4.2426,-4.2426 4.2426,-4.2426 z"
           fill="#000000"
           opacity="1"
           stroke-linecap="round"
           stroke-linejoin="round"
           stroke-miterlimit="2"
           stroke-width="2"
           id="path104" />
      </g>
    </g>
    <g
       id="hide-active"
       transform="translate(-5,564.36215)">
      <rect
         x="25"
         y="59"
         width="34"
         height="34"
         fill="#F7F7F7"
         id="rect108" />
      <g
         transform="translate(30,68)"
         fill="#000000"
         opacity="0.75"
         id="g112">
        <path
           d="m 7,12 v 1 H 17 V 12 H 7"
           fill="#000000"
           fill-rule="evenodd"
           opacity="0.75"
           id="path110" />
      </g>
    </g>
    <g
       id="maximize-active"
       transform="translate(-5,564.36215)">
      <rect
         x="25"
         y="97"
         width="34"
         height="34"
         fill="#F7F7F7"
         id="rect64" />
      <g
         transform="translate(30,102)"
         fill="#000000"
         opacity="0.75"
         id="g116">
        <path
           d="M 7,7 V 17 H 17 V 7 H 7 m 1,1 h 8 v 8 H 8 V 8"
           fill="#000000"
           fill-rule="evenodd"
           opacity="0.75"
           id="path114" />
      </g>
    </g>
    <g
       id="hide-prelight"
       transform="translate(-5,564.36215)">
      <rect
         x="72"
         y="59"
         width="34"
         height="34"
         fill="#F7F7F7"
         id="rect118" />
      <path
         d="m 89,88 c 6.6273,0 12,-5.3726 12,-12 0,-6.6274 -5.3726,-12 -12,-12 -6.6275,0 -12,5.3726 -12,12 0,6.6274 5.3726,12 12,12"
         fill="#000000"
         fill-rule="evenodd"
         opacity="0.15"
         id="path120" />
      <g
         transform="translate(77,68)"
         fill="#000000"
         opacity="0.75"
         id="g124">
        <path
           d="m 7,12 v 1 H 17 V 12 H 7"
           fill="#000000"
           fill-rule="evenodd"
           opacity="0.75"
           id="path122" />
      </g>
    </g>
    <g
       id="hide-pressed"
       transform="translate(-5,564.36215)">
      <rect
         x="120"
         y="59"
         width="34"
         height="34"
         fill="#F7F7F7"
         id="rect126" />
      <path
         d="m 137,88 c 6.6273,0 12,-5.3726 12,-12 0,-6.6274 -5.3726,-12 -12,-12 -6.6275,0 -12,5.3726 -12,12 0,6.6274 5.3726,12 12,12"
         fill="#000000"
         fill-rule="evenodd"
         opacity="0.3"
         id="path130" />
      <g
         transform="translate(125,68)"
         fill="#000000"
         opacity="0.75"
         id="g134">
        <path
           d="m 7,12 v 1 H 17 V 12 H 7"
           fill="#000000"
           fill-rule="evenodd"
           opacity="0.75"
           id="path132" />
      </g>
    </g>
    <g
       id="maximize-prelight"
       transform="translate(-5,564.36215)">
      <rect
         x="72"
         y="97"
         width="34"
         height="34"
         fill="#F7F7F7"
         id="rect136" />
      <path
         d="m 89,126 c 6.6273,0 12,-5.3726 12,-12 0,-6.6274 -5.3726,-12 -12,-12 -6.6275,0 -12,5.3726 -12,12 0,6.6274 5.3726,12 12,12"
         fill="#000000"
         fill-rule="evenodd"
         opacity="0.15"
         id="path138" />
      <g
         transform="translate(77,102)"
         fill="#000000"
         opacity="0.75"
         id="g142">
        <path
           d="M 7,7 V 17 H 17 V 7 H 7 m 1,1 h 8 v 8 H 8 V 8"
           fill="#000000"
           fill-rule="evenodd"
           opacity="0.75"
           id="path140" />
      </g>
    </g>
    <g
       id="maximize-pressed"
       transform="translate(-5,564.36215)">
      <rect
         x="120"
         y="97"
         width="34"
         height="34"
         fill="#F7F7F7"
         id="rect144" />
      <path
         d="m 137,126 c 6.6273,0 12,-5.3726 12,-12 0,-6.6274 -5.3726,-12 -12,-12 -6.6275,0 -12,5.3726 -12,12 0,6.6274 5.3726,12 12,12"
         fill="#000000"
         fill-rule="evenodd"
         opacity="0.3"
         id="path146" />
      <g
         transform="translate(125,102)"
         fill="#000000"
         opacity="0.75"
         id="g150">
        <path
           d="M 7,7 V 17 H 17 V 7 H 7 m 1,1 h 8 v 8 H 8 V 8"
           fill="#000000"
           fill-rule="evenodd"
           opacity="0.75"
           id="path148" />
      </g>
    </g>
    <g
       id="hide-inactive"
       transform="translate(-5,564.36215)">
      <rect
         x="168"
         y="59"
         width="34"
         height="34"
         fill="#F7F7F7"
         id="rect152"
         style="fill:#f2f2f2;fill-opacity:1" />
      <g
         transform="translate(173,68)"
         fill="#000000"
         opacity="0.75"
         id="g156">
        <path
           d="m 7,12 v 1 H 17 V 12 H 7"
           fill="#000000"
           fill-rule="evenodd"
           opacity="0.3"
           id="path154" />
      </g>
    </g>
    <g
       id="maximize-inactive"
       transform="translate(-5,564.36215)">
      <rect
         x="168"
         y="97"
         width="34"
         height="34"
         fill="#F7F7F7"
         id="rect158"
         style="fill:#f2f2f2;fill-opacity:1" />
      <g
         transform="translate(173,102)"
         fill="#000000"
         opacity="0.88"
         id="g162">
        <path
           d="M 7,7 V 17 H 17 V 7 H 7 m 1,1 h 8 v 8 H 8 V 8"
           fill="#000000"
           fill-rule="evenodd"
           opacity="0.3"
           id="path160" />
      </g>
    </g>
    <g
       id="maximize-toggled-active"
       transform="translate(-5,564.36215)">
      <rect
         x="25"
         y="136"
         width="34"
         height="34"
         fill="#F7F7F7"
         id="rect164" />
      <g
         transform="translate(30,141)"
         fill="#000000"
         opacity="0.75"
         id="g168">
        <path
           d="M 9,7 V 9 H 7 v 8 h 8 v -2 h 2 V 7 Z m 1,1 h 6 v 6 H 15 V 9 h -5 z m -2,2 h 6 v 6 H 8 Z"
           fill="#000000"
           id="path166"
           style="opacity:0.75" />
      </g>
    </g>
    <g
       id="maximize-toggled-prelight"
       transform="translate(-5,564.36215)">
      <rect
         x="72"
         y="136"
         width="34"
         height="34"
         fill="#F7F7F7"
         id="rect170" />
      <path
         d="m 89,165 c 6.6273,0 12,-5.3726 12,-12 0,-6.6274 -5.3726,-12 -12,-12 -6.6275,0 -12,5.3726 -12,12 0,6.6274 5.3726,12 12,12"
         fill="#000000"
         fill-rule="evenodd"
         opacity="0.15"
         id="path172" />
      <g
         transform="translate(77,141)"
         fill="#000000"
         opacity="0.75"
         id="g176">
        <path
           d="M 9,7 V 9 H 7 v 8 h 8 v -2 h 2 V 7 Z m 1,1 h 6 v 6 H 15 V 9 h -5 z m -2,2 h 6 v 6 H 8 Z"
           fill="#000000"
           id="path174"
           style="opacity:0.75" />
      </g>
    </g>
    <g
       id="maximize-toggled-pressed"
       transform="translate(-5,564.36215)">
      <rect
         x="120"
         y="136"
         width="34"
         height="34"
         fill="#F7F7F7"
         id="rect178" />
      <path
         d="m 137,165 c 6.6273,0 12,-5.3726 12,-12 0,-6.6274 -5.3726,-12 -12,-12 -6.6275,0 -12,5.3726 -12,12 0,6.6274 5.3726,12 12,12"
         fill="#000000"
         fill-rule="evenodd"
         opacity="0.3"
         id="path180" />
      <g
         transform="translate(125,141)"
         fill="#000000"
         opacity="0.75"
         id="g184">
        <path
           d="M 9,7 V 9 H 7 v 8 h 8 v -2 h 2 V 7 Z m 1,1 h 6 v 6 H 15 V 9 h -5 z m -2,2 h 6 v 6 H 8 Z"
           fill="#000000"
           id="path182"
           style="opacity:0.75" />
      </g>
    </g>
    <g
       id="maximize-toggled-inactive"
       transform="translate(-5,564.36215)">
      <rect
         x="168"
         y="136"
         width="34"
         height="34"
         fill="#F7F7F7"
         id="rect186"
         style="fill:#f2f2f2;fill-opacity:1" />
      <g
         transform="translate(173,141)"
         fill="#000000"
         opacity="0.3"
         id="g190">
        <path
           d="M 9,7 V 9 H 7 v 8 h 8 v -2 h 2 V 7 Z m 1,1 h 6 v 6 H 15 V 9 h -5 z m -2,2 h 6 v 6 H 8 Z"
           fill="#000000"
           id="path188" />
      </g>
    </g>
    <g
       id="shade-active"
       transform="translate(-5,562.36215)">
      <rect
         x="215"
         y="48"
         width="34"
         height="34"
         fill="#F7F7F7"
         id="rect192" />
      <g
         transform="translate(220,53.465)"
         fill="#000000"
         opacity="0.75"
         id="g196">
        <path
           d="m 12,8 -6.3633,6.3633 0.70703,0.70703 5.6562,-5.6562 5.6562,5.6562 0.70703,-0.70703 -5.6562,-5.6562 z"
           fill="#000000"
           opacity="1"
           stroke-linecap="round"
           stroke-linejoin="round"
           stroke-miterlimit="2"
           stroke-width="2"
           id="path194"
           style="opacity:0.75" />
      </g>
    </g>
    <g
       id="shade-prelight"
       transform="translate(-5,562.36215)">
      <rect
         x="257"
         y="48"
         width="34"
         height="34"
         fill="#F7F7F7"
         id="rect198" />
      <path
         d="m 274,77.04 c 6.6273,0 12,-5.3726 12,-12 0,-6.6275 -5.3726,-12 -12,-12 -6.6275,0 -12,5.3725 -12,12 0,6.6274 5.3726,12 12,12"
         fill="#000000"
         fill-rule="evenodd"
         opacity="0.15"
         id="path200" />
      <g
         transform="translate(262,53.465)"
         fill="#000000"
         opacity="0.75"
         id="g204">
        <path
           d="m 12,8 -6.3633,6.3633 0.70703,0.70703 5.6562,-5.6562 5.6562,5.6562 0.70703,-0.70703 -5.6562,-5.6562 z"
           fill="#000000"
           opacity="1"
           stroke-linecap="round"
           stroke-linejoin="round"
           stroke-miterlimit="2"
           stroke-width="2"
           id="path202"
           style="opacity:0.75" />
      </g>
    </g>
    <g
       id="shade-pressed"
       transform="translate(-5,562.36215)">
      <rect
         x="298"
         y="48"
         width="34"
         height="34"
         fill="#F7F7F7"
         id="rect206" />
      <path
         d="m 315,77.04 c 6.6273,0 12,-5.3726 12,-12 0,-6.6275 -5.3726,-12 -12,-12 -6.6275,0 -12,5.3725 -12,12 0,6.6274 5.3726,12 12,12"
         fill="#000000"
         fill-rule="evenodd"
         opacity="0.3"
         id="path208" />
      <g
         transform="translate(303,53.465)"
         fill="#000000"
         opacity="0.75"
         id="g212">
        <path
           d="m 12,8 -6.3633,6.3633 0.70703,0.70703 5.6562,-5.6562 5.6562,5.6562 0.70703,-0.70703 -5.6562,-5.6562 z"
           fill="#000000"
           opacity="1"
           stroke-linecap="round"
           stroke-linejoin="round"
           stroke-miterlimit="2"
           stroke-width="2"
           id="path210"
           style="opacity:0.75" />
      </g>
    </g>
    <g
       id="shade-inactive"
       transform="translate(-5,562.36215)">
      <rect
         x="340"
         y="48"
         width="34"
         height="34"
         fill="#F7F7F7"
         id="rect214"
         style="fill:#f2f2f2;fill-opacity:1" />
      <g
         transform="translate(345,53.465)"
         fill="#000000"
         opacity="0.3"
         id="g218">
        <path
           d="m 12,8 -6.3633,6.3633 0.70703,0.70703 5.6562,-5.6562 5.6562,5.6562 0.70703,-0.70703 -5.6562,-5.6562 z"
           fill="#000000"
           opacity="1"
           stroke-linecap="round"
           stroke-linejoin="round"
           stroke-miterlimit="2"
           stroke-width="2"
           id="path216" />
      </g>
    </g>
    <g
       id="shade-toggled-active"
       transform="translate(-5,564.36215)">
      <rect
         x="215"
         y="84"
         width="34"
         height="34"
         fill="#F7F7F7"
         id="rect220" />
      <g
         transform="matrix(1,0,0,-1,220,112.54)"
         fill="#000000"
         opacity="0.75"
         id="g224">
        <path
           d="m 12,8 -6.3633,6.3633 0.70703,0.70703 5.6562,-5.6562 5.6562,5.6562 0.70703,-0.70703 -5.6562,-5.6562 z"
           fill="#000000"
           opacity="1"
           stroke-linecap="round"
           stroke-linejoin="round"
           stroke-miterlimit="2"
           stroke-width="2"
           id="path222"
           style="opacity:0.75" />
      </g>
    </g>
    <g
       id="shade-toggled-prelight"
       transform="translate(-5,564.36215)">
      <rect
         x="257"
         y="84"
         width="34"
         height="34"
         fill="#F7F7F7"
         id="rect226" />
      <path
         d="m 274,113.04 c 6.6273,0 12,-5.3726 12,-12 0,-6.6275 -5.3726,-12 -12,-12 -6.6275,0 -12,5.3725 -12,12 0,6.6274 5.3726,12 12,12"
         fill="#000000"
         fill-rule="evenodd"
         opacity="0.15"
         id="path228" />
      <g
         transform="matrix(1,0,0,-1,262,112.54)"
         fill="#000000"
         opacity="0.75"
         id="g232">
        <path
           d="m 12,8 -6.3633,6.3633 0.70703,0.70703 5.6562,-5.6562 5.6562,5.6562 0.70703,-0.70703 -5.6562,-5.6562 z"
           fill="#000000"
           opacity="1"
           stroke-linecap="round"
           stroke-linejoin="round"
           stroke-miterlimit="2"
           stroke-width="2"
           id="path230"
           style="opacity:0.75" />
      </g>
    </g>
    <g
       id="shade-toggled-pressed"
       transform="translate(-5,564.36215)">
      <rect
         x="298"
         y="84"
         width="34"
         height="34"
         fill="#F7F7F7"
         id="rect234" />
      <path
         d="m 315,113.04 c 6.6273,0 12,-5.3726 12,-12 0,-6.6275 -5.3726,-12 -12,-12 -6.6275,0 -12,5.3725 -12,12 0,6.6274 5.3726,12 12,12"
         fill="#000000"
         fill-rule="evenodd"
         opacity="0.3"
         id="path236" />
      <g
         transform="matrix(1,0,0,-1,303,112.54)"
         fill="#000000"
         opacity="0.75"
         id="g240">
        <path
           d="m 12,8 -6.3633,6.3633 0.70703,0.70703 5.6562,-5.6562 5.6562,5.6562 0.70703,-0.70703 -5.6562,-5.6562 z"
           fill="#000000"
           opacity="1"
           stroke-linecap="round"
           stroke-linejoin="round"
           stroke-miterlimit="2"
           stroke-width="2"
           id="path238"
           style="opacity:0.75" />
      </g>
    </g>
    <g
       id="shade-toggled-inactive"
       transform="translate(-5,564.36215)">
      <rect
         x="340"
         y="84"
         width="34"
         height="34"
         fill="#F7F7F7"
         id="rect242"
         style="fill:#f2f2f2;fill-opacity:1" />
      <g
         transform="matrix(1,0,0,-1,345,112.54)"
         fill="#000000"
         opacity="0.3"
         id="g246">
        <path
           d="m 12,8 -6.3633,6.3633 0.70703,0.70703 5.6562,-5.6562 5.6562,5.6562 0.70703,-0.70703 -5.6562,-5.6562 z"
           fill="#000000"
           opacity="1"
           stroke-linecap="round"
           stroke-linejoin="round"
           stroke-miterlimit="2"
           stroke-width="2"
           id="path244" />
      </g>
    </g>
    <g
       id="stick-toggled-active"
       transform="translate(-5,564.36215)">
      <rect
         x="215"
         y="160"
         width="34"
         height="34"
         fill="#F7F7F7"
         id="rect248" />
      <circle
         cx="232"
         cy="177"
         r="2"
         fill="#000000"
         opacity="0.75"
         stroke-width="0.99999"
         id="circle250"
         style="opacity:0.56" />
      <path
         d="m 232,171 a 6,6 0 0 0 -6,6 6,6 0 0 0 6,6 6,6 0 0 0 6,-6 6,6 0 0 0 -6,-6 z m 0,1 a 5,5 0 0 1 5,5 5,5 0 0 1 -5,5 5,5 0 0 1 -5,-5 5,5 0 0 1 5,-5 z"
         fill="#000000"
         opacity="0.75"
         id="path252"
         style="opacity:0.56" />
    </g>
    <g
       id="stick-prelight"
       transform="translate(-5,564.36215)">
      <rect
         x="257"
         y="122"
         width="34"
         height="34"
         fill="#F7F7F7"
         id="rect254" />
      <path
         d="m 274,151.04 c 6.6273,0 12,-5.3726 12,-12 0,-6.6275 -5.3726,-12 -12,-12 -6.6275,0 -12,5.3725 -12,12 0,6.6274 5.3726,12 12,12"
         fill="#000000"
         fill-rule="evenodd"
         opacity="0.15"
         id="path256" />
      <path
         d="m 274,133 a 6,6 0 0 0 -6,6 6,6 0 0 0 6,6 6,6 0 0 0 6,-6 6,6 0 0 0 -6,-6 z m 0,1 a 5,5 0 0 1 5,5 5,5 0 0 1 -5,5 5,5 0 0 1 -5,-5 5,5 0 0 1 5,-5 z"
         fill="#000000"
         opacity="0.75"
         id="path258"
         style="opacity:0.56" />
    </g>
    <g
       id="stick-pressed"
       transform="translate(-5,564.36215)">
      <rect
         x="298"
         y="122"
         width="34"
         height="34"
         fill="#F7F7F7"
         id="rect260" />
      <path
         d="m 315,151.04 c 6.6273,0 12,-5.3725 12,-12 0,-6.6274 -5.3726,-12 -12,-12 -6.6275,0 -12,5.3725 -12,12 0,6.6275 5.3726,12 12,12"
         fill="#000000"
         fill-rule="evenodd"
         opacity="0.3"
         id="path262" />
      <path
         d="m 315,133 a 6,6 0 0 0 -6,6 6,6 0 0 0 6,6 6,6 0 0 0 6,-6 6,6 0 0 0 -6,-6 z m 0,1 a 5,5 0 0 1 5,5 5,5 0 0 1 -5,5 5,5 0 0 1 -5,-5 5,5 0 0 1 5,-5 z"
         fill="#000000"
         opacity="0.75"
         id="path264"
         style="opacity:0.56" />
    </g>
    <g
       id="stick-inactive"
       transform="translate(-5,564.36215)">
      <rect
         x="340"
         y="122"
         width="34"
         height="34"
         fill="#F7F7F7"
         id="rect266"
         style="fill:#f2f2f2;fill-opacity:1" />
      <path
         d="m 357,133 a 6,6 0 0 0 -6,6 6,6 0 0 0 6,6 6,6 0 0 0 6,-6 6,6 0 0 0 -6,-6 z m 0,1 a 5,5 0 0 1 5,5 5,5 0 0 1 -5,5 5,5 0 0 1 -5,-5 5,5 0 0 1 5,-5 z"
         fill="#000000"
         opacity="0.3"
         id="path268" />
    </g>
    <g
       id="stick-toggled-prelight"
       transform="translate(-5,564.36215)">
      <rect
         x="257"
         y="160"
         width="34"
         height="34"
         fill="#F7F7F7"
         id="rect270" />
      <path
         d="m 274,189.04 c 6.6273,0 12,-5.3727 12,-12 0,-6.6273 -5.3726,-12 -12,-12 -6.6275,0 -12,5.3727 -12,12 0,6.6274 5.3726,12 12,12"
         fill="#000000"
         fill-rule="evenodd"
         opacity="0.15"
         id="path272" />
      <circle
         cx="274"
         cy="177"
         r="2"
         fill="#000000"
         opacity="0.75"
         id="circle274"
         style="opacity:0.56" />
      <path
         d="m 274,171 a 6,6 0 0 0 -6,6 6,6 0 0 0 6,6 6,6 0 0 0 6,-6 6,6 0 0 0 -6,-6 z m 0,1 a 5,5 0 0 1 5,5 5,5 0 0 1 -5,5 5,5 0 0 1 -5,-5 5,5 0 0 1 5,-5 z"
         fill="#000000"
         opacity="0.75"
         id="path276"
         style="opacity:0.56" />
    </g>
    <g
       id="stick-toggled-pressed"
       transform="translate(-5,564.36215)">
      <rect
         x="298"
         y="160"
         width="34"
         height="34"
         fill="#F7F7F7"
         id="rect278" />
      <path
         d="m 315,189.04 c 6.6273,0 12,-5.3727 12,-12 0,-6.6273 -5.3726,-12 -12,-12 -6.6275,0 -12,5.3727 -12,12 0,6.6274 5.3726,12 12,12"
         fill="#000000"
         fill-rule="evenodd"
         opacity="0.3"
         id="path280" />
      <circle
         cx="315"
         cy="177"
         r="2"
         fill="#000000"
         opacity="0.75"
         id="circle282"
         style="opacity:0.56" />
      <path
         d="m 315,171 a 6,6 0 0 0 -6,6 6,6 0 0 0 6,6 6,6 0 0 0 6,-6 6,6 0 0 0 -6,-6 z m 0,1 a 5,5 0 0 1 5,5 5,5 0 0 1 -5,5 5,5 0 0 1 -5,-5 5,5 0 0 1 5,-5 z"
         fill="#000000"
         opacity="0.75"
         id="path284"
         style="opacity:0.56" />
    </g>
    <g
       id="stick-toggled-inactive"
       transform="translate(-5,564.36215)">
      <rect
         x="340"
         y="160"
         width="34"
         height="34"
         fill="#F7F7F7"
         id="rect286"
         style="fill:#f2f2f2;fill-opacity:1" />
      <circle
         cx="357"
         cy="177"
         r="2"
         fill="#000000"
         opacity="0.35"
         id="circle288" />
      <path
         d="m 357,171 a 6,6 0 0 0 -6,6 6,6 0 0 0 6,6 6,6 0 0 0 6,-6 6,6 0 0 0 -6,-6 z m 0,1 a 5,5 0 0 1 5,5 5,5 0 0 1 -5,5 5,5 0 0 1 -5,-5 5,5 0 0 1 5,-5 z"
         fill="#000000"
         opacity="0.3"
         id="path290" />
    </g>
  </g>
</svg>
