<svg width="600" height="200" version="1.1" viewBox="0 0 600 200" xmlns="http://www.w3.org/2000/svg" xmlns:osb="http://www.openswatchbook.org/uri/2009/osb" xmlns:xlink="http://www.w3.org/1999/xlink">
 <g transform="translate(5 -564.36)">
  <g id="title-1-active" transform="matrix(.17857 0 0 1 381.11 61)">
   <rect x="5" y="554.36" width="34" height="34" fill="#2c2c2c"/>
  </g>
  <use id="title-2-active" transform="translate(7)" width="100%" height="100%" xlink:href="#title-1-active"/>
  <use id="title-3-active" transform="translate(14)" width="100%" height="100%" xlink:href="#title-1-active"/>
  <use id="title-4-active" transform="translate(21)" width="100%" height="100%" xlink:href="#title-1-active"/>
  <use id="title-5-active" transform="translate(28)" width="100%" height="100%" xlink:href="#title-1-active"/>
  <use id="title-1-inactive" transform="translate(35)" width="100%" height="100%" xlink:href="#title-1-active"/>
  <use id="title-2-inactive" transform="translate(42)" width="100%" height="100%" xlink:href="#title-1-active"/>
  <use id="title-3-inactive" transform="translate(49)" width="100%" height="100%" xlink:href="#title-1-active"/>
  <use id="title-4-inactive" transform="translate(56)" width="100%" height="100%" xlink:href="#title-1-active"/>
  <use id="title-5-inactive" transform="translate(63)" width="100%" height="100%" xlink:href="#title-1-active"/>
  <g id="top-left-active" transform="translate(377 -73)">
   <path d="m5 731.36-2e-7 29h8l1e-6 -34-7-4e-5 -2e-7 1-1-1e-5z" fill="#2c2c2c"/>
  </g>
  <use id="top-left-inactive" transform="translate(10)" width="100%" height="100%" xlink:href="#top-left-active"/>
  <use id="top-right-active" transform="matrix(-1 0 0 1 792 1.0209e-6)" width="100%" height="100%" xlink:href="#top-left-active"/>
  <use id="top-right-inactive" transform="matrix(-1 0 0 1 802 1.0209e-6)" width="100%" height="100%" xlink:href="#top-left-active"/>
  <g id="left-active" transform="translate(384 -69)">
   <rect transform="scale(-1,1)" x="-48" y="734.36" width="2" height="16" fill="#2c2c2c"/>
  </g>
  <g id="left-inactive" transform="translate(389 -69)">
   <rect transform="scale(-1,1)" x="-48" y="734.36" width="2" height="16" fill="#2c2c2c"/>
  </g>
  <g id="right-inactive" transform="matrix(-1 0 0 1 493 -69)">
   <rect transform="scale(-1,1)" x="-48" y="734.36" width="2" height="16" fill="#2c2c2c"/>
  </g>
  <g id="right-active" transform="matrix(-1 0 0 1 488 -69)">
   <rect transform="scale(-1,1)" x="-48" y="734.36" width="2" height="16" fill="#2c2c2c"/>
  </g>
  <g id="bottom-left-active" transform="translate(361 -71)">
   <path d="m98 730.36h-2v9.0001h1v1l9-1.2e-4v-2l-8 1.2e-4z" fill="#2c2c2c"/>
  </g>
  <g id="bottom-left-inactive" transform="translate(361 -59)">
   <path d="m98 730.36h-2v9.0001h1v1l9-1.2e-4v-2l-8 1.2e-4z" fill="#2c2c2c"/>
  </g>
  <g id="bottom-right-inactive" transform="matrix(-1 0 0 1 593 -59)">
   <path d="m98 730.36h-2v9.0001h1v1l9-1.2e-4v-2l-8 1.2e-4z" fill="#2c2c2c"/>
  </g>
  <g id="bottom-right-active" transform="matrix(-1 0 0 1 593 -71)">
   <path d="m98 730.36h-2v9.0001h1v1l9-1.2e-4v-2l-8 1.2e-4z" fill="#2c2c2c"/>
  </g>
  <g id="bottom-active" transform="matrix(0 -1 -1 0 1219.4 715.36)">
   <rect transform="scale(-1,1)" x="-48" y="734.36" width="2" height="16" fill="#2c2c2c"/>
  </g>
  <g id="bottom-inactive" transform="matrix(0 -1 -1 0 1219.4 727.36)">
   <rect transform="scale(-1,1)" x="-48" y="734.36" width="2" height="16" fill="#2c2c2c"/>
  </g>
  <g id="hide-prelight" transform="translate(29 36)">
   <g transform="translate(33 33)">
    <rect x="5" y="554.36" width="34" height="34" fill="#2c2c2c"/>
   </g>
   <path d="m55 616.36c6.6273 0 12-5.3726 12-12 0-6.6274-5.3726-12-12-12-6.6275 0-12 5.3726-12 12 0 6.6274 5.3726 12 12 12" fill="#ffffff" fill-rule="evenodd" opacity=".15"/>
   <path d="m51 605.36h8v2h-8z" fill="#ffffff" opacity=".75"/>
  </g>
  <g id="maximize-prelight" transform="translate(29 41)">
   <g transform="translate(33 66)">
    <rect x="5" y="554.36" width="34" height="34" fill="#2c2c2c"/>
   </g>
   <g transform="translate(40 625.36)" enable-background="new">
    <g transform="translate(0 -1028.4)">
     <g id="titlebutton-min-hover" transform="translate(-480,1218)">
      <g transform="translate(-781 -432.64)">
       <g transform="translate(1265,247)" fill="#c0e3ff"></g>
      </g>
      <rect x="484" y="-185.64" width="16" height="16" fill="none"/>
     </g>
    </g>
   </g>
   <path d="m55 649.36c6.6273 0 12-5.3726 12-12 0-6.6274-5.3726-12-12-12-6.6275 0-12 5.3726-12 12 0 6.6274 5.3726 12 12 12" fill="#ffffff" fill-rule="evenodd" opacity=".15"/>
   <path d="m51 633.36v8h8v-8zm2 2h4v4h-4z" fill="#ffffff" opacity=".75"/>
  </g>
  <g id="maximize-toggled-prelight" transform="translate(29 47)">
   <g transform="translate(33 99)">
    <rect x="5" y="554.36" width="34" height="34" fill="#2c2c2c"/>
   </g>
   <g transform="translate(40 658.36)" enable-background="new">
    <g transform="translate(0 -1028.4)">
     <g transform="translate(-509,1218)">
      <g transform="translate(-781 -432.64)">
       <g transform="translate(1294,247)" fill="#c0e3ff"></g>
      </g>
      <rect x="513" y="-185.64" width="16" height="16" fill="none"/>
     </g>
    </g>
   </g>
   <path d="m55 682.36c6.6273 0 12-5.3726 12-12s-5.3726-12-12-12c-6.6275 0-12 5.3726-12 12s5.3726 12 12 12" fill="#ffffff" fill-rule="evenodd" opacity=".15"/>
   <path d="m52 667.36v6h6v-6zm2 2h2v2h-2z" fill="#ffffff" opacity=".75"/>
  </g>
  <g id="hide-pressed" transform="translate(44 36)">
   <g transform="translate(66 33)">
    <rect x="5" y="554.36" width="34" height="34" fill="#2c2c2c"/>
   </g>
   <g transform="translate(73 592.36)" enable-background="new">
    <g transform="translate(0 -1028.4)">
     <g id="titlebutton-max-active" transform="translate(-408,1218)">
      <g transform="translate(-882 -432.64)">
       <g transform="translate(-132)"></g>
       <g transform="translate(1294,247)" fill="#c0e3ff"></g>
      </g>
      <rect x="412" y="-185.64" width="16" height="16" fill="none"/>
     </g>
    </g>
   </g>
   <path d="m88 616.36c6.6273 0 12-5.3726 12-12 0-6.6274-5.3726-12-12-12-6.6275 0-12 5.3726-12 12 0 6.6274 5.3726 12 12 12" fill="#ffffff" fill-rule="evenodd" opacity=".3"/>
   <path d="m84 605.36h8v2h-8z" fill="#ffffff" opacity=".75"/>
  </g>
  <g id="maximize-pressed" transform="translate(44 41)">
   <g transform="translate(66 66)">
    <rect x="5" y="554.36" width="34" height="34" fill="#2c2c2c"/>
   </g>
   <g transform="translate(73 625.36)" enable-background="new">
    <g transform="translate(0 -1028.4)">
     <g id="titlebutton-min-active" transform="translate(-379,1218)">
      <g transform="translate(-882 -432.64)">
       <g transform="translate(-161)"></g>
       <g transform="translate(1265,247)" fill="#c0e3ff"></g>
      </g>
      <rect x="383" y="-185.64" width="16" height="16" fill="none"/>
     </g>
    </g>
   </g>
   <path d="m88 649.36c6.6273 0 12-5.3726 12-12s-5.3726-12-12-12c-6.6275 0-12 5.3726-12 12s5.3726 12 12 12" fill="#ffffff" fill-rule="evenodd" opacity=".3"/>
   <path d="m84 633.36v8h8v-8zm2 2h4v4h-4z" fill="#ffffff" opacity=".75"/>
  </g>
  <g id="maximize-toggled-pressed" transform="translate(44 47)">
   <g transform="translate(66 99)">
    <rect x="5" y="554.36" width="34" height="34" fill="#2c2c2c"/>
   </g>
   <g transform="translate(73 658.36)" enable-background="new">
    <g transform="translate(0 -1028.4)">
     <g transform="translate(-408,1218)">
      <g transform="translate(-882 -432.64)">
       <g transform="translate(-132)"></g>
       <g transform="translate(1294,247)" fill="#c0e3ff"></g>
      </g>
      <rect x="412" y="-185.64" width="16" height="16" fill="none"/>
     </g>
    </g>
   </g>
   <path d="m88 682.36c6.6273 0 12-5.3726 12-12 0-6.6274-5.3726-12-12-12-6.6275 0-12 5.3726-12 12 0 6.6274 5.3726 12 12 12" fill="#ffffff" fill-rule="evenodd" opacity=".3"/>
   <path d="m85 667.36v6h6v-6zm2 2h2v2h-2z" fill="#ffffff" opacity=".75"/>
  </g>
  <g id="menu-prelight" transform="translate(-3,18)">
   <g transform="translate(250 -33)">
    <g transform="translate(0 33)">
     <rect x="5" y="554.36" width="34" height="34" fill="#2c2c2c"/>
    </g>
    <g transform="translate(7 592.36)" enable-background="new">
     <g transform="translate(0 -1028.4)">
      <g transform="translate(-612,1218)" opacity=".8">
       <g transform="translate(-781 -432.64)" opacity="1">
        <g transform="translate(-29)" opacity="1"></g>
       </g>
       <rect x="616" y="-185.64" width="16" height="16" fill="none" opacity="1"/>
      </g>
     </g>
    </g>
    <g transform="translate(7 -436)" enable-background="new">
     <path d="m15 1052.4c6.6273 0 12-5.3727 12-12 0-6.6273-5.3726-12-12-12-6.6275 0-12 5.3727-12 12 0 6.6274 5.3726 12 12 12" fill="#ffffff" fill-rule="evenodd" opacity=".15"/>
    </g>
   </g>
   <circle cx="272" cy="571.36" r="2" fill="#ffffff" opacity=".75"/>
  </g>
  <g id="shade-prelight" transform="translate(-3 23)">
   <g transform="translate(250 2.0001)">
    <g transform="translate(0 33)">
     <rect x="5" y="554.36" width="34" height="34" fill="#2c2c2c"/>
    </g>
    <g transform="translate(7 592.36)" enable-background="new">
     <g transform="translate(0 -1028.4)">
      <g transform="translate(-612,1218)" opacity=".8">
       <g transform="translate(-781 -432.64)" opacity="1">
        <g transform="translate(-29)" opacity="1"></g>
       </g>
       <rect x="616" y="-185.64" width="16" height="16" fill="none" opacity="1"/>
      </g>
     </g>
    </g>
    <g transform="translate(7 -436)" enable-background="new">
     <path d="m15 1052.4c6.6273 0 12-5.3726 12-12 0-6.6275-5.3726-12-12-12-6.6275 0-12 5.3725-12 12 0 6.6274 5.3726 12 12 12" fill="#ffffff" fill-rule="evenodd" opacity=".15"/>
    </g>
   </g>
   <path d="m266 608.36 1.41 1.41 4.59-4.59 4.59 4.59 1.41-1.41-6-6z" fill="#ffffff" opacity=".75"/>
  </g>
  <g id="shade-toggled-prelight" transform="translate(-3 24)">
   <g transform="translate(250 37)">
    <g transform="translate(0 33)">
     <rect x="5" y="554.36" width="34" height="34" fill="#2c2c2c"/>
    </g>
    <g transform="translate(7 592.36)" enable-background="new">
     <g transform="translate(0 -1028.4)">
      <g transform="translate(-612,1218)" opacity=".8">
       <g transform="translate(-781 -432.64)" opacity="1">
        <g transform="translate(-29)" opacity="1"></g>
       </g>
       <rect x="616" y="-185.64" width="16" height="16" fill="none" opacity="1"/>
      </g>
     </g>
    </g>
    <g transform="translate(7 -436)" enable-background="new">
     <path d="m15 1052.4c6.6273 0 12-5.3726 12-12 0-6.6275-5.3726-12-12-12-6.6275 0-12 5.3725-12 12 0 6.6274 5.3726 12 12 12" fill="#ffffff" fill-rule="evenodd" opacity=".15"/>
    </g>
   </g>
   <path d="m266 639.36 1.41-1.41 4.59 4.59 4.59-4.59 1.41 1.41-6 6z" fill="#ffffff" opacity=".75"/>
  </g>
  <g id="stick-prelight" transform="translate(-3 27.59)">
   <g transform="translate(250 71.41)">
    <g transform="translate(0 33)">
     <rect x="5" y="554.36" width="34" height="34" fill="#2c2c2c"/>
    </g>
    <g transform="translate(7 592.36)" enable-background="new">
     <g transform="translate(0 -1028.4)">
      <g transform="translate(-612,1218)" opacity=".8">
       <g transform="translate(-781 -432.64)" opacity="1">
        <g transform="translate(-29)" opacity="1"></g>
       </g>
       <rect x="616" y="-185.64" width="16" height="16" fill="none" opacity="1"/>
      </g>
     </g>
    </g>
    <g transform="translate(7 -436)" enable-background="new">
     <path d="m15 1052.4c6.6273 0 12-5.3726 12-12 0-6.6275-5.3726-12-12-12-6.6275 0-12 5.3725-12 12 0 6.6274 5.3726 12 12 12" fill="#ffffff" fill-rule="evenodd" opacity=".15"/>
    </g>
   </g>
   <path d="m272 669.77a6 6 0 0 0-6 6 6 6 0 0 0 6 6 6 6 0 0 0 6-6 6 6 0 0 0-6-6zm0 2a4 4 0 0 1 4 4 4 4 0 0 1-4 4 4 4 0 0 1-4-4 4 4 0 0 1 4-4z" fill="#ffffff" opacity=".75"/>
  </g>
  <g id="stick-toggled-prelight" transform="translate(-3 28)">
   <g transform="translate(250 109)">
    <g transform="translate(0 33)">
     <rect x="5" y="554.36" width="34" height="34" fill="#2c2c2c"/>
    </g>
    <g transform="translate(7 592.36)" enable-background="new">
     <g transform="translate(0 -1028.4)">
      <g transform="translate(-612,1218)" opacity=".8">
       <g transform="translate(-781 -432.64)" opacity="1">
        <g transform="translate(-29)" opacity="1"></g>
       </g>
       <rect x="616" y="-185.64" width="16" height="16" fill="none" opacity="1"/>
      </g>
     </g>
    </g>
    <g transform="translate(7 -436)" enable-background="new">
     <path d="m15 1052.4c6.6273 0 12-5.3727 12-12 0-6.6273-5.3726-12-12-12-6.6275 0-12 5.3727-12 12 0 6.6274 5.3726 12 12 12" fill="#ffffff" fill-rule="evenodd" opacity=".15"/>
    </g>
   </g>
   <path d="m272 707.36a6 6 0 0 0-6 6 6 6 0 0 0 6 6 6 6 0 0 0 6-6 6 6 0 0 0-6-6zm0 2a4 4 0 0 1 4 4 4 4 0 0 1-4 4 4 4 0 0 1-4-4 4 4 0 0 1 4-4z" fill="#ffffff" opacity=".75"/>
   <circle cx="272" cy="713.36" r="2" fill="#ffffff" opacity=".75"/>
  </g>
  <g id="menu-pressed" transform="translate(38,18)">
   <g transform="translate(250 -33)">
    <g transform="translate(0 33)">
     <rect x="5" y="554.36" width="34" height="34" fill="#2c2c2c"/>
    </g>
    <g transform="translate(7 592.36)" enable-background="new">
     <g transform="translate(0 -1028.4)">
      <g transform="translate(-612,1218)" opacity=".8">
       <g transform="translate(-781 -432.64)" opacity="1">
        <g transform="translate(-29)" opacity="1"></g>
       </g>
       <rect x="616" y="-185.64" width="16" height="16" fill="none" opacity="1"/>
      </g>
     </g>
    </g>
    <g transform="translate(7 -436)" enable-background="new">
     <path d="m15 1052.4c6.6273 0 12-5.3727 12-12 0-6.6273-5.3726-12-12-12-6.6275 0-12 5.3727-12 12 0 6.6274 5.3726 12 12 12" fill="#ffffff" fill-rule="evenodd" opacity=".3"/>
    </g>
   </g>
   <circle cx="272" cy="571.36" r="2" fill="#ffffff" opacity=".75"/>
  </g>
  <g id="shade-pressed" transform="translate(38 23)">
   <g transform="translate(250 2.0001)">
    <g transform="translate(0 33)">
     <rect x="5" y="554.36" width="34" height="34" fill="#2c2c2c"/>
    </g>
    <g transform="translate(7 592.36)" enable-background="new">
     <g transform="translate(0 -1028.4)">
      <g transform="translate(-612,1218)" opacity=".8">
       <g transform="translate(-781 -432.64)" opacity="1">
        <g transform="translate(-29)" opacity="1"></g>
       </g>
       <rect x="616" y="-185.64" width="16" height="16" fill="none" opacity="1"/>
      </g>
     </g>
    </g>
    <g transform="translate(7 -436)" enable-background="new">
     <path d="m15 1052.4c6.6273 0 12-5.3726 12-12 0-6.6275-5.3726-12-12-12-6.6275 0-12 5.3725-12 12 0 6.6274 5.3726 12 12 12" fill="#ffffff" fill-rule="evenodd" opacity=".3"/>
    </g>
   </g>
   <path d="m266 608.36 1.41 1.41 4.59-4.59 4.59 4.59 1.41-1.41-6-6z" fill="#ffffff" opacity=".75"/>
  </g>
  <g id="shade-toggled-pressed" transform="translate(38 24)">
   <g transform="translate(250 37)">
    <g transform="translate(0 33)">
     <rect x="5" y="554.36" width="34" height="34" fill="#2c2c2c"/>
    </g>
    <g transform="translate(7 592.36)" enable-background="new">
     <g transform="translate(0 -1028.4)">
      <g transform="translate(-612,1218)" opacity=".8">
       <g transform="translate(-781 -432.64)" opacity="1">
        <g transform="translate(-29)" opacity="1"></g>
       </g>
       <rect x="616" y="-185.64" width="16" height="16" fill="none" opacity="1"/>
      </g>
     </g>
    </g>
    <g transform="translate(7 -436)" enable-background="new">
     <path d="m15 1052.4c6.6273 0 12-5.3726 12-12 0-6.6275-5.3726-12-12-12-6.6275 0-12 5.3725-12 12 0 6.6274 5.3726 12 12 12" fill="#ffffff" fill-rule="evenodd" opacity=".3"/>
    </g>
   </g>
   <path d="m266 639.36 1.41-1.41 4.59 4.59 4.59-4.59 1.41 1.41-6 6z" fill="#ffffff" opacity=".75"/>
  </g>
  <g id="stick-pressed" transform="translate(38 27.59)">
   <g transform="translate(250 71.41)">
    <g transform="translate(0 33)">
     <rect x="5" y="554.36" width="34" height="34" fill="#2c2c2c"/>
    </g>
    <g transform="translate(7 592.36)" enable-background="new">
     <g transform="translate(0 -1028.4)">
      <g transform="translate(-612,1218)" opacity=".8">
       <g transform="translate(-781 -432.64)" opacity="1">
        <g transform="translate(-29)" opacity="1"></g>
       </g>
       <rect x="616" y="-185.64" width="16" height="16" fill="none" opacity="1"/>
      </g>
     </g>
    </g>
    <g transform="translate(7 -436)" enable-background="new">
     <path d="m15 1052.4c6.6273 0 12-5.3725 12-12 0-6.6274-5.3726-12-12-12-6.6275 0-12 5.3725-12 12 0 6.6275 5.3726 12 12 12" fill="#ffffff" fill-rule="evenodd" opacity=".3"/>
    </g>
   </g>
   <path d="m272 669.77a6 6 0 0 0-6 6 6 6 0 0 0 6 6 6 6 0 0 0 6-6 6 6 0 0 0-6-6zm0 2a4 4 0 0 1 4 4 4 4 0 0 1-4 4 4 4 0 0 1-4-4 4 4 0 0 1 4-4z" fill="#ffffff" opacity=".75"/>
  </g>
  <g id="stick-toggled-pressed" transform="translate(38 28)">
   <g transform="translate(250 109)">
    <g transform="translate(0 33)">
     <rect x="5" y="554.36" width="34" height="34" fill="#2c2c2c"/>
    </g>
    <g transform="translate(7 592.36)" enable-background="new">
     <g transform="translate(0 -1028.4)">
      <g transform="translate(-612,1218)" opacity=".8">
       <g transform="translate(-781 -432.64)" opacity="1">
        <g transform="translate(-29)" opacity="1"></g>
       </g>
       <rect x="616" y="-185.64" width="16" height="16" fill="none" opacity="1"/>
      </g>
     </g>
    </g>
    <g transform="translate(7 -436)" enable-background="new">
     <path d="m15 1052.4c6.6273 0 12-5.3727 12-12 0-6.6273-5.3726-12-12-12-6.6275 0-12 5.3727-12 12 0 6.6274 5.3726 12 12 12" fill="#ffffff" fill-rule="evenodd" opacity=".3"/>
    </g>
   </g>
   <path d="m272 707.36a6 6 0 0 0-6 6 6 6 0 0 0 6 6 6 6 0 0 0 6-6 6 6 0 0 0-6-6zm0 2a4 4 0 0 1 4 4 4 4 0 0 1-4 4 4 4 0 0 1-4-4 4 4 0 0 1 4-4z" fill="#ffffff" opacity=".75"/>
   <circle cx="272" cy="713.36" r="2" fill="#ffffff" opacity=".75"/>
  </g>
  <g id="close-prelight" transform="translate(29 31)">
   <g transform="translate(33 -2.2617e-5)">
    <rect x="5" y="554.36" width="34" height="34" fill="#2c2c2c"/>
   </g>
   <path d="m55 583.36c6.6273 0 12-5.3726 12-12 0-6.6274-5.3726-12-12-12-6.6275 0-12 5.3726-12 12 0 6.6274 5.3726 12 12 12" fill="#ffffff" fill-rule="evenodd" opacity=".15"/>
   <path d="m51.41 566.36-1.41 1.41 3.59 3.59-3.59 3.59 1.41 1.41 3.59-3.59 3.59 3.59 1.41-1.41-3.59-3.59 3.59-3.59-1.41-1.41-3.59 3.59z" fill="#ffffff" opacity=".75"/>
  </g>
  <g id="close-pressed" transform="translate(44 31)">
   <g transform="translate(66 -2.2617e-5)">
    <rect x="5" y="554.36" width="34" height="34" fill="#2c2c2c"/>
   </g>
   <g transform="translate(73 559.36)" enable-background="new">
    <g transform="translate(0 -1028.4)">
     <g id="titlebutton-close-active" transform="translate(-437,1218)">
      <g transform="translate(-882 -432.64)">
       <g transform="translate(-103)"></g>
       <g transform="translate(1323 246.87)" fill="#ffffff">
        <g transform="matrix(.75 0 0 .75 2 2.0547)" fill="#ffffff">
         <g transform="translate(-60,-518)" fill="#ffffff"></g>
        </g>
       </g>
      </g>
      <rect x="441" y="-185.64" width="16" height="16" fill="none"/>
     </g>
    </g>
   </g>
   <path d="m88 583.36c6.6273 0 12-5.3726 12-12 0-6.6274-5.3726-12-12-12-6.6275 0-12 5.3726-12 12 0 6.6274 5.3726 12 12 12" fill="#ffffff" fill-rule="evenodd" opacity=".3"/>
   <path d="m84.41 566.36-1.41 1.41 3.59 3.59-3.59 3.59 1.41 1.41 3.59-3.59 3.59 3.59 1.41-1.41-3.59-3.59 3.59-3.59-1.41-1.41-3.59 3.59z" fill="#ffffff" opacity=".75"/>
  </g>
  <g id="hide-active" transform="translate(-18 36)">
   <g transform="translate(33 33)">
    <rect x="5" y="554.36" width="34" height="34" fill="#2c2c2c"/>
   </g>
   <path d="m51 605.36h8v2h-8z" fill="#ffffff" opacity=".75"/>
  </g>
  <g id="maximize-active" transform="translate(-18 41)">
   <g transform="translate(33 66)">
    <rect x="5" y="554.36" width="34" height="34" fill="#2c2c2c"/>
   </g>
   <g transform="translate(40 625.36)" enable-background="new">
    <g transform="translate(0 -1028.4)">
     <g transform="translate(-480,1218)">
      <g transform="translate(-781 -432.64)">
       <g transform="translate(1265,247)" fill="#c0e3ff"></g>
      </g>
      <rect x="484" y="-185.64" width="16" height="16" fill="none"/>
     </g>
    </g>
   </g>
   <path d="m51 633.36v8h8v-8zm2 2h4v4h-4z" fill="#ffffff" opacity=".75"/>
  </g>
  <g id="maximize-toggled-active" transform="translate(-18 47)">
   <g transform="translate(33 99)">
    <rect x="5" y="554.36" width="34" height="34" fill="#2c2c2c"/>
   </g>
   <g transform="translate(40 658.36)" enable-background="new">
    <g transform="translate(0 -1028.4)">
     <g transform="translate(-509,1218)">
      <g transform="translate(-781 -432.64)">
       <g transform="translate(1294,247)" fill="#c0e3ff"></g>
      </g>
      <rect x="513" y="-185.64" width="16" height="16" fill="none"/>
     </g>
    </g>
   </g>
   <path d="m52 667.36v6h6v-6zm2 2h2v2h-2z" fill="#ffffff" opacity=".75"/>
  </g>
  <g id="close-active" transform="translate(-18 31)">
   <g transform="translate(33 -2.2617e-5)">
    <rect x="5" y="554.36" width="34" height="34" fill="#2c2c2c"/>
   </g>
   <path d="m51.41 566.36-1.41 1.41 3.59 3.59-3.59 3.59 1.41 1.41 3.59-3.59 3.59 3.59 1.41-1.41-3.59-3.59 3.59-3.59-1.41-1.41-3.59 3.59z" fill="#ffffff" opacity=".75"/>
  </g>
  <g id="hide-inactive" transform="translate(125 36)">
   <g transform="translate(33 33)">
    <rect x="5" y="554.36" width="34" height="34" fill="#2c2c2c"/>
   </g>
   <path d="m51 605.36h8v2h-8z" fill="#ffffff" opacity=".35"/>
  </g>
  <g id="maximize-inactive" transform="translate(125 41)">
   <g transform="translate(33 66)">
    <rect x="5" y="554.36" width="34" height="34" fill="#2c2c2c"/>
   </g>
   <g transform="translate(40 625.36)" enable-background="new">
    <g transform="translate(0 -1028.4)">
     <g transform="translate(-480,1218)">
      <g transform="translate(-781 -432.64)">
       <g transform="translate(1265,247)" fill="#c0e3ff"></g>
      </g>
      <rect x="484" y="-185.64" width="16" height="16" fill="none"/>
     </g>
    </g>
   </g>
   <path d="m51 633.36v8h8v-8zm2 2h4v4h-4z" fill="#ffffff" opacity=".35"/>
  </g>
  <g id="maximize-toggled-inactive" transform="translate(125 47)">
   <g transform="translate(33 99)">
    <rect x="5" y="554.36" width="34" height="34" fill="#2c2c2c"/>
   </g>
   <g transform="translate(40 658.36)" enable-background="new">
    <g transform="translate(0 -1028.4)">
     <g transform="translate(-509,1218)">
      <g transform="translate(-781 -432.64)">
       <g transform="translate(1294,247)" fill="#c0e3ff"></g>
      </g>
      <rect x="513" y="-185.64" width="16" height="16" fill="none"/>
     </g>
    </g>
   </g>
   <path d="m52 667.36v6h6v-6zm2 2h2v2h-2z" fill="#ffffff" opacity=".35"/>
  </g>
  <g id="close-inactive" transform="translate(125 31)">
   <g transform="translate(33 -2.2617e-5)">
    <rect x="5" y="554.36" width="34" height="34" fill="#2c2c2c"/>
   </g>
   <path d="m51.41 566.36-1.41 1.41 3.59 3.59-3.59 3.59 1.41 1.41 3.59-3.59 3.59 3.59 1.41-1.41-3.59-3.59 3.59-3.59-1.41-1.41-3.59 3.59z" fill="#ffffff" opacity=".35"/>
  </g>
  <g id="menu-active" transform="translate(-45,18)">
   <g transform="translate(250 -33)">
    <g transform="translate(0 33)">
     <rect x="5" y="554.36" width="34" height="34" fill="#2c2c2c"/>
    </g>
    <g transform="translate(7 592.36)" enable-background="new">
     <g transform="translate(0 -1028.4)">
      <g transform="translate(-612,1218)" opacity=".8">
       <g transform="translate(-781 -432.64)" opacity="1">
        <g transform="translate(-29)" opacity="1"></g>
       </g>
       <rect x="616" y="-185.64" width="16" height="16" fill="none" opacity="1"/>
      </g>
     </g>
    </g>
   </g>
   <circle cx="272" cy="571.36" r="2" fill="#ffffff" opacity=".75"/>
  </g>
  <g id="shade-active" transform="translate(-45 23)">
   <g transform="translate(250 2.0001)">
    <g transform="translate(0 33)">
     <rect x="5" y="554.36" width="34" height="34" fill="#2c2c2c"/>
    </g>
    <g transform="translate(7 592.36)" enable-background="new">
     <g transform="translate(0 -1028.4)">
      <g transform="translate(-612,1218)" opacity=".8">
       <g transform="translate(-781 -432.64)" opacity="1">
        <g transform="translate(-29)" opacity="1"></g>
       </g>
       <rect x="616" y="-185.64" width="16" height="16" fill="none" opacity="1"/>
      </g>
     </g>
    </g>
   </g>
   <path d="m266 608.36 1.41 1.41 4.59-4.59 4.59 4.59 1.41-1.41-6-6z" fill="#ffffff" opacity=".75"/>
  </g>
  <g id="shade-toggled-active" transform="translate(-45 24)">
   <g transform="translate(250 37)">
    <g transform="translate(0 33)">
     <rect x="5" y="554.36" width="34" height="34" fill="#2c2c2c"/>
    </g>
    <g transform="translate(7 592.36)" enable-background="new">
     <g transform="translate(0 -1028.4)">
      <g transform="translate(-612,1218)" opacity=".8">
       <g transform="translate(-781 -432.64)" opacity="1">
        <g transform="translate(-29)" opacity="1"></g>
       </g>
       <rect x="616" y="-185.64" width="16" height="16" fill="none" opacity="1"/>
      </g>
     </g>
    </g>
   </g>
   <path d="m266 639.36 1.41-1.41 4.59 4.59 4.59-4.59 1.41 1.41-6 6z" fill="#ffffff" opacity=".75"/>
  </g>
  <g id="stick-active" transform="translate(-45 27.59)">
   <g transform="translate(250 71.41)">
    <g transform="translate(0 33)">
     <rect x="5" y="554.36" width="34" height="34" fill="#2c2c2c"/>
    </g>
    <g transform="translate(7 592.36)" enable-background="new">
     <g transform="translate(0 -1028.4)">
      <g transform="translate(-612,1218)" opacity=".8">
       <g transform="translate(-781 -432.64)" opacity="1">
        <g transform="translate(-29)" opacity="1"></g>
       </g>
       <rect x="616" y="-185.64" width="16" height="16" fill="none" opacity="1"/>
      </g>
     </g>
    </g>
   </g>
   <path d="m272 669.77a6 6 0 0 0-6 6 6 6 0 0 0 6 6 6 6 0 0 0 6-6 6 6 0 0 0-6-6zm0 2a4 4 0 0 1 4 4 4 4 0 0 1-4 4 4 4 0 0 1-4-4 4 4 0 0 1 4-4z" fill="#ffffff" opacity=".75"/>
  </g>
  <g id="stick-toggled-active" transform="translate(-45 28)">
   <g transform="translate(250 109)">
    <g transform="translate(0 33)">
     <rect x="5" y="554.36" width="34" height="34" fill="#2c2c2c"/>
    </g>
    <g transform="translate(7 592.36)" enable-background="new">
     <g transform="translate(0 -1028.4)">
      <g transform="translate(-612,1218)" opacity=".8">
       <g transform="translate(-781 -432.64)" opacity="1">
        <g transform="translate(-29)" opacity="1"></g>
       </g>
       <rect x="616" y="-185.64" width="16" height="16" fill="none" opacity="1"/>
      </g>
     </g>
    </g>
   </g>
   <path d="m272 707.36a6 6 0 0 0-6 6 6 6 0 0 0 6 6 6 6 0 0 0 6-6 6 6 0 0 0-6-6zm0 2a4 4 0 0 1 4 4 4 4 0 0 1-4 4 4 4 0 0 1-4-4 4 4 0 0 1 4-4z" fill="#ffffff" opacity=".75"/>
   <circle cx="272" cy="713.36" r="2" fill="#ffffff" opacity=".75"/>
  </g>
  <g id="menu-inactive" transform="translate(80,18)">
   <g transform="translate(250 -33)">
    <g transform="translate(0 33)">
     <rect x="5" y="554.36" width="34" height="34" fill="#2c2c2c"/>
    </g>
    <g transform="translate(7 592.36)" enable-background="new">
     <g transform="translate(0 -1028.4)">
      <g transform="translate(-612,1218)" opacity=".8">
       <g transform="translate(-781 -432.64)" opacity="1">
        <g transform="translate(-29)" opacity="1"></g>
       </g>
       <rect x="616" y="-185.64" width="16" height="16" fill="none" opacity="1"/>
      </g>
     </g>
    </g>
   </g>
   <circle cx="272" cy="571.36" r="2" fill="#ffffff" opacity=".35"/>
  </g>
  <g id="shade-inactive" transform="translate(80 23)">
   <g transform="translate(250 2.0001)">
    <g transform="translate(0 33)">
     <rect x="5" y="554.36" width="34" height="34" fill="#2c2c2c"/>
    </g>
    <g transform="translate(7 592.36)" enable-background="new">
     <g transform="translate(0 -1028.4)">
      <g transform="translate(-612,1218)" opacity=".8">
       <g transform="translate(-781 -432.64)" opacity="1">
        <g transform="translate(-29)" opacity="1"></g>
       </g>
       <rect x="616" y="-185.64" width="16" height="16" fill="none" opacity="1"/>
      </g>
     </g>
    </g>
   </g>
   <path d="m266 608.36 1.41 1.41 4.59-4.59 4.59 4.59 1.41-1.41-6-6z" fill="#ffffff" opacity=".35"/>
  </g>
  <g id="shade-toggled-inactive" transform="translate(80 24)">
   <g transform="translate(250 37)">
    <g transform="translate(0 33)">
     <rect x="5" y="554.36" width="34" height="34" fill="#2c2c2c"/>
    </g>
    <g transform="translate(7 592.36)" enable-background="new">
     <g transform="translate(0 -1028.4)">
      <g transform="translate(-612,1218)" opacity=".8">
       <g transform="translate(-781 -432.64)" opacity="1">
        <g transform="translate(-29)" opacity="1"></g>
       </g>
       <rect x="616" y="-185.64" width="16" height="16" fill="none" opacity="1"/>
      </g>
     </g>
    </g>
   </g>
   <path d="m266 639.36 1.41-1.41 4.59 4.59 4.59-4.59 1.41 1.41-6 6z" fill="#ffffff" opacity=".35"/>
  </g>
  <g id="stick-inactive" transform="translate(80 27.59)">
   <g transform="translate(250 71.41)">
    <g transform="translate(0 33)">
     <rect x="5" y="554.36" width="34" height="34" fill="#2c2c2c"/>
    </g>
    <g transform="translate(7 592.36)" enable-background="new">
     <g transform="translate(0 -1028.4)">
      <g transform="translate(-612,1218)" opacity=".8">
       <g transform="translate(-781 -432.64)" opacity="1">
        <g transform="translate(-29)" opacity="1"></g>
       </g>
       <rect x="616" y="-185.64" width="16" height="16" fill="none" opacity="1"/>
      </g>
     </g>
    </g>
   </g>
   <path d="m272 669.77a6 6 0 0 0-6 6 6 6 0 0 0 6 6 6 6 0 0 0 6-6 6 6 0 0 0-6-6zm0 2a4 4 0 0 1 4 4 4 4 0 0 1-4 4 4 4 0 0 1-4-4 4 4 0 0 1 4-4z" fill="#ffffff" opacity=".35"/>
  </g>
  <g id="stick-toggled-inactive" transform="translate(80 28)">
   <g transform="translate(250 109)">
    <g transform="translate(0 33)">
     <rect x="5" y="554.36" width="34" height="34" fill="#2c2c2c"/>
    </g>
    <g transform="translate(7 592.36)" enable-background="new">
     <g transform="translate(0 -1028.4)">
      <g transform="translate(-612,1218)" opacity=".8">
       <g transform="translate(-781 -432.64)" opacity="1">
        <g transform="translate(-29)" opacity="1"></g>
       </g>
       <rect x="616" y="-185.64" width="16" height="16" fill="none" opacity="1"/>
      </g>
     </g>
    </g>
   </g>
   <path d="m272 707.36a6 6 0 0 0-6 6 6 6 0 0 0 6 6 6 6 0 0 0 6-6 6 6 0 0 0-6-6zm0 2a4 4 0 0 1 4 4 4 4 0 0 1-4 4 4 4 0 0 1-4-4 4 4 0 0 1 4-4z" fill="#ffffff" opacity=".35"/>
   <circle cx="272" cy="713.36" r="2" fill="#ffffff" opacity=".35"/>
  </g>
 </g>
</svg>
