<svg width="16" height="16" version="1.1" viewBox="0 0 16 16" xmlns="http://www.w3.org/2000/svg">
 <defs>
  <style id="current-color-scheme" type="text/css">.ColorScheme-Text { color:#363636; } .ColorScheme-Text { color:#363636; }</style>
  <style type="text/css">.ColorScheme-Text { color:#363636; } .ColorScheme-Text { color:#363636; }</style>
 </defs>
 <path d="m2 1c-1.108 0-2 0.892-2 2v10c0 1.108 0.892 2 2 2h12c1.108 0 2-0.892 2-2v-8c0-1.108-0.892-2-2-2h-6l-2-2z" fill="#ab8727" stroke-linecap="round" stroke-linejoin="round" stroke-width="1.5" style="paint-order:stroke fill markers"/>
 <path d="m2 2c-0.554 0-1 0.446-1 1v2h4.5859l1.4961-1.4961-1.4961-1.5039h-3.5859z" fill="#f4d359" style="paint-order:stroke fill markers"/>
 <path d="m8 4-2 2h-5v7c0 0.554 0.446 1 1 1h12c0.554 0 1-0.446 1-1v-8c0-0.554-0.446-1-1-1h-6z" fill="#f9e18d" style="paint-order:stroke fill markers"/>
</svg>
