<svg width="16" height="16" version="1.1" xmlns="http://www.w3.org/2000/svg">
 <g transform="translate(-4.924 4.7797)" fill="#363636" stroke-linecap="round" stroke-linejoin="round" stroke-width="2.6824" style="paint-order:stroke fill markers" aria-label="">
  <path d="m18.889 2.9374q0 0.070727 0 0.14145 0.0079 0.070727 0.0079 0.14145 0 0.070727-0.0079 0.14145 0 0.070727 0 0.14145l2.0354 1.2652-1.2495 3.0098-2.334-0.53438q-0.1886 0.20432-0.39293 0.39293l0.53438 2.334-3.0098 1.2495-1.2652-2.0354q-0.07073 0-0.14145 0.00786-0.07073 0-0.14145 0-0.07073 0-0.14145 0-0.07073-0.00786-0.14145-0.00786l-1.2652 2.0354-3.0098-1.2495 0.53438-2.334q-0.20432-0.1886-0.39293-0.39293l-2.334 0.53438-1.2495-3.0098 2.0354-1.2652q0-0.070727-0.00786-0.14145 0-0.070727 0-0.14145 0-0.070727 0-0.14145 0.00786-0.070727 0.00786-0.14145l-2.0354-1.2652 1.2495-3.0098 2.334 0.53438q0.18861-0.20432 0.39293-0.39293l-0.53438-2.334 3.0098-1.2495 1.2652 2.0354q0.07073 0 0.14145 0 0.07073-0.00786 0.14145-0.00786 0.07073 0 0.14145 0.00786 0.07073 0 0.14145 0l1.2652-2.0354 3.0098 1.2495-0.53438 2.334q0.20432 0.18861 0.39293 0.39293l2.334-0.53438 1.2495 3.0098zm-0.91945 1.0216q0.01572-0.18861 0.03143-0.36935 0.01572-0.18861 0.01572-0.37721 0-0.18075-0.01572-0.36935-0.01572-0.1886-0.03143-0.36935l1.8546-1.1552-0.67584-1.6346-2.1297 0.49509q-0.24361-0.29862-0.50295-0.5501-0.25147-0.25147-0.5501-0.50295l0.49509-2.1297-1.6346-0.67583-1.1631 1.8546q-0.18075-0.015717-0.36935-0.031434t-0.36935-0.015717q-0.1886 0-0.37721 0.015717-0.18075 0.015717-0.36935 0.031434l-1.1552-1.8546-1.6346 0.67583 0.49509 2.1297q-0.29862 0.24361-0.5501 0.50295-0.25147 0.25147-0.50295 0.5501l-2.1297-0.49509-0.67583 1.6346 1.8546 1.1631q-0.015717 0.18861-0.031434 0.37721-0.015717 0.18075-0.015717 0.36935 0 0.18075 0.015717 0.36935 0.015717 0.18861 0.031434 0.36935l-1.8546 1.1552 0.67583 1.6346 2.1297-0.49509q0.24361 0.29862 0.49509 0.5501 0.25933 0.25147 0.55796 0.50295l-0.49509 2.1297 1.6346 0.67584 1.1631-1.8546q0.18075 0.015717 0.36935 0.031434t0.36935 0.015717q0.1886 0 0.36935-0.015717 0.1886-0.015717 0.37721-0.031434l1.1552 1.8546 1.6346-0.67584-0.49509-2.1297q0.29862-0.24361 0.5501-0.49509 0.25147-0.25933 0.50295-0.55796l2.1297 0.49509 0.67584-1.6346zm-5.0452-3.6935q0.61297 0 1.1473 0.23576 0.54224 0.2279 0.94303 0.62868 0.40078 0.40079 0.62868 0.94303 0.23576 0.53438 0.23576 1.1473t-0.23576 1.1552q-0.2279 0.53438-0.62868 0.93517-0.40079 0.40079-0.94303 0.63654-0.53438 0.2279-1.1473 0.2279-0.61297 0-1.1552-0.2279-0.53438-0.23576-0.93517-0.63654-0.40079-0.40079-0.63654-0.93517-0.2279-0.54224-0.2279-1.1552t0.2279-1.1473q0.23576-0.54224 0.63654-0.94303 0.40079-0.40079 0.93517-0.62868 0.54224-0.23576 1.1552-0.23576zm0 5.0295q0.43222 0 0.80943-0.15717 0.37721-0.16503 0.66012-0.44794 0.28291-0.28291 0.44008-0.66012 0.16503-0.37721 0.16503-0.80943 0-0.43222-0.16503-0.80943-0.15717-0.37721-0.44008-0.66012-0.28291-0.28291-0.66012-0.44008-0.37721-0.16503-0.80943-0.16503t-0.80943 0.16503q-0.37721 0.15717-0.66012 0.44008-0.28291 0.28291-0.44794 0.66012-0.15717 0.37721-0.15717 0.80943 0 0.43222 0.15717 0.80943 0.16503 0.37721 0.44794 0.66012 0.28291 0.28291 0.66012 0.44794 0.37721 0.15717 0.80943 0.15717z" fill="#363636" stroke-width="2.6824"/>
 </g>
</svg>
