<svg width="16" height="16" enable-background="new" version="1.1" xmlns="http://www.w3.org/2000/svg">
 <title>Gnome Symbolic Icons</title>
 <path d="m8.0641 0.3642c-0.22932-0.032933-0.45367 0.08592-0.55523 0.29414l-2.1742 4.4286-4.8801 0.72066c-0.43607 0.065603-0.6087 0.60194-0.29278 0.90959l3.5408 3.4351-0.82207 4.8642c-0.074772 0.43628 0.38374 0.76854 0.77505 0.56164l4.361-2.3074 4.3718 2.2854c0.39157 0.20419 0.84748-0.1287 0.77222-0.56385l-0.84554-4.8601 3.5241-3.4515c0.31565-0.30918 0.14007-0.84609-0.29727-0.90901l-4.8835-0.69817-2.1937-4.4187c-0.077797-0.15668-0.22748-0.26526-0.40058-0.29057z" color="#000000" color-rendering="auto" dominant-baseline="auto" enable-background="accumulate" fill="#ff7f2a" image-rendering="auto" shape-rendering="auto" solid-color="#000000" stop-color="#000000" stroke-width="1.0667" style="font-feature-settings:normal;font-variant-alternates:normal;font-variant-caps:normal;font-variant-east-asian:normal;font-variant-ligatures:normal;font-variant-numeric:normal;font-variant-position:normal;font-variation-settings:normal;inline-size:0;isolation:auto;mix-blend-mode:normal;shape-margin:0;shape-padding:0;text-decoration-color:#000000;text-decoration-line:none;text-decoration-style:solid;text-indent:0;text-orientation:mixed;text-transform:none;white-space:normal"/>
</svg>
