<svg width="16" height="16" enable-background="new" version="1.1" xmlns="http://www.w3.org/2000/svg">
 <title>Gnome Symbolic Icons</title>
 <path d="m8.0469 0.33203a1.0001 1.0001 0 0 0-0.18164 0.013672 1.0001 1.0001 0 0 0-0.73828 0.54102l-1.9473 3.9043-4.3203 0.60742a1.0001 1.0001 0 0 0-0.56055 1.7031l3.1094 3.0586-0.75391 4.2949a1.0001 1.0001 0 0 0 1.4453 1.0625l3.4805-1.8105a4.5 4.5 0 0 1-0.39258-0.92383l-3.5488 1.8457 0.8457-4.8125-3.4844-3.4277 4.8398-0.68164 2.1816-4.373 2.1445 4.3906 4.834 0.72461-1.2168 1.1738a4.5 4.5 0 0 1 0.81055 0.60938l1.1016-1.0645a1.0001 1.0001 0 0 0-0.54687-1.707l-4.3145-0.64648-1.9121-3.9199a1.0001 1.0001 0 0 0-0.875-0.5625z" color="#000000" color-rendering="auto" dominant-baseline="auto" enable-background="accumulate" fill="#363636" image-rendering="auto" shape-rendering="auto" solid-color="#000000" stop-color="#000000" style="font-feature-settings:normal;font-variant-alternates:normal;font-variant-caps:normal;font-variant-east-asian:normal;font-variant-ligatures:normal;font-variant-numeric:normal;font-variant-position:normal;font-variation-settings:normal;inline-size:0;isolation:auto;mix-blend-mode:normal;paint-order:stroke fill markers;shape-margin:0;shape-padding:0;text-decoration-color:#000000;text-decoration-line:none;text-decoration-style:solid;text-indent:0;text-orientation:mixed;text-transform:none;white-space:normal"/>
 <path d="m11.5 8a3.5 3.5 0 0 0-3.5 3.5 3.5 3.5 0 0 0 3.5 3.5 3.5 3.5 0 0 0 3.5-3.5 3.5 3.5 0 0 0-3.5-3.5zm0 1c0.277 0 0.5 0.223 0.5 0.5v1.5h1.5c0.277 0 0.5 0.223 0.5 0.5s-0.223 0.5-0.5 0.5h-1.5v1.5c0 0.277-0.223 0.5-0.5 0.5s-0.5-0.223-0.5-0.5v-1.5h-1.5c-0.277 0-0.5-0.223-0.5-0.5s0.223-0.5 0.5-0.5h1.5v-1.5c0-0.277 0.223-0.5 0.5-0.5z" fill="#363636" stroke-linecap="round" stroke-linejoin="round" stroke-width="2" style="paint-order:stroke fill markers"/>
</svg>
