<svg width="16" height="16" version="1.1" xmlns="http://www.w3.org/2000/svg">
 <defs>
  <style id="current-color-scheme" type="text/css">.ColorScheme-Text { color:#363636; }</style>
 </defs>
 <g transform="translate(-.0075027)" fill="#363636" stroke-linecap="round" stroke-linejoin="round" stroke-width="2.6706" style="paint-order:stroke fill markers" aria-label="">
  <path d="m7.5185 16c-0.6207-0.36512-1.2388-0.75371-1.8543-1.1658-0.61027-0.41728-1.1945-0.86324-1.7526-1.3379-0.55289-0.47987-1.0693-0.99104-1.5491-1.5335-0.47465-0.54246-0.88672-1.124-1.2362-1.7447-0.34947-0.6207-0.62331-1.2805-0.82152-1.9795-0.19821-0.69894-0.29731-1.4422-0.29731-2.2298v-4.0059c0.43293 0 0.85281-0.015648 1.2597-0.046944 0.40685-0.031296 0.80326-0.088672 1.1892-0.17213s0.76675-0.20082 1.1423-0.35208 0.7511-0.34686 1.1267-0.5868c0.44336-0.28688 0.88672-0.49813 1.3301-0.63374 0.44336-0.14083 0.93105-0.21125 1.4631-0.21125 0.26602 0 0.51899 0.018256 0.75893 0.054768 0.23994 0.031296 0.47205 0.083456 0.69633 0.15648 0.2295 0.067808 0.45379 0.15648 0.67286 0.26602 0.21907 0.10432 0.44075 0.2269 0.66504 0.36773 0.37555 0.23994 0.7511 0.43553 1.1267 0.5868s0.75632 0.26862 1.1423 0.35208c0.38598 0.083456 0.7824 0.14083 1.1892 0.17213 0.40685 0.031296 0.82673 0.046944 1.2597 0.046944v4.0059c0 0.78761-0.0991 1.5309-0.29731 2.2298-0.19821 0.69894-0.47205 1.3588-0.82152 1.9795s-0.76414 1.2023-1.244 1.7447c-0.47466 0.54246-0.99104 1.0536-1.5491 1.5335-0.55289 0.47466-1.1371 0.92062-1.7526 1.3379-0.61027 0.41206-1.2258 0.80065-1.8465 1.1658zm-6.5095-13.011v3.0201c0 0.66243 0.086064 1.2988 0.25819 1.909 0.17734 0.61027 0.41728 1.1919 0.71981 1.7447 0.30253 0.54768 0.66243 1.0693 1.0797 1.5648 0.41728 0.4903 0.86585 0.95452 1.3457 1.3927 0.47987 0.43293 0.98321 0.83456 1.51 1.2049 0.53203 0.37034 1.0641 0.70937 1.5961 1.0171 0.53203-0.30774 1.0615-0.64678 1.5883-1.0171 0.53203-0.37034 1.038-0.77196 1.5179-1.2049 0.47987-0.43814 0.92844-0.90236 1.3457-1.3927 0.41728-0.49552 0.77718-1.0171 1.0797-1.5648 0.30253-0.55289 0.53985-1.1345 0.71198-1.7447 0.17734-0.61027 0.26602-1.2466 0.26602-1.909v-3.0201c-0.77718-0.041728-1.5231-0.16691-2.2377-0.37555-0.70937-0.20864-1.3927-0.52421-2.0499-0.9467-0.35469-0.2295-0.70937-0.39641-1.0641-0.50073-0.34947-0.10954-0.73545-0.1643-1.1579-0.1643-0.42249 0-0.81109 0.054768-1.1658 0.1643-0.34947 0.10432-0.70155 0.27123-1.0562 0.50073-0.65721 0.42249-1.3431 0.73806-2.0577 0.9467-0.70937 0.20864-1.4527 0.33382-2.2298 0.37555z" stroke-width="2.6706"/>
  <path transform="translate(.0075027)" d="m7.5098 2.002c-0.33607 0-0.62138 0.042625-0.86914 0.11914l-0.0058594 0.0019531-0.0039062 0.0019531c-0.24573 0.073352-0.51195 0.19521-0.79883 0.38086l-0.0019531 0.0019531c-0.73215 0.47067-1.5075 0.82802-2.3164 1.0645-0.48378 0.14229-1.0032 0.18405-1.5117 0.25586v2.1816c0 0.57582 0.074251 1.1175 0.2207 1.6367 0.15715 0.53854 0.36659 1.0507 0.63281 1.5371v-0.0039063c0.26931 0.48753 0.58937 0.95397 0.96484 1.4004l0.0039063 0.003906c0.38744 0.45488 0.80402 0.88533 1.25 1.293 0.44867 0.40478 0.92005 0.78075 1.4121 1.127l0.0039063 0.003906c0.34083 0.23713 0.68033 0.4391 1.0195 0.64844 0.33808-0.20937 0.67636-0.41139 1.0137-0.64844l0.0019531-0.001953 0.0019532-0.001953c0.49629-0.34546 0.96851-0.71964 1.416-1.123 0.44792-0.40896 0.86502-0.84023 1.2539-1.2969 0.3761-0.44662 0.69708-0.91266 0.9668-1.4004 0.26648-0.48701 0.47495-0.99826 0.62695-1.5371l0.001953-0.0039063 0.001953-0.0039062c0.15029-0.51718 0.22461-1.0558 0.22461-1.6289v-2.1797c-0.51026-0.071745-1.0305-0.11365-1.5176-0.25586v-0.0019532h-0.001953c-0.80446-0.23661-1.5767-0.59393-2.3086-1.0645l-0.0019531-0.0019531c-0.28508-0.18446-0.5519-0.30709-0.80273-0.38086l-0.0078126-0.0019531-0.0097656-0.0019531c-0.23971-0.075135-0.52334-0.11914-0.85938-0.11914z" opacity=".35"/>
 </g>
</svg>
