<svg width="16" height="16" version="1.1" xmlns="http://www.w3.org/2000/svg">
 <defs>
  <style id="current-color-scheme" type="text/css">.ColorScheme-Text { color:#363636; }</style>
 </defs>
 <g transform="translate(-.0075027)" fill="#363636" stroke-linecap="round" stroke-linejoin="round" stroke-width="2.6706" style="paint-order:stroke fill markers" aria-label="">
  <path d="m7.5185 16c-0.6207-0.36512-1.2388-0.75371-1.8543-1.1658-0.61027-0.41728-1.1945-0.86324-1.7526-1.3379-0.55289-0.47987-1.0693-0.99104-1.5491-1.5335-0.47465-0.54246-0.88672-1.124-1.2362-1.7447-0.34947-0.6207-0.62331-1.2805-0.82152-1.9795-0.19821-0.69894-0.29731-1.4422-0.29731-2.2298v-4.0059c0.43293 0 0.85281-0.015648 1.2597-0.046944 0.40685-0.031296 0.80326-0.088672 1.1892-0.17213s0.76675-0.20082 1.1423-0.35208 0.7511-0.34686 1.1267-0.5868c0.44336-0.28688 0.88672-0.49813 1.3301-0.63374 0.44336-0.14083 0.93105-0.21125 1.4631-0.21125 0.26602 0 0.51899 0.018256 0.75893 0.054768 0.23994 0.031296 0.47205 0.083456 0.69633 0.15648 0.2295 0.067808 0.45379 0.15648 0.67286 0.26602 0.21907 0.10432 0.44075 0.2269 0.66504 0.36773 0.37555 0.23994 0.7511 0.43553 1.1267 0.5868s0.75632 0.26862 1.1423 0.35208c0.38598 0.083456 0.7824 0.14083 1.1892 0.17213 0.40685 0.031296 0.82673 0.046944 1.2597 0.046944v4.0059c0 0.78761-0.0991 1.5309-0.29731 2.2298-0.19821 0.69894-0.47205 1.3588-0.82152 1.9795s-0.76414 1.2023-1.244 1.7447c-0.47466 0.54246-0.99104 1.0536-1.5491 1.5335-0.55289 0.47466-1.1371 0.92062-1.7526 1.3379-0.61027 0.41206-1.2258 0.80065-1.8465 1.1658zm-6.5095-13.011v3.0201c0 0.66243 0.086064 1.2988 0.25819 1.909 0.17734 0.61027 0.41728 1.1919 0.71981 1.7447 0.30253 0.54768 0.66243 1.0693 1.0797 1.5648 0.41728 0.4903 0.86585 0.95452 1.3457 1.3927 0.47987 0.43293 0.98321 0.83456 1.51 1.2049 0.53203 0.37034 1.0641 0.70937 1.5961 1.0171 0.53203-0.30774 1.0615-0.64678 1.5883-1.0171 0.53203-0.37034 1.038-0.77196 1.5179-1.2049 0.47987-0.43814 0.92844-0.90236 1.3457-1.3927 0.41728-0.49552 0.77718-1.0171 1.0797-1.5648 0.30253-0.55289 0.53985-1.1345 0.71198-1.7447 0.17734-0.61027 0.26602-1.2466 0.26602-1.909v-3.0201c-0.77718-0.041728-1.5231-0.16691-2.2377-0.37555-0.70937-0.20864-1.3927-0.52421-2.0499-0.9467-0.35469-0.2295-0.70937-0.39641-1.0641-0.50073-0.34947-0.10954-0.73545-0.1643-1.1579-0.1643-0.42249 0-0.81109 0.054768-1.1658 0.1643-0.34947 0.10432-0.70155 0.27123-1.0562 0.50073-0.65721 0.42249-1.3431 0.73806-2.0577 0.9467-0.70937 0.20864-1.4527 0.33382-2.2298 0.37555z" stroke-width="2.6706"/>
 </g>
</svg>
