<svg width="16.023" height="16" version="1.1" xmlns="http://www.w3.org/2000/svg">
 <path d="m8.0117 0.20898a1.0001 1.0001 0 0 0-0.70703 0.28125l-6 5.791a1.0001 1.0001 0 0 0-0.30469 0.71875v7a1.0001 1.0001 0 0 0 1 1h4a1.0001 1.0001 0 0 0 1-1v-3h2v3a1.0001 1.0001 0 0 0 1 1h4a1.0001 1.0001 0 0 0 1-1v-7a1.0001 1.0001 0 0 0-0.30469-0.71875l-6-5.791a1.0001 1.0001 0 0 0-0.68359-0.28125zm-0.011719 1 6 5.791v7h-4v-4h-4v4h-4v-7l6-5.791z" color="#000000" color-rendering="auto" dominant-baseline="auto" fill="#363636" image-rendering="auto" shape-rendering="auto" solid-color="#000000" stop-color="#000000" style="font-feature-settings:normal;font-variant-alternates:normal;font-variant-caps:normal;font-variant-east-asian:normal;font-variant-ligatures:normal;font-variant-numeric:normal;font-variant-position:normal;font-variation-settings:normal;inline-size:0;isolation:auto;mix-blend-mode:normal;shape-margin:0;shape-padding:0;text-decoration-color:#000000;text-decoration-line:none;text-decoration-style:solid;text-indent:0;text-orientation:mixed;text-transform:none;white-space:normal"/>
</svg>
