<svg width="16" height="16" enable-background="new" version="1.1" xmlns="http://www.w3.org/2000/svg">
 <path d="m14 1.0003-0.99989-1e-7 -1e-6 2.9997-2.9997 1e-7v0.99989h3.9995l-1e-6 -0.99989z" fill="#363636"/>
 <path d="m7.9062 1a7 7 0 0 0-6.9062 7 7 7 0 0 0 7 7 7 7 0 0 0 7-7 7 7 0 0 0-0.072266-1h-1.0117a6 6 0 0 1 0.083984 1 6 6 0 0 1-6 6 6 6 0 0 1-6-6 6 6 0 0 1 6-6 6 6 0 0 1 5.1953 3h0.80469v-0.60352a7 7 0 0 0-6-3.3965 7 7 0 0 0-0.09375 0z" fill="#363636" stroke-linecap="round" stroke-linejoin="round" stroke-width="2" style="paint-order:stroke fill markers"/>
</svg>
