<?xml version="1.0" encoding="UTF-8" standalone="no"?>
<svg
   xmlns:dc="http://purl.org/dc/elements/1.1/"
   xmlns:cc="http://creativecommons.org/ns#"
   xmlns:rdf="http://www.w3.org/1999/02/22-rdf-syntax-ns#"
   xmlns:svg="http://www.w3.org/2000/svg"
   xmlns="http://www.w3.org/2000/svg"
   xmlns:xlink="http://www.w3.org/1999/xlink"
   xmlns:sodipodi="http://sodipodi.sourceforge.net/DTD/sodipodi-0.dtd"
   xmlns:inkscape="http://www.inkscape.org/namespaces/inkscape"
   width="3960"
   height="10800"
   version="1.1"
   viewBox="0 0 1047.7499 2857.5"
   id="svg365"
   sodipodi:docname="wallpaper.svg"
   inkscape:version="1.0.2 (e86c870879, 2021-01-15)">
  <metadata
     id="metadata369">
    <rdf:RDF>
      <cc:Work
         rdf:about="">
        <dc:format>image/svg+xml</dc:format>
        <dc:type
           rdf:resource="http://purl.org/dc/dcmitype/StillImage" />
        <dc:title></dc:title>
      </cc:Work>
    </rdf:RDF>
  </metadata>
  <sodipodi:namedview
     pagecolor="#ffffff"
     bordercolor="#666666"
     borderopacity="1"
     objecttolerance="10"
     gridtolerance="10"
     guidetolerance="10"
     inkscape:pageopacity="0"
     inkscape:pageshadow="2"
     inkscape:window-width="1366"
     inkscape:window-height="702"
     id="namedview367"
     showgrid="false"
     inkscape:snap-bbox="true"
     inkscape:bbox-nodes="true"
     inkscape:snap-bbox-edge-midpoints="true"
     inkscape:zoom="0.042066306"
     inkscape:cx="4154.1949"
     inkscape:cy="5049.9019"
     inkscape:window-x="0"
     inkscape:window-y="32"
     inkscape:window-maximized="1"
     inkscape:current-layer="svg365">
    <inkscape:grid
       type="xygrid"
       id="grid1194" />
  </sodipodi:namedview>
  <defs
     id="defs57">
    <linearGradient
       id="linearGradient879"
       x1="10.583"
       x2="225.69"
       y1="-184.67999"
       y2="-184.67999"
       gradientUnits="userSpaceOnUse">
      <stop
         stop-color="#fafbfb"
         offset="0"
         id="stop2" />
      <stop
         stop-color="#fafbfb"
         stop-opacity="0"
         offset="1"
         id="stop4" />
    </linearGradient>
    <linearGradient
       id="linearGradient881"
       x1="520"
       x2="410"
       y1="-620"
       y2="-620"
       gradientUnits="userSpaceOnUse">
      <stop
         stop-color="#000000"
         offset="0"
         id="stop7" />
      <stop
         stop-color="#000000"
         stop-opacity="0"
         offset="1"
         id="stop9" />
    </linearGradient>
    <linearGradient
       id="linearGradient1099"
       x1="-722.59003"
       x2="-722.59003"
       y1="-283.01999"
       y2="-173.32001"
       gradientTransform="matrix(2.4489,0,0,2.4066,1896.2,280.49)"
       gradientUnits="userSpaceOnUse">
      <stop
         stop-color="#4285db"
         offset="0"
         id="stop12" />
      <stop
         stop-color="#47c8eb"
         offset="1"
         id="stop14" />
    </linearGradient>
    <linearGradient
       id="linearGradient1297"
       x1="-724.70001"
       x2="-724.70001"
       y1="-296.66"
       y2="-175.42999"
       gradientTransform="matrix(2.4489,0,0,2.4066,1896.2,280.49)"
       gradientUnits="userSpaceOnUse">
      <stop
         stop-color="#4caf50"
         offset="0"
         id="stop17" />
      <stop
         stop-color="#47ebb2"
         offset="1"
         id="stop19" />
    </linearGradient>
    <linearGradient
       id="linearGradient1321"
       x1="-720.62"
       x2="-720.62"
       y1="-280.07001"
       y2="-173.36"
       gradientTransform="matrix(2.4489,0,0,2.4066,1896.2,280.49)"
       gradientUnits="userSpaceOnUse">
      <stop
         stop-color="#616161"
         offset="0"
         id="stop22" />
      <stop
         stop-color="#a9a9a9"
         offset="1"
         id="stop24" />
    </linearGradient>
    <linearGradient
       id="linearGradient1345"
       x1="-722.09998"
       x2="-722.09998"
       y1="-286.39999"
       y2="-170.96001"
       gradientTransform="matrix(2.4489,0,0,2.4066,1896.2,280.49)"
       gradientUnits="userSpaceOnUse">
      <stop
         stop-color="#f57c00"
         offset="0"
         id="stop27" />
      <stop
         stop-color="#ffe433"
         offset="1"
         id="stop29" />
    </linearGradient>
    <linearGradient
       id="linearGradient1369"
       x1="-718.13"
       x2="-718.13"
       y1="-284"
       y2="-171.24001"
       gradientTransform="matrix(2.4489,0,0,2.4066,1896.2,280.49)"
       gradientUnits="userSpaceOnUse">
      <stop
         stop-color="#ec407a"
         offset="0"
         id="stop32" />
      <stop
         stop-color="#f76e6e"
         offset="1"
         id="stop34" />
    </linearGradient>
    <linearGradient
       id="linearGradient1393"
       x1="-724.03003"
       x2="-724.03003"
       y1="-283.01999"
       y2="-163.09"
       gradientTransform="matrix(2.4489,0,0,2.4066,1896.2,280.49)"
       gradientUnits="userSpaceOnUse">
      <stop
         stop-color="#ab47bc"
         offset="0"
         id="stop37" />
      <stop
         stop-color="#b991f3"
         offset="1"
         id="stop39" />
    </linearGradient>
    <linearGradient
       id="linearGradient1417"
       x1="-724.07001"
       x2="-724.07001"
       y1="-286.76999"
       y2="-170.2"
       gradientTransform="matrix(2.4489,0,0,2.4066,1896.2,280.49)"
       gradientUnits="userSpaceOnUse">
      <stop
         stop-color="#ed5c59"
         offset="0"
         id="stop42" />
      <stop
         stop-color="#f5ad3d"
         offset="1"
         id="stop44" />
    </linearGradient>
    <linearGradient
       id="linearGradient1441"
       x1="-723.67999"
       x2="-723.67999"
       y1="-280.07001"
       y2="-162.99001"
       gradientTransform="matrix(2.4489,0,0,2.4066,1896.2,280.49)"
       gradientUnits="userSpaceOnUse">
      <stop
         stop-color="#fbc02d"
         offset="0"
         id="stop47" />
      <stop
         stop-color="#f0ee05"
         offset="1"
         id="stop49" />
    </linearGradient>
    <linearGradient
       id="linearGradient1465"
       x1="-722.45001"
       x2="-722.45001"
       y1="-298.48999"
       y2="-164.61"
       gradientTransform="matrix(2.4489,0,0,2.4066,1896.2,280.49)"
       gradientUnits="userSpaceOnUse">
      <stop
         stop-color="#d9d9d9"
         offset="0"
         id="stop52" />
      <stop
         stop-color="#fafafa"
         offset="1"
         id="stop54" />
    </linearGradient>
    <linearGradient
       inkscape:collect="always"
       xlink:href="#linearGradient879"
       id="linearGradient1196"
       gradientUnits="userSpaceOnUse"
       x1="10.583"
       y1="-184.67999"
       x2="225.69"
       y2="-184.67999" />
    <linearGradient
       inkscape:collect="always"
       xlink:href="#linearGradient881"
       id="linearGradient1198"
       gradientUnits="userSpaceOnUse"
       x1="520"
       y1="-620"
       x2="410"
       y2="-620" />
    <linearGradient
       inkscape:collect="always"
       xlink:href="#linearGradient879"
       id="linearGradient1200"
       gradientUnits="userSpaceOnUse"
       x1="10.583"
       y1="-184.67999"
       x2="225.69"
       y2="-184.67999" />
    <linearGradient
       inkscape:collect="always"
       xlink:href="#linearGradient881"
       id="linearGradient1202"
       gradientUnits="userSpaceOnUse"
       x1="520"
       y1="-620"
       x2="410"
       y2="-620" />
    <linearGradient
       inkscape:collect="always"
       xlink:href="#linearGradient879"
       id="linearGradient1204"
       gradientUnits="userSpaceOnUse"
       x1="10.583"
       y1="-184.67999"
       x2="225.69"
       y2="-184.67999" />
    <linearGradient
       inkscape:collect="always"
       xlink:href="#linearGradient881"
       id="linearGradient1206"
       gradientUnits="userSpaceOnUse"
       x1="520"
       y1="-620"
       x2="410"
       y2="-620" />
    <linearGradient
       inkscape:collect="always"
       xlink:href="#linearGradient879"
       id="linearGradient1208"
       gradientUnits="userSpaceOnUse"
       x1="10.583"
       y1="-184.67999"
       x2="225.69"
       y2="-184.67999" />
    <linearGradient
       inkscape:collect="always"
       xlink:href="#linearGradient881"
       id="linearGradient1210"
       gradientUnits="userSpaceOnUse"
       x1="520"
       y1="-620"
       x2="410"
       y2="-620" />
    <linearGradient
       inkscape:collect="always"
       xlink:href="#linearGradient879"
       id="linearGradient1212"
       gradientUnits="userSpaceOnUse"
       x1="10.583"
       y1="-184.67999"
       x2="225.69"
       y2="-184.67999" />
    <linearGradient
       inkscape:collect="always"
       xlink:href="#linearGradient881"
       id="linearGradient1214"
       gradientUnits="userSpaceOnUse"
       x1="520"
       y1="-620"
       x2="410"
       y2="-620" />
    <linearGradient
       inkscape:collect="always"
       xlink:href="#linearGradient879"
       id="linearGradient1216"
       gradientUnits="userSpaceOnUse"
       x1="10.583"
       y1="-184.67999"
       x2="225.69"
       y2="-184.67999" />
    <linearGradient
       inkscape:collect="always"
       xlink:href="#linearGradient881"
       id="linearGradient1218"
       gradientUnits="userSpaceOnUse"
       x1="520"
       y1="-620"
       x2="410"
       y2="-620" />
    <linearGradient
       inkscape:collect="always"
       xlink:href="#linearGradient879"
       id="linearGradient1220"
       gradientUnits="userSpaceOnUse"
       x1="10.583"
       y1="-184.67999"
       x2="225.69"
       y2="-184.67999" />
    <linearGradient
       inkscape:collect="always"
       xlink:href="#linearGradient881"
       id="linearGradient1222"
       gradientUnits="userSpaceOnUse"
       x1="520"
       y1="-620"
       x2="410"
       y2="-620" />
    <linearGradient
       inkscape:collect="always"
       xlink:href="#linearGradient879"
       id="linearGradient1224"
       gradientUnits="userSpaceOnUse"
       x1="10.583"
       y1="-184.67999"
       x2="225.69"
       y2="-184.67999" />
    <linearGradient
       inkscape:collect="always"
       xlink:href="#linearGradient881"
       id="linearGradient1226"
       gradientUnits="userSpaceOnUse"
       x1="520"
       y1="-620"
       x2="410"
       y2="-620" />
    <linearGradient
       inkscape:collect="always"
       xlink:href="#linearGradient879"
       id="linearGradient1228"
       gradientUnits="userSpaceOnUse"
       x1="10.583"
       y1="-184.67999"
       x2="225.69"
       y2="-184.67999" />
    <linearGradient
       inkscape:collect="always"
       xlink:href="#linearGradient881"
       id="linearGradient1230"
       gradientUnits="userSpaceOnUse"
       x1="520"
       y1="-620"
       x2="410"
       y2="-620" />
    <linearGradient
       inkscape:collect="always"
       xlink:href="#linearGradient879"
       id="linearGradient1232"
       gradientUnits="userSpaceOnUse"
       x1="10.583"
       y1="-184.67999"
       x2="225.69"
       y2="-184.67999" />
    <linearGradient
       inkscape:collect="always"
       xlink:href="#linearGradient881"
       id="linearGradient1234"
       gradientUnits="userSpaceOnUse"
       x1="520"
       y1="-620"
       x2="410"
       y2="-620" />
    <linearGradient
       inkscape:collect="always"
       xlink:href="#linearGradient879"
       id="linearGradient1236"
       gradientUnits="userSpaceOnUse"
       x1="10.583"
       y1="-184.67999"
       x2="225.69"
       y2="-184.67999" />
    <linearGradient
       inkscape:collect="always"
       xlink:href="#linearGradient881"
       id="linearGradient1238"
       gradientUnits="userSpaceOnUse"
       x1="520"
       y1="-620"
       x2="410"
       y2="-620" />
    <linearGradient
       inkscape:collect="always"
       xlink:href="#linearGradient879"
       id="linearGradient1240"
       gradientUnits="userSpaceOnUse"
       x1="10.583"
       y1="-184.67999"
       x2="225.69"
       y2="-184.67999" />
    <linearGradient
       inkscape:collect="always"
       xlink:href="#linearGradient881"
       id="linearGradient1242"
       gradientUnits="userSpaceOnUse"
       x1="520"
       y1="-620"
       x2="410"
       y2="-620" />
    <linearGradient
       inkscape:collect="always"
       xlink:href="#linearGradient879"
       id="linearGradient1244"
       gradientUnits="userSpaceOnUse"
       x1="10.583"
       y1="-184.67999"
       x2="225.69"
       y2="-184.67999" />
    <linearGradient
       inkscape:collect="always"
       xlink:href="#linearGradient881"
       id="linearGradient1246"
       gradientUnits="userSpaceOnUse"
       x1="520"
       y1="-620"
       x2="410"
       y2="-620" />
    <linearGradient
       inkscape:collect="always"
       xlink:href="#linearGradient879"
       id="linearGradient1248"
       gradientUnits="userSpaceOnUse"
       x1="10.583"
       y1="-184.67999"
       x2="225.69"
       y2="-184.67999" />
    <linearGradient
       inkscape:collect="always"
       xlink:href="#linearGradient881"
       id="linearGradient1250"
       gradientUnits="userSpaceOnUse"
       x1="520"
       y1="-620"
       x2="410"
       y2="-620" />
    <linearGradient
       inkscape:collect="always"
       xlink:href="#linearGradient879"
       id="linearGradient1252"
       gradientUnits="userSpaceOnUse"
       x1="10.583"
       y1="-184.67999"
       x2="225.69"
       y2="-184.67999" />
    <linearGradient
       inkscape:collect="always"
       xlink:href="#linearGradient881"
       id="linearGradient1254"
       gradientUnits="userSpaceOnUse"
       x1="520"
       y1="-620"
       x2="410"
       y2="-620" />
    <linearGradient
       inkscape:collect="always"
       xlink:href="#linearGradient879"
       id="linearGradient1256"
       gradientUnits="userSpaceOnUse"
       x1="10.583"
       y1="-184.67999"
       x2="225.69"
       y2="-184.67999" />
    <linearGradient
       inkscape:collect="always"
       xlink:href="#linearGradient881"
       id="linearGradient1258"
       gradientUnits="userSpaceOnUse"
       x1="520"
       y1="-620"
       x2="410"
       y2="-620" />
    <linearGradient
       inkscape:collect="always"
       xlink:href="#linearGradient879"
       id="linearGradient1260"
       gradientUnits="userSpaceOnUse"
       x1="10.583"
       y1="-184.67999"
       x2="225.69"
       y2="-184.67999" />
    <linearGradient
       inkscape:collect="always"
       xlink:href="#linearGradient881"
       id="linearGradient1262"
       gradientUnits="userSpaceOnUse"
       x1="520"
       y1="-620"
       x2="410"
       y2="-620" />
    <linearGradient
       inkscape:collect="always"
       xlink:href="#linearGradient879"
       id="linearGradient1264"
       gradientUnits="userSpaceOnUse"
       x1="10.583"
       y1="-184.67999"
       x2="225.69"
       y2="-184.67999" />
    <linearGradient
       inkscape:collect="always"
       xlink:href="#linearGradient881"
       id="linearGradient1266"
       gradientUnits="userSpaceOnUse"
       x1="520"
       y1="-620"
       x2="410"
       y2="-620" />
  </defs>
  <g
     id="wallpaper-default-flat"
     transform="translate(142.87458,418.04167)">
    <rect
       x="-136.25999"
       y="-412.75"
       width="508"
       height="285.75"
       rx="0"
       ry="0"
       fill="#4285db"
       stroke-linecap="round"
       stroke-linejoin="round"
       stroke-width="0.3626"
       style="paint-order:stroke fill markers"
       id="rect59" />
    <path
       d="m 52.917,-158.75 127,-137.58 105.83,137.58 z"
       fill="#1a1a1a"
       id="path61" />
    <path
       d="M -136.26,-127 43.39,-242.36 225.69,-127 Z"
       fill="#ffffff"
       opacity="0.5"
       id="path63" />
    <path
       d="M 10.583,-127 43.391,-242.36 225.691,-127 Z"
       fill="#fafbfb"
       id="path65" />
    <path
       transform="scale(0.26458)"
       d="m 680,-1160 -160,170 v 510 h 885 z"
       fill="#b0b2b5"
       id="path67" />
    <path
       d="M 232.83,-127 179.913,-306.92 371.733,-127 Z"
       fill="#ffffff"
       id="path69" />
    <path
       d="M 10.583,-127 43.391,-242.36 225.691,-127 Z"
       fill="url(#linearGradient879)"
       id="path71"
       style="fill:url(#linearGradient1196)" />
    <path
       transform="scale(0.26458)"
       d="M 480,-716.04 V -480 h 40 v -210.72 z"
       fill="url(#linearGradient881)"
       opacity="0.35"
       id="path73"
       style="fill:url(#linearGradient1198)" />
  </g>
  <g
     id="wallpaper-green-flat"
     transform="translate(142.87458,736.86167)">
    <rect
       x="-136.25999"
       y="-412.75"
       width="508"
       height="285.75"
       rx="0"
       ry="0"
       fill="#4caf50"
       stroke-linecap="round"
       stroke-linejoin="round"
       stroke-width="0.3626"
       style="paint-order:stroke fill markers"
       id="rect76" />
    <path
       d="m 52.917,-158.75 127,-137.58 105.83,137.58 z"
       fill="#1a1a1a"
       id="path78" />
    <path
       d="M -136.26,-127 43.39,-242.36 225.69,-127 Z"
       fill="#ffffff"
       opacity="0.5"
       id="path80" />
    <path
       d="M 10.583,-127 43.391,-242.36 225.691,-127 Z"
       fill="#fafbfb"
       id="path82" />
    <path
       transform="scale(0.26458)"
       d="m 680,-1160 -160,170 v 510 h 885 z"
       fill="#b3b3b3"
       id="path84" />
    <path
       d="M 232.83,-127 179.913,-306.92 371.733,-127 Z"
       fill="#ffffff"
       id="path86" />
    <path
       d="M 10.583,-127 43.391,-242.36 225.691,-127 Z"
       fill="url(#linearGradient879)"
       id="path88"
       style="fill:url(#linearGradient1200)" />
    <path
       transform="scale(0.26458)"
       d="M 480,-716.04 V -480 h 40 v -210.72 z"
       fill="url(#linearGradient881)"
       opacity="0.35"
       id="path90"
       style="fill:url(#linearGradient1202)" />
  </g>
  <g
     id="wallpaper-grey-flat"
     transform="translate(142.87458,1055.6917)">
    <rect
       x="-136.25999"
       y="-412.75"
       width="508"
       height="285.75"
       rx="0"
       ry="0"
       fill="#616161"
       stroke-linecap="round"
       stroke-linejoin="round"
       stroke-width="0.3626"
       style="paint-order:stroke fill markers"
       id="rect93" />
    <path
       d="m 52.917,-158.75 127,-137.58 105.83,137.58 z"
       fill="#1a1a1a"
       id="path95" />
    <path
       d="M -136.26,-127 43.39,-242.36 225.69,-127 Z"
       fill="#ffffff"
       opacity="0.5"
       id="path97" />
    <path
       d="M 10.583,-127 43.391,-242.36 225.691,-127 Z"
       fill="#fafbfb"
       id="path99" />
    <path
       transform="scale(0.26458)"
       d="m 680,-1160 -160,170 v 510 h 885 z"
       fill="#b3b3b3"
       id="path101" />
    <path
       d="M 232.83,-127 179.913,-306.92 371.733,-127 Z"
       fill="#ffffff"
       id="path103" />
    <path
       d="M 10.583,-127 43.391,-242.36 225.691,-127 Z"
       fill="url(#linearGradient879)"
       id="path105"
       style="fill:url(#linearGradient1204)" />
    <path
       transform="scale(0.26458)"
       d="M 480,-716.04 V -480 h 40 v -210.72 z"
       fill="url(#linearGradient881)"
       opacity="0.35"
       id="path107"
       style="fill:url(#linearGradient1206)" />
  </g>
  <g
     id="wallpaper-orange-flat"
     transform="translate(142.87458,1374.4917)">
    <rect
       x="-136.25999"
       y="-412.75"
       width="508"
       height="285.75"
       rx="0"
       ry="0"
       fill="#f57c00"
       stroke-linecap="round"
       stroke-linejoin="round"
       stroke-width="0.3626"
       style="paint-order:stroke fill markers"
       id="rect110" />
    <path
       d="m 52.917,-158.75 127,-137.58 105.83,137.58 z"
       fill="#1a1a1a"
       id="path112" />
    <path
       d="M -136.26,-127 43.39,-242.36 225.69,-127 Z"
       fill="#ffffff"
       opacity="0.5"
       id="path114" />
    <path
       d="M 10.583,-127 43.391,-242.36 225.691,-127 Z"
       fill="#fafbfb"
       id="path116" />
    <path
       transform="scale(0.26458)"
       d="m 680,-1160 -160,170 v 510 h 885 z"
       fill="#b3b3b3"
       id="path118" />
    <path
       d="M 232.83,-127 179.913,-306.92 371.733,-127 Z"
       fill="#ffffff"
       id="path120" />
    <path
       d="M 10.583,-127 43.391,-242.36 225.691,-127 Z"
       fill="url(#linearGradient879)"
       id="path122"
       style="fill:url(#linearGradient1208)" />
    <path
       transform="scale(0.26458)"
       d="M 480,-716.04 V -480 h 40 v -210.72 z"
       fill="url(#linearGradient881)"
       opacity="0.35"
       id="path124"
       style="fill:url(#linearGradient1210)" />
  </g>
  <g
     id="wallpaper-pink-flat"
     transform="translate(142.87458,1693.2917)">
    <rect
       x="-136.25999"
       y="-412.75"
       width="508"
       height="285.75"
       rx="0"
       ry="0"
       fill="#ec407a"
       stroke-linecap="round"
       stroke-linejoin="round"
       stroke-width="0.3626"
       style="paint-order:stroke fill markers"
       id="rect127" />
    <path
       d="m 52.917,-158.75 127,-137.58 105.83,137.58 z"
       fill="#1a1a1a"
       id="path129" />
    <path
       d="M -136.26,-127 43.39,-242.36 225.69,-127 Z"
       fill="#ffffff"
       opacity="0.5"
       id="path131" />
    <path
       d="M 10.583,-127 43.391,-242.36 225.691,-127 Z"
       fill="#fafbfb"
       id="path133" />
    <path
       transform="scale(0.26458)"
       d="m 680,-1160 -160,170 v 510 h 885 z"
       fill="#b3b3b3"
       id="path135" />
    <path
       d="M 232.83,-127 179.913,-306.92 371.733,-127 Z"
       fill="#ffffff"
       id="path137" />
    <path
       d="M 10.583,-127 43.391,-242.36 225.691,-127 Z"
       fill="url(#linearGradient879)"
       id="path139"
       style="fill:url(#linearGradient1212)" />
    <path
       transform="scale(0.26458)"
       d="M 480,-716.04 V -480 h 40 v -210.72 z"
       fill="url(#linearGradient881)"
       opacity="0.35"
       id="path141"
       style="fill:url(#linearGradient1214)" />
  </g>
  <g
     id="wallpaper-purple-flat"
     transform="translate(142.87458,2012.1917)">
    <rect
       x="-136.25999"
       y="-412.75"
       width="508"
       height="285.75"
       rx="0"
       ry="0"
       fill="#ab47bc"
       stroke-linecap="round"
       stroke-linejoin="round"
       stroke-width="0.3626"
       style="paint-order:stroke fill markers"
       id="rect144" />
    <path
       d="m 52.917,-158.75 127,-137.58 105.83,137.58 z"
       fill="#1a1a1a"
       id="path146" />
    <path
       d="M -136.26,-127 43.39,-242.36 225.69,-127 Z"
       fill="#ffffff"
       opacity="0.5"
       id="path148" />
    <path
       d="M 10.583,-127 43.391,-242.36 225.691,-127 Z"
       fill="#fafbfb"
       id="path150" />
    <path
       transform="scale(0.26458)"
       d="m 680,-1160 -160,170 v 510 h 885 z"
       fill="#b3b3b3"
       id="path152" />
    <path
       d="M 232.83,-127 179.913,-306.92 371.733,-127 Z"
       fill="#ffffff"
       id="path154" />
    <path
       d="M 10.583,-127 43.391,-242.36 225.691,-127 Z"
       fill="url(#linearGradient879)"
       id="path156"
       style="fill:url(#linearGradient1216)" />
    <path
       transform="scale(0.26458)"
       d="M 480,-716.04 V -480 h 40 v -210.72 z"
       fill="url(#linearGradient881)"
       opacity="0.35"
       id="path158"
       style="fill:url(#linearGradient1218)" />
  </g>
  <g
     id="wallpaper-red-flat"
     transform="translate(142.87458,2330.9917)">
    <rect
       x="-136.25999"
       y="-412.75"
       width="508"
       height="285.75"
       rx="0"
       ry="0"
       fill="#e75a5a"
       stroke-linecap="round"
       stroke-linejoin="round"
       stroke-width="0.3626"
       style="paint-order:stroke fill markers"
       id="rect161" />
    <path
       d="m 52.917,-158.75 127,-137.58 105.83,137.58 z"
       fill="#1a1a1a"
       id="path163" />
    <path
       d="M -136.26,-127 43.39,-242.36 225.69,-127 Z"
       fill="#ffffff"
       opacity="0.5"
       id="path165" />
    <path
       d="M 10.583,-127 43.391,-242.36 225.691,-127 Z"
       fill="#fafbfb"
       id="path167" />
    <path
       transform="scale(0.26458)"
       d="m 680,-1160 -160,170 v 510 h 885 z"
       fill="#b3b3b3"
       id="path169" />
    <path
       d="M 232.83,-127 179.913,-306.92 371.733,-127 Z"
       fill="#ffffff"
       id="path171" />
    <path
       d="M 10.583,-127 43.391,-242.36 225.691,-127 Z"
       fill="url(#linearGradient879)"
       id="path173"
       style="fill:url(#linearGradient1220)" />
    <path
       transform="scale(0.26458)"
       d="M 480,-716.04 V -480 h 40 v -210.72 z"
       fill="url(#linearGradient881)"
       opacity="0.35"
       id="path175"
       style="fill:url(#linearGradient1222)" />
  </g>
  <g
     id="wallpaper-yellow-flat"
     transform="translate(142.87458,2649.7917)">
    <rect
       x="-136.25999"
       y="-412.75"
       width="508"
       height="285.75"
       rx="0"
       ry="0"
       fill="#fbc02d"
       stroke-linecap="round"
       stroke-linejoin="round"
       stroke-width="0.3626"
       style="paint-order:stroke fill markers"
       id="rect178" />
    <path
       d="m 52.917,-158.75 127,-137.58 105.83,137.58 z"
       fill="#1a1a1a"
       id="path180" />
    <path
       d="M -136.26,-127 43.39,-242.36 225.69,-127 Z"
       fill="#ffffff"
       opacity="0.5"
       id="path182" />
    <path
       d="M 10.583,-127 43.391,-242.36 225.691,-127 Z"
       fill="#fafbfb"
       id="path184" />
    <path
       transform="scale(0.26458)"
       d="m 680,-1160 -160,170 v 510 h 885 z"
       fill="#b3b3b3"
       id="path186" />
    <path
       d="M 232.83,-127 179.913,-306.92 371.733,-127 Z"
       fill="#ffffff"
       id="path188" />
    <path
       d="M 10.583,-127 43.391,-242.36 225.691,-127 Z"
       fill="url(#linearGradient879)"
       id="path190"
       style="fill:url(#linearGradient1224)" />
    <path
       transform="scale(0.26458)"
       d="M 480,-716.04 V -480 h 40 v -210.72 z"
       fill="url(#linearGradient881)"
       opacity="0.35"
       id="path192"
       style="fill:url(#linearGradient1226)" />
  </g>
  <g
     id="wallpaper-light-flat"
     transform="translate(142.87458,2968.5917)">
    <rect
       x="-136.25999"
       y="-412.75"
       width="508"
       height="285.75"
       rx="0"
       ry="0"
       fill="#e6e6e6"
       stroke-linecap="round"
       stroke-linejoin="round"
       stroke-width="0.3626"
       style="paint-order:stroke fill markers"
       id="rect195" />
    <path
       d="m 52.917,-158.75 127,-137.58 105.83,137.58 z"
       fill="#1a1a1a"
       id="path197" />
    <path
       d="M -136.26,-127 43.39,-242.36 225.69,-127 Z"
       fill="#ffffff"
       opacity="0.5"
       id="path199" />
    <path
       d="M 10.583,-127 43.391,-242.36 225.691,-127 Z"
       fill="#fafbfb"
       id="path201" />
    <path
       transform="scale(0.26458)"
       d="m 680,-1160 -160,170 v 510 h 885 z"
       fill="#cccccc"
       id="path203" />
    <path
       d="M 232.83,-127 179.913,-306.92 371.733,-127 Z"
       fill="#ffffff"
       id="path205" />
    <path
       d="M 10.583,-127 43.391,-242.36 225.691,-127 Z"
       fill="url(#linearGradient879)"
       id="path207"
       style="fill:url(#linearGradient1228)" />
    <path
       transform="scale(0.26458)"
       d="M 480,-716.04 V -480 h 40 v -210.72 z"
       fill="url(#linearGradient881)"
       opacity="0.35"
       id="path209"
       style="fill:url(#linearGradient1230)" />
  </g>
  <g
     id="wallpaper-default-gradient"
     transform="translate(666.48498,418.04167)">
    <rect
       x="-136.25999"
       y="-412.75"
       width="508"
       height="285.75"
       rx="0"
       ry="0"
       fill="url(#linearGradient1099)"
       stroke-linecap="round"
       stroke-linejoin="round"
       stroke-width="0.3626"
       style="fill:url(#linearGradient1099);paint-order:stroke fill markers"
       id="rect212" />
    <path
       d="m 52.917,-158.75 127,-137.58 105.83,137.58 z"
       fill="#1a1a1a"
       id="path214" />
    <path
       d="M -136.26,-127 43.39,-242.36 225.69,-127 Z"
       fill="#ffffff"
       opacity="0.75"
       id="path216" />
    <path
       d="M 10.583,-127 43.391,-242.36 225.691,-127 Z"
       fill="#fafbfb"
       id="path218" />
    <path
       transform="scale(0.26458)"
       d="m 680,-1160 -160,170 v 510 h 885 z"
       fill="#b0b2b5"
       id="path220" />
    <path
       d="M 232.83,-127 179.913,-306.92 371.733,-127 Z"
       fill="#ffffff"
       id="path222" />
    <path
       d="M 10.583,-127 43.391,-242.36 225.691,-127 Z"
       fill="url(#linearGradient879)"
       id="path224"
       style="fill:url(#linearGradient1232)" />
    <path
       transform="scale(0.26458)"
       d="M 480,-716.04 V -480 h 40 v -210.72 z"
       fill="url(#linearGradient881)"
       opacity="0.35"
       id="path226"
       style="fill:url(#linearGradient1234)" />
  </g>
  <g
     id="wallpaper-green-gradient"
     transform="translate(666.48498,736.86167)">
    <rect
       x="-136.25999"
       y="-412.75"
       width="508"
       height="285.75"
       rx="0"
       ry="0"
       fill="url(#linearGradient1297)"
       stroke-linecap="round"
       stroke-linejoin="round"
       stroke-width="0.3626"
       style="fill:url(#linearGradient1297);paint-order:stroke fill markers"
       id="rect229" />
    <path
       d="m 52.917,-158.75 127,-137.58 105.83,137.58 z"
       fill="#1a1a1a"
       id="path231" />
    <path
       d="M -136.26,-127 43.39,-242.36 225.69,-127 Z"
       fill="#ffffff"
       opacity="0.75"
       id="path233" />
    <path
       d="M 10.583,-127 43.391,-242.36 225.691,-127 Z"
       fill="#fafbfb"
       id="path235" />
    <path
       transform="scale(0.26458)"
       d="m 680,-1160 -160,170 v 510 h 885 z"
       fill="#b0b2b5"
       id="path237" />
    <path
       d="M 232.83,-127 179.913,-306.92 371.733,-127 Z"
       fill="#ffffff"
       id="path239" />
    <path
       d="M 10.583,-127 43.391,-242.36 225.691,-127 Z"
       fill="url(#linearGradient879)"
       id="path241"
       style="fill:url(#linearGradient1236)" />
    <path
       transform="scale(0.26458)"
       d="M 480,-716.04 V -480 h 40 v -210.72 z"
       fill="url(#linearGradient881)"
       opacity="0.35"
       id="path243"
       style="fill:url(#linearGradient1238)" />
  </g>
  <g
     id="wallpaper-grey-gradient"
     transform="translate(666.48498,1055.6917)">
    <rect
       x="-136.25999"
       y="-412.75"
       width="508"
       height="285.75"
       rx="0"
       ry="0"
       fill="url(#linearGradient1321)"
       stroke-linecap="round"
       stroke-linejoin="round"
       stroke-width="0.3626"
       style="fill:url(#linearGradient1321);paint-order:stroke fill markers"
       id="rect246" />
    <path
       d="m 52.917,-158.75 127,-137.58 105.83,137.58 z"
       fill="#1a1a1a"
       id="path248" />
    <path
       d="M -136.26,-127 43.39,-242.36 225.69,-127 Z"
       fill="#ffffff"
       opacity="0.75"
       id="path250" />
    <path
       d="M 10.583,-127 43.391,-242.36 225.691,-127 Z"
       fill="#fafbfb"
       id="path252" />
    <path
       transform="scale(0.26458)"
       d="m 680,-1160 -160,170 v 510 h 885 z"
       fill="#b0b2b5"
       id="path254" />
    <path
       d="M 232.83,-127 179.913,-306.92 371.733,-127 Z"
       fill="#ffffff"
       id="path256" />
    <path
       d="M 10.583,-127 43.391,-242.36 225.691,-127 Z"
       fill="url(#linearGradient879)"
       id="path258"
       style="fill:url(#linearGradient1240)" />
    <path
       transform="scale(0.26458)"
       d="M 480,-716.04 V -480 h 40 v -210.72 z"
       fill="url(#linearGradient881)"
       opacity="0.35"
       id="path260"
       style="fill:url(#linearGradient1242)" />
  </g>
  <g
     id="wallpaper-orange-gradient"
     transform="translate(666.48498,1374.4917)">
    <rect
       x="-136.25999"
       y="-412.75"
       width="508"
       height="285.75"
       rx="0"
       ry="0"
       fill="url(#linearGradient1345)"
       stroke-linecap="round"
       stroke-linejoin="round"
       stroke-width="0.3626"
       style="fill:url(#linearGradient1345);paint-order:stroke fill markers"
       id="rect263" />
    <path
       d="m 52.917,-158.75 127,-137.58 105.83,137.58 z"
       fill="#1a1a1a"
       id="path265" />
    <path
       d="M -136.26,-127 43.39,-242.36 225.69,-127 Z"
       fill="#ffffff"
       opacity="0.75"
       id="path267" />
    <path
       d="M 10.583,-127 43.391,-242.36 225.691,-127 Z"
       fill="#fafbfb"
       id="path269" />
    <path
       transform="scale(0.26458)"
       d="m 680,-1160 -160,170 v 510 h 885 z"
       fill="#b0b2b5"
       id="path271" />
    <path
       d="M 232.83,-127 179.913,-306.92 371.733,-127 Z"
       fill="#ffffff"
       id="path273" />
    <path
       d="M 10.583,-127 43.391,-242.36 225.691,-127 Z"
       fill="url(#linearGradient879)"
       id="path275"
       style="fill:url(#linearGradient1244)" />
    <path
       transform="scale(0.26458)"
       d="M 480,-716.04 V -480 h 40 v -210.72 z"
       fill="url(#linearGradient881)"
       opacity="0.35"
       id="path277"
       style="fill:url(#linearGradient1246)" />
  </g>
  <g
     id="wallpaper-pink-gradient"
     transform="translate(666.48498,1693.2917)">
    <rect
       x="-136.25999"
       y="-412.75"
       width="508"
       height="285.75"
       rx="0"
       ry="0"
       fill="url(#linearGradient1369)"
       stroke-linecap="round"
       stroke-linejoin="round"
       stroke-width="0.3626"
       style="fill:url(#linearGradient1369);paint-order:stroke fill markers"
       id="rect280" />
    <path
       d="m 52.917,-158.75 127,-137.58 105.83,137.58 z"
       fill="#1a1a1a"
       id="path282" />
    <path
       d="M -136.26,-127 43.39,-242.36 225.69,-127 Z"
       fill="#ffffff"
       opacity="0.75"
       id="path284" />
    <path
       d="M 10.583,-127 43.391,-242.36 225.691,-127 Z"
       fill="#fafbfb"
       id="path286" />
    <path
       transform="scale(0.26458)"
       d="m 680,-1160 -160,170 v 510 h 885 z"
       fill="#b0b2b5"
       id="path288" />
    <path
       d="M 232.83,-127 179.913,-306.92 371.733,-127 Z"
       fill="#ffffff"
       id="path290" />
    <path
       d="M 10.583,-127 43.391,-242.36 225.691,-127 Z"
       fill="url(#linearGradient879)"
       id="path292"
       style="fill:url(#linearGradient1248)" />
    <path
       transform="scale(0.26458)"
       d="M 480,-716.04 V -480 h 40 v -210.72 z"
       fill="url(#linearGradient881)"
       opacity="0.35"
       id="path294"
       style="fill:url(#linearGradient1250)" />
  </g>
  <g
     id="wallpaper-purple-gradient"
     transform="translate(666.48498,2012.1917)">
    <rect
       x="-136.25999"
       y="-412.75"
       width="508"
       height="285.75"
       rx="0"
       ry="0"
       fill="url(#linearGradient1393)"
       stroke-linecap="round"
       stroke-linejoin="round"
       stroke-width="0.3626"
       style="fill:url(#linearGradient1393);paint-order:stroke fill markers"
       id="rect297" />
    <path
       d="m 52.917,-158.75 127,-137.58 105.83,137.58 z"
       fill="#1a1a1a"
       id="path299" />
    <path
       d="M -136.26,-127 43.39,-242.36 225.69,-127 Z"
       fill="#ffffff"
       opacity="0.75"
       id="path301" />
    <path
       d="M 10.583,-127 43.391,-242.36 225.691,-127 Z"
       fill="#fafbfb"
       id="path303" />
    <path
       transform="scale(0.26458)"
       d="m 680,-1160 -160,170 v 510 h 885 z"
       fill="#b0b2b5"
       id="path305" />
    <path
       d="M 232.83,-127 179.913,-306.92 371.733,-127 Z"
       fill="#ffffff"
       id="path307" />
    <path
       d="M 10.583,-127 43.391,-242.36 225.691,-127 Z"
       fill="url(#linearGradient879)"
       id="path309"
       style="fill:url(#linearGradient1252)" />
    <path
       transform="scale(0.26458)"
       d="M 480,-716.04 V -480 h 40 v -210.72 z"
       fill="url(#linearGradient881)"
       opacity="0.35"
       id="path311"
       style="fill:url(#linearGradient1254)" />
  </g>
  <g
     id="wallpaper-red-gradient"
     transform="translate(666.48498,2330.9917)">
    <rect
       x="-136.25999"
       y="-412.75"
       width="508"
       height="285.75"
       rx="0"
       ry="0"
       fill="url(#linearGradient1417)"
       stroke-linecap="round"
       stroke-linejoin="round"
       stroke-width="0.3626"
       style="fill:url(#linearGradient1417);paint-order:stroke fill markers"
       id="rect314" />
    <path
       d="m 52.917,-158.75 127,-137.58 105.83,137.58 z"
       fill="#1a1a1a"
       id="path316" />
    <path
       d="M -136.26,-127 43.39,-242.36 225.69,-127 Z"
       fill="#ffffff"
       opacity="0.75"
       id="path318" />
    <path
       d="M 10.583,-127 43.391,-242.36 225.691,-127 Z"
       fill="#fafbfb"
       id="path320" />
    <path
       transform="scale(0.26458)"
       d="m 680,-1160 -160,170 v 510 h 885 z"
       fill="#b0b2b5"
       id="path322" />
    <path
       d="M 232.83,-127 179.913,-306.92 371.733,-127 Z"
       fill="#ffffff"
       id="path324" />
    <path
       d="M 10.583,-127 43.391,-242.36 225.691,-127 Z"
       fill="url(#linearGradient879)"
       id="path326"
       style="fill:url(#linearGradient1256)" />
    <path
       transform="scale(0.26458)"
       d="M 480,-716.04 V -480 h 40 v -210.72 z"
       fill="url(#linearGradient881)"
       opacity="0.35"
       id="path328"
       style="fill:url(#linearGradient1258)" />
  </g>
  <g
     id="wallpaper-yellow-gradient"
     transform="translate(666.48498,2649.7917)">
    <rect
       x="-136.25999"
       y="-412.75"
       width="508"
       height="285.75"
       rx="0"
       ry="0"
       fill="url(#linearGradient1441)"
       stroke-linecap="round"
       stroke-linejoin="round"
       stroke-width="0.3626"
       style="fill:url(#linearGradient1441);paint-order:stroke fill markers"
       id="rect331" />
    <path
       d="m 52.917,-158.75 127,-137.58 105.83,137.58 z"
       fill="#1a1a1a"
       id="path333" />
    <path
       d="M -136.26,-127 43.39,-242.36 225.69,-127 Z"
       fill="#ffffff"
       opacity="0.75"
       id="path335" />
    <path
       d="M 10.583,-127 43.391,-242.36 225.691,-127 Z"
       fill="#fafbfb"
       id="path337" />
    <path
       transform="scale(0.26458)"
       d="m 680,-1160 -160,170 v 510 h 885 z"
       fill="#b0b2b5"
       id="path339" />
    <path
       d="M 232.83,-127 179.913,-306.92 371.733,-127 Z"
       fill="#ffffff"
       id="path341" />
    <path
       d="M 10.583,-127 43.391,-242.36 225.691,-127 Z"
       fill="url(#linearGradient879)"
       id="path343"
       style="fill:url(#linearGradient1260)" />
    <path
       transform="scale(0.26458)"
       d="M 480,-716.04 V -480 h 40 v -210.72 z"
       fill="url(#linearGradient881)"
       opacity="0.35"
       id="path345"
       style="fill:url(#linearGradient1262)" />
  </g>
  <g
     id="wallpaper-light-gradient"
     transform="translate(666.48498,2968.5917)">
    <rect
       x="-136.25999"
       y="-412.75"
       width="508"
       height="285.75"
       rx="0"
       ry="0"
       fill="url(#linearGradient1465)"
       stroke-linecap="round"
       stroke-linejoin="round"
       stroke-width="0.3626"
       style="fill:url(#linearGradient1465);paint-order:stroke fill markers"
       id="rect348" />
    <path
       d="m 52.917,-158.75 127,-137.58 105.83,137.58 z"
       fill="#1a1a1a"
       id="path350" />
    <path
       d="M -136.26,-127 43.39,-242.36 225.69,-127 Z"
       fill="#ffffff"
       opacity="0.75"
       id="path352" />
    <path
       d="M 10.583,-127 43.391,-242.36 225.691,-127 Z"
       fill="#fafbfb"
       id="path354" />
    <path
       transform="scale(0.26458)"
       d="m 680,-1160 -160,170 v 510 h 885 z"
       fill="#b0b2b5"
       id="path356" />
    <path
       d="M 232.83,-127 179.913,-306.92 371.733,-127 Z"
       fill="#ffffff"
       id="path358" />
    <path
       d="M 10.583,-127 43.391,-242.36 225.691,-127 Z"
       fill="url(#linearGradient879)"
       id="path360"
       style="fill:url(#linearGradient1264)" />
    <path
       transform="scale(0.26458)"
       d="M 480,-716.04 V -480 h 40 v -210.72 z"
       fill="url(#linearGradient881)"
       opacity="0.35"
       id="path362"
       style="fill:url(#linearGradient1266)" />
  </g>
</svg>
