<?xml version="1.0" encoding="UTF-8" standalone="no"?>
<svg
   xmlns:dc="http://purl.org/dc/elements/1.1/"
   xmlns:cc="http://creativecommons.org/ns#"
   xmlns:rdf="http://www.w3.org/1999/02/22-rdf-syntax-ns#"
   xmlns:svg="http://www.w3.org/2000/svg"
   xmlns="http://www.w3.org/2000/svg"
   xmlns:sodipodi="http://sodipodi.sourceforge.net/DTD/sodipodi-0.dtd"
   xmlns:inkscape="http://www.inkscape.org/namespaces/inkscape"
   width="150"
   height="150"
   version="1.1"
   viewBox="0 0 39.687 39.688"
   id="svg120"
   sodipodi:docname="thumbnail.svg"
   inkscape:version="1.0.2 (e86c870879, 2021-01-15, custom)">
  <metadata
     id="metadata124">
    <rdf:RDF>
      <cc:Work
         rdf:about="">
        <dc:format>image/svg+xml</dc:format>
        <dc:type
           rdf:resource="http://purl.org/dc/dcmitype/StillImage" />
      </cc:Work>
    </rdf:RDF>
  </metadata>
  <sodipodi:namedview
     pagecolor="#ffffff"
     bordercolor="#666666"
     borderopacity="1"
     objecttolerance="10"
     gridtolerance="10"
     guidetolerance="10"
     inkscape:pageopacity="0"
     inkscape:pageshadow="2"
     inkscape:window-width="1366"
     inkscape:window-height="690"
     id="namedview122"
     showgrid="false"
     inkscape:snap-bbox="true"
     inkscape:bbox-nodes="true"
     inkscape:zoom="3.4133334"
     inkscape:cx="93.84334"
     inkscape:cy="78.411393"
     inkscape:window-x="0"
     inkscape:window-y="44"
     inkscape:window-maximized="1"
     inkscape:current-layer="svg120"
     inkscape:document-rotation="0"
     inkscape:snap-intersection-paths="true"
     inkscape:snap-smooth-nodes="true"
     inkscape:snap-midpoints="true">
    <inkscape:grid
       type="xygrid"
       id="grid1085" />
  </sodipodi:namedview>
  <defs
     id="defs21">
    <filter
       inkscape:collect="always"
       style="color-interpolation-filters:sRGB"
       id="filter930"
       x="-0.06975"
       width="1.1395"
       y="-0.23914286"
       height="1.4782857">
      <feGaussianBlur
         inkscape:collect="always"
         stdDeviation="2.79"
         id="feGaussianBlur932" />
    </filter>
    <clipPath
       clipPathUnits="userSpaceOnUse"
       id="clipPath938">
      <rect
         style="fill:#e6e6e6;stroke-width:1.64644;stroke-linecap:round;stroke-linejoin:round;stroke-miterlimit:2"
         id="rect940"
         width="100"
         height="31.999998"
         x="23"
         y="25" />
    </clipPath>
  </defs>
  <g
     id="thumbnail">
    <rect
       style="fill:#e6e6e6;stroke-width:0.435626;stroke-linecap:round;stroke-linejoin:round;stroke-miterlimit:2"
       id="rect1083"
       width="26.458666"
       height="8.466773"
       x="6.0849934"
       y="6.6146665" />
    <path
       id="path928"
       style="opacity:0.35;fill:#000000;stroke-width:2;stroke-linecap:round;stroke-linejoin:round;stroke-miterlimit:2;filter:url(#filter930)"
       d="M 23 29 L 23 57 L 119 57 L 119 31 C 119 29.892 118.108 29 117 29 L 23 29 z "
       transform="matrix(0.26458667,0,0,0.26458667,-5e-4,0)"
       clip-path="url(#clipPath938)" />
    <path
       id="rect891"
       style="opacity:1;fill:#f7f7f7;stroke-width:2;stroke-linecap:round;stroke-linejoin:round;stroke-miterlimit:2;fill-opacity:1"
       d="M 23 29 L 23 57 L 119 57 L 119 31 C 119 29.892 118.108 29 117 29 L 23 29 z "
       transform="matrix(0.26458667,0,0,0.26458667,-5e-4,0)" />
    <g
       style="fill:#808080"
       id="g908"
       transform="matrix(0.26458667,0,0,0.26458667,24.60606,8.2021867)">
      <path
         vector-effect="none"
         fill-rule="nonzero"
         d="m 12.808166,12 4.899218,4.899219 -0.808166,0.808165 L 12,12.808166 7.1007816,17.707384 6.2926158,16.899219 11.191834,12 6.2926163,7.1007821 7.1007815,6.2926171 12,11.191835 16.899218,6.2926164 17.707383,7.1007821 12.808166,12"
         id="path12"
         style="stroke-width:1.14148;fill:#000000;opacity:0.65" />
    </g>
    <g
       style="fill:#808080"
       id="g917"
       transform="matrix(0.26458667,0,0,0.26458667,18.520567,8.2021868)">
      <path
         vector-effect="none"
         fill-rule="evenodd"
         d="M 7,7 V 17 H 17 V 7 H 7 m 1,1 h 8 v 8 H 8 V 8"
         id="path12-3"
         style="stroke-width:1;fill:#000000;opacity:0.65" />
    </g>
    <g
       style="fill:#808080"
       id="g926"
       transform="matrix(0.26458667,0,0,0.26458667,12.435074,8.2021866)">
      <path
         vector-effect="none"
         fill-rule="evenodd"
         d="m 7,12 v 1 H 17 V 12 H 7"
         id="path12-6"
         style="stroke-width:1;fill:#000000;opacity:0.65" />
    </g>
  </g>
  <g
     id="thumbnail-dark"
     transform="translate(0,15.346026)">
    <rect
       style="fill:#e6e6e6;stroke-width:0.435626;stroke-linecap:round;stroke-linejoin:round;stroke-miterlimit:2"
       id="rect953"
       width="26.458666"
       height="8.466773"
       x="6.0849934"
       y="6.6146665" />
    <path
       id="path955"
       style="opacity:0.35;fill:#000000;stroke-width:2;stroke-linecap:round;stroke-linejoin:round;stroke-miterlimit:2;filter:url(#filter930)"
       d="m 23,29 v 28 h 96 V 31 c 0,-1.108 -0.892,-2 -2,-2 z"
       transform="matrix(0.26458667,0,0,0.26458667,-5e-4,0)"
       clip-path="url(#clipPath938)" />
    <path
       id="path957"
       style="opacity:1;fill:#202020;fill-opacity:1;stroke-width:2;stroke-linecap:round;stroke-linejoin:round;stroke-miterlimit:2"
       d="m 23,29 v 28 h 96 V 31 c 0,-1.108 -0.892,-2 -2,-2 z"
       transform="matrix(0.26458667,0,0,0.26458667,-5e-4,0)" />
    <g
       style="fill:#808080"
       id="g961"
       transform="matrix(0.26458667,0,0,0.26458667,24.60606,8.2021867)">
      <path
         vector-effect="none"
         fill-rule="nonzero"
         d="m 12.808166,12 4.899218,4.899219 -0.808166,0.808165 L 12,12.808166 7.1007816,17.707384 6.2926158,16.899219 11.191834,12 6.2926163,7.1007821 7.1007815,6.2926171 12,11.191835 16.899218,6.2926164 17.707383,7.1007821 12.808166,12"
         id="path959"
         style="stroke-width:1.14148;fill:#ffffff;opacity:0.75" />
    </g>
    <g
       style="fill:#808080"
       id="g965"
       transform="matrix(0.26458667,0,0,0.26458667,18.520567,8.2021868)">
      <path
         vector-effect="none"
         fill-rule="evenodd"
         d="M 7,7 V 17 H 17 V 7 H 7 m 1,1 h 8 v 8 H 8 V 8"
         id="path963"
         style="stroke-width:1;fill:#ffffff;opacity:0.75" />
    </g>
    <g
       style="fill:#808080"
       id="g969"
       transform="matrix(0.26458667,0,0,0.26458667,12.435074,8.2021866)">
      <path
         vector-effect="none"
         fill-rule="evenodd"
         d="m 7,12 v 1 H 17 V 12 H 7"
         id="path967"
         style="stroke-width:1;fill:#ffffff;opacity:0.75" />
    </g>
  </g>
</svg>
