<?xml version="1.0" encoding="UTF-8" standalone="no"?>
<!-- Created with Inkscape (http://www.inkscape.org/) -->

<svg
   width="64"
   height="64"
   viewBox="0 0 16.933333 16.933334"
   version="1.1"
   id="svg5"
   inkscape:version="1.1.2 (0a00cf5339, 2022-02-04)"
   sodipodi:docname="menu.svg"
   xmlns:inkscape="http://www.inkscape.org/namespaces/inkscape"
   xmlns:sodipodi="http://sodipodi.sourceforge.net/DTD/sodipodi-0.dtd"
   xmlns="http://www.w3.org/2000/svg"
   xmlns:svg="http://www.w3.org/2000/svg">
  <sodipodi:namedview
     id="namedview7"
     pagecolor="#333333"
     bordercolor="#666666"
     borderopacity="1.0"
     inkscape:pageshadow="2"
     inkscape:pageopacity="0"
     inkscape:pagecheckerboard="0"
     inkscape:document-units="mm"
     showgrid="false"
     units="px"
     width="120px"
     inkscape:zoom="11.550363"
     inkscape:cx="32.726244"
     inkscape:cy="13.765801"
     inkscape:window-width="1920"
     inkscape:window-height="1012"
     inkscape:window-x="0"
     inkscape:window-y="34"
     inkscape:window-maximized="1"
     inkscape:current-layer="layer1"
     showguides="true"
     inkscape:guide-bbox="true">
    <inkscape:grid
       type="xygrid"
       id="grid1045" />
  </sodipodi:namedview>
  <defs
     id="defs2">
    <filter
       inkscape:collect="always"
       style="color-interpolation-filters:sRGB"
       id="filter1049"
       x="-0.108"
       y="-0.108"
       width="1.216"
       height="1.216">
      <feGaussianBlur
         inkscape:collect="always"
         stdDeviation="0.61912499"
         id="feGaussianBlur1051" />
    </filter>
    <clipPath
       clipPathUnits="userSpaceOnUse"
       id="clipPath1633">
      <path
         id="path1635"
         style="opacity:0.95;fill:#ffffff;stroke-width:0.973839;stroke-linecap:round;stroke-linejoin:round"
         d="m 0.23047689,-3.96875 c -2.03320019,0 -3.67006019,1.63686 -3.67006019,3.67006023 V 16.173689 c 0,2.033201 1.63686,3.670061 3.67006019,3.670061 H 16.702856 c 2.033201,0 3.67006,-1.63686 3.67006,-3.670061 V -0.29868977 C 20.372916,-2.33189 18.736057,-3.96875 16.702856,-3.96875 Z M 3.707784,1.0583333 h 9.517765 c 1.174738,0 2.120284,0.9455461 2.120284,2.1202841 v 9.5177646 c 0,1.174738 -0.945546,2.120284 -2.120284,2.120284 H 3.707784 C 2.5330461,14.816666 1.5875,13.87112 1.5875,12.696382 V 3.1786174 c 0,-1.174738 0.9455461,-2.1202841 2.120284,-2.1202841 z" />
    </clipPath>
  </defs>
  <g
     inkscape:label="图层 1"
     inkscape:groupmode="layer"
     id="layer1">
    <rect
       style="fill:#000000;stroke-width:0.562662;stroke-linecap:round;stroke-linejoin:round;filter:url(#filter1049);opacity:0.25"
       id="rect1047"
       width="13.758333"
       height="13.758333"
       x="1.5875001"
       y="1.5875001"
       rx="2.1204655"
       ry="2.1204655"
       clip-path="url(#clipPath1633)" />
    <path
       id="path977"
       style="color:#000000;opacity:0.95;fill:#ffffff;fill-opacity:0.1;stroke-width:3.77953;stroke-linecap:round;stroke-linejoin:round;-inkscape-stroke:none;paint-order:stroke fill markers"
       d="M 14.011719 2.9960938 C 9.0350663 2.9960938 4.9980469 7.0409257 4.9980469 12.017578 L 4.9980469 47.982422 C 4.9980469 52.959073 9.0350663 57.003906 14.011719 57.003906 L 49.982422 57.003906 C 54.959077 57.003906 59.003906 52.959073 59.003906 47.982422 L 59.003906 12.017578 C 59.003906 7.0409257 54.959077 2.9960938 49.982422 2.9960938 L 14.011719 2.9960938 z M 14.013672 4 L 49.986328 4 C 54.426283 4 58 7.5737176 58 12.013672 L 58 47.986328 C 58 52.426283 54.426283 56 49.986328 56 L 14.013672 56 C 9.5737176 56 6 52.426283 6 47.986328 L 6 12.013672 C 6 7.5737176 9.5737176 4 14.013672 4 z "
       transform="scale(0.26458333)" />
    <path
       style="color:#000000;opacity:0.97;fill:#202020;stroke-width:0.529167;stroke-linecap:round;stroke-linejoin:round;-inkscape-stroke:none;paint-order:stroke fill markers"
       d="m 3.7079656,1.0583333 h 9.5174024 c 1.174738,0 2.120465,0.9457276 2.120465,2.1204655 v 9.5174022 c 0,1.174738 -0.945727,2.120465 -2.120465,2.120465 H 3.7079656 c -1.1747379,0 -2.1204655,-0.945727 -2.1204655,-2.120465 V 3.1787988 c 0,-1.1747379 0.9457276,-2.1204655 2.1204655,-2.1204655 z"
       id="path979" />
  </g>
</svg>
