<?xml version="1.0" encoding="UTF-8" standalone="no"?>
<!-- Created with Inkscape (http://www.inkscape.org/) -->

<svg
   width="116"
   height="116"
   viewBox="0 0 30.691666 30.691668"
   version="1.1"
   id="svg5"
   inkscape:version="1.1.1 (3bf5ae0d25, 2021-09-20, custom)"
   sodipodi:docname="menu.svg"
   xmlns:inkscape="http://www.inkscape.org/namespaces/inkscape"
   xmlns:sodipodi="http://sodipodi.sourceforge.net/DTD/sodipodi-0.dtd"
   xmlns="http://www.w3.org/2000/svg"
   xmlns:svg="http://www.w3.org/2000/svg">
  <sodipodi:namedview
     id="namedview7"
     pagecolor="#bfbfbf"
     bordercolor="#666666"
     borderopacity="1.0"
     inkscape:pageshadow="2"
     inkscape:pageopacity="0"
     inkscape:pagecheckerboard="0"
     inkscape:document-units="mm"
     showgrid="false"
     units="px"
     width="120px"
     inkscape:zoom="4.08367"
     inkscape:cx="23.998021"
     inkscape:cy="55.097498"
     inkscape:window-width="1920"
     inkscape:window-height="1012"
     inkscape:window-x="0"
     inkscape:window-y="34"
     inkscape:window-maximized="1"
     inkscape:current-layer="layer1">
    <inkscape:grid
       type="xygrid"
       id="grid1045" />
  </sodipodi:namedview>
  <defs
     id="defs2">
    <filter
       inkscape:collect="always"
       style="color-interpolation-filters:sRGB"
       id="filter1673"
       x="-0.052920001"
       y="-0.052920001"
       width="1.10584"
       height="1.10584">
      <feGaussianBlur
         inkscape:collect="always"
         stdDeviation="0.60674249"
         id="feGaussianBlur1675" />
    </filter>
  </defs>
  <g
     inkscape:label="图层 1"
     inkscape:groupmode="layer"
     id="layer1">
    <rect
       style="opacity:0.25;fill:#000000;stroke:none;stroke-width:0.529167;stroke-linecap:round;stroke-linejoin:round;stroke-miterlimit:4;stroke-dasharray:none;stroke-opacity:0.15;paint-order:stroke fill markers;filter:url(#filter1673)"
       id="rect1555"
       width="27.516666"
       height="27.516666"
       x="1.5875001"
       y="1.5875001"
       rx="2.1166661"
       ry="2.1166661" />
    <path
       id="rect847"
       style="opacity:0.1;fill:#000000;fill-opacity:1;stroke:none;stroke-width:2.03846;stroke-linecap:round;stroke-linejoin:round;stroke-miterlimit:4;stroke-dasharray:none;stroke-opacity:0.15;paint-order:stroke fill markers"
       d="M 14 3 C 9.0140007 3 5 7.0140007 5 12 L 5 100 C 5 104.986 9.0140007 109 14 109 L 102 109 C 106.986 109 111 104.986 111 100 L 111 12 C 111 7.0140007 106.986 3 102 3 L 14 3 z M 14 4 L 102 4 C 106.432 4 110 7.5680012 110 12 L 110 100 C 110 104.432 106.432 108 102 108 L 14 108 C 9.5680012 108 6 104.432 6 100 L 6 12 C 6 7.5680012 9.5680012 4 14 4 z "
       transform="scale(0.26458333)" />
    <rect
       style="opacity:1;fill:#ffffff;stroke:none;stroke-width:0.529167;stroke-linecap:round;stroke-linejoin:round;stroke-miterlimit:4;stroke-dasharray:none;stroke-opacity:0.15;paint-order:stroke fill markers;fill-opacity:1"
       id="rect846"
       width="27.516666"
       height="27.516666"
       x="1.5875001"
       y="1.0583333"
       rx="2.1166661"
       ry="2.1166661" />
    <path
       id="path2276"
       style="color:#000000;fill:#ffffff;fill-opacity:0.988395;stroke-width:3.77953;stroke-linecap:round;stroke-linejoin:round;-inkscape-stroke:none;paint-order:stroke markers fill"
       d="M 14.003906 4.0019531 C 9.5892094 4.0019531 6.0019531 7.5892091 6.0019531 12.003906 L 6.0019531 100.00195 C 6.0019531 104.41665 9.5892094 107.99609 14.003906 107.99609 L 102.00391 107.99609 C 106.4186 107.99609 109.99805 104.41665 109.99805 100.00195 L 109.99805 12.003906 C 109.99805 7.5892091 106.4186 4.0019531 102.00391 4.0019531 L 14.003906 4.0019531 z M 14 5 L 102 5 C 105.878 5 109 8.1220018 109 12 L 109 100 C 109 103.878 105.878 107 102 107 L 14 107 C 10.122002 107 7 103.878 7 100 L 7 12 C 7 8.1220018 10.122002 5 14 5 z "
       transform="scale(0.26458333)" />
  </g>
</svg>
